<mxfile host="Electron" agent="Mozilla/5.0 (X11; Linux x86_64) AppleWebKit/537.36 (KHTML, like Gecko) draw.io/26.1.1 Chrome/132.0.6834.210 Electron/34.3.3 Safari/537.36" version="26.1.1">
  <diagram name="Page-1" id="yljEeoYWbGGZ5QbAB9Ge">
    <mxGraphModel dx="1050" dy="623" grid="1" gridSize="10" guides="1" tooltips="1" connect="1" arrows="1" fold="1" page="1" pageScale="1" pageWidth="850" pageHeight="1100" math="0" shadow="0">
      <root>
        <mxCell id="0" />
        <mxCell id="1" parent="0" />
        <mxCell id="fakd-Xu31UxTlEahAAD4-51" value="ETL" style="rounded=0;whiteSpace=wrap;html=1;strokeColor=none;fillColor=light-dark(#B3B3B3,var(--ge-dark-color, #121212));" parent="1" vertex="1">
          <mxGeometry x="425" y="374.34000000000003" width="70" height="37.73" as="geometry" />
        </mxCell>
        <mxCell id="fakd-Xu31UxTlEahAAD4-47" value="" style="group" parent="1" connectable="0" vertex="1">
          <mxGeometry x="335.2" y="434.14" width="88.60000000000002" height="51.73000000000002" as="geometry" />
        </mxCell>
        <mxCell id="fakd-Xu31UxTlEahAAD4-40" value="" style="shape=image;verticalLabelPosition=bottom;labelBackgroundColor=default;verticalAlign=top;aspect=fixed;imageAspect=0;image=data:image/jpeg,/9j/4AAQSkZJRgABAQEBLAEsAAD/2wBDAAMCAgMCAgMDAwMEAwMEBQgFBQQEBQoHBwYIDAoMDAsKCwsNDhIQDQ4RDgsLEBYQERMUFRUVDA8XGBYUGBIUFRT/wgALCABeAKEBAREA/8QAHQABAAIDAQADAAAAAAAAAAAAAAcIBAUGAwECCf/aAAgBAQAAAAG1I1+o6dxHAY3WSRl6nF6ADSVr2e3jDgo8G1lmStjyEySsHB9ZsIaor5ATrd9GcmBXjm/rXbQgFguo+bF74q7MvewpRYATTevCqXbHYBAFKgBKt/wIUj/m69ACRZlzbG7Ar90cvfX87o+Aev6HSDoa0Wqy2n3BVSvHOg9ZRvdsGuzPUIX+ZSqxAuhZUs2m66r9vQCvFhxz2N0nsQ/3vRgAAAf/xAAmEAACAgIBBAICAwEAAAAAAAAEBQMGAgcAARAgMBQWFTYXJSdA/9oACAEBAAEFAvA1gKtijtCaXPszuyJPkTuVDBP/ADUk4u2bXWPBS4DoOHNwVnBbCrOn83DoJAETe7Fd5wdNZFyS6UT9YiD3GqW9gvrmx9fBY1LTFE7WfMwFWmhiYitJK84JQrjrnpUNiL7X5WemA23MAAdWHzY9561QOWXOeXz1vfpUBXY3Xigx742TbUQxPy9lHc+63Gp5PXEz9v6UmzHWKP8A07keybBWCkjwOwr++wTmdpslUpi+pi82+d8SnerUR3US5cMCgYDWKtG62dLzcGQHjur9W9Wrv3vztu0V9ez+PsC3csVBteCj1UusNrCZ9RvqvizaDBKwAPHaB979dC8DqXroOrY8yx6Z43erS1V36Ios55aLW/rFd46RBWAL+x1C4EKiOF7fhwfyPfbFoFZ8dV5jXpvKKLOeVVCXruxgHjtA+x64ZoLFFhBF47NuH1xTrij9KwAzVCORbBpcmDqzQsU3XsMLMbOi1U7ccqlAWVTF0lEfr6wxm1pa/ThUWbbZfgTXVRs/1NJyGGMaLvsypSWhNXMDY0X/AE//xABJEAABAwEFAwgFCAMRAAAAAAABAgMEEQAFEiExFEFREBMgIjJhcYEGMEJSkRUzcqGxwdHhIyQ0NUBDYnSCg5KTlKKys8LS8fT/2gAIAQEABj8C6AclyWYrZOELeWECvDOyUIvaCtajQJTJQST8eUpk3mwFhRQUNnnFJI4hNaWUhCJkhI/hG2hhPxINv2W8P7NH/OzSdv2ZxfsSEFGHxV2frsl6M83IZV2XGlYknz5EbZNjxMfZ590Ir8bJZjXlDkPK7LbT6VKPlX1BlT3xHYBw1OdTwA32eh+jkNUVhPbeqMdMxmo5J8s8sjYyL7vZ2Q+vthjM13ddWuXdZYbmTkOU6qlKQQD4YbNQ0Xg3eMDtbOVbt4w5ls51y179LFMiUWY5y2eP1G92vHTfXoiTCkORnh7TZ130PEZaWagocZjPqOBUpFEKWKU1OSd5qKeVtovO9HZTrwC8UUilTqcRri8crKEadLae3KdwrT8AB9tlOR3vlO60ezm4hKRXVOqOPVy77JY/Y7wNf1ZZrUD3Vb/t16UMzlPARirClpQAVWla5d1mokRpLEdoYUITu5ER4lFXjIBwk0PNJ94j7PA8KWW44tTjiziUtRqSePqGrtmKx3Y8ugKjTZyd/wBHj8fHkZvcJcjy23Q+eZVRLigQakU7t1OkIVxsC8pRVg5zMoxV0SBmvfp3a22hpnZ23Mw1hZTh8l9b42rfl3bXG7RcwgU3AY0dUZ8RW0q8H8nH1Vp7o0A8hT1Ua6buu/aprKMAeCS4cA06gG7LPut/5rNR/SO7MTenOpTgWrSpB7CqA6CnjZEyC7zrSsjxSeBHHoJ9F7rC0ttgKkbkmoBqo+6AR58crBMdAclFNHZSh1l/gO7kW1gxbS8hqtez7df8Hq2msOLaWVtV93LH/s5Fx5LKH2F9ptwVBs3flzlartxddFewCfm1fxTuP30JjS2woNvtpdSFa0Ir0ov8sT/kX6u7P6T/AEleocixht89BKVISaIbPefuHA6Wxqc+RYx66Ri5ihGVMqud+eX1WfkTr1TeEeOOeLRlOL01IChTIV9W65dT6YjkYVMgulGGuVBTPPO20sX1tbqNGdqUvFu0cGH42ED0phFg5Dn0N0OtCojRQ708Mq2alxHUvx3RiQtO/oD0duNK1Xo9RLjqciio0T309rd9jcl2kq9MPWePZR9D8dfCtOQgioOoNnGMCtjcOKO4faTw8Rp/36lDbaFOOLOFKEipJ4WYjLH6yv8ASv8A0zu8sh5chizmA80cxxSeIO63tzvR2UvzB+5f1KA/qsyWVY2XkBxCqUqDmOXb9jY23TaObGPSmvhl0G7ghs7bLS8CpaKnAvTAmmqs6fnolq8Iq4yldknMK8CMj00NtoU44s4UoSKknhaBMvi6yUEEpBNctKpoaYhwPHdkbNS4jqX47oxIWnfyrjy2ESGFaoWK2Q22hLbaBhShIoAOHS2WM4BeMoYU0VRTaN6/uH5W2mWlKryfFTl80n3Px/KxjTY7clk+y4NN1RwOeti5c8kSW6fMSDhX5K0O/hY7dBfjDFgxOIIST3HQ+XKlmOyt95XZbbTiUfKyXHmhdzBPak5LpXOiNfjSwW2naZu+U8BiGVDh90a/HU2chzGw42sZGmaD7yeBs/cl4LxwJCk0fNUpTwcFcqbleGvV9U5el5tUu+MccchdQrD2AM6j3uFa8eip6RdkN95XaccYSpR86W/ca7/7qj8LIaaQlppAolCBQAdBtURvnJ8ZdW01piSclDM04H+b32govEUmpaCXevjzHE8eP76//8QAJRABAQACAgAGAwEBAQAAAAAAAREhMQBBECBRYXGBMKHBkUCx/9oACAEBAAE/IfJXO0ZhckZg49uA3g4BoDZ8VDNM2IMo9w5oG+b8P7wPDEsAH96SUa4oMODCxgw5E+vBMMVOC7lF2f7yk08DJWCnAv1+ABsYlJoFVtgaF0PAJFMBcnayMorrwqxvqHFncGk/OMujLJTMKBS9U+Tjo0EybqXQYcMHRBaA20EoFvdnFZPLC2+jFINUFVGZOZpCFADUrVMTEka5hApmMF3RI7bvGA6Y2zmsuPZyKbuUGlVxGVdKuLQyPrcsAxzMYYQvmbrJpk1pmOk286/ISH9VqrlVXwARucGr1itAktLkfMVUs1S7V7/BMCB+lquCmjrIzTxQN5sKClty2VXLfNPM4zBQ3BhUGw8Hw0t/poftxGvsqM0F8SxPhTkmMDyCaYWAvcz+JA70MZINkzSnYb4dO9nvFDr8oCUcJIqDg++sP6JRHyPVBrbBl/3K0ufVUvtVD3ww9C1z4IMA/gwX5On3+MjENpmGT36ffgH5YDnUw+4P1ySJy5kXbdS6ZcOAuzygRAYuY/8ATvlqzlgoOvLXsyCrlHqS3pFsZj3uHRLXABiVIt2WXX4yNvVasIWgakg1yX9z2zLEcFfhjM4UXAuxq0pR6corHX5CQ/iNEciI+R1sYQSRnSQuh7uedfIZCuwOsYvLOi8ABjQFE5lUg/HuvdrvTIPwnmKqWYANq9cxefXmXBTAqMcu/BNWUcemWV8fDheG3+pL/AD26CcZCaUjUjkw9+IazIf+BN2+mNeRn1OLGA2qRkLI8QdjYYpamFLHF855iqlmADavXARSZQsmop9TZDr8hIfxGiOREfEs26N8no+iZOHmKKGIANAdeY1QOklTDkfgzUtnIi2XJlgPr6jvGcmlt9mo0bgoIlw8EYExYQwBne2ON74PAmSn69s2m+N9204SsGXA8LIZa6D1AlmfGc3li9FEuIey4ZdGBxHJMJlQRGNY8H4+fUMTAvqd234Zi403AndrxgHlSGLo5hVTgPBEZOBE7QBgPJogNmFpAaq3ocd374IS9qAdsrl3/wBX/9oACAEBAAAAEP8AT/8AJ9/2/wB/b/8AOX/t+/8A/wDf/f8Af9P/AP8A7+f3/wDzn/8A/wD/AP/EACEQAQEAAwACAwADAQAAAAAAAAERACExEEEgMFFAYaHw/9oACAEBAAE/EPgR4TOYAQpe1ifTi2TmyAJaKAG1fL01NuI5NCOok7rHxgFxQaTgVPaHpFzo7yzEsFITzqxUBVDOzUCYWrBCOlHTwTT2nmL5zZLI/c79QIhaoIQ0J4fQMSE+/QVAoEQiBFwNmtCCuFxADic03qAJMsKkKBFYW0KNavMoUOghSj3zHfGRMorrOcRUNsZBCNRFTQM+MZILJ/ezSGJQwDb++jFZjFLeFHhyd6McboukhGj1TBjoZQSCjuR2izjKGgVXEoSgNmzXw/uJmpC93/E5vkVSVQS3Q2WIaAwLsKqqqCJQCquH8n0ZE1VCkUILFH6s1ysqCqVVV+jgx1kdbE0aFReVLi3lvTo0KzcfiFAVYGFD/wA9bGupRIVTDaErrl1cx/G/pzWxg9KG0wTIZowYKGOACYFaLtpVfpIYE3anowlRvm+Efg0ig1kgERCkatkhE8XN2DHSIIPLzA3DBWDKIaYWwFEJjo2jwDyOjXi9F/QSBHZE67bqP1VZq9Aok2UTrTbqOEioZEFASgD0QkQcexgraiomgAsqMoJ9ew9oACIKWxe/yfFpUrLhQXBQagGgZTqIVsZQv3KQhOfiqN7jIhRRoi+odasEe0yXQYQx/wBgjowStbacHlLh4TpRSPRQwaAyLsIiIIAIAAiHkyLssqbClEbTbiUjnQ4vxHpIawGPP8USIiOkT1ndRvHRZrUIsUip+gH6s1wsqAAFVAy3ltkfYljuEyF+C/4qGtIXo1FFoBh1viB/jf78RlxVSIeFKAwCXYPkD241gRmg0SNZSgDyPRcTlW/cI/SnKw/uHBVg0yMLKfMH6s1wsqAAFVAw+PV7K/LquihhZoDIuwiIggAgACIeIJRHKxCmxtiTYjvAfqzXCwAAAAAD5DNJTOA9wK3erAlAUqMKP73IMCBlWSCS/wBbMKakHAN0QFCEEt1JDXcNc/KC2GOyAAopvyxCgtiQrBDDQL6yUr3Iq4GshAVE4IAJokIR2MKiEgY+lFYqQOpZURFFW1/OYY7EQU4aPqss5eOWBBhusEt+CY6S+ARqACvAPXjCNcLwkHADQBD4StQdiOWfsT0qwWY2uOXLcARqhF/J/9k=;" parent="fakd-Xu31UxTlEahAAD4-47" vertex="1">
          <mxGeometry width="88.6" height="51.73" as="geometry" />
        </mxCell>
        <mxCell id="fakd-Xu31UxTlEahAAD4-42" value="&lt;font style=&quot;color: light-dark(rgb(255, 255, 255), rgb(255, 255, 255));&quot;&gt;Crawler&lt;/font&gt;" style="text;html=1;align=center;verticalAlign=middle;whiteSpace=wrap;rounded=0;shadow=0;" parent="fakd-Xu31UxTlEahAAD4-47" vertex="1">
          <mxGeometry x="14.300000000000011" y="8" width="60" height="30" as="geometry" />
        </mxCell>
        <mxCell id="fakd-Xu31UxTlEahAAD4-1" value="" style="shape=image;verticalLabelPosition=bottom;labelBackgroundColor=default;verticalAlign=top;aspect=fixed;imageAspect=0;editableCssRules=.*;image=data:image/svg+xml,PHN2ZyB4bWxucz0iaHR0cDovL3d3dy53My5vcmcvMjAwMC9zdmciIHhtbDpzcGFjZT0icHJlc2VydmUiIHZlcnNpb249IjEuMSIgaGVpZ2h0PSIxMjkuMjc1ODc2MjkzOTQ1MzIiIHdpZHRoPSIzMjguNjY5OTM0NTIxNDg0NCIgaWQ9ImxvZ29JTkUiIHZpZXdCb3g9Ii0yLjEzNzkgLTIuMTM3OTYzNDE5MzQyMDQxIDMyOC42Njk5MzQ1MjE0ODQ0IDEyOS4yNzU4NzYyOTM5NDUzMiI+PHBhdGggZD0ibTMuMDc4NCAxMjQuNjZ2LTE2LjQxOWgtMS40NzJ2MTYuNDE5em01Ljc2MDktNi41NDQ5YzAtMi4wMzgyIDEuMDE5MS0zLjkxNzkgMy4yNjExLTMuOTE3OSAxLjg1NyAwIDIuOTg5NCAxLjE1NSAyLjk4OTQgMy4xMjUydjcuMzM3NWgxLjM1ODh2LTcuMTExYzAtMS4zMTM1LTAuMjk0NDEtNC41OTczLTQuMDA4NC00LjU5NzMtMS40NzIgMC0yLjc2MjkgMC42NTY3NS0zLjU1NTUgMi4wNjA4bC0wLjA0NTI5My0wLjA0NTMtMC4wNjc5NC0xLjY3NThoLTEuNDA0MWMwLjA0NTI5MyAwLjc2OTk4IDAuMTEzMjMgMS42NzU4IDAuMTEzMjMgMi41NTkxdjguODA5NWgxLjM1ODh6bTExLjAzOC0xLjk5MjljMCAyLjEwNjEgMS44MTE3IDIuNjI3IDMuNjAwOCAzLjA1NzMgMS44MTE3IDAuNDA3NjQgMy42MDA4IDAuNjc5NCAzLjYwMDggMi4zMSAwIDEuNTg1My0xLjUxNzMgMi4yNjQ3LTIuOTY2NyAyLjI2NDctMS41NCAwLTMuMDM0Ni0wLjQ5ODIzLTMuMTQ3OS0yLjE5NjdoLTEuNDcyYzAuMDQ1MjkgMi41MTM4IDIuMzEgMy40NDIzIDQuMjgwMiAzLjQ0MjMgMi40MDA1IDAgNC43Nzg0LTEuMTU1IDQuNzc4NC0zLjcxNCAwLTEuMjIyOS0wLjc0NzM0LTIuMjQyLTEuOTI1LTIuNjQ5Ni0zLjA3OTktMS4wODctNS4yNzY3LTAuOTI4NTItNS4yNzY3LTIuNjA0NCAwLTEuMzM2MiAxLjI5MDktMS44MzQ0IDIuNTU5MS0xLjgzNDQgMS40MDQxIDAgMi42NzIzIDAuNDc1NTggMi44MDgyIDEuOTAyM2gxLjQ3MmMtMC4xODExNy0yLjQwMDUtMS45OTI5LTMuMTQ3OS00LjE0NDMtMy4xNDc5LTEuOTkyOSAwLTQuMTY3IDAuODE1MjgtNC4xNjcgMy4xNzA1em0xMi44NzIgNS41MDMxYzAgMS41NC0wLjE1ODUzIDMuMzc0MyAyLjcxNzYgMy4zNzQzIDAuNDUyOTMgMCAwLjk1MTE2LTAuMDkwNiAxLjM4MTQtMC4yMDM4MnYtMS4xNzc2Yy0wLjM2MjM0IDAuMTEzMjMtMC43Njk5OCAwLjEzNTg4LTEuMTc3NiAwLjEzNTg4LTEuMDQxNyAwLTEuNTg1My0wLjU2NjE3LTEuNTYyNi0xLjYwNzl2LTcuNjA5M2gyLjU4MTd2LTEuMjQ1NmgtMi41ODE3di0zLjAxMmwtMS4zNTg4IDAuNTg4ODF2Mi40MjMyaC0yLjI2NDd2MS4yNDU2aDIuMjY0N3ptNi43OC04LjMzNHYxMS4zNjloMS4zNTg4di0xMS4zNjl6bTEuNDcyLTQuOTgyMmgtMS41ODUzdjEuNjk4NWgxLjU4NTN6bTQuNjk2NSAxMy4zMTZjMCAxLjU0LTAuMTU4NTMgMy4zNzQzIDIuNzE3NiAzLjM3NDMgMC40NTI5MyAwIDAuOTUxMTYtMC4wOTA2IDEuMzgxNC0wLjIwMzgydi0xLjE3NzZjLTAuMzYyMzQgMC4xMTMyMy0wLjc2OTk4IDAuMTM1ODgtMS4xNzc2IDAuMTM1ODgtMS4wNDE3IDAtMS41ODUzLTAuNTY2MTctMS41NjI2LTEuNjA3OXYtNy42MDkzaDIuNTgxN3YtMS4yNDU2aC0yLjU4MTd2LTMuMDEybC0xLjM1ODggMC41ODg4MXYyLjQyMzJoLTIuMjY0N3YxLjI0NTZoMi4yNjQ3em0xMy44LTEuNzg5MWMwIDIuMDM4Mi0xLjAxOTEgMy45MTc5LTMuMjYxMSAzLjkxNzktMS44NTcgMC0yLjk4OTQtMS4xNTUtMi45ODk0LTMuMTI1MnYtNy4zMzc1aC0xLjM1ODh2Ny4xMTFjMCAxLjMxMzUgMC4yOTQ0MSA0LjU5NzMgNC4wMDg0IDQuNTk3MyAxLjQ3MiAwIDIuNzYyOS0wLjY1Njc1IDMuNTU1NS0yLjA2MDhsMC4wNDUyOSAwLjA0NTMgMC4wNjc5NCAxLjY3NThoMS40MDQxYy0wLjA0NTI5LTAuNzY5OTgtMC4xMTMyMy0xLjY3NTgtMC4xMTMyMy0yLjU1OTF2LTguODA5NWgtMS4zNTg4em02LjE0NTkgMS43ODkxYzAgMS41NC0wLjE1ODUzIDMuMzc0MyAyLjcxNzYgMy4zNzQzIDAuNDUyOTMgMCAwLjk1MTE2LTAuMDkwNiAxLjM4MTQtMC4yMDM4MnYtMS4xNzc2Yy0wLjM2MjM0IDAuMTEzMjMtMC43Njk5OCAwLjEzNTg4LTEuMTc3NiAwLjEzNTg4LTEuMDQxNyAwLTEuNTg1My0wLjU2NjE3LTEuNTYyNi0xLjYwNzl2LTcuNjA5M2gyLjU4MTd2LTEuMjQ1NmgtMi41ODE3di0zLjAxMmwtMS4zNTg4IDAuNTg4ODF2Mi40MjMyaC0yLjI2NDd2MS4yNDU2aDIuMjY0N3ptMTUuMDY5LTIuNjQ5N2MwIDIuMTA2MS0xLjA4NyA0Ljc3ODQtMy44MjczIDQuNzc4NHMtMy44MjczLTIuNjcyMy0zLjgyNzMtNC43Nzg0YzAtMi4xMDYxIDEuMDg3LTQuNzc4NCAzLjgyNzMtNC43Nzg0czMuODI3MyAyLjY3MjMgMy44MjczIDQuNzc4NHptLTMuODI3My02LjAyNGMtMy42MjM1IDAtNS4yOTkzIDMuMDM0Ni01LjI5OTMgNi4wMjQgMCAyLjk4OTQgMS42NzU4IDYuMDI0IDUuMjk5MyA2LjAyNHM1LjI5OTMtMy4wMzQ2IDUuMjk5My02LjAyNGMwLTIuOTg5NC0xLjY3NTgtNi4wMjQtNS4yOTkzLTYuMDI0em0xNS4wNTUgMTEuNzA4aDEuNDcydi0xNC4xMzFoMC4wNDUyOWw4LjgzMjIgMTQuMTMxaDEuODU3di0xNi4zNTFoLTEuNDcydjE0LjM4MWgtMC4wNDUzbC05LjAxMzMtMTQuMzgxaC0xLjY3NTh6bTE2Ljc0NS0zLjE3MDVjMC0yLjg1MzUgNC4wMzExLTIuNDkxMSA1Ljk1Ni0yLjU1OTEgMC4xMzU4OCAyLjM3NzktMC40MzAyOCA0LjgyMzctMy4zOTcgNC44MjM3LTEuMzgxNCAwLTIuNTU5MS0wLjcyNDY5LTIuNTU5MS0yLjI2NDd6bTUuOTU2LTMuODA0NmMtMS42NTMyIDAuMDkwNi0zLjYyMzQtMC4xMzU4OC01LjE0MDggMC41MjA4Ny0xLjM1ODggMC41NjYxNy0yLjI4NzMgMS43NDM4LTIuMjg3MyAzLjI4MzggMCAyLjIxOTQgMS42NzU4IDMuNTEwMiAzLjc4MiAzLjUxMDIgMS41NCAwIDMuMDU3My0wLjkwNTg2IDMuNTU1NS0xLjg1N2wwLjA2NzktMC4xNTg1M2gwLjA0NTNsMC4wNDUzIDEuNjc1OGgxLjQwNDFjLTAuMDQ1My0wLjc2OTk4LTAuMTM1ODgtMS42NzU4LTAuMTEzMjMtMi41NTkxdi01LjM4OTljMC4wNDUzLTIuNjA0NC0xLjUxNzMtMy43NTkzLTQuMDMxMS0zLjc1OTMtMi4xNzQxIDAtMy45MTc5IDAuODgzMjItNC4yNTc2IDMuMjE1OGgxLjQ0OTRjMC4xODExOC0xLjU0IDEuMzU4OC0xLjk3MDMgMi43ODU1LTEuOTcwMyAxLjYwNzkgMCAyLjU1OTEgMC41ODg4MSAyLjY5NDkgMi40NDU4em0xMy43MzItMC45MDU4N2MtMC4xMTMyMy0yLjQyMzItMi4wMTU2LTMuODI3My00LjM0ODItMy44MjczLTMuMzc0MyAwLTUuMDcyOCAyLjk0NDEtNS4wNzI4IDYuMDI0IDAgMy4xMDI2IDEuNTg1MyA2LjAyNCA0Ljk4MjIgNi4wMjQgMi41ODE3IDAgNC4wNzY0LTEuMjkwOSA0LjQzODctMy44OTUyaC0xLjQ3MmMtMC4xMTMyMyAxLjU2MjYtMS4zMzYyIDIuNjQ5Ny0zLjEwMjYgMi42NDk3LTIuMDgzNSAwLTMuMzc0NC0yLjE5NjctMy4zNzQ0LTQuODAxMSAwLTIuNTgxNyAxLjI5MDktNC43NTU4IDMuMzc0NC00Ljc1NTggMS44Nzk3IDAgMi45ODk0IDAuODM3OTMgMy4xMDI2IDIuNTgxN3ptMi44ODQ4LTMuNDg3NnYxMS4zNjloMS4zNTg4di0xMS4zNjl6bTEuNDcyLTQuOTgyMmgtMS41ODUzdjEuNjk4NWgxLjU4NTN6bTEyLjAzNCAxMC42NjdjMCAyLjEwNjEtMS4wODcgNC43Nzg0LTMuODI3MyA0Ljc3ODRzLTMuODI3My0yLjY3MjMtMy44MjczLTQuNzc4NGMwLTIuMTA2MSAxLjA4Ny00Ljc3ODQgMy44MjczLTQuNzc4NHMzLjgyNzMgMi42NzIzIDMuODI3MyA0Ljc3ODR6bS0zLjgyNzMtNi4wMjRjLTMuNjIzNSAwLTUuMjk5MyAzLjAzNDYtNS4yOTkzIDYuMDI0IDAgMi45ODk0IDEuNjc1OCA2LjAyNCA1LjI5OTMgNi4wMjQgMy42MjM0IDAgNS4yOTkzLTMuMDM0NiA1LjI5OTMtNi4wMjQgMC0yLjk4OTQtMS42NzU4LTYuMDI0LTUuMjk5My02LjAyNHptOS42NTYxIDUuMTYzNGMwLTIuMDM4MiAxLjAxOTEtMy45MTc5IDMuMjYxMS0zLjkxNzkgMS44NTcgMCAyLjk4OTQgMS4xNTUgMi45ODk0IDMuMTI1MnY3LjMzNzVoMS4zNTg4di03LjExMWMwLTEuMzEzNS0wLjI5NDQxLTQuNTk3My00LjAwODQtNC41OTczLTEuNDcyIDAtMi43NjI5IDAuNjU2NzUtMy41NTU1IDIuMDYwOGwtMC4wNDUzLTAuMDQ1My0wLjA2NzktMS42NzU4aC0xLjQwNDFjMC4wNDUzIDAuNzY5OTggMC4xMTMyMyAxLjY3NTggMC4xMTMyMyAyLjU1OTF2OC44MDk1aDEuMzU4OHptMTEuODk4IDMuMzc0NGMwLTIuODUzNSA0LjAzMTEtMi40OTExIDUuOTU2LTIuNTU5MSAwLjEzNTg4IDIuMzc3OS0wLjQzMDI4IDQuODIzNy0zLjM5NyA0LjgyMzctMS4zODE0IDAtMi41NTkxLTAuNzI0NjktMi41NTkxLTIuMjY0N3ptNS45NTYtMy44MDQ2Yy0xLjY1MzIgMC4wOTA2LTMuNjIzNC0wLjEzNTg4LTUuMTQwOCAwLjUyMDg3LTEuMzU4OCAwLjU2NjE3LTIuMjg3MyAxLjc0MzgtMi4yODczIDMuMjgzOCAwIDIuMjE5NCAxLjY3NTggMy41MTAyIDMuNzgyIDMuNTEwMiAxLjU0IDAgMy4wNTczLTAuOTA1ODYgMy41NTU1LTEuODU3bDAuMDY3OS0wLjE1ODUzaDAuMDQ1M2wwLjA0NTMgMS42NzU4aDEuNDA0MWMtMC4wNDUzLTAuNzY5OTgtMC4xMzU4OC0xLjY3NTgtMC4xMTMyMy0yLjU1OTF2LTUuMzg5OWMwLjA0NTMtMi42MDQ0LTEuNTE3My0zLjc1OTMtNC4wMzExLTMuNzU5My0yLjE3NDEgMC0zLjkxNzkgMC44ODMyMi00LjI1NzYgMy4yMTU4aDEuNDQ5NGMwLjE4MTE3LTEuNTQgMS4zNTg4LTEuOTcwMyAyLjc4NTUtMS45NzAzIDEuNjA3OSAwIDIuNTU5MSAwLjU4ODgxIDIuNjk0OSAyLjQ0NTh6bTYuNDYzLTkuMzc1N2gtMS4zNTg4djE2LjM1MWgxLjM1ODh6bTE4LjExMiAxMC4zOTVjMCAyLjU4MTctMC45MDU4NyA1LjA1MDItMy44NzI2IDUuMDUwMi0yLjYwNDQgMC0zLjIxNTgtMi44NzYxLTMuMjE1OC00Ljk4MjIgMC0yLjE3NDEgMC44Mzc5Mi00LjU3NDYgMy40MTk2LTQuNTc0NiAyLjY0OTYgMCAzLjY2ODggMi4xOTY3IDMuNjY4OCA0LjUwNjd6bTAuMTEzMjMgNS45NTZoMS40MDQxYy0wLjA0NTMtMC43Njk5OC0wLjExMzI0LTEuNjc1OC0wLjExMzI0LTIuNTU5MXYtMTMuNzkyaC0xLjM1ODh2Ni42NTgxbC0wLjA0NTMgMC4wNDUzYy0wLjc5MjY0LTEuMzM2Mi0yLjM3NzktMi4wNjA4LTMuODk1Mi0yLjA2MDgtMy4zNzQzIDAtNC42NjUyIDMuMDM0Ni00LjY2NTIgNS45Nzg3IDAgMi44NTM1IDEuMjkwOSA2LjA2OTMgNC42NjUyIDYuMDY5MyAxLjU4NTMgMCAyLjk2NjctMC43NDczNCAzLjg5NTItMi4xMDYxbDAuMDQ1MyAwLjA5MDZ6bTE0LjQ1Ny01LjM2NzJjMC0zLjU1NTUtMS4zODE0LTYuMzQxLTUuMTg2MS02LjM0MS0zLjM3NDQgMC01LjA3MjggMi45NDQxLTUuMDcyOCA2LjAyNCAwIDMuMTAyNiAxLjU4NTMgNi4wMjQgNC45ODIyIDYuMDI0IDIuNzQwMiAwIDQuNDM4Ny0xLjI0NTYgNS4xNDA4LTMuOTYzMmgtMS40MjY3Yy0wLjMzOTcgMS41NjI2LTEuNjc1OCAyLjcxNzYtMy4yODM4IDIuNzE3Ni0yLjc4NTUgMC0zLjg5NTItMi4wMzgyLTMuOTQwNS00LjQ2MTR6bS04Ljc0MTYtMS4yNDU2YzAuMTgxMTctMS45OTI5IDEuMzU4OC0zLjg0OTkgMy41NzgyLTMuODQ5OSAyLjM1NTIgMCAzLjUzMjkgMS42NTMyIDMuNjkxNCAzLjg0OTl6bTI4Ljk4MiA2LjYxMjh2LTEuMzU4OGgtOC41ODMxdi02LjQwOWg3LjkyNjN2LTEuMzU4OGgtNy45MjYzdi01Ljg2NTVoOC4yNDM0di0xLjM1ODhoLTkuNzE1NHYxNi4zNTF6bTMuMDg4Ni04LjUzNzhjMCAyLjEwNjEgMS44MTE3IDIuNjI3IDMuNjAwOCAzLjA1NzMgMS44MTE3IDAuNDA3NjQgMy42MDA4IDAuNjc5NCAzLjYwMDggMi4zMSAwIDEuNTg1My0xLjUxNzMgMi4yNjQ3LTIuOTY2NyAyLjI2NDctMS41NCAwLTMuMDM0Ni0wLjQ5ODIzLTMuMTQ3OS0yLjE5NjdoLTEuNDcyYzAuMDQ1MyAyLjUxMzggMi4zMSAzLjQ0MjMgNC4yODAyIDMuNDQyMyAyLjQwMDUgMCA0Ljc3ODQtMS4xNTUgNC43Nzg0LTMuNzE0IDAtMS4yMjI5LTAuNzQ3MzQtMi4yNDItMS45MjUtMi42NDk2LTMuMDc5OS0xLjA4Ny01LjI3NjYtMC45Mjg1Mi01LjI3NjYtMi42MDQ0IDAtMS4zMzYyIDEuMjkwOC0xLjgzNDQgMi41NTkxLTEuODM0NCAxLjQwNDEgMCAyLjY3MjMgMC40NzU1OCAyLjgwODIgMS45MDIzaDEuNDcyYy0wLjE4MTE3LTIuNDAwNS0xLjk5MjktMy4xNDc5LTQuMTQ0My0zLjE0NzktMS45OTI5IDAtNC4xNjcgMC44MTUyOC00LjE2NyAzLjE3MDV6bTEyLjg3MiA1LjUwMzFjMCAxLjU0LTAuMTU4NTMgMy4zNzQzIDIuNzE3NiAzLjM3NDMgMC40NTI5NCAwIDAuOTUxMTYtMC4wOTA2IDEuMzgxNC0wLjIwMzgydi0xLjE3NzZjLTAuMzYyMzUgMC4xMTMyMy0wLjc2OTk5IDAuMTM1ODgtMS4xNzc2IDAuMTM1ODgtMS4wNDE3IDAtMS41ODUzLTAuNTY2MTctMS41NjI2LTEuNjA3OXYtNy42MDkzaDIuNTgxN3YtMS4yNDU2aC0yLjU4MTd2LTMuMDEybC0xLjM1ODggMC41ODg4MXYyLjQyMzJoLTIuMjY0N3YxLjI0NTZoMi4yNjQ3em03LjY4NTktMC4xMzU4OGMwLTIuODUzNSA0LjAzMTEtMi40OTExIDUuOTU2MS0yLjU1OTEgMC4xMzU4OCAyLjM3NzktMC40MzAyOSA0LjgyMzctMy4zOTcgNC44MjM3LTEuMzgxNCAwLTIuNTU5MS0wLjcyNDY5LTIuNTU5MS0yLjI2NDd6bTUuOTU2MS0zLjgwNDZjLTEuNjUzMiAwLjA5MDYtMy42MjM1LTAuMTM1ODgtNS4xNDA4IDAuNTIwODctMS4zNTg4IDAuNTY2MTctMi4yODczIDEuNzQzOC0yLjI4NzMgMy4yODM4IDAgMi4yMTk0IDEuNjc1OCAzLjUxMDIgMy43ODIgMy41MTAyIDEuNTQgMCAzLjA1NzMtMC45MDU4NiAzLjU1NTUtMS44NTdsMC4wNjc5LTAuMTU4NTNoMC4wNDUzbDAuMDQ1MyAxLjY3NThoMS40MDQxYy0wLjA0NTMtMC43Njk5OC0wLjEzNTg4LTEuNjc1OC0wLjExMzIzLTIuNTU5MXYtNS4zODk5YzAuMDQ1My0yLjYwNDQtMS41MTczLTMuNzU5My00LjAzMTEtMy43NTkzLTIuMTc0MSAwLTMuOTE3OSAwLjg4MzIyLTQuMjU3NiAzLjIxNThoMS40NDk0YzAuMTgxMTctMS41NCAxLjM1ODgtMS45NzAzIDIuNzg1NS0xLjk3MDMgMS42MDc5IDAgMi41NTkxIDAuNTg4ODEgMi42OTUgMi40NDU4em0xMi44NzIgMS4wMTkxYzAgMi41ODE3LTAuOTA1ODcgNS4wNTAyLTMuODcyNiA1LjA1MDItMi42MDQ0IDAtMy4yMTU4LTIuODc2MS0zLjIxNTgtNC45ODIyIDAtMi4xNzQxIDAuODM3OTMtNC41NzQ2IDMuNDE5Ni00LjU3NDYgMi42NDk2IDAgMy42Njg4IDIuMTk2NyAzLjY2ODggNC41MDY3em0wLjExMzIzIDUuOTU2aDEuNDA0MWMtMC4wNDUzLTAuNzY5OTgtMC4xMTMyMy0xLjY3NTgtMC4xMTMyMy0yLjU1OTF2LTEzLjc5MmgtMS4zNTg4djYuNjU4MWwtMC4wNDUzIDAuMDQ1M2MtMC43OTI2My0xLjMzNjItMi4zNzc5LTIuMDYwOC0zLjg5NTItMi4wNjA4LTMuMzc0MyAwLTQuNjY1MiAzLjAzNDYtNC42NjUyIDUuOTc4NyAwIDIuODUzNSAxLjI5MDkgNi4wNjkzIDQuNjY1MiA2LjA2OTMgMS41ODUzIDAgMi45NjY3LTAuNzQ3MzQgMy44OTUyLTIuMTA2MWwwLjA0NTMgMC4wOTA2em02LjI1OTEgMHYtMTEuMzY5aC0xLjM1ODh2MTEuMzY5em0wLjIwMzgyLTE2LjAxMS0yLjA2MDggMy4yMzg1aDAuOTk2NDVsMi44NzYxLTMuMjM4NXptMy4yNDcxIDcuNDczNGMwIDIuMTA2MSAxLjgxMTcgMi42MjcgMy42MDA4IDMuMDU3MyAxLjgxMTcgMC40MDc2NCAzLjYwMDggMC42Nzk0IDMuNjAwOCAyLjMxIDAgMS41ODUzLTEuNTE3MyAyLjI2NDctMi45NjY3IDIuMjY0Ny0xLjU0IDAtMy4wMzQ2LTAuNDk4MjMtMy4xNDc5LTIuMTk2N2gtMS40NzJjMC4wNDUzIDIuNTEzOCAyLjMxIDMuNDQyMyA0LjI4MDIgMy40NDIzIDIuNDAwNSAwIDQuNzc4NC0xLjE1NSA0Ljc3ODQtMy43MTQgMC0xLjIyMjktMC43NDczNC0yLjI0Mi0xLjkyNS0yLjY0OTYtMy4wNzk5LTEuMDg3LTUuMjc2Ny0wLjkyODUyLTUuMjc2Ny0yLjYwNDQgMC0xLjMzNjIgMS4yOTA5LTEuODM0NCAyLjU1OTEtMS44MzQ0IDEuNDA0MSAwIDIuNjcyMyAwLjQ3NTU4IDIuODA4MiAxLjkwMjNoMS40NzJjLTAuMTgxMTgtMi40MDA1LTEuOTkyOS0zLjE0NzktNC4xNDQzLTMuMTQ3OS0xLjk5MjkgMC00LjE2NyAwLjgxNTI4LTQuMTY3IDMuMTcwNXptMTIuODcyIDUuNTAzMWMwIDEuNTQtMC4xNTg1MiAzLjM3NDMgMi43MTc2IDMuMzc0MyAwLjQ1Mjk0IDAgMC45NTExNi0wLjA5MDYgMS4zODE0LTAuMjAzODJ2LTEuMTc3NmMtMC4zNjIzNSAwLjExMzIzLTAuNzY5OTkgMC4xMzU4OC0xLjE3NzYgMC4xMzU4OC0xLjA0MTcgMC0xLjU4NTMtMC41NjYxNy0xLjU2MjYtMS42MDc5di03LjYwOTNoMi41ODE3di0xLjI0NTZoLTIuNTgxN3YtMy4wMTJsLTEuMzU4OCAwLjU4ODgxdjIuNDIzMmgtMi4yNjQ3djEuMjQ1NmgyLjI2NDd6bTYuNzgtOC4zMzR2MTEuMzY5aDEuMzU4OHYtMTEuMzY5em0xLjQ3Mi00Ljk4MjJoLTEuNTg1M3YxLjY5ODVoMS41ODUzem0xMi4zNzQgOC40Njk4Yy0wLjExMzI0LTIuNDIzMi0yLjAxNTYtMy44MjczLTQuMzQ4Mi0zLjgyNzMtMy4zNzQzIDAtNS4wNzI4IDIuOTQ0MS01LjA3MjggNi4wMjQgMCAzLjEwMjYgMS41ODUzIDYuMDI0IDQuOTgyMiA2LjAyNCAyLjU4MTcgMCA0LjA3NjQtMS4yOTA5IDQuNDM4Ny0zLjg5NTJoLTEuNDcyYy0wLjExMzI0IDEuNTYyNi0xLjMzNjIgMi42NDk3LTMuMTAyNiAyLjY0OTctMi4wODM1IDAtMy4zNzQzLTIuMTk2Ny0zLjM3NDMtNC44MDExIDAtMi41ODE3IDEuMjkwOS00Ljc1NTggMy4zNzQzLTQuNzU1OCAxLjg3OTcgMCAyLjk4OTQgMC44Mzc5MyAzLjEwMjYgMi41ODE3em0zLjMzNzcgNC43MTA1YzAtMi44NTM1IDQuMDMxMS0yLjQ5MTEgNS45NTYtMi41NTkxIDAuMTM1ODggMi4zNzc5LTAuNDMwMjggNC44MjM3LTMuMzk3IDQuODIzNy0xLjM4MTQgMC0yLjU1OTEtMC43MjQ2OS0yLjU1OTEtMi4yNjQ3em01Ljk1Ni0zLjgwNDZjLTEuNjUzMiAwLjA5MDYtMy42MjM0LTAuMTM1ODgtNS4xNDA4IDAuNTIwODctMS4zNTg4IDAuNTY2MTctMi4yODczIDEuNzQzOC0yLjI4NzMgMy4yODM4IDAgMi4yMTk0IDEuNjc1OCAzLjUxMDIgMy43ODIgMy41MTAyIDEuNTQgMCAzLjA1NzMtMC45MDU4NiAzLjU1NTUtMS44NTdsMC4wNjc5LTAuMTU4NTNoMC4wNDUzbDAuMDQ1MyAxLjY3NThoMS40MDQxYy0wLjA0NTMtMC43Njk5OC0wLjEzNTg4LTEuNjc1OC0wLjExMzIzLTIuNTU5MXYtNS4zODk5YzAuMDQ1My0yLjYwNDQtMS41MTczLTMuNzU5My00LjAzMTEtMy43NTkzLTIuMTc0MSAwLTMuOTE3OSAwLjg4MzIyLTQuMjU3NiAzLjIxNThoMS40NDk0YzAuMTgxMTgtMS41NCAxLjM1ODgtMS45NzAzIDIuNzg1NS0xLjk3MDMgMS42MDc5IDAgMi41NTkxIDAuNTg4ODEgMi42OTQ5IDIuNDQ1OHoiLz48cGF0aCBzdHJva2Utd2lkdGg9IjQuMjc1OCIgc2hhcGUtcmVuZGVyaW5nPSJnZW9tZXRyaWNQcmVjaXNpb24iIGltYWdlLXJlbmRlcmluZz0ib3B0aW1pemVRdWFsaXR5IiBmaWxsLXJ1bGU9ImV2ZW5vZGQiIGZpbGw9IiNhNTAwM2EiIGNsaXAtcnVsZT0iZXZlbm9kZCIgZD0ibTE2LjEyMSA5MS45NjJ2LTczLjYxaC0xNi4xMjF2NzMuNjF6bTEzLjc1NCAwLjAxNzU0aDE1LjUxM3YtNTMuNTM2bDQxLjk3NyA1My41MzZoMTcuOTQ2di03My42MTFoLTE0LjkwNXY1NC40NDdsLTQyLjU4NS01NC40NDdoLTE3Ljk0N3Y3My42MTF6bTE1NS4zMS04NC40Mjh2LTcuNTUxNmgtNzAuNzQydjcuNTUxNnptLTUyLjY2IDQxLjMzMmgzNS41NzFzMS41ODk3LTI4LjIxNy0xNi44OTEtMjguNDE3Yy0xOS44NzItMC4xOTgyOS0xOC42OCAyOC40MTctMTguNjggMjguNDE3em0yMi4wNTkgNDUuMzA4czE2LjQ5MyAyLjE4NTQgMjguODEzLTE3LjI4OGwtMy45NzQ4LTIuOTgxMXMtOC41NDQ3IDE0LjUwNi0yMi42NTMgMTQuNTA2Yy0xMy45MTEgMC0yNC4yNDUtMTAuNzMxLTI0LjI0NS0zNC4xNzloNTEuODY2czEuNTg5Ny0yMS4yNjItMTMuOTExLTMyLjM5Yy0xNC41MDYtMTAuMzMzLTMwLjYwMS01Ljk2MTMtMzguMTUzLTAuMzk3OTggMCAwLTE3LjA4OSAxMi4zMjEtMTcuMDg5IDMxLjk5MyAwIDE5LjY3MiAxMy45MTEgNDAuNzM3IDM5LjM0NyA0MC43Mzd6Ii8+PC9zdmc+;clipPath=inset(0% 41.67% 20.34% 0%);" parent="1" vertex="1">
          <mxGeometry x="93.5" y="251.45999999999998" width="55.85" height="30" as="geometry" />
        </mxCell>
        <mxCell id="fakd-Xu31UxTlEahAAD4-8" value="" style="group" parent="1" connectable="0" vertex="1">
          <mxGeometry x="71.38" y="290" width="140" height="35.46" as="geometry" />
        </mxCell>
        <mxCell id="fakd-Xu31UxTlEahAAD4-5" value="" style="shape=image;verticalLabelPosition=bottom;labelBackgroundColor=default;verticalAlign=top;aspect=fixed;imageAspect=0;image=data:image/png,iVBORw0KGgoAAAANSUhEUgAAAkQAAAAwCAYAAADwzGWkAAAACXBIWXMAAC4jAAAuIwF4pT92AAAKT2lDQ1BQaG90b3Nob3AgSUNDIHByb2ZpbGUAAHjanVNnVFPpFj333vRCS4iAlEtvUhUIIFJCi4AUkSYqIQkQSoghodkVUcERRUUEG8igiAOOjoCMFVEsDIoK2AfkIaKOg6OIisr74Xuja9a89+bN/rXXPues852zzwfACAyWSDNRNYAMqUIeEeCDx8TG4eQuQIEKJHAAEAizZCFz/SMBAPh+PDwrIsAHvgABeNMLCADATZvAMByH/w/qQplcAYCEAcB0kThLCIAUAEB6jkKmAEBGAYCdmCZTAKAEAGDLY2LjAFAtAGAnf+bTAICd+Jl7AQBblCEVAaCRACATZYhEAGg7AKzPVopFAFgwABRmS8Q5ANgtADBJV2ZIALC3AMDOEAuyAAgMADBRiIUpAAR7AGDIIyN4AISZABRG8lc88SuuEOcqAAB4mbI8uSQ5RYFbCC1xB1dXLh4ozkkXKxQ2YQJhmkAuwnmZGTKBNA/g88wAAKCRFRHgg/P9eM4Ors7ONo62Dl8t6r8G/yJiYuP+5c+rcEAAAOF0ftH+LC+zGoA7BoBt/qIl7gRoXgugdfeLZrIPQLUAoOnaV/Nw+H48PEWhkLnZ2eXk5NhKxEJbYcpXff5nwl/AV/1s+X48/Pf14L7iJIEyXYFHBPjgwsz0TKUcz5IJhGLc5o9H/LcL//wd0yLESWK5WCoU41EScY5EmozzMqUiiUKSKcUl0v9k4t8s+wM+3zUAsGo+AXuRLahdYwP2SycQWHTA4vcAAPK7b8HUKAgDgGiD4c93/+8//UegJQCAZkmScQAAXkQkLlTKsz/HCAAARKCBKrBBG/TBGCzABhzBBdzBC/xgNoRCJMTCQhBCCmSAHHJgKayCQiiGzbAdKmAv1EAdNMBRaIaTcA4uwlW4Dj1wD/phCJ7BKLyBCQRByAgTYSHaiAFiilgjjggXmYX4IcFIBBKLJCDJiBRRIkuRNUgxUopUIFVIHfI9cgI5h1xGupE7yAAygvyGvEcxlIGyUT3UDLVDuag3GoRGogvQZHQxmo8WoJvQcrQaPYw2oefQq2gP2o8+Q8cwwOgYBzPEbDAuxsNCsTgsCZNjy7EirAyrxhqwVqwDu4n1Y8+xdwQSgUXACTYEd0IgYR5BSFhMWE7YSKggHCQ0EdoJNwkDhFHCJyKTqEu0JroR+cQYYjIxh1hILCPWEo8TLxB7iEPENyQSiUMyJ7mQAkmxpFTSEtJG0m5SI+ksqZs0SBojk8naZGuyBzmULCAryIXkneTD5DPkG+Qh8lsKnWJAcaT4U+IoUspqShnlEOU05QZlmDJBVaOaUt2ooVQRNY9aQq2htlKvUYeoEzR1mjnNgxZJS6WtopXTGmgXaPdpr+h0uhHdlR5Ol9BX0svpR+iX6AP0dwwNhhWDx4hnKBmbGAcYZxl3GK+YTKYZ04sZx1QwNzHrmOeZD5lvVVgqtip8FZHKCpVKlSaVGyovVKmqpqreqgtV81XLVI+pXlN9rkZVM1PjqQnUlqtVqp1Q61MbU2epO6iHqmeob1Q/pH5Z/YkGWcNMw09DpFGgsV/jvMYgC2MZs3gsIWsNq4Z1gTXEJrHN2Xx2KruY/R27iz2qqaE5QzNKM1ezUvOUZj8H45hx+Jx0TgnnKKeX836K3hTvKeIpG6Y0TLkxZVxrqpaXllirSKtRq0frvTau7aedpr1Fu1n7gQ5Bx0onXCdHZ4/OBZ3nU9lT3acKpxZNPTr1ri6qa6UbobtEd79up+6Ynr5egJ5Mb6feeb3n+hx9L/1U/W36p/VHDFgGswwkBtsMzhg8xTVxbzwdL8fb8VFDXcNAQ6VhlWGX4YSRudE8o9VGjUYPjGnGXOMk423GbcajJgYmISZLTepN7ppSTbmmKaY7TDtMx83MzaLN1pk1mz0x1zLnm+eb15vft2BaeFostqi2uGVJsuRaplnutrxuhVo5WaVYVVpds0atna0l1rutu6cRp7lOk06rntZnw7Dxtsm2qbcZsOXYBtuutm22fWFnYhdnt8Wuw+6TvZN9un2N/T0HDYfZDqsdWh1+c7RyFDpWOt6azpzuP33F9JbpL2dYzxDP2DPjthPLKcRpnVOb00dnF2e5c4PziIuJS4LLLpc+Lpsbxt3IveRKdPVxXeF60vWdm7Obwu2o26/uNu5p7ofcn8w0nymeWTNz0MPIQ+BR5dE/C5+VMGvfrH5PQ0+BZ7XnIy9jL5FXrdewt6V3qvdh7xc+9j5yn+M+4zw33jLeWV/MN8C3yLfLT8Nvnl+F30N/I/9k/3r/0QCngCUBZwOJgUGBWwL7+Hp8Ib+OPzrbZfay2e1BjKC5QRVBj4KtguXBrSFoyOyQrSH355jOkc5pDoVQfujW0Adh5mGLw34MJ4WHhVeGP45wiFga0TGXNXfR3ENz30T6RJZE3ptnMU85ry1KNSo+qi5qPNo3ujS6P8YuZlnM1VidWElsSxw5LiquNm5svt/87fOH4p3iC+N7F5gvyF1weaHOwvSFpxapLhIsOpZATIhOOJTwQRAqqBaMJfITdyWOCnnCHcJnIi/RNtGI2ENcKh5O8kgqTXqS7JG8NXkkxTOlLOW5hCepkLxMDUzdmzqeFpp2IG0yPTq9MYOSkZBxQqohTZO2Z+pn5mZ2y6xlhbL+xW6Lty8elQfJa7OQrAVZLQq2QqboVFoo1yoHsmdlV2a/zYnKOZarnivN7cyzytuQN5zvn//tEsIS4ZK2pYZLVy0dWOa9rGo5sjxxedsK4xUFK4ZWBqw8uIq2Km3VT6vtV5eufr0mek1rgV7ByoLBtQFr6wtVCuWFfevc1+1dT1gvWd+1YfqGnRs+FYmKrhTbF5cVf9go3HjlG4dvyr+Z3JS0qavEuWTPZtJm6ebeLZ5bDpaql+aXDm4N2dq0Dd9WtO319kXbL5fNKNu7g7ZDuaO/PLi8ZafJzs07P1SkVPRU+lQ27tLdtWHX+G7R7ht7vPY07NXbW7z3/T7JvttVAVVN1WbVZftJ+7P3P66Jqun4lvttXa1ObXHtxwPSA/0HIw6217nU1R3SPVRSj9Yr60cOxx++/p3vdy0NNg1VjZzG4iNwRHnk6fcJ3/ceDTradox7rOEH0x92HWcdL2pCmvKaRptTmvtbYlu6T8w+0dbq3nr8R9sfD5w0PFl5SvNUyWna6YLTk2fyz4ydlZ19fi753GDborZ752PO32oPb++6EHTh0kX/i+c7vDvOXPK4dPKy2+UTV7hXmq86X23qdOo8/pPTT8e7nLuarrlca7nuer21e2b36RueN87d9L158Rb/1tWeOT3dvfN6b/fF9/XfFt1+cif9zsu72Xcn7q28T7xf9EDtQdlD3YfVP1v+3Njv3H9qwHeg89HcR/cGhYPP/pH1jw9DBY+Zj8uGDYbrnjg+OTniP3L96fynQ89kzyaeF/6i/suuFxYvfvjV69fO0ZjRoZfyl5O/bXyl/erA6xmv28bCxh6+yXgzMV70VvvtwXfcdx3vo98PT+R8IH8o/2j5sfVT0Kf7kxmTk/8EA5jz/GMzLdsAAAAgY0hSTQAAeiUAAICDAAD5/wAAgOkAAHUwAADqYAAAOpgAABdvkl/FRgAADaZJREFUeNrsXdGR2zgPxu6kAV0J3hKUEpTXnbx4S5BLkEuwSrBKWL1k9jUq4VRCVMKvEvZ/MHHLwJRMSqQESvhmPDeXu8gyAAIfQQB8+vz8BIFAIBAIBII941lEIBAIBAKBQAiRQCAQCAQCgRAigUAgEAgEgn3jm+kPX19/xvybMvLvnfoItgHRr0AQP1IASGQdDyJRMtLRiFj84+Pj1zghAoCcGKsJJROjOSrDyQDgMPL/Ntqn9fT9Y3KqAKAP+PxHerD5u4/Qqt/Qin7Z6Tf09w7Zg24XXHBUv0nXTe3p2Qf1/KXRq9/BXT4uBOio1nH6wMYa9X7tjnSVKB2hrxtan53m4+oA63BO3AgRL3zEMWvdPZm6zF5ff/427MQpnlZ0gAcAKMgid0GnAs1cIx6TUwMAPwI+/5EebP6ui9E0mqPqRb+r6zf099rIWLeJNfEvCbItAHz39OxMyWtp+LCvJeRjQ4QuE+2tBYCzQ2YkRl3N8XW95ud6Rr4BlE/wES98xjGj7j4+fv2nu9hqiBK1uP7MCJZohFf1nFDCztS7bgGYqUGZXR9ka0S/28dB6ehdybkIvJMb00NqCMIZCNaWT6HI2NTvSlVAfF/JtrjHMv0ZBbPfp8eLIhalfIvIgHBx+FwYB/XMCgBOgRxCB/5S31wWcq4MvgR/Rzqi37jJ0UXZxRmWzRgdR/5cai7Wk891INB3yj5MNUMpfB2t0Xc9wC0L029AJ6mSz9DRYas+Q/I5DBCjI0MZ4btlAPDGXX+xEKJcGVDI56eBjOmqGfgWdzg+FqHodz24pPuxEBaDVmogRu8BCaiJiOUjOi9hfqFuA9OOLfVahDOsU3O5hHyGnp0biNDpAQlryKbrQmzv/YGtxqCroY0fbqxqC52k2qY0IX/+R8moXdg3HNRniNTiceYcH+zzGNmIGI7MQgfLkBkKRKjnctnt/IHxQknR7zaABa8l3GpQXsCcHcsXkgl1uqVldmQvWEM+CdwfJdfKXmwzUr1mYz0JqkXE+hjyQWe1lmwJaqvI5Xe4z8Ym6jvShX9bp/mGN/V7asPvv3JWEHdClC0sQDTYEE5iy0Fz6iIU/cYN3PW/GIJdpnb0IVGQIHEmAaWAfWMN+dCuoA6mH5W0hoxAEek6Oxh8BBa3lzPW35tagz3xR2vXXenvRkk42/o+zoQoWcChDgXNItBzt1yEmyhyk4h+d4dOBa7SQIpCyYQG3or8E20s36lO1pLP0ZD9mIOWPCNWnb4byJCvo60K7o+iDiv5V9O7nUaIuhCiiQZku3hKtYDwM6Xtb2qbqI2T2vKu1YVsiH63h7MhABYBZY3o4Ss9T1uQ90yI1pBPOvC9c4PqGOnijgLuxx74rmc0PZPLEWMFf2eQH82UE0Jk2Fm6OFE8o/4OX0Vx+MHzzJOjAYYypAujBf008vlHya6esPgz0e9uYZr/dA3gH1LicPuBILzHFvy15JMZgrQPmN45FiTE1/QTfJXrhpH6uYSJX2BParkSosJhobypT/vg/6vAXOjlK2i74BrBokYnhISj8ag/0e+2QWtVDp4zEccHGYS9F1dvUT4N+cSyvighKSFsR2pJfDWXI8bGQBSFEHkMVD3cUoQuGYzeMesRKovAoejNBVgjUnnQoeh3+8BdcAhZU3JlalPuiAPOgWmKPgDWlE9veBdfwDoZ/MQw5oKSkQ6WGb/AtWZHtzmWhJYjIbLdrcxh2iewa28MedbJpejNVW7VTD2KfvcBeqfcwZMTpPYzRH7rCLMgELl8WsMa2PPEcDonaKlZVHRYbAIygmLThKiZaVymHexcgjYFS7ed+8DZkmwcRb9R6tcnaoM85qIgjr8eySjssQV/bfm0TLMTayAjPmnJCe7NTjcEmyJEKdgdM5SeDKaxfKeQME115Ywe7FppEzDfoST63Q8qz4RoqJXc5vv30ILPQT4mne/1+Dgj/mjJayto923GUB5CiBwENoTOozBrT+80F1eIK7VsM17eJDvR777QEzvxQYj0Z7sEfNgJIVpbPhXcZ4mOcLvkNdahij4292vUPNHi6jXr6I4G3yCEaKEg5/NZSy3gd4ir8LMW/W5av77QeZI3bSW3mT9FScGWW/A5ycc0YwcvAP4f3CY243iOLU/vh5UJkammiwNZB2CaIfrGcFG7OlgfO9hHhpLOMOjO0hCxMymWG51tM0Sl6DdK/frcpWZE1lOc4aNW8rGMRU6e02xQzpzk08NtZtg7mI+kaadpB18XJLcb0U/KgBB1hndaQ7Y0Q95M9PMH8FeTZsygfovQ0LoAz3sU0ObsYt7A/p4rvPzubYd6EP0KxhxhThyqbYBpCSkLecu7yOfvdfddBbBHR2V4U7pO6mr1XlMm0XNEv5PvNJEhmh0qZ9i5r6uAGhMhegZBaODNxC47vYuITfQrGMx+uB6rbr0Fn7N8SviaJF87/qYrAPyBfdUebckm/zWQoTMwzgB+E70tgloZgm0gLCLYwYqD2rZ+OYG2kleOf79Sukm055Uin8Xkg8cT+F5Y74SzqdIHfgavwzlBHAMZt4IE3GrKUKdD890q7uuOGyHqLIXuk2HaKNzHIizB7QqDC/BOFR8myE30G49+fWFuLYVrK/mYfi6ao89nPIsTYpSPaSRGppEjU7F1Crej6VimVJvqd9qV11434e//9vQueCn3HLQenqGT9M0QolAG4yS8CTiB/fTWBHhnYY4T5Cb6jUe/oYizq6wpwZzahVjD3xm8LRGiLciHkqQcbpmqA1kzV7jVJnGHqctuaUKUBPJzrnotPW1yewh83BYjIcJx6D6UaxPUfRsxFuHGfPmn7TUMreh316DDOV2dGW0l72BefYteYI+ZiJg7mrYsHzxiu8DfR4JpJGSWQ8t7ZiAnS/12LIiP6oiTGyGyVRh2Qsx11rnHd3JhuSew70ziiGKiUxD97gvHmeTzaAgqF8/v12xIvluUz9mwlmMgRL2y91ST5ZL1M3TTOoWY2BxRYdYuIT71HOOCemZqRDYBeS7jtu1cCMFwW4i39TpzIBq96FcI0URZu9RjTYWvW97XwJ7kcya+JJbsK73dPV1x7U05SsUjqrFPDfddtgVEOhWeY9u97XThOZdmZpZZjpAX8jXg1q7NASnY3+Bei36j06/vgD3ncsulHGqs13lwk89vAPjUPr43yiEuCl46luUr2kcd+HfSjNAFIiwb4EiIKrCrH5l6k7hLUC8X+K2xFHYewf4YaCz4iX73gesMWdMjkg4Anjx+OhI4Yjva5CifNjBhiXFMBZ26vVTGjWbYmwXkVxKfj5P5o1pbHAlR7+A8c7gNf0odDOVfD0HdJ07Au44BCYaLcZcjpEf0u33kcJ8dciGGR/DTSj5GVHXHHdugRo7yMbWZC+51cw38fQncZ8eXql2ic6IODptTFphTVO1jB9ANMNcK7GtAUhUEa/ga907Pm7MJ7HzJ8f5rdSYVDxZWNuGdOosFKPrdLlK4L+wdI8g2dumbuNIW8wLiyuRxlE9Ngr3v4Y507cSyyUCflWlxM+RgULpxbRaUVa98nb4pzZQtRVFkPYcQ+RjYdB4wjF79Nxc2ffS402sXdpAmQ1oCIa6QOFn+XtHvNskQPVZtHZ0/nXJbQZj77fRLTbHeKYYgy1U+mHE9kkxF6fF36zYVE85q7et+1zVragN6iWoPy9cxdtoGUCfHHUSw6eB8l9ma9RcnWH6IVQe3Kawxw+V4SPS7LZhqzJAIumCpYtA1C17ngLN8KsOGy0dWlGaT68jWhql9/erR5pKB551hndorU0NJFEXW3C93Pa+wG1jzvhzXi0JjJ7Ci3/iBdQLvBjL0w9Eh0xvPWwiXtaE3wh+Bfws+d/mYjmfmHhXncJ/JriNcJyWY64noDB9XYFY2t/i+NeNBFEXW3AkROtWlAtgJ1k/rsb8Ab4DYnES/m9WvCfpt5EdPes0fZBxC6MI1C7ImYpAPzb4mKmAXE76/gPtj9bWyHqH8T67WkKvt4RBOU9NJBTxqdqIrso7htnt0rlcI1w2CZ61cdh5nw26Qq27eZu5SRb/rZx1sg5V+Q/lYluAN3I8kaSv5El2AWDycaMGpBJ6X7sYiHzwa1o9P8cZ6nDDdjJDlsSaJZgObiZOBXOKR1wW+irBbMHfuoXyOI76Fk4x+KMLno8jaxVe5xIYqJkKkB94C7LuTbIFjxluGC8f2zrC1grrtTCHRL1/9+rruAbsLp2YtTK3k/QJ+pdKcLLaYcyz+jEk+rYEUmWytJb8hsyDaWwBmTi5EPkh684m64rTpoxte3RamFln7vpoG7eq/93iOzJBKuN107MNhdcqAljyymWJInHarnSIX/wTaSYt+4wPWRb3M1Bvd+S1FSqoH78EFscmntbAJzHZkI2QIO1K3sFaoXH34OpTPC/CtrTIVlbMssn6O0JA6zQFPmSVTe3LgewiaeFfNWS3eFwh/pCD65Qssmi3Vbv3Fk1OnreQ1LFcn0pFAcgB+10LEKp+erMXe8XvPmh/YIqivmyKf78D3mJcSQF2PpkthV8fT5+f9tTOvrz9jMyxcpIlhseLwx5AdGQLRr0AgeIwU/h5SSAk3XgDd7lw+CZiHUeKFq52Ykh98fPwaJ0QCgUAgEAgEe8KziEAgEAgEAoEQIoFAIBAIBAIhRAKBQCAQCAT7xv8HACGbp/267FZnAAAAAElFTkSuQmCC;clipPath=inset(0% 58% 0% 0%);" parent="fakd-Xu31UxTlEahAAD4-8" vertex="1">
          <mxGeometry width="103.90511803424724" height="20.61609484806493" as="geometry" />
        </mxCell>
        <mxCell id="fakd-Xu31UxTlEahAAD4-6" value="" style="shape=image;verticalLabelPosition=bottom;labelBackgroundColor=default;verticalAlign=top;aspect=fixed;imageAspect=0;image=data:image/png,iVBORw0KGgoAAAANSUhEUgAAAkQAAAAwCAYAAADwzGWkAAAACXBIWXMAAC4jAAAuIwF4pT92AAAKT2lDQ1BQaG90b3Nob3AgSUNDIHByb2ZpbGUAAHjanVNnVFPpFj333vRCS4iAlEtvUhUIIFJCi4AUkSYqIQkQSoghodkVUcERRUUEG8igiAOOjoCMFVEsDIoK2AfkIaKOg6OIisr74Xuja9a89+bN/rXXPues852zzwfACAyWSDNRNYAMqUIeEeCDx8TG4eQuQIEKJHAAEAizZCFz/SMBAPh+PDwrIsAHvgABeNMLCADATZvAMByH/w/qQplcAYCEAcB0kThLCIAUAEB6jkKmAEBGAYCdmCZTAKAEAGDLY2LjAFAtAGAnf+bTAICd+Jl7AQBblCEVAaCRACATZYhEAGg7AKzPVopFAFgwABRmS8Q5ANgtADBJV2ZIALC3AMDOEAuyAAgMADBRiIUpAAR7AGDIIyN4AISZABRG8lc88SuuEOcqAAB4mbI8uSQ5RYFbCC1xB1dXLh4ozkkXKxQ2YQJhmkAuwnmZGTKBNA/g88wAAKCRFRHgg/P9eM4Ors7ONo62Dl8t6r8G/yJiYuP+5c+rcEAAAOF0ftH+LC+zGoA7BoBt/qIl7gRoXgugdfeLZrIPQLUAoOnaV/Nw+H48PEWhkLnZ2eXk5NhKxEJbYcpXff5nwl/AV/1s+X48/Pf14L7iJIEyXYFHBPjgwsz0TKUcz5IJhGLc5o9H/LcL//wd0yLESWK5WCoU41EScY5EmozzMqUiiUKSKcUl0v9k4t8s+wM+3zUAsGo+AXuRLahdYwP2SycQWHTA4vcAAPK7b8HUKAgDgGiD4c93/+8//UegJQCAZkmScQAAXkQkLlTKsz/HCAAARKCBKrBBG/TBGCzABhzBBdzBC/xgNoRCJMTCQhBCCmSAHHJgKayCQiiGzbAdKmAv1EAdNMBRaIaTcA4uwlW4Dj1wD/phCJ7BKLyBCQRByAgTYSHaiAFiilgjjggXmYX4IcFIBBKLJCDJiBRRIkuRNUgxUopUIFVIHfI9cgI5h1xGupE7yAAygvyGvEcxlIGyUT3UDLVDuag3GoRGogvQZHQxmo8WoJvQcrQaPYw2oefQq2gP2o8+Q8cwwOgYBzPEbDAuxsNCsTgsCZNjy7EirAyrxhqwVqwDu4n1Y8+xdwQSgUXACTYEd0IgYR5BSFhMWE7YSKggHCQ0EdoJNwkDhFHCJyKTqEu0JroR+cQYYjIxh1hILCPWEo8TLxB7iEPENyQSiUMyJ7mQAkmxpFTSEtJG0m5SI+ksqZs0SBojk8naZGuyBzmULCAryIXkneTD5DPkG+Qh8lsKnWJAcaT4U+IoUspqShnlEOU05QZlmDJBVaOaUt2ooVQRNY9aQq2htlKvUYeoEzR1mjnNgxZJS6WtopXTGmgXaPdpr+h0uhHdlR5Ol9BX0svpR+iX6AP0dwwNhhWDx4hnKBmbGAcYZxl3GK+YTKYZ04sZx1QwNzHrmOeZD5lvVVgqtip8FZHKCpVKlSaVGyovVKmqpqreqgtV81XLVI+pXlN9rkZVM1PjqQnUlqtVqp1Q61MbU2epO6iHqmeob1Q/pH5Z/YkGWcNMw09DpFGgsV/jvMYgC2MZs3gsIWsNq4Z1gTXEJrHN2Xx2KruY/R27iz2qqaE5QzNKM1ezUvOUZj8H45hx+Jx0TgnnKKeX836K3hTvKeIpG6Y0TLkxZVxrqpaXllirSKtRq0frvTau7aedpr1Fu1n7gQ5Bx0onXCdHZ4/OBZ3nU9lT3acKpxZNPTr1ri6qa6UbobtEd79up+6Ynr5egJ5Mb6feeb3n+hx9L/1U/W36p/VHDFgGswwkBtsMzhg8xTVxbzwdL8fb8VFDXcNAQ6VhlWGX4YSRudE8o9VGjUYPjGnGXOMk423GbcajJgYmISZLTepN7ppSTbmmKaY7TDtMx83MzaLN1pk1mz0x1zLnm+eb15vft2BaeFostqi2uGVJsuRaplnutrxuhVo5WaVYVVpds0atna0l1rutu6cRp7lOk06rntZnw7Dxtsm2qbcZsOXYBtuutm22fWFnYhdnt8Wuw+6TvZN9un2N/T0HDYfZDqsdWh1+c7RyFDpWOt6azpzuP33F9JbpL2dYzxDP2DPjthPLKcRpnVOb00dnF2e5c4PziIuJS4LLLpc+Lpsbxt3IveRKdPVxXeF60vWdm7Obwu2o26/uNu5p7ofcn8w0nymeWTNz0MPIQ+BR5dE/C5+VMGvfrH5PQ0+BZ7XnIy9jL5FXrdewt6V3qvdh7xc+9j5yn+M+4zw33jLeWV/MN8C3yLfLT8Nvnl+F30N/I/9k/3r/0QCngCUBZwOJgUGBWwL7+Hp8Ib+OPzrbZfay2e1BjKC5QRVBj4KtguXBrSFoyOyQrSH355jOkc5pDoVQfujW0Adh5mGLw34MJ4WHhVeGP45wiFga0TGXNXfR3ENz30T6RJZE3ptnMU85ry1KNSo+qi5qPNo3ujS6P8YuZlnM1VidWElsSxw5LiquNm5svt/87fOH4p3iC+N7F5gvyF1weaHOwvSFpxapLhIsOpZATIhOOJTwQRAqqBaMJfITdyWOCnnCHcJnIi/RNtGI2ENcKh5O8kgqTXqS7JG8NXkkxTOlLOW5hCepkLxMDUzdmzqeFpp2IG0yPTq9MYOSkZBxQqohTZO2Z+pn5mZ2y6xlhbL+xW6Lty8elQfJa7OQrAVZLQq2QqboVFoo1yoHsmdlV2a/zYnKOZarnivN7cyzytuQN5zvn//tEsIS4ZK2pYZLVy0dWOa9rGo5sjxxedsK4xUFK4ZWBqw8uIq2Km3VT6vtV5eufr0mek1rgV7ByoLBtQFr6wtVCuWFfevc1+1dT1gvWd+1YfqGnRs+FYmKrhTbF5cVf9go3HjlG4dvyr+Z3JS0qavEuWTPZtJm6ebeLZ5bDpaql+aXDm4N2dq0Dd9WtO319kXbL5fNKNu7g7ZDuaO/PLi8ZafJzs07P1SkVPRU+lQ27tLdtWHX+G7R7ht7vPY07NXbW7z3/T7JvttVAVVN1WbVZftJ+7P3P66Jqun4lvttXa1ObXHtxwPSA/0HIw6217nU1R3SPVRSj9Yr60cOxx++/p3vdy0NNg1VjZzG4iNwRHnk6fcJ3/ceDTradox7rOEH0x92HWcdL2pCmvKaRptTmvtbYlu6T8w+0dbq3nr8R9sfD5w0PFl5SvNUyWna6YLTk2fyz4ydlZ19fi753GDborZ752PO32oPb++6EHTh0kX/i+c7vDvOXPK4dPKy2+UTV7hXmq86X23qdOo8/pPTT8e7nLuarrlca7nuer21e2b36RueN87d9L158Rb/1tWeOT3dvfN6b/fF9/XfFt1+cif9zsu72Xcn7q28T7xf9EDtQdlD3YfVP1v+3Njv3H9qwHeg89HcR/cGhYPP/pH1jw9DBY+Zj8uGDYbrnjg+OTniP3L96fynQ89kzyaeF/6i/suuFxYvfvjV69fO0ZjRoZfyl5O/bXyl/erA6xmv28bCxh6+yXgzMV70VvvtwXfcdx3vo98PT+R8IH8o/2j5sfVT0Kf7kxmTk/8EA5jz/GMzLdsAAAAgY0hSTQAAeiUAAICDAAD5/wAAgOkAAHUwAADqYAAAOpgAABdvkl/FRgAADaZJREFUeNrsXdGR2zgPxu6kAV0J3hKUEpTXnbx4S5BLkEuwSrBKWL1k9jUq4VRCVMKvEvZ/MHHLwJRMSqQESvhmPDeXu8gyAAIfQQB8+vz8BIFAIBAIBII941lEIBAIBAKBQAiRQCAQCAQCgRAigUAgEAgEgn3jm+kPX19/xvybMvLvnfoItgHRr0AQP1IASGQdDyJRMtLRiFj84+Pj1zghAoCcGKsJJROjOSrDyQDgMPL/Ntqn9fT9Y3KqAKAP+PxHerD5u4/Qqt/Qin7Z6Tf09w7Zg24XXHBUv0nXTe3p2Qf1/KXRq9/BXT4uBOio1nH6wMYa9X7tjnSVKB2hrxtan53m4+oA63BO3AgRL3zEMWvdPZm6zF5ff/427MQpnlZ0gAcAKMgid0GnAs1cIx6TUwMAPwI+/5EebP6ui9E0mqPqRb+r6zf099rIWLeJNfEvCbItAHz39OxMyWtp+LCvJeRjQ4QuE+2tBYCzQ2YkRl3N8XW95ud6Rr4BlE/wES98xjGj7j4+fv2nu9hqiBK1uP7MCJZohFf1nFDCztS7bgGYqUGZXR9ka0S/28dB6ehdybkIvJMb00NqCMIZCNaWT6HI2NTvSlVAfF/JtrjHMv0ZBbPfp8eLIhalfIvIgHBx+FwYB/XMCgBOgRxCB/5S31wWcq4MvgR/Rzqi37jJ0UXZxRmWzRgdR/5cai7Wk891INB3yj5MNUMpfB2t0Xc9wC0L029AJ6mSz9DRYas+Q/I5DBCjI0MZ4btlAPDGXX+xEKJcGVDI56eBjOmqGfgWdzg+FqHodz24pPuxEBaDVmogRu8BCaiJiOUjOi9hfqFuA9OOLfVahDOsU3O5hHyGnp0biNDpAQlryKbrQmzv/YGtxqCroY0fbqxqC52k2qY0IX/+R8moXdg3HNRniNTiceYcH+zzGNmIGI7MQgfLkBkKRKjnctnt/IHxQknR7zaABa8l3GpQXsCcHcsXkgl1uqVldmQvWEM+CdwfJdfKXmwzUr1mYz0JqkXE+hjyQWe1lmwJaqvI5Xe4z8Ym6jvShX9bp/mGN/V7asPvv3JWEHdClC0sQDTYEE5iy0Fz6iIU/cYN3PW/GIJdpnb0IVGQIHEmAaWAfWMN+dCuoA6mH5W0hoxAEek6Oxh8BBa3lzPW35tagz3xR2vXXenvRkk42/o+zoQoWcChDgXNItBzt1yEmyhyk4h+d4dOBa7SQIpCyYQG3or8E20s36lO1pLP0ZD9mIOWPCNWnb4byJCvo60K7o+iDiv5V9O7nUaIuhCiiQZku3hKtYDwM6Xtb2qbqI2T2vKu1YVsiH63h7MhABYBZY3o4Ss9T1uQ90yI1pBPOvC9c4PqGOnijgLuxx74rmc0PZPLEWMFf2eQH82UE0Jk2Fm6OFE8o/4OX0Vx+MHzzJOjAYYypAujBf008vlHya6esPgz0e9uYZr/dA3gH1LicPuBILzHFvy15JMZgrQPmN45FiTE1/QTfJXrhpH6uYSJX2BParkSosJhobypT/vg/6vAXOjlK2i74BrBokYnhISj8ag/0e+2QWtVDp4zEccHGYS9F1dvUT4N+cSyvighKSFsR2pJfDWXI8bGQBSFEHkMVD3cUoQuGYzeMesRKovAoejNBVgjUnnQoeh3+8BdcAhZU3JlalPuiAPOgWmKPgDWlE9veBdfwDoZ/MQw5oKSkQ6WGb/AtWZHtzmWhJYjIbLdrcxh2iewa28MedbJpejNVW7VTD2KfvcBeqfcwZMTpPYzRH7rCLMgELl8WsMa2PPEcDonaKlZVHRYbAIygmLThKiZaVymHexcgjYFS7ed+8DZkmwcRb9R6tcnaoM85qIgjr8eySjssQV/bfm0TLMTayAjPmnJCe7NTjcEmyJEKdgdM5SeDKaxfKeQME115Ywe7FppEzDfoST63Q8qz4RoqJXc5vv30ILPQT4mne/1+Dgj/mjJayto923GUB5CiBwENoTOozBrT+80F1eIK7VsM17eJDvR777QEzvxQYj0Z7sEfNgJIVpbPhXcZ4mOcLvkNdahij4292vUPNHi6jXr6I4G3yCEaKEg5/NZSy3gd4ir8LMW/W5av77QeZI3bSW3mT9FScGWW/A5ycc0YwcvAP4f3CY243iOLU/vh5UJkammiwNZB2CaIfrGcFG7OlgfO9hHhpLOMOjO0hCxMymWG51tM0Sl6DdK/frcpWZE1lOc4aNW8rGMRU6e02xQzpzk08NtZtg7mI+kaadpB18XJLcb0U/KgBB1hndaQ7Y0Q95M9PMH8FeTZsygfovQ0LoAz3sU0ObsYt7A/p4rvPzubYd6EP0KxhxhThyqbYBpCSkLecu7yOfvdfddBbBHR2V4U7pO6mr1XlMm0XNEv5PvNJEhmh0qZ9i5r6uAGhMhegZBaODNxC47vYuITfQrGMx+uB6rbr0Fn7N8SviaJF87/qYrAPyBfdUebckm/zWQoTMwzgB+E70tgloZgm0gLCLYwYqD2rZ+OYG2kleOf79Sukm055Uin8Xkg8cT+F5Y74SzqdIHfgavwzlBHAMZt4IE3GrKUKdD890q7uuOGyHqLIXuk2HaKNzHIizB7QqDC/BOFR8myE30G49+fWFuLYVrK/mYfi6ao89nPIsTYpSPaSRGppEjU7F1Crej6VimVJvqd9qV11434e//9vQueCn3HLQenqGT9M0QolAG4yS8CTiB/fTWBHhnYY4T5Cb6jUe/oYizq6wpwZzahVjD3xm8LRGiLciHkqQcbpmqA1kzV7jVJnGHqctuaUKUBPJzrnotPW1yewh83BYjIcJx6D6UaxPUfRsxFuHGfPmn7TUMreh316DDOV2dGW0l72BefYteYI+ZiJg7mrYsHzxiu8DfR4JpJGSWQ8t7ZiAnS/12LIiP6oiTGyGyVRh2Qsx11rnHd3JhuSew70ziiGKiUxD97gvHmeTzaAgqF8/v12xIvluUz9mwlmMgRL2y91ST5ZL1M3TTOoWY2BxRYdYuIT71HOOCemZqRDYBeS7jtu1cCMFwW4i39TpzIBq96FcI0URZu9RjTYWvW97XwJ7kcya+JJbsK73dPV1x7U05SsUjqrFPDfddtgVEOhWeY9u97XThOZdmZpZZjpAX8jXg1q7NASnY3+Bei36j06/vgD3ncsulHGqs13lwk89vAPjUPr43yiEuCl46luUr2kcd+HfSjNAFIiwb4EiIKrCrH5l6k7hLUC8X+K2xFHYewf4YaCz4iX73gesMWdMjkg4Anjx+OhI4Yjva5CifNjBhiXFMBZ26vVTGjWbYmwXkVxKfj5P5o1pbHAlR7+A8c7gNf0odDOVfD0HdJ07Au44BCYaLcZcjpEf0u33kcJ8dciGGR/DTSj5GVHXHHdugRo7yMbWZC+51cw38fQncZ8eXql2ic6IODptTFphTVO1jB9ANMNcK7GtAUhUEa/ga907Pm7MJ7HzJ8f5rdSYVDxZWNuGdOosFKPrdLlK4L+wdI8g2dumbuNIW8wLiyuRxlE9Ngr3v4Y507cSyyUCflWlxM+RgULpxbRaUVa98nb4pzZQtRVFkPYcQ+RjYdB4wjF79Nxc2ffS402sXdpAmQ1oCIa6QOFn+XtHvNskQPVZtHZ0/nXJbQZj77fRLTbHeKYYgy1U+mHE9kkxF6fF36zYVE85q7et+1zVragN6iWoPy9cxdtoGUCfHHUSw6eB8l9ma9RcnWH6IVQe3Kawxw+V4SPS7LZhqzJAIumCpYtA1C17ngLN8KsOGy0dWlGaT68jWhql9/erR5pKB551hndorU0NJFEXW3C93Pa+wG1jzvhzXi0JjJ7Ci3/iBdQLvBjL0w9Eh0xvPWwiXtaE3wh+Bfws+d/mYjmfmHhXncJ/JriNcJyWY64noDB9XYFY2t/i+NeNBFEXW3AkROtWlAtgJ1k/rsb8Ab4DYnES/m9WvCfpt5EdPes0fZBxC6MI1C7ImYpAPzb4mKmAXE76/gPtj9bWyHqH8T67WkKvt4RBOU9NJBTxqdqIrso7htnt0rlcI1w2CZ61cdh5nw26Qq27eZu5SRb/rZx1sg5V+Q/lYluAN3I8kaSv5El2AWDycaMGpBJ6X7sYiHzwa1o9P8cZ6nDDdjJDlsSaJZgObiZOBXOKR1wW+irBbMHfuoXyOI76Fk4x+KMLno8jaxVe5xIYqJkKkB94C7LuTbIFjxluGC8f2zrC1grrtTCHRL1/9+rruAbsLp2YtTK3k/QJ+pdKcLLaYcyz+jEk+rYEUmWytJb8hsyDaWwBmTi5EPkh684m64rTpoxte3RamFln7vpoG7eq/93iOzJBKuN107MNhdcqAljyymWJInHarnSIX/wTaSYt+4wPWRb3M1Bvd+S1FSqoH78EFscmntbAJzHZkI2QIO1K3sFaoXH34OpTPC/CtrTIVlbMssn6O0JA6zQFPmSVTe3LgewiaeFfNWS3eFwh/pCD65Qssmi3Vbv3Fk1OnreQ1LFcn0pFAcgB+10LEKp+erMXe8XvPmh/YIqivmyKf78D3mJcSQF2PpkthV8fT5+f9tTOvrz9jMyxcpIlhseLwx5AdGQLRr0AgeIwU/h5SSAk3XgDd7lw+CZiHUeKFq52Ykh98fPwaJ0QCgUAgEAgEe8KziEAgEAgEAoEQIoFAIBAIBAIhRAKBQCAQCAT7xv8HACGbp/267FZnAAAAAElFTkSuQmCC;clipPath=inset(0% 0% 0% 41.67%);" parent="fakd-Xu31UxTlEahAAD4-8" vertex="1">
          <mxGeometry y="20.616411709393258" width="103.90511803424724" height="14.84358829060675" as="geometry" />
        </mxCell>
        <mxCell id="fakd-Xu31UxTlEahAAD4-18" value="" style="shape=image;verticalLabelPosition=bottom;labelBackgroundColor=default;verticalAlign=top;aspect=fixed;imageAspect=0;image=data:image/png,iVBORw0KGgoAAAANSUhEUgAAAYQAAAB4CAYAAADymoUFAAAABHNCSVQICAgIfAhkiAAAABl0RVh0U29mdHdhcmUAZ25vbWUtc2NyZWVuc2hvdO8Dvz4AAAAudEVYdENyZWF0aW9uIFRpbWUAU2F0IDA0IE9jdCAyMDI1IDA3OjAxOjM5IFBNIENFU1SKE1OjAAAgAElEQVR4nOydeZweRZ3/31XdzzFnZjJJJhc5SQIJ4SaRI9yHHIIn6qqoq64/XDx2Pddj1VVhdddVES9kdVdWRBEEERTlkvsOBMKRhJD7TuaeeZ6nu6t+f1R3P1c/18wzk4DzyevJPEd3dXV11ff+fkss5NuaMYBAjsVlDmCI/d2BcexHSKz9ct1g1ilUndqrbR4HxCVY/2NCbCKRf//BfYicb7LQEe/KfR+1ugvbqxf9Gx4dKb7faNjDan0c4xjHiHCgiwe1Ev7K2D+sIMsQdd7nALrguFLn64JP+d9X34+Rj4JmOLOn2jPGGcI4xvE3jvoT/+ir7E9ES8iihIZQDUqR9qh26nHvYzN+4wxhHOMYAxzoGsHfOkppDpWOLmUqyv9eh6ynuN3R1ZxqNVTZYzdVx5fE3zZeK8+/lgU8WtJi7ahdC3itPK9yyDW/1GqKKTQClTs3+5uk0JtR7XXGBuMawjjGURME+9M1OnaoxSRSGoWy9P5iMyLiuZVjktXb/IN2dYUWs8iV2sszh9pHa6Su63GGMI5x1Iy/FaYQhfowitcW6n3v+28sxxnCOMYxLLzamEI1fR0JIapkdddV92I0oCPCTnWObb8S6hcllA9Z0I9ag4Or1QjGo4zGMY5Rx6uNKVTC8EIax1ENKpunRqt982t1VxlnCOMYx4jwWmAKo8cEsuGe+9eHoJBEP6fyWkI2OqjauKPhIDuHCiX+Qo2hWCOo74iOM4RxjGPEeDUwhdEhxWOTw7B/IEJD14GG4Tr2K2OcIYxjHHVBNFOolAE7VhgJYXttEP2oZ1OZkedGSekRZCiXGsFK7WQ1gtp8HdV+X4hxhjBmeC0sqnGUx6v/Gb82iH8+ypl78u937H0oWZZUyJxGrzxFOYwzhHGMYwxxIJLb0WUCAaHbX3euqzD95JNliJbcg8ikSi3V8n0wMoUZErWikiZSLcYZwjjG8TcOHRLD0SDauuDvWENQXTDn8O+9fqO2/8WFUWcI42Wv/zZRirhUkrBeK4i++/2/4Msh6tnUm0kcKL4TQaVnVEpmz/clFP9e6nN57SLIR6jdN1G6CtNwnt24hlATRis9ZfQRNTn2B3Eu7MffAoMQReRn7BlD/aX/WiNd5DDOGj7y55UMg0ez/SmP7DOrrnhFNd/W6xmIMi2N9BqjxhDGNYMDH9XGWJc7t9bpV7yxSPV9GInWMdYkuLCv2YgWEfn7aCGfBFbe1qUeiGb6imy+8lhC5fkQao/CyRcChxvFU80GRbXoB6WOHOn4/o1oCFGPq1blrNR3B7aEWw3hqcZZlttWdRO3Nm0qt5+1mi6qI66196MavHo0nOikrNG5UjHjyQ/ZrDbqpz59GLtn9OrP9bDHSpLff9bTQmWxGtQSFVEt4avPFoa1otjaWeq4ws0CizM4tZVjSfXMX+UfF2WQMsifX9XIiKOxAEaLJFTbV4UZsHzjRa5lunw7xUSt1jvS6HDfsNKox9jn9tW0JhFICusJVepJ0J9se+V6H6WRZftjrh3NGvJpYLQNPv/MUrsa5D7PwmtYEW0U9rn2p1qtCXY8D2GUUK00/WpHWYncq/7YqJazeO2PYy6iHYBjZTqqvjzzSFH5KtGmq1xfy0h6Gk3IsyWqxz4UtvieDtSZP84QasDwCR+M7hQo5dbKZ17lzDKhOajEXvDCA+H551sC4QUyUSUNs5z1djgy0fBQ3ZOrP4Eo50quJSlqZLOpdEzNWEH7/yTltJ3cfpYi6qVQidjWx7FfveesUHJXBZ+rN+FFafmlzLcjFVbHcMe0Aw2jFTE0tlJHOZRiBsHnSFu9V/RV0fnmmPyFW0ywavXR1K4s515tZBi9Z1ZOiKil/HIh86zGn3Mg1eIpnIulBJLRwoGm2Uf3J2ot1BatNNL7/JvREGoLdxyORDXajGA0pNdoolJekq3e7l26jWi3cfBb7ah8rrFhVyZCtS6m4RKy6PNqN2NEaX2vxfITI0PxUy2l15YUlCrOsdqCNyrTn/L9qXSd4eJVzxCEyH3vS6tSFP2mtUArjdY671jzm0bnjXl5ole8CKt5YOW5fmmMbHHXRrQrnV89Mxh+SOtIzEjV9Wmkxwzn2gb5kS/1T/o6sBlBLhHOJXSVtKholHYiF59fWRzJbaP8OEbNz+Gs5+rn+JhGGY3ZlUaAgHYnG2MApAYdLFuSSNrMXdTGrIPbaOtIMnFyA00tcSxb4rmKTNpDa82eHYPs3j7I1g29bN/cT1932tgzLYFWCs/Lfzium2s3kf6zyzWRlDbFlEK+HbBai/boTwRR8jrFC07kvC+EKirkXt53UH4HrbHzLYwc9X5G9fW57G8WUTgt8ldBsS6a+7ce8z9gPOWvW39Ekf3Aj1J9G2P/9F4VDEFrkFLQMiHOKefPZflpM5l/aDsz5k6gsclGWjJPGyjVhlKa9JDL7u0DrF29l5UPbWf1k7t4/L6tKE+hNQipSSQM43EyKpxQGl3AGEYPB5qkJ3P6U6pvUuUwBVUPYn6gM4XRfkalzEelTE2vdmTNtKXNacNtuTqzS/Va23Cf/dj6TYKrZP+v4uhFfG9UZlM9b/WjX30dK86dzYLDOojFTRiM9M1Cyic+weeyfSpxyK5tAzxx/1Zu/eVLPHzXJlKDHlIKYnGJ55I1NQnQkaHUpS3iAYJMxXKP50BgBMUaQ547uao2ouWg4S/ysaixUz1qtfHnolaCUB/CA+DtpzyY0hpCdabI6iKMCtvLb6Gas4tbq838WP7qwftKpqZ6kuLaGEF41oHAEIQwNn07JnEdhZCC406ezrs/dgQrXj8Hy5ZIKULiX3jeSKE8FfodNqzp5s7fvcxvf/Y8m9f1hNfJXlOE2kLW7zByhjDaBK6a7NBCk1Dht7Vcq54MIWgzCmMpZY3szMrjX+9r56Ka0gmjgVpNNbUkg0VfpRDDYwiFfSn3XbkelAqwre7o4aA6RlXy7ENGiSHUgkTSSP2uqznhzIP48BeO46gTpiGEQHn+RBYiJMyh87hOtEAXjIAQMDTgcNfN6/n25x5i55b+4uvlWDTM+ZUmrCr4XAmjZZuOhizBBMr5DYhQxQuXX5AbK/0on6ija8FYhyuO9DmUspLnorypovT1a3HcK7l/lrmskg9VjvgaDkPQEe+q7U90u9VqBqV7Uu3xIzORDfvcA4UhTJraxFd/cjonnj0L8G3+OZK7yGEIo4UoxgDws/94ih9//XH6ezMAWLZEeQppSTy3ROB+thX/by0MYTRutJyEWlorKM0QShOjwjoymlIMoXy/SqFcfkX9UJ92SzGE6u+hkABV7lcU0/Sqpcx1Rv5lRU33Xy9zUTUtRLeYDaUoFRE1Wgwh/9zK2mW9Qo4PCIbwgU8fzYc/fxzNExKACQMNfAJa108TqBZRjGHDmm6+9o/38vCdm4F8n4VS1RD7WjWEWo6rhPLMIPgr8j4F70Te3/wzi9strJaTnaj5eQAj1RRKXX/kqO9kq0ZDqLaFkSz22uoI1RvVGFrKCRZjxxCiEjhz+1JoXq0WtcQWVTYslWOmr1KGYMckdkzy3d+cxynnz9kfXaiIgDEopbH8wm6/vWY1X730XjxX+ZqCbyQp5CJF2J8mo9LBnbnvo3IOqovNzqK4fFoQCV6OIZTuY2mUJybDw4HGDPLPKh0eXPr+s4lQ+5MhRJtgKs2p4RS1K2yh+F1UC5XNcvnXqrZkZHB0voxfm3kwuuelNYLaNcq84/cXQ1hwWAdX3ng+sw6eUFWE0P5EELIaaCpPP7yDf3rbH+naM4TnauPrUNELLjuF9i9DqGYKikjiU5uEWrq2SnQVm9wja0P1i2d4bdUH9dIQqpMES9///nIqG5TXECo5ksszs0ragSj4NthjufrEwGLDaW3zbDQYQmlU1sXK9WG/MITjTpnBD255Ay0T4jgZLwwlPRCRK/gHWoDnKl58eg9vX34DYMxHJtu5dGxNaYYwOsSocJGVTtWP/lSJOZRGsTHIXF+G7/N/rzT98pfSaGAsQ1hzn0otZ9RmGogy5e1fDQHKa6ABohlC1FhFE/zRQKXQisqoxkVc2/Osto1aTVxjkpgmpUBaAtdRrHj9bK66+QLiCcuYYuz67ceglCaT8kinXDxPY9vGLJVosEOTDxgiH5ar8J0Uub/nwxyn/b4GDOyuW14JM6Jzy2GUNh2NHhMor/IGv+vwc2lkpabocsmlF2HhN1FHDt/qf2BrkMNDNaNRiyRZa9tjC0F0r4f/ZEVF8lxbXnClqw3vuMJ1EL0KD5xnZY+FdCSlCWo8dsUMrrzpfOIJy6fD1UUOua6LZdlobcwznushpGTzyz0898ROHvrLJnZsHmDrhl4GejMIKZCWxrIsnIzCsgQLDutg8dGTOfqk6Rxy5CQ6ZzQDoLXpgOeaiKYo85UQgJ8HYdmSpx/ewS+/v4pLvtTM439yeOmpFG5mdB/qcJ5TvdxNxfZKnddalNQbkCSdswRMtJHI8zOUyyIVPhk5kKpU1hejSbjzSdBrDdXmNLwa5k5U4cXCI4bzHIdFMw7lylEfMTsmOWjeBK69/y20dSRDRmDs8rWFk+7ePsDvr32RP1y3hpdf2EPTxCGmzpV0zooxdVYjjS2ShkabeNLCzWgG+x1SQ4odmwbZvCbNzg0ad7CZzhktvOfjR3Li2QcxZUYziaRRlpSnQBjGEPQrYERKaTJpj2UTfsIp79Cc9875OBmPn3xxKxtWO+GxUY9C+3u7VqvAjRajrmQDLfQ2lM5azrYnIiaszvnfIN+HEGU+Km8GGNk0rebssaxxk4+o3pV/DrXiwHAqF38zHJPRcJ5TrbMn8DGUMqkWopIno1I/KjOv6mZwYZvRv5TGmJiMtIbv3Xge7ZMaAPKYQfB7Jaaw+eUerr7iCX738xeYMH2Ak97Qxjs+M4uJkxtRSpV06poQVgvHcYnHY2it2bapm+ef6OJH//kHLv94C6ecP5fLvrKchYdPREgR+g0cx0VKkyXteSYU9uf/uZLGif2c+47D/eij3DpKpRw6xQrz6BCfyqacQoZUXQZwtG8h95fqEteKpdao60T3qRaJt/I41HLuSBA1/pVLGIyj9BwZG+T7zXLFmPr3pVwkn84TkoYbbVVDX8ZCQ/jBLRdwygVzijSDvI6UuZ/vfv5hrr7iCeYeNcQb3j+TOQs60DpbpTRXmgfwPI3rKNyMwnU1ti18X4JxXnuuSSpTStO9J80d129m5V8Ei4/u5F++t4LDl3cipURrjfJMVVSlNBte6uatx1zPP357EjPmNqM13P/73fzhp32ExEznT+SgW4FTT5a0ptaK6toQBX+jEGVrLeXELGQAldoPNIFgZ7VSeQqVvituNb9f9UedFliJzyOrejmcvu1/p3I0o66sIdQDw4/VKRREqtUZart+OaZXOfy2nCBaG0aNIcQTFpm0x8X/cBhf/vFpVZyR65g1DGLHll4uveA2Nm56hUv/bQGzFkxAKQ/laYQ0x2bSHl27MmzfOMTW9Wk2r8nQs0cx1KdxMqAVSAua2wTJJsGEDosZB8eZt6SByTOSTJgYx7IsMinNjde8wGO32pz79gV85r9OZNLUppyMZMXZc3/B3OO6efMHFqLR7NmW5tuXbqfwgYRO5gKGkDWvDGdBj8yHUOnsQkJdSuIvNCCNJUOopVRD/TAyxlANKa8mE7Vyy+WhqZRRP/qoFGU0WsxgOK0Vm3ZHjyFUH84daCjVayo15yGMBkMIitS1T2rgpqffwZTpzZU74vfbOHfhkbu28MGzb2H5BYJ3ffwQ0uk0IJF+UNLenSmeuKuH1Y+k2LvdJT1omETgFPZc3/7oMxc7Dk5a+/0TeC40tgoOWhDnqNMaOOx1bSQbbHq6BrjuOxt5ZWWMf/neqbztQ4sRUnLNFU/yk2/ex+W/WYKnPGIxmx98dgPrVzlEaQeQTzB1WNyudoYwotokVR4XZdMvtkEWtyZL/pJtN7cFVfBtlLeBgr6UlyLHAvUb/9HRO6rBgaUh5NrMoxl9PZ5xLrOJQvG3lch9NoehNtTLhzW6u6eJ0WEIgXbwrV+ew3nvWFBVRVLP8wCBbUseuGMjl110G2/+WCPLz5iG5xe4EwK2bRjkwT9088jtg+F3AdEXQiByoliDcFHzPtpuGwxYY4vgyNOSnPKmdiZNbWLts3v55eUDnHrBHC75pyN4+/Lr+fQP59I5K47neTxxdxe/+a+uvLZGiyHk9rP280p9inICR0UUFZ5Z/H2h8y06I1kUfM7/VOn6+Wftz8iRkXkj6mfgqqal3GMOBIaQReXnO9JnXChElL5a9Fnlx3c0GIJpt/5MoZbrjApDEAIOXtLBrx+7mGSDXVQbKApKKaSUPHHfFt576u945+caOPbkGSgFaI1Smrtv3M3dv+7HzRhtQCtINErcjMkV8NyAcYiiawpRzBDMFgf5amyiUXDUaUnOf98kkIr/uWI9rzyV4Ix3NnPG2ydh25J9u1J860Pb8FxzVqncg3oyhKi2azs++3/QI0p8iiLK5RhCLT2IMhAVt1R+wgxnQdR7klef5Vr8Lv/TSHpWve34QEhMy0V5hhDV18LjK1vlc68THdVWuvVqjqslrHU4T7meQlG18VJiMd8fFXHrp3dcyPFnzarq2CCsc9O6bs5d+H+887PNHHfqVFJDGeIJm11bU/zq27vYus5FK7BsENKYfaQMtrwU/qhXNl6YowrT17PnJRqME/mNH2nlmFPbeeKebhYf10xLWxyAa/99K88+kMm2owuJa7EPIcsQgv/rJyvm3lPtv0WbbIrPj/5U/UIKfAjF1y7Vp1IYTrXT0dMphidJlj+rlt5GmzUKcaAxBCj97PI1hHIjVckyX8x2S/unqiPw0VpfpVya8ibR0teqdm7X3laplusedmrHJIuOmMTy02eG5pxK0MrEuXzw7N+z/ALNsad0kk65JJIx1jzTy/9dsZeBXkUsIXztQKCVOc9TgA7sRKVUzfKEJ9ekpTWkh0w7t17dy+N/HuBdn5lKa7upxPrsI908+0CachO1ugdZvWOoHqheZR3u75WstOV6UDu53h+hiPVArXrFaLKy1y6qW5u5voCo0M+RRYJF9yjL5oqPr13zLdSCKjP9SvOvfnUjfHiu4pJPHAGieIezkhCCH33tcbr6tvKOyxbheYpYXLL68W6u/vxuBvsUQhBmA7sZHTqN/dMZCVHJCxUVhA7u1IBmw2qXb7x3C8890s3QgMv1/9GV10a0uahaYqUpzcTqDV3iVRlSZhP1EkmL+UvaWX7mDA49ehKJpIwwx40uDixmMNrP70C619GFJjcAul73Xbmdkc6n/ePTitIMR07O66ohCAGt7UlOOHsWlh+7H4RtlsPWV3r44b89zid/uADHcbEsyYaX+rn28n1juh9CYLqC7DUDev+Lb+yjbXIXmVQ1qvdwJsjYagzVQmA0sUTSIp3y+Pg3j+ei9x1CU2screHZR3fymYvvYMfmfjSaWMLCcTP+bncC9IF3T+PIYqyezvBIZnGusGmrNhOJnbBw0h5Ns1uZef5s1ICHEALHcYk12rzym7W4PZmqelSKXdVSPbVSnyvfX23WiVqiourGEAICeuEli2htS4TaQSlmEBSXkxK+eulfWbA8xbTZTQDs25Xm6s/vMuahKu5EoyuaGsva1/2idFHRUCFjUJqunRFhamUL2tWCA5dwJpKmJtTff+5oLr70MLMPhNJopVm6fApf/MkpfPT829AaMmkPISxUOCavdZPH8J7bgRtFVR8M5/5qzzMpNK1FX1N5Gqs5TsexUzjpY0fgKYX0BRUhBem9aTb9fj24o+1nqc4UWJ6xjC6dkIF7c6SvRMIikbA46ZxZYQXTcuGmQdbyhjVdPHr3Jv7uo4vC3373o904KV3VddGVjxtNlI4wMi/l/wuPpxYSOXaEoZqxOutt85GWeW7GhGTOOv7sg1h05CRfnjNaQfafrIsq+2pH4fjuj7lavj/1/VfqevV4SX9WVUUfAO1pVH+GzL4UWggUAi2FWZVa4A56CKWLCluWuheo3VAY9FjYIvxmdFCLKSl/tASynIZQa4cFre0JlhzbWZXEbCRyuOm/X+TgYx3aJydxHJdVD3ax9qkq1bfgOhUuF/1QBYFUETaTpyXkn1N8T5Xj5euBehT2GinSKY94wpT9kDKbSa61Bm2SAJ1MoXRVrFSPHaIWRbVyZ/3Gt5DgVjxQFB+r0cbs9upXGkJUdsCOrEppXuSg1KHZUsYKCKOvVKhBF600sUabzKA77Ou+FmCXDkerbWGk0oqTjp9Fa3sCrUwkUDlorUkPeVx75Ure86UOPM+jv9vhD//d7YeRZolwlKZRnARW4joleyAijwjKcpc8POoaEQwwmn2Uump089UsiZHbLcsj6IOT8diyvpdDj55MatChoSkWHjM04NK9N5Xtr8guwqzhaPTU8WI5Lvp5VMdc60d5c40Yyn9X6vmXawOhs/JLNVF7ZZ6qqBgNNjqoPW+mdoE08luhsWI2btrFTsbQWqAxLzOsEvy9UJyh2plBpXVcFO7qVnN0uWNqQ3a+6bzP0deroy6vNSw/fWa40Uw12clrn9sL9iDzF3eglWblfd107y7/UKJ2JisxFchV+ooVzFJnlDYDlYIxf4295D5WsGMSIQQ//doTDPYbZqBymP6vvr+K7r2pEluhjlUUVWVUMmuM/vUjvvC/lEL4lXWjX+HxMqqhMYQgNBlGvUTdbV+lDWuFzzL/ufp/lcSKGe1WiegweBnzhZe6x3UMh6nVowPF41WNWQ/ALnX5mm9FwJJjpoTO5GpyEO79wyscdIgpVzHQ53DvjX1ljy8V4qnDDldxN1US+1JO5qrOraM5qRpNYjio+flagpdW7eUfzvw9H/3GcmYvbMPJePz6B89xw09WmwABy+yM57nZEnbZrPHRYQp1pz+jhFKWYzNtRaRLNNCpJGSZAiarP9AYREjFzPhqIUuMR5SEGP1N9A1Em1CD5WQYgeEW4VLU/krYn/KABi/jWxxyQtW1BitIlvSdyXaDjTsMLaHgcgUYzuzcfzO6blFGWsOMOa3IwFlTAVJK7rp5PfOOacCyJWuf6aNvX7YiY1H2b15ZafO/YQSi4PsS/auiT4XtVMsUqvKZRC7I6h+8ZUuSDTYx32HvuYrUkAon82gh8BkoT2HZkhee2s3HLrwd5ZnNgoL9pHORSyRKjUwwrGGYb452oTyVc5wIf1PKw7Ly998uSf4Cv5AvoHjV5sREYMLEhD8GGtdVuI7yt06ttoXiPsq8eRWY14K/OXPdT9pUOeMTMAelFDoYZC3DrCIhpUn2lMKcL7MMo1R/SvZcafw9Z4uYAkJgJX3pO+WGYy2ELwwJiQQ/4iz33JFyiEqGt/x+yqQFSuF0pyAiPDS1YwhsaZiBLYuijaJ8GllXo5mfQhqpWwvzGMJCNdqfe6MewVQ7ogxEdWMIcxa1k2wwzZUjogGRHehLs+WVXs56f5sxF/11oOw5+SiWtypNcYFv1tbCT6QKahlFS/PBBChXpyj3uHogiPUPryHgrLcczIXvWcSMOa1MmdEUjnFqyGXX1gG2bejjLze+zO3XrQ1rORUi2PsZ4E1/fyiLj5lMesgl2WijFPzgS4/ieZpP/PvrWHHebDqmNjLQm+GZh3fy8YtuR2IKFra0J3jXx4+gocn0wc0oWicm+P3/vsSqh3fgeRrPLyMShKq++xOHs2BpBz370kjL9OW5x3Zyx2/WEYtbLD9jJm/9hyUcNK+VjqmNxGKSvp4M657by23XreX269aglCYWt0gNGkI8c94ELrxkESvOm8302S0kG22cjGLf7kEevXML1135LBte6iaRtMmkvTKE28xFyzabIGXSpu9Ljp3Mue9cwDEnT6ejs4GWtgRSQiat6N4zxCsvdnP7dWu599YNpKp0QmbNGvl0VWtoP2YyB509h2nLOmmZmCSesBG2YKA7RffmPrY8vJUNN63H2TOEBlTIcHM8AhKEVNhWDDfjIeIWk06aTufyKbhDLnaDhbQtejf0svnX69COInlQM/MuXsCMZVOZML0Jy5J4jsdgV5o1t6xn7f++YKL44hY644HWyKY4086axZyzZjFpQTvJiTGUB6m+NLtf7GLttWvY+8h2ECBtiXKiym5H6CnSmBSs1jgz3zCXWSfPoG12C43tCayYZCjlku7L0LWuh61/3cGOuzaR3jNYNL6FiLUnWPD3i9FaM2nplLzfPKlBaJZcdhjda3tItiVYf/PLdK3cnddVYUukNkRe+OHWTbNamXHebGYeP5UJ01tINsWw4hI35ZHal2LXuh423b2FHXduQrgKYUu0V16ImLxiGjPPmEVmMINUAqvZZuufN9O1cjcHvWk+B18wl/bZzUgp2bOxh/s/dh/pXUOlG6xi3IuOWFKyuF1tasuSY6fwq0fehrRyo1CyvweMIPi7c2sfZ879Gf9xyyH0dKX45oc2k0npvONNLyKIfrBnAgGRz5E4LUmiPUnn6bPofm4vfWv3oRwvzFUQwQlaRAgapRxu9TD9mLbzebJpV/qlOAJYtuTvP3MUb/2HJUyf3ZLfTsSMEkKwbUMf11zxJDdd8wJ2TPrELfcYiMUtrv7LhRxxfGeYH+I6iveeeBNf/umpLDi8w4ylbwt+5uEdXHrOrQz2O0hL0jmziT++8p68rU+V0lxz+ZP89OtP0tBk09udRitoaonhZBR3bLqEtknJnN3xNI/etYXL3nAbP7vnjRxx/FSAcCOiQtx/+0Y+cv4fjN3akrz90sP42DdeR0OTnddmMA5aaZyMxzWXP8U1lz8VmjCjnqz098luaIoxNOAweXoTX/rRyZz4+llYdrFfqFDO2bahj599ayW/+dHqiNbzV5BEYCUs8DQyIfEGXRLTmjj808ew4JyDALC0yDsvFEqUYrDf4cVb1vPcf65Eewqr0cbzmVHgeBZCI7TlPx847tsrOPT1s+c6IXEAACAASURBVFC2wFMaSwp6dgxy6+k3c+injuaodywklpTg6Lx8Ia0UWJK9G/r566fup+/5PQhL0ji7lRXfOZkpC9oAcFIudkyYyjFKI20JGtY8sp1HP3IfesjFarDxhlzK0hNfKl/4sSM46r2HmIAFT4EUCAVKGAldaeOnUBKGetO8+JuXWf0fT4ajBaKI7jTNbuUtf3oDYNaYkIahCjNkIMFGoJRCSMnd//4YG3/xYk6L5sEH2k+sJc78y5ay5E1zaWiwsW3bHzONJY225Houlm0htKB31xBP/fQ5Nly/JjxO+yGuYa6WbTS6+R9ewvEfXWqeoxBIT3Dfd54m2Zrg2EsOAdvQPelv5XvDmTfj9JaOyIw0T1ZA3TSEiZMbquYhWmt2bhkglnSRUrB7a8qvHxQwkoisv1xpyH9SWlBU1TfWHOe0q89m2oJ2lKf54yfuZue9m5CBRiAVWknDHCyF9mSOCVZQKgpjpCj9cASxmBUS8I7ORq656yIOXjLR3GpBd6IlDM202c186cencPob53LZBbfnX0sQ7gnd35MOF78QkEm5fOGHJ7NgaYf5Tgq/thRcd+Wz4TWDBeFkFJbveQqI+NCAi+dphgbckPIqZZiF66iC7G9BR2cjt619N1MPag41l8AHYawTGs81JqoV583mqlvP57I33MaXfnQKb/ng4oLtV/1F5S8wrTXxpM2HvngMiQab73/h0cjxD86xLIGT9lhx7iwu/78zmTAxEbmjX9TYT5vdwhd+cDKHHTuFy//xPtIpL9wLJBz73OcgBV7aQ0jBpJOmc/K3TqSpOVHErdyCUiDSskhOkBz57kXMO3sW9336IfY9uTPvPpT2BZcc27435OFJwFFYUqKVQHmak35+BrOPm4KFhXY9s2mRCJ6bRijzsCbOaeGMH53G70+/kYnLp3Lm908j3mChFSihsZOWmRfKEG/XM0R1/gnTsH56Gg+9+y8m4pBihixtaZauq7ATFst/fDrzjp+SNUH6GVJagvQjg1zPJD1KpWlsSnDU+xYx7YRO7v/wPWR60uh0sQQubRgacoglbSw/BwH/frVPRBwNEmNWwvX7a0mkL9ELNNiSZHuSU//3TDrntuI5CmwLD1/IzGFElrRBmYCixskNnPipo5m+YhoPfew+RFDK3zfnIX1xU2twFBqNcH2tXmgOvnAOnfPbzJgD+AzyhTs24w66VVlGyn0uRN2ijNonN5T9PUsUhM8Q+mloNg9m2/p0gf+7tKVdYAYzlrRNBIadfwvTzpzN9EWGmMYsyaFvXWgkDQTSthDKwrIsY3t2rSBdJIwUMu9l/t+6/JN5r6hwkUlTG7n2wTczf/FElKcja0FFRTQZgm3+nvj6WfziwTfT0BRDCDOxpCVzNLf8cxuaYxx6zGTDIHMkof7eDPfftqHsM83rQ0FfVY56HOScBFiwtIMpM5rMntS2xLJl3u9SCv870+eTz5/DVbeeX8QMlFI5jMEfHynIpFziCYt3XnYYB81vLdtvz1UcdeJUvnvzubS0xUsyg0IENa+EgDf+/SH869WnACYiKzraCry0h7Qlk06ZwdnfPZWWCUkTmeOaFwpQxiwRvIypImB6Fm1TmznnB6fRcUwnQgrs5niYD1IoHGlf41JBh4G2qU3MXjYV5QHal759ZqpcD6kB20Kh0VrQOrmBU39xDif9+4nEGywcR4HSWMIQaaQ/vxBgSTw02lXMOW4KCy47Ap2O3qlNSAGuQkjBqb84i3knTEP5W+J6ngr3QAFQWqGVwpIClDJ9RaEETFnUxtnXvZ54W0NkqLvdnsS2LKQQCCkN0ccwg8CSIRG4ygV06DPD9xEJYZhDsj3Jub85j2lzJuA5Khu5pFWYfKp1/iv4F4tbHHzCdE6+6ozsmvCCwABh3vuQOaVeNJpJc1vwlMITGk9ppC2QlmTrbRtHxS9RN4bQMiFe0/GD/Q6JRvN+44tpIMfsU2JBht9qjTPkIpN21qkqBUhBrDmG53l4ytg889pyFQiBchXayhKhaPYjikXCUUKgHfzigTczc94EnIznm22qN1UJmSXChy2bwjd/daZfT0jlEeei83IZtdJs3dCL6yoe/NOmEd9XLoLFnlsKJJDqnYwinfJCU0dUX1ecNztkaEHosZNWeY7MIHs6lrDwXEVDU4x3/9MRJfvkuYqOqY1869dnYceis+t79qZ45uEdrHxgGy+v3sdAbwYw1zcaiZGqz3vXQj7yb8eRGnSJ+47WMH8ggNa0LZ3MaVecQKzByo5JzLykJcAGW0psn9AKaYit5e/8ZGlBQ2uCM793CsnJjXnEpHjMFa6n0Mo4OwOBRyqBLS0cNC6a9KAHUqAtC2UJtPaJlafQCmYcOYXWSQ1oBbZt4WEItud4BEXklZBILbGxkMJCKsHss2aWLD0TOPmXffckZiyeiNAetk9kLcsCKRjqzrDj+X1sWrmXLS90MdiXQVjGjCQVRsNJa9qmNnL8d0+KnDhOr4O0BSjj3/KCyQK+CRmUUGhP42YUsUQM4SdhCmFM0AAn/vBU2job8ByFsG2UNvPQwsLtddjzUjcbH93FzrU9ZPodhAbbfylt5vqcEyaz7PITw77lmek0aCFMkID/VyBBC9KWIK01PXsG6e0aon/HALsf2VbyuY8EdTMZRdl/y8HJKCO1Kk33rpzSDlUS4fiURuZfvIjB7QNs/N3a8Puh7jRCGXXTEQoasglUWsOUFTOZsmwqW+7eTPdTO6InbNiFkfsOqsXXfnY6M+dNQGvjQA27ojX9PRnu/v0rPHbPFjav7QFg1sETWHbaTE69cA7NE0yhOcu2AM3657u4/bp1gPEbeF5pQhsUH9RK853PPsz/fecZZszNStWqDkJI1pxjPjsZk/ncvTfFtd95hjtvWk/vvjSnvGEOH/36Mjo6G41PRWQjjoLFo7W5vx9++THWPLOXvp407/3kUfzdx5YaJ7lntAbpM/yly6bkOdUL8bkrT6JtUrIooqxnb4rvf+FR7rxpPUP9Dq5rbL9TZjTx0W8s45y3H2zmfE4Azd99Yil33biejWt7/Agr87udsFAZhdUYY9lXl5FsjOG5JmJKaY0QEhePLSv3sOGPG8lsMwEWrYsnMuuMmUw7pB3QxscgQGhN08QGjvzcsTzyyfuM0zdKEteamG3jeR5KKywsPKWwhEQKwZpbN/DydS8yuLGXpoPbWHLp4cw5bgpYEqVNdJMlbITQuK6HZdkMdKd57toX2PL7V0Bpmua1cvRnj2bygna0UgitQyLaMbuVhhnNDG7pL+6bq5j8+lnMPXNmuDlWMJiu4/HkL15k8w0vM7ixD2yJUJp4e4KpZ87muH8+nIZWs3OhHZN4WjHryMnMefchvHLti3lzPb1jgAeveAqd8WhdPJGlF88PI6Y0GiUEq361lu71PcTjkq1/3oROeyFdUK7i4H88nBmHdeBlFDJmzEQKhZdSPHTVSrbdsp5MV9qYxxIWibYE8999CEe9exF2wjZajQbQLDhvJhtvn8Guh7Yh4xI8F0EMlfHI8gcRzikpJXiKl/+6jWc+eh/xyQ3EWxOlF9sIUTIPoRYIgbGp5XwObMFRjrngpRU4jgrLW5vf823DkbbfmMUZ3z+VaUs6UBmPVUsmsvIbxlZs+8RUSU3Cto2aroz6NfnkWZz93VOJxSyWXryA2951O73rTDnrgFZGFuccBUUh1yw2Z1EbF773kDDD23VMOKeQgkfu3Myn3nEHaUeRHnKR/jA/8/AO/vLb9fznPz/I9245lyNPmMb2jX1c9/1VXPudZ3xTkQjt2aIEwzbMQvPgHZv4v+88Q0OTzb5dJnqjHswgF9q38du2ZGjA4eMX/ZH1L+yjZ5/REG/5nxd55YUufvSnC2hsjvn7a4u8ObH++S7esvR6wERlSUvyvX95hIG+DB/9xvKQEQQEoaOzkZgtwt3tcrHk2Mmc/qa5eTH+ADs29fGOY39L955UeB0wZo6dW/r58gfu5dlHd/HZK08ik3JJNppEvaaWGO/658P51/fekxcxprUxO8w4by6d8yYAIG3bEFAp8ZTLA19/go3Xr8GKW34QBGy/ZzMvXPU0h152JMd/ZGme8gpw6FmzWHdsJ3sf31H4k4ECC4H0bdpojcTY7h/+3kpe/vnz6LSHFbfoeXIXj//z/SR/fibTFrYZ84wUaOUhhMQSEiflcveld9O7ykThCEsytL2fez/Uw0W3X0C8MY7yPCxMsIKMS2ITk7ClP3IdL/nAIWitEML2pW2B53rc+9mH2X7HRqPhY2ztsjGGsy/FlhvXsnflTk778Wm0TTMmBqElntYsftchbLj2xcBFYIIeBl22/u5lnLTHxB0DHP62+b5/wtAEjWL7PZvZdf827KYY7kCwR7pPfxIWR79zEWQUuoAZ/OmDd9P91E6kLZFBwECTTWrnIC/810p2PrqDU759Ek0tSWxAa4+4FWPJ+xezb+VuUBrhxYyWpwV5+7po0No8g/4N/az66P1gWWR2pcjsShWZ1Uthv/kQcsMlyyFgEi1tcZy0UduddP7vxci/jcSkBqYe2o52NFYyxrwVB4W/KaWxLIgpo6qF22oimHnCdGK2QHqKpoY4M86YXcLCn32N1r9cfPBfjkEIgZsjxUpL8uyjO/n8JXcx1O/iOiq0twcv1zHRJ+8/+Wb+45MP8tYjfs2133nGOBRdFTp9y5URCbSRgBkYZ3CWGdSjkqsyHk/jsPabu+aKp1j54HYyaSMMJBttbFvwzMM7ePzeraEzOpcZCCH457f8CTsmmTAxgeuashkAN/x4Nd17U/6xhH+bJ8SJxazIZ3DuOxcW9TU95PKRc2+nZ0/Wr5VJKZSrUa6JTvMczY1Xv8Avv/ssiQbbMC6/nyddMJsJ7UksS2LJwBdl5tLBF84L/QsidP4q7v/qE2y8fi0gsJI2IJAxC2FJhG3x4lXP8JQf+RJAYDSuhe9eXHKOSWmcvp7roTx/fUrBllV72PC/L4aScJCz4PZnWP3fz/uM27+OFCahS0qe/p8X6HlmN9rKJnRZDTbOrgE2Pmac3IEvy45JLCFomT8hck40Lmpj+uIOY1UTxk+iETzyo9Vs+8smYwr0I9nQGq8/YxirpxhY38vdH7wbx1GGaGIcuxNntjDlzFn++AikZaFdjZQSOyZpnNxA4MAVZHNYrKaE6UPaw0pYWA22scEimHbWbJItcWTgM0Ahkdz7qQfofsq/Z0ugUi5KgNfrhCanfQ9u59ErTBSUp7WfM6KZeUQHyckNuI4qNvlpsiYtjD9p011bzJiPQS6DXZpnFH5fnjDkLsJqTN+t7UmUMlzQc/FNHgLPCwJ+Ai5ejFhbAiejSTbFjGc+JwPRtgNnTzG3i01IYFtGxZQ5DtRyyMoK9UcgyR55gikIGJT9sGzJYL/D5979F/btGjTSvj8XPH9h21bW2mfZkl9duQrLlnlmIbPNaL7JJaoPjqt49tGd/vPQpNOBTycYIyvy3KrhM4Ogr71daW665gUAUoMOyUYT9tnQFENIzfNP7mbFubNxHEU8YYXM4JmHtrNn+wBSCnq7MsQTlnGOAn1daTa+1M3hx0/FdZRfbsMwI2lFp68dvWJqEXPu2j3EG9+/KNwhD3xhJ5ifrsaOS/q60kyYGM8STt961NIS57DlU3jkjs2GaSuNyng0Tm9l2mETje83iLwRsP35Ljb9dm24Zpy+jJlvjoIg4FnAqm89ybxzZtPY2YAV+H1smLykDStZPsNWeZpY3DaLQmlevnEd7pCT1aRyzIa9z+4hk/ZIJEVY4wdLkurLsPHmdUa7J5sL4Q25CCnoenovnDwjnMPBuNjx6Lkz+aTpxlnua2c2Fm7Go2lSksM+dTQiYZmkLkf5TEkhk+Y75RnzXao7Q8vkJHEtSDsuImYx7bSZ7LrT+L8C/6LneniOwulxzLjhRzIZboO2/efhKrTnWymkEROnHteZpxlIJJmUw5QTpzLlpGnojCpBQbPfZlIZ7ISFrUFIidUomLS8k8GNvcaX6Sf/Bc86IDgaZeb6c/sQI2QG1VqCavAhBE1Gk8ferlRenkEldM5opndXjJ69gzj+vgdSgpejaBi1zw8EtQTaMdKkco0tT2sBloWXczktTeSEQhPTUaQs5+CCfi788JFMPLSd5696mp61XVUxtuGgsN3OGS3+JAx+Fzx2zxZ2bR0osn8HEpGrsns0xxMWycY4A70ZmlvjDPRl/NBNL2yvFLTW9HWnw/cmTDDruA3GK9i/Ylj364eyBvkNe3cO0rMvTZDLkBo0C3VowPzd8FK3n4wm8/JX1r/QxUCfE5pwAme8ECY+fcfmfpa+TocO4gCyhB7cMbWxaKVMndXCJZ86sujY/F318s2aoX/DAyE0S183hcfu3Iodk6Z+jqNoWTghWxbej3YRQvLynzbkDJRPSEVOyYfgWlKw7u7NHPnOQ3BSLrGkBQiaJyVpmNlM/7ruoHNFziLbzw/whEY7mt7V+/z+Q7w5TqY/gyWNhup0pUgPusT88FLhaeyYYHBfCmf3kH+fKo8caKXp29RrBlrrMCrKEgJVwlTZvqgd6QksS4ZuGDtuccQ7F+FpjZAYQc+qvCOf52sKQgpaF0wg3prA6c3QOCnJ4N4UOOb8WLOd6/Ixw6UF2s/nsGJmrQkNws9ZaJ1r8oACZgAQS1gc8Y5FJns/ZmFVWBie8DUELcgMOSQa40w6ajKbblhnspqlCDmsJH9uOZ7HUJcZ91J+wHpiGE7l3OEM1F7Ysbmf9JAblkkWovDYfLRPSjJtxgT27RmksRm8DCh/QaF8VTFHirdsaWJ+MREGATHROvsd+IEdQiACIlCOseYM7pJPHsey9x0GwNTDJnP7xbeS2VdLFmD1EFKBNuO0dNmUcI+BYLyEgPXP+74NTR5hjkIm7eI4GUAy0J9C69yQ1sozqK87zWC/EzqgA6ajgyS+HFTqSxSE8E2kPnHfuWXANwkBgbSWg67dQ0VBCkIINq/rCfsVtCUAy6+fFJiYcoWSUgto6kHNTJxSPlQ6e7/kDUNhfxUa7flOWNuiuSVhInwc3xyiIT4xiRKm6qnwCb4Qmp4Xuox23GCBm2XigYNV+JKsJQUDvrPZipvJLRUkYrYpzVCGWphoFbCEheM59K/JbgOb6c+E9yQQuL0O7oCL3ZHEQyAsgZKCod6MkdbzBifnbVph+al00n+mUpjvi/sjmDC92ZhhlMbTGiUUIisRmVuRhhBXmsIxW2ILw/Aak0G1BEh1+/emNEIrk8EtCspQCNCWFZrBhBYhH1ZA86QkACqtsBPShKsikcLkzmllGJcOmZZA+4llKnBIWsZkqJTxDSlP0zApmU089P9Xgd8g0DoRSK0ZeqUPjUbGLVTGq2ZJV41CDXmEPgQRvnZsHmCoijT+YKG2tMVpn9zAlpcHaJuczfYTMnu3WgoaZrbSMr8tW6AqGCwlEFr4mcfR8AQmMSent6Uw47hOlOehhGZCZwPJ6U0V76Ue8LxiiRaga8+QCT8V2eih4FUo8AupTd13fGYToraZE+yCZoh0cHp91CQhRJnuBPOo3PnZYz1v5CsinfJyNvkpd11BUE+p5AujBdm2RHma5jZjSnJ9cweYaClh+VSEnOAFpcE2BN9zvazJIKd8uIxJPKXJBD4S/1wt/GzXCu67bGix7wfJ/S3waeWsI6nJOl6HIZIWDamd78MB8NIuWilUQEi1bzbJ1QaEQOrKL6208RcqTbzBZIHLmIVyVZaeBPdXGOSCIGZl+1c4DY0525ggg8S/oMlY3DLR7jGJtGz/ZSEty8wZS4YRVwCWkMQSVrbYkZTg6aKxKYSWI/Nmlju7EHULO+3Zl6J3X4oJ7dWFRFm25LBjO3n6ma20TpyAVi4CjR1P4LgmA2/mRQdz+peOx4pZrLzhJZ7+ykNIW2K1JMyezb56UHnOikiSkzsoyg1Uf2NuSrYm6asTMYzqTXDdzJCXs2Cz99I+qSEs5OZ5XmjvxNcYcllILBYjlrBMnLYvNef8VzWy2kjOubnrdQQF4qpFOdagdfHueLW0m4vUgEM65dHQlGUKrqPIpL2wcF1AOwxzLL734ButNK6rsWxBotFmoDsT0FO0n/nq+eYwE1uYbSvWlkBYAmfINfVuXD/IXsnseMQspOfSeFC2jInWAiU0jp9QFpgccjPtg/THsJ++TV5GjF7uN6Wy9YNjinXEfOIifSlX6uh1B6AdHWZYS2FMaE7Gw3M9I3WrnBM15NV28WH53XQFKFcjGiSp3oxx8vqFF5XKPkfTy1ypvPjeRM5nc5zGEhLlL04hYLDPaB6uL6TGfZOcfzNoYYi/pzTa9SAusKWgP+2CgFgyRv/uIXMNXXkey7hAitrnfOH9VQM7+4hHBtdRbFzbwyy/zkkp5K6rE845iNtufIzDlgmkNOp0bqXLYz98BBZG1Vr6hvms/fEqBnb0g1K4SoW1QypDh/J14bdZtc2XjINCVHm/1RdKC4Q2Jo7BfofuPUNFmd7LTp9B8goLJ2Pi1T1Ph4xBBAstQrptaGhg0M1E9LnSlDDTTWsR8p7i5V+ujVJLqtTRAbHIJSXR5CaLYlkn21Y5Zbd4KaUGPQb7MjQ2mzyVIDz3hh+u5srPPUpTS4yBPqfsPZSHL2G7xnwwtGsIz1NYgb9BGKI+eVknO/+8Cbs5jkp5vvnJCodCY5iJ1jD58El5V9Ba4KY9dEpn778SgclUns2yqglfPWkSqrgEZKpwU3sp2beph7vf+kcj2ddA+QKaklsOA7IZ3pHHF9i+slVh85EZcn1/TkAPJFse28njn33QlPjIlFbPcmldVBFMIasrlGPbkkxgexxlyHqSu5UPbq/qQQYlCY48firSbWXv9rRJAVcKNycpxHWM9Kw8jecpdCIo+5vv4Cx3TavK25NxP13fMitRDUNVrhqh1K0Z7MuwZ8dgXpkKrWHh0g5mL2wjk/ZMUpQ2pQsAEFlmoLUp5pb2o0yCv5Ec8ABG1kAyXNR+7q6tg1nHsDRRRCedPwshCJlBYahvra+gtMrg1gEG9qWL+jDnhGlGw+jP1SBybsc2Zod4ZxOzjp2S3Z9bazzPpXfnIIPbiisFCwxhl1pgaWMKsGBY81roXBt5aZhrFS/GKM1y77N7sh+UQghNx5wWmhe1m3MsaV6aiq8wr8lTJmIn7LgKk8XLap6ujtQAhdJ0rekJhS/hOyZnLus02nvGQzbGjP8hN8EqR+MXwhB+y44IfdYm8czKE2+KmYeM2b55yfg4whI7NfyrFnJkikg+nnpge5YgVYBWmraOJK9/+yI2vjRgog0C/0DMLAI7bqEsjbQtI1EF+/YqICyFUL7vKrCtRwxL7oBp35mnPOXbWUditavwcLR5CQRDAx5/+e36ovo3iQaby39xJqbWiQ7r3FjSQkortE0LITjqpOn89O4LOeKEabiODhdJstEO7/RvGaXu/u6b1vuVZrNO6HmL2/nI146jpS1OPGEhBMTiklhcEk/IUINVnuLw4ztJNlhRtADlKTzlx5kLgbsvxZZHcwrSGRWBjlmtvO4bJ2A1xkyYp9JYzXHTjl8FVLmKk394Srizl4m70Ni2xfpbNtYUn14pYgfwnd+RZ1MverH3ge24Q35BJb9Ldtzm6H9bBoCVtE1OQHMcqylmfDUJC5GwsOIWDbNbaV7YZqTsXMYR1gYn34FYCtK3BQQmnwA+Mdp+12YcR+F5LkobQTHeZHH4l4+DuIUack3iXMIKOZSVyFouWhZPwp6YzJbYsWUYbVfeDJszxjET3xSac4cx/NUyCpndYZQRvaSA1Y/tpL9MOdYAgcompOCN7zsUi2ZiCRthGbUPSyATFvGGmDnOH4xYS9wsEggzWOtF6jxXExNgxyyELbBKxSrWGU7G4zc/Wk1vV7H0OO/Qdm5b9y5OOGeWcVrGDEEyUTUmLPNNHziUq247jyNeN5Vr7r6QL/xwhR+7Dym/GuKBxg6i5k+15w0XsuBlS8Ef/mcN/T2ZcKe3wMn8vs8eySWfPIJ4XBKPSZwhl8ygizPkITQ0NFh8/drTuea+C7nxxbdz2TeW0TohjnYVylEmZh6QWoch02jN+t+9DPimSmmIugssvHAex3ztdcRaTT0woTXaklhS0LKkg9OvP5eOQ9uRQiIxWbkg6OtOs/WWdVWPp9CiKCs7Ct4oTBgjZWf7N7Cln82P7PCrCHgITETRzMUTOeGaM7CSFmrAQfVnUAMOVkvM3Ffa46C3Hcx5N5zD+Tedy5H/dRITFrYjbBm+LCmyZaQi7iVL8Qr6V/jSmu5Hd9K1sQ/Lsk3BQSGQSA49dw5HfmkZQmusBtu05mvl3pCLlbQ55KNHctH15/CGW8/n8C8vI9HZiJ20jfCni6+nhfZfoQsJAOlbELPn1E6vSz+XfNNrRGLa8NV2J+PxzMM7OP2N84BsnZzIjvjRG0uXdbL46Mk8ef824glTBtqWEpISlXERImYsd1LgDBpmI7UId5xS0dpe3nWqgfR06ARzhF9kKmyEUTG/BOGdA70Zrr/qOT70xaNDc1og5R80fwLf//25rFm1jzWr9rBr6yDxhMW8xe0sPHwiHZ2N2DEL13GRluQtH1rM0SumccVHH2D147vCGH+oj1O4HpnLw752hYdQWzFAwd4dg/zqe8/yoX89JqcNYyb6wBeP5qy3z+ehP25m7aq99O5LM7GzgeVnzeTw4zvDkNXJ05t4z6cP583/7xBu/flavv+ZR3I25TEUUGgzT7se28m6P29kwdmzcLU2IY7aQ1s2B58zmzmnz2Dj47sY2j6ILaB9XhuTDmlDxv1IGpmzQ5wQvPCrdeEGKWEQV+4Q6YBGGSe5JSp4Wizj3NUYLUGjTR7PSBNkbQluVroVAJ7i+aueY97JU5G2jas8hGWhgHknTqXz1gvYcO8W9q7ax9DGXmIT4rQf3sG0102lY04rsaSFEnDo62dx8Okz2XT/Nl786Wp6MhLagQAAIABJREFUn96T7W4wHXzNK3dghJD4dbwJLLHFe7ULvCGPVd99mtN+eDICU+Mp8AMtffM8Zq+Yxit3b6Vr9T5Se4dITmmgY0kH05dNoWOWCQJonJDgsLfN4+A3zeHlOzbx0refwdmXRgiylRREIChok8+S04tClA3YC06pcZkGTKGuW2gKATf8ZHXIEMp2IGfx/sMXjuFjb9wZFmFTrkIMuuBnFHvaT4UPspBdL4w3Dzz7pSCrJBLCltlwPkuGttrQARU0Ewx0HZlEJu3xyytXsejIDk4616TeB4w0yLQ99OhJHHr0pMjztTLx78E2l/OXTOSYk6ex8oHtfgaqGSIvJ7lM59xY5dBLMw6uq/JMW4U5CYV+kGpgMkbzk+DiScPgYvFY8fERg648Q/kKbyPoT29XOhv1EyS6+ZVVr/7KE5x47iwWHdWRDS/1j521YAIHHZxfeiFqqNJDLg1NNkuXTyGWMIEAufevlIeVsFGO4pFP3E/LzefRuXCiKTRnWb7WIpDxGAtOmB5KmkrqkEhZwmzi4noelm2x/tEdvPw/z4dJf5GwBJ7yjAzogdYqmqkKY3/HkiAlyjbSukZhC4kQClnFZM+LaJVmK11h++lcARETmOu4it4X9/Hod1Zx9CePRFg2ruOBhLiSNE9IcNhF81EXzDODIUU2tyjotu/PjdmCmcdOZuUXc/Zkz1mvUgoTmWsJECKbE4OmVARzru1h9z1beO63L7PogjnYCRtPe0ZTAxonNXDYxfOAYprn6ax5UbmQaLSZcvhEnk95ptqvb+0IynSE15ZBLg1GmgiOieynLtJ2RoIIgWFkjT/94HZ2Bwk0dnVmlxPOPohTLpiL52iaWhJhVqsMsvekACVw/HAvjcbxTJKMyfqsIDlWeU8pqXACAUxn66X7F80GwNRZYxACuvek+PhFf2TlAzv8vQtMHSZTk0j56foUvZQyemSwFaTraP73P5/hmstXEk+Yujhaa5Snw4J35poiLDZXCdpnyIYJ59SpD97qaM2hJo1EZOeL8rQfWVV9fazI62lKVjnN7e8HV9zC2lV7Q4KjvJxaPiL7MudFODWl4On7dvD/Tr+Vwb5MlhkIX0RXwk8oMj/ce8md7Hu510ynXE3Ct6uEpRP8dqQQ2Qgzqdn+3F6e+Me/YuXcc+6dB/31XM+YHwBlCRMXT8Ge5zlLQ7umiJV0FFKB7fnifBmBK4DyTIZyEByign0HpF9uPuigxph0LJPVvPE363jmmhdAGB+CpaWRwLUx7UhLmOqrwi837ursfglKo4Qm3Z/hzg/egxNhdgXM2IPxOyqwlMAyWW9IdJHQKCiI/hGC1V95nPV3bgHPFMtUKFx/vwNXgBCy5EtKiYwL9mzo5sH334vXlzFBAf72ouGmVFojVFAlwNA5oQuc3qKypjwS1NVQrrXZ5+Cu360PP1cnoAs+frlxJg30ZrASRnV94ppnSQ8ZovjsTWbPYOGZUrkySBjyCUn4AAr7VEUHtIZn//tZhrozZFyPF/+8kb0PbjGOW2HMU1L6L/9zLpGoBVE2Pa0hFjOL4IOn38Lv/vtFPNcQejtmYdmWXxtfFBkHsxnbmp69ab7ywXu48vOPYttmYtl+PduAKeQygXJF7wrh+tVWtb+NIRDunDYc6Jx/5otsW07GL2EdOs6Lzw0Q2FaBcD+FQFuQlohM+iuEk/H44Irfc+/NGwBTNkEpFW5SpHPWY14/tBnL+2/dyOcuvhMnU8B8tDChPr6GJZM2wpJkejL85V1/YsNDO/C0Iq1dXDQehsAFsgdCIoVliJiwkQhW37Cev77jj6hBB6c3k2VYkBdRYyVtYrZJguqTHgNS4QQbAwdjl8sMNGbTFyGxbWnKGNnBMZVJkPa0vzbMHg4IQ1S1H2QSzl2NCZX1GZk74PLSfz3NQ199HLcvTcIy+RVIQcZ1SLsujvZMEp6nMQ/HEGAswb71ffzxoj/S++ze4vvK6XQQ8RXmJAiz70KR1hEhPGp/d7OnP/Ugz127Bk95eMIIpa40Y+Oi8LSfde0bLoLPjlC8fN827nnTn0ntHAwL5RUma8pgQy5t6JvERCCRdvOjKv2BzO4HP1IxPosSJqN8D3StHOn6HzzLhe89xI/OqJwroJVm+pxWvvSjk/napfehHbMQN9++kRvu344Vk6R2DITVMkVMEouZheJpz2y2MQzbtgomhxTsvn8rt5x/Mw3TmuldvccnLDliYmGfw//qA61NmeVUyuPrl97H/bdv5OJLl3DYsik0tcSzJrII7Ns5xF03vcIvv7eKTet6aGqN09+TyjtGCKMdOI7yt8g0+7IGm5JUg9b2BE5GYdvKJGJZItzkJbiHAFG7veX3J/jrq8fS5FtoJWhqjeFkPD871LexlmFeQkBji9ntLEgqMyU4ivtQyjyWGnT5l7ffyQnnzuKSTx/O4uOmAOYehZWtxWTu02wNuubpvdzww9Xc9dv1pPws/XjCwrIF6XTGbNWaU4pApz3f9CHI9GR4/OP3sf6cgzj0PYvoPGQiFsac4e8/hpJmHwI82PLkbtb8/Hn2PbAdYZkN28NS2YHg5RNcrc34O0MOuBpbmGRLz1NoSZgXoAtCRJWnsZIW6Z4UenoDOBptC7AqzxERlFpX5okFFYpkk40dt7MFKAPtWmUJohW32fqrNfz5yV0seN+hzD19BnZLDNs2hQ0V2pQKj0m0Vthas3djD2tv3sC6q58DW2I1xfAGnGhfSo6/MZ1ycD2z0ZCdFEihjYk6sGnlMsngjZvNaHj+m0+x44HtzH/vQjqP7qAl1gDSjG2uw97SGs9R7Nncz3M/fZ4dt24ArU2ZDLOFna9h+3s9iyxZ13igrTDySacKOlY8+vkfR0CXxFKuijx9uAzBSGaSb99wDqddNC+0P5c/x995Siu++L57+MO1L5FM2mQyyh9EvyJizMIdcmhdPIk3Xn+u2U1KCrq29nPLOTcCMPvtizjtS68zG5DYFmvv28qDl/4FgGWXr2DphfPDzUnu+/5K1l79TF7/pC0RMYlK+ZKNb1deeHgHm9Z2M9jv0NQSZ2jQRWsXVU1oG6UeZ7E8ojGMwckYtXva7BaWnzGTeYvb6ZzZRCxm4TqK/t4MW17uY9srvTx1/3b27hg0ZqOY9HfJUllTioZ4wsbJeHRMbaS1LUFvdxrbD4EDswdAsO9yoHFkV68I9wpum5SksTlGssFm59YBmlvjeJ5iz/bBvEJ8tl8orGNqY+Td7tmRHzuvtQmTzfgS5cx5rfR2pWlsyd+Jb/vGPlPVNafkdCxhmXr3UxpINNgM9rs0tcbJpDwG+x0G+zIlVeHg+VqWkWAzfhn3eUvaOe70GUyf28Lk6Y04aWOyGeh1ePHJ3Tx+9zZ2bu7P23MiCv6azxmD/HuOtcZx+x2aDm5j8glTaVvQbjZO0ZDuSzGwoZ99j+9kaGMfrl+kTXgR1wseVa5UPCFOvDWG1iIvSSu9tT9/TRaYQBMdCTSGEVpxK9SyU1v7zXoMbyC/C42zWsFR2C1xnK4U8Y4GBtb34GW87LMP1BiVHQkhCKVmL+MRm9TApGVTaF7QRsvsZoQyGdZuxiO9fYCup3ax7+m9hhn60VieX+alVN+MeVlgT0wiXY3dlsDty5j9CzZFbOCTMybSllhJC6c/P1GxcWYT7UdNoWVhG3azTbwlhpICZ0+anjXddK3ay8D6XvO8/Hmmw/IwWUhbGqaUsEh2Nhrak7Cw4hKRUngZj5RfWDBUBfPqC9ZLP6ijUzlAYJv+ydee4MRzZhFPVr6E1lln31d+eiq7tg7w1H3bw8qbQpmyAF7KPBBvXyo8UWAqMYbXV36xsYh464Edg2aHKt9mm9k96Pc5a96SUuA5wSYZBme+ZR7f/NXZ3HH9Wj73LsNcTASVbS5YJ01BWIYYpVOGoGoNu7YNcOu1L+UMli9F+GMTrGzLr6MTEKcsMzDjmvET/vbuGGTP9kESScvffzi7daWx+0ZPrsB8070nRe++dFhaO5VTvyp3ogeaw76d2QKB4v+3d61BchT3/dc9s3tPCelOOp0khHkLBEiWBUbCwQkE2wQcx1DGGMiHYMd5FeXEScpJlYvCoSomMf5i7IpNpUzALlLEELBJIuMEp7DBDsVDECFF5oRAgtOB4E7cc/d2d2Y6H7p73o+e1+6euJ9qdHe7M90zPd3/9//fCGo5ctyJZmKxxs3Vmk5x9LU5WBYLzRb2LyhTSJ+LNQMLcy0YLYbaXEvUghI2+UC/wrkMvrhaJq97U+3VYRoM46/M4vWxGc99SnNbGk2IQri4xLAycJ+AdBoawi82P/aup+gcAECnqFDX+xab3PhpuWQEhDpCLmOANdvEoggDN6WTEohlBgDQPN6wawGl8QPVX58D6dFApxZhtUw0hU1fq3Jt3hIbwRBwTQXMMSNZLc5wtaqG1mQdb+4+AuBIoA/pZ7FEpj8RWiHVnRwR/wARQrikbTGY0w0YBkNzvsUZSc0Id8wz53rLsmDVLL7zncls4l0/uoDWzDgm/v0112B6b5bYNw2wiK1sLXH/rGmieazGfV+uDOjKior97OV5DzgKD7YnlKDaq+HAnnfwX/96KEJtD7mOcAJTrWr4xiMfwznbeUTNyjU9wgFj8aQOAjTnG9jz3X2glom5txfw0ndfsj18fP9g7oxxjx4BcOiBX2F8zySMloVXfj6OI4++Cr2/AkIodJFJqFMCamkAI9A0DX9+5y7ccf8VAICPXncmPvX587Aw2+LmDZMpb6ITeF6E+BJMjZctALfZy6HTNGIfui6OCt/0o1LVhDPZ5ARdjINj9+Y92ZuHi/EnlKBRN+x2Qt6I52fTtUUjocSOaGImL5hGpOor/snfwWA7v/32eNvUwQBY/B2AEVQqGjSNmwU1Su2DwNm4yA2pldQXDCzWDO6MN3l0VrXCJciw+QZ4ibxlcgbJLJ79XalyrchoCee+L0NeFRTwzEWLBXVu2xcgTEoQ0Tl2NU2TeZhB6PyBBemJlu9bFliTORZu30yAGbinAVHfFpcSVyy7yWCKKCvL4Il5NrFl4HZvQpyilMxRbBhjsFpccJH7KPgLCfJrRMiulLYJwDM64FvzvPgdcc1LImobEcPiCX0tse2na0w9B+MyH7EAs2FyzRQAGrzqaN+KKqhGoWl8zsqD6hS6RqBrBBq4mY6wYD5M4JCCKZx8GSyavvNIcjsZDyWTER/n5JVAwCNdKlWK5qKJoXV9+JfnP41Va3p5UpUrI9QttMk6/JpOhARPsTDfwq03/zd++djrsEwLlaqGxbphl02u9Fd4mQth3qEVDaSqYcPlm/Drf7vLLgx36KmjeOoPHwfxe488D8fQ06eDECIKbFkY2TiIr/3gI9gmNlxhFt/reGG2iU9ueQC1+RYWawaPD88Q3x+11HxyrEMAiBxh+TcRC0ylHdfncsJVWjCbwbDOqNa4FAVQnUt5limc2XJFh96J2+wkQbzfu74mFLYpgeqWvfmNG4R5i8P5SSOhFrfdi/Y14osWAwJCCoE39Faen4X4+8F8v9vmuAhfRryl2PmWJ70R3/cAo2LMpdYgarcY7uJwVlwv4FTJIiC6BWbGV7exx43BqaQX4HbOvds7xcm/xcl28Id7uqQY/6j35X9SoltgBhVzzXVCxnddWGqsfG5Za8edHUjAGahn6TDXZcn3oGr2py7+7Dn8/6LO819jGCZaLROVXorJtxbwndufBSFO5Ijbru3YqqXUyUAJRatpon9Ax9cf+Aj+6LYL0T9YQW2uyVUrMXBmwxQOF56Nq/VqMOeb0FdUoVG+eTlaBogG2ynGhJQhf0JISzLccbHWgtGycPNfbcfD+67HBReNAIAtiZumhYGVVdz16G/BaJq2NpIGfskubP2EwR/q6Ja2uf+Fp9XbG9sIqcd7nTP26syA37WU8iyDwhKTlTFwtT9yQrq1jLDzHB2YgHgiYCyDAsw5iDi8bQfbZJb3HKklucchTBaU4+MeoyLgvkNp3glIoK4jaZnJ88KIAANkRpnzmUnATMLLxcuD+O6B+CRkS5A5gwZqAcUeQkEJk7IlHREVWHx/i3kLZ/7afyv+sxTPhyGCSi0xoEyNtqnSySDdTAmTBFPF/c24BDAWepIqVQmilPoMprA99vTp+MF39uHJ3UfEZkoshCm4VFmNip2yNPvv3/2zrbjr367GGecNiTh6ETom1EW5cFvCVtqYWIAGoAKgomtovMGdl4wSXsWRCdUIcCUrcfvzb157Oh7e/xl84Y6dGDipypmGa2ylHfncHWvxhTt22vdIKbF38eociO9nUBKOlz9V2y8aAZJZGNJP7jjmViRInjWbjKS2AwQmxzMrSzRx5xGFc+SZJbyfst5DGiiPYZFrOghyPokwGaUcpIDsJz6QO6g9uPcz2HTGSTxDT3O2RpTgUi1EUha/3hJSm0YJFmsGHn/oEO752gt4Zf+UHc0EwLYD6306WjUDF/7lNpzxG+sxM9HAU195Fgtv1qDH2EM/+dlz8Kk/Ph+bLxh2QgxlxA2VjiFwOy4AInbo+uylj2Dv08eUzAulzLksiRDy0m5YBDGI1jlI7Pfh7fjNVsm9qQ6P+hvI9q6I5/f0bUgp1ZFWVetQFExoCpI9s0Y/qvQu24sf5yzjwuDMxKzzIOk6pw9n9hLXM8lv4t9/aQwB4PSqt7+CZsPExlNX4oE916FvoAKjZYXmJ/iZglzHpmnayWjNhonnnjiKB/9xP578jyMwTe5IdodM8r65FEYId8CaLcu29esVii0XjeATN5+Di6/YhJENA6iKUL+AfVnGMJuWrVJQoXNPTizghh0PYupYDZWq5nG8Bp4t3XCqoQsYguoEV128qgR/qTGEQPZryvazEpL3MkNwn6sy+skMIeuYtIMhRPUczxDcY0hAQM7rvyucIShuJ+zZ8S7ipvUKBSNNXHTp6fiHxz4OENjRDpJIezYuZ3AiCoS9kycdcW2BapzYH5uYx6sHpvDKS8fx0jPvYPzQLKYn65h6q2YzlL7BCtafsgLD6/pw9rZhXLBrFGdtHcba9f2oVHVuTw1hBN6HJLYWIM9r1g309On42aOH8cVrfiyiOqKjUDrNEMrSCIpgCOFxWFHnpoGXfKi0mnaY/PcTRfbyxoovdYZQFLKbjFRtMryXovom8AdBRLcf307e9xFRwqWdDIFQC5RqoBow+r4+TE2+i63bz8K3fnwVL+pFXZmuJJopMGaBEGqHmDmmJgbDNKBrPNfBMk00mgy1umnHyfcPVtDrqk8eK6eEEViX01t0aTOHuekGvnT9f2Lvs4dRm9ZjTUeZHExJ6DBDKNKem58hRC1iiaXJEPKO8TJDkFhmCGHwM4RSi/4zi/CEMoNhfGwR5+4YxtjBMXzuwz+yK0LKWvTucFSZPSrBY6iZq2Y9fxSL8WqRPGafgVCKnirB8FAPhlZVsXZNLwZ6NVEXJIYZyCDwmO9k1J4cvunJOq7d8gDGjx3ErfefjfdtqQbCG0P7SHMktRGDQPRKl4IgL+kJb8H/KYk4lrEMB8XPClF4A0tl1pXKEACC5qIFZgGVHoIXHq/hQ1eNYnL2MK485fuYmaq7TEYOjQvSveBAEkLsZCW9osGuLKjp8C97Is6PPAJX+F4fc7QWSoB9z7yNy0buxcbzGviTr54LBuCGv16LlcMlD+cykJWkRycMdvcCPVGglr6Z/A/UdbS5/8Q+fEl0gYS6HPdZFvx92HUlspiI1MAld7MJgBHsvnsON3z5ZBz+1TQuX3cv7vvFtTjvgyOQJS94/X8ns9a9JZ6s7Ol5nBgzTXFgNnO6+/bn8O3bnsU1XxzEjsuGba1gxaoqBoco5o5HbD6Y6R4d05j7RxEoYoq1j5SqL4linivNAlbrP++iznq931CkaroqmggV1Zq7nS5WfAMI1mFOi7ymQ7U+tJHeq74CSkCtaO7mOawYDhpq+hAP44p1Hnt2EVfctAabd+q443N7UZ9vYdslo6j2arb5yDQsvieCSCCTMcpCUIdkBu0ApQRHxmZw40UP4RePH8At39iAzR9YDdOwoOkEzYaF+/5mHG/8n1EScypeks3TWtlSi+zF/dx5GULU51Gvi0BuPZJgmlPsp6j3l5cxqJOG7plvnnZciz5M2y+CS8jtedO2FbfRFMmU61G2mSmobZMLKt+MfWwSrC0WczIJlYQJ4bXHTYNL/5bJQCnBTbetxvrTqvj2l15BDxnBnQ9+DFt3CW1BhIzamcwhOQvymdJsnRhz6wB4DSHJiAjh+zvcfftzuO/OF7Hjtw1cf8u5aLVaMA0Tuq5jbqaJ799+DOMvG9ArgJFmvNqIIqdUucyAxPylelUQUcY8vz4Xthjintf/TflGw2xjb0JtsyGnly5lCClNRWmK80W1XUQb1MoyM4p7B0zkhye1Ty7oC89DsE9YjPvWd25M8pcOUY4AsM08hABXfn4FPnzNWjz+8EE8ca+Oiy7biFu++kGcs30NPDXCXaJ3EQzAc9+iOXfxt2Pj89h9/0Hc83cvoG/tFK7701Nw8mmr0GqafNNrSnDwxTl877YpET4Lz94A3YbiVPb2MYPwT1Sv9CIPQ/D2E8+w2uNFSv8OlhlC9naLaCM9Qyh2/JMS0uxeoxiCKiPwaAQxO2hRwzsgVCPQdIBQ4MwLNXz6L9aj0WjgoW++ioNPDWLXlZvw+1/+ALbtGg0MdFTyWFbIyp0AcGRsGj+85wD+6e9fwMoNC7j2lpNx9tZVYABaDUPkLhD87OF38JN7nD1ck30ZnXVe5rdhShT/HGHEp2ifQdRyNH0sQGXpu+93qTAEq8MMoSh0M0MItOOih7SZdjzfYwyBED54mg4YTQa9SnDjratx5vsHMDeziCceehvP7zYwMjqEK288E1fddBZO3zLkkeblLlZpHMt+bQAAjr42i2d+Oo5/vmsvDu0/jo3nL+Kq39uAUzefBBDwnaZM7hx/83AdP/zWFCYOOiYitf5PBIZQ7jPEEdroa1TPC39BaTUEp71w30b74szSvYtuYAhuYplqv+2INlSg0o9Km3nbSachFD/2ygxha0TpisCJKmelYAiAmykwGE1ArxKcs0vH1X+wBkNrB2BZDE//ZAJPP3YMk6/1YnjNELbuWodLrz4F7/+19Vi9tg89fdTrVIqA1CpaDRNTx+p4+cVJPP/zN/G/v3wL+545hpUb5rHz6tW4+PKNGDhJg2VZTvkMMEy/08CTj7yLpx9d9JRHVmEG4S5Y/yfda25qFzNL46pOL2+daAwhrPdodJohJBHdIiT5PG0XcX9hbRAxwdRTvspZa0uCIQCwSz54GQNw8Sf6sPPjK/leCrqGuelFHNgziZefn8XEywxzkxo2blqLSlXDyMkDGBrpw/C6fqxa24u+gQpMw8LcdBOWaWF+ponDYzOYPb6II2MzmJutY3BNEyOnMWzeMYhtl4xicGUFoAClYuclkXuwMNfCUz96F//zyCIsC9B0BtMALDNc24gcv0wvOswJxHx/q16bFe3VbIj9M77fTjME3mbwLtufiaI2Et3OENyII76dYghJ7URdr84Qyl1nhTGEJEZAPL/HPVTyUpEaA6W8dtHgKorNO6u45HdOwpr1PaLUNC83XZtvYuLILCZem8fk0UXU5hhqsyYaNYhoJtghrCtWU6xcQzE0WsXIyQMY2TCIVcN9AOGbYwM8B0KvaHxnL8PCxOE6XvjpLJ7b3YBpMFR7CUyDtx3ccCXx0ZDvhcen1Mdfkxft0g6iPs8WdeQHLyAQHJM8DIG3S3x/txsnHkPww02IM7eTwBRUntdd/E6tMmoalLvOlPWTbmIIdjtEvnin89O2VrDlQ704a/sAVo9U7e39mAXbXMTgLanNt5SE/Z2/D2bxrSF7enUYTYbjbzcwtmcee5+o4+jLfCu/Si8vvWEZnss9EUnlM4QsyMsQOqMZJCGrL8Q9+9xzof0aQnnjGrf+UjOEHAS8VLitEEaKt6VqkmrLvC+nj/g8CMU2JENQviD2u5gbyiA7SXMS4BDdah/B6OkUZ2zvwbpTKxjZ1IMVQxVoOq+bREMnstzU3Elmqy8YOP5WA1NvtvDGgRYO72virVdNWCZDXNCSmxH4P4tHuM25s4i78e66U//dJC3cpNkmmUK5DCG9kzwP4sYkddhpwQyBqNbUS27J9Xs7/G7FjEO3Rp/5ocflDoR2acR+m/E7P8Ri9XF1TScwmgyv7zfx+v4a/6wC9PQTrB6lWD2qYeWwhp5+7qDWdIJqL4XRYliYsTA/bWFh2sTslIXZSYZGjfssPCppxG1KM1G7sqM7g6XzcAGNL/Heo0xPZRIV9fzgIiTTuIq6qavtFkbAObo1jDUv3MmzCWdGfN5dmryedAKNZQAOCIp0cfqdpxymIbOWnc8sA6jPMtRnTUyMeaUgt5TjZy5pkZcRdOdyCB/n8pCcKelHlrDScOJjh4x5Wib2t+X6XFiihN6dM6S7UYRfLkOvPmLg/zs0TyqyO2cGdgMSGUJ74F+sQNxAqeYcMFNdQisXS2Gxd952Wm6CWkQUCJyaRWmYQtESb/FOymXEI5swVHSVBFfLSH8/xd9LgCEkaQT5biHugcOYguyxO7hnFkRHz7QXUSNIQMvZvCcn1J3MRfTlLWSXdTyKMvuUkhRW8vnLKAJptIVy3lCbNYQk4h4VY7+UmUJ3Lq2yJNGodlWIbFnEUAX+UMK0TCE5byKlr67D86ac/tvtEE5COXQlvxaRdF/lzQ09jY8gD/JbyrrL1qaG7CaQdiILASzrPorXDNRHPCy+PGxcOk2sl/FeQGfoXQd8CHm58lLWFjqHsolYnvbLl0bTXOVljsHEOHd8UrTdP+y8NOiktlQO1H2Ey3DDT+/KnRORDCGLMy8qtqN4pGcKnV5ane6/0wjTQrIUs1PTDKIdyH5EaQAqRDxMo4liDstkr7OImjfRvrWo+PNs/bO+/HG8zGAgMeWBwkA0MFA6AAADOElEQVTq/MlVNeoORRmpEPQoJ7O7Dfe5SwOqRKndKMNunvd81Vbz9R0+F5MYWPj15UQeRfd9IqCzGv9SGVeik0hmwNJkbMf1AQLdP4nz1eRTD/4L7u2a14xURDudQbfY8DuBPIamMuA3ZKhtpaky74vywrXr6nYSyvbZFk5ESEYRxhhszaSuRtm7JA8BKI6oS4lj2ddwoiAvMVXLYo52HkderxGkrAixDGV06/pNn1y5lGAzhLKqdTsSl7ShUYV2ipOmOj2liP0zXhNLe59pLZKdduFlfaNR+w6kvT4K8j34xzNpvAjgYQZx9/le1f46ifZXnQ1HEb4DVRCdRJqP4taBe352kYYQRN5EoU5z73QbvnSnbyEK3Ry1lK2NtBJp2nDWZaRHJ0zB3WW+Su1EjmEKkde4nllvFyclPpnLS+zCFyNLlNOSe6U+WaGT0wpIJ7mEhS5mlTeKVnTbxWqL6ifJY0XFZ2nHSb7PqPMCG5NkLfuZkjAE0OqscJSfzrTj/ovrQ2oGkqDTesR5CcSbZBLZswd7dIGGQHw/gfhluSxrAeklaLVk+IgohpirVe+jO7Qdb5hrd9xTp1EeoSXpa8QvAZxYPgM/dClzWj3ZGqAN1x8aAY1wsrFApfisURth2kRc3LnUSDj8GkOZ8BIcy/W/yrVRn+Q1o0W1n/b6tKGW2Qp35bpPd01/y2nTfT/MNR3SbPwuK+nKK+zRsF+wr6/iNgTIhkrUs+WsAhyruThtWwWFRuYFbcV/nyzgqD0HERpBkoSf1iSUFUyPnn9M7yoNIQvcpqQTm2Mvo0i4q9+2ORNYJ+l2+FrGkkS7CHxqKN6XE2UkJP0wTUGWkU7cTMf0ewbcKnqchBRG4JNDR1UWtV8zSbuVYFEoe5owLaH/Eh67nKqc7VlQdlRQRsE9/DrXfHeZS7i1hOX3A3QZupb4hSBJM1gGR6kaQnopjIT83q3xyO1Gdy2+Igl3t2SLpt11zfNN3H62ZDnKaCmA6jTg5M0StbOU0QUmo3KJAdOEt99sf2RyXK2edjs0VYhu1D0FrvXY5hVtqmkjHwrf5F2lvXJKUHQFVIlaCqn/RCOU8nmWkuZTNP4fxjVPYjPdYckAAAAASUVORK5CYII=;clipPath=inset(5.91% 1.67% 2.69% 0%);" parent="1" vertex="1">
          <mxGeometry x="56.300000000000004" y="550" width="129.76" height="37.39" as="geometry" />
        </mxCell>
        <mxCell id="fakd-Xu31UxTlEahAAD4-19" value="" style="shape=image;verticalLabelPosition=bottom;labelBackgroundColor=default;verticalAlign=top;aspect=fixed;imageAspect=0;editableCssRules=.*;image=data:image/svg+xml,PHN2ZyB4bWxucz0iaHR0cDovL3d3dy53My5vcmcvMjAwMC9zdmciIGlkPSJzdmc0ODYiIHZlcnNpb249IjEuMSIgdmlld0JveD0iLTAuMDAwMDI4MTYzMTk0NjU2MzcyMDcgLTAuMDAwMDAxMDcyODgzNjA1OTU3MDMxMiAxNjAuNzU4OTg3NDI2NzU3OCAyMS42ODIxMDYwMTgwNjY0MDYiIGhlaWdodD0iMjEuNjgyMTA2MDE4MDY2NDA2IiB3aWR0aD0iMTYwLjc1ODk4NzQyNjc1NzgiPiYjeGE7ICAgJiN4YTsgICA8ZGVmcyBpZD0iZGVmczQ4MyIvPiYjeGE7ICAgPGcgdHJhbnNmb3JtPSJ0cmFuc2xhdGUoLTAuNDg2ODUxMzUsLTEuNjU2NDcyOCkiIGlkPSJsYXllcjEiPiYjeGE7ICAgICAgPGcgdHJhbnNmb3JtPSJtYXRyaXgoMC4yNjQ1ODMzMywwLDAsMC4yNjQ1ODMzMywtMTQ0Ljc3OTIxLC0xMy41MzU5MDIpIiBkYXRhLW5hbWU9IkNhbHF1ZSAxIiBpZD0iQ2FscXVlXzEiPiYjeGE7ICAgICAgICAgPHBhdGggaWQ9InBhdGg0NSIgc3R5bGU9ImZpbGw6IzdEODA4OCIgdHJhbnNmb3JtPSJ0cmFuc2xhdGUoLTEwLjc3LC03LjA1KSIgZD0ibSAxMDI4LjMyLDgxLjIzIHYgMTQgaCAtMTEuMTcgdiAyOS4zOCBjIDAsMi45IDAuMTIsNC44MyAxLjA4LDUuNzYgMC45NiwwLjkzIDIuNzQsMS40NyA1LjY0LDEuNDcgMSwwIDEuNDUsLTAuMDggMi4zNywtMC4xNCAwLjkyLC0wLjA2IDIuMDgsLTAuMiAyLjA4LC0wLjM5IHYgMTMuMjUgYyAwLDAuMjYgLTIuNywwLjM4IC00LjQ3LDAuNDMgLTEuNzcsMC4wNSAtMy4zMywwLjE0IC01LDAuMTQgYSA0Ny43OCw0Ny43OCAwIDAgMSAtNy40NCwtMC41NCAxNy41NywxNy41NyAwIDAgMSAtNi4xOSwtMi4xMSAxMC4xOSwxMC4xOSAwIDAgMSAtMy43OCwtNC40NCBjIC0xLC0xLjg5IC0xLC00LjQxIC0xLC03LjU0IFYgOTUuMTkgaCAtMTEuMjEgdiAtMTQgaCAxMS4xOCBWIDY0LjQ3IGggMTYuNzUgdiAxNi43NiB6IG0gLTY2LjUyLDM0LjQxIGEgMjQuNzEsMjQuNzEgMCAwIDEgLTMuMzEsMC44OCBjIC0xLjIzLDAuMjYgLTIuNDUsMC40NCAtMy44MSwwLjYgLTEuMzYsMC4xNiAtMi42OSwwLjM2IC00LDAuNjMgYSAyMC41NywyMC41NyAwIDAgMCAtMy43MSwwLjk0IDEwLjQ2LDEwLjQ2IDAgMCAwIC0zLjI2LDEuNjEgOC4yNCw4LjI0IDAgMCAwIC0yLjIxLDIuNTggOC40LDguNCAwIDAgMCAtMC44Miw0IDguMTksOC4xOSAwIDAgMCAwLjgzLDMuODYgNi43Niw2Ljc2IDAgMCAwIDIuMjcsMi40NCAxMC4yNywxMC4yNyAwIDAgMCAzLjM2LDEuMjkgMjIuNiwyMi42IDAgMCAwIDMuOTQsMC4zMiBjIDMuMzYsMCA2LC0wLjUxIDcuOCwtMS42NSBhIDExLjMyLDExLjMyIDAgMCAwIDQuMDgsLTQgMTIuNzUsMTIuNzUgMCAwIDAgMS4yNSwtNC43NCAyMS44OSwyMS44OSAwIDAgMCAtMC4wNywtMy44NCB2IC02LjM2IGMgMCwwLjYzIC0xLjI1LDEuMTIgLTIuMywxLjUgbSAtMzMuMywtMjQuNTIgYSAxOS44NSwxOS44NSAwIDAgMSA2LjcyLC02LjE4IDI4LjQ0LDI4LjQ0IDAgMCAxIDkuMTcsLTMuMzIgNTEuODQsNTEuODQgMCAwIDEgMTAuMjQsLTEgNjkuNzksNjkuNzkgMCAwIDEgOS40OSwwLjY2IDI5LDI5IDAgMCAxIDguNzYsMi42NiAxNi4zNCwxNi4zNCAwIDAgMSA2LDUuMzMgYyAxLjY1LDIuMjcgMiw1LjM0IDIsOS4wNSB2IDMyLjMxIGEgNTkuNTUsNTkuNTUgMCAwIDAgMSw4IDEzLjk0LDEzLjk0IDAgMCAwIDEuOTQsNS43NiBsIC0xNy4xNiwwLjA2IGEgMjIuOSwyMi45IDAgMCAxIC0wLjcsLTMgMjMuMzMsMjMuMzMgMCAwIDEgLTAuNDEsLTMuMDggMjIuMTYsMjIuMTYgMCAwIDEgLTkuNTcsNS44OCAzOS40OSwzOS40OSAwIDAgMSAtMTEuMzIsMS42OSAzMS4yNSwzMS4yNSAwIDAgMSAtOC4zMSwtMS4xIDE5LDE5IDAgMCAxIC02LjczLC0zLjM3IDE1LjY2LDE1LjY2IDAgMCAxIC00LjUsLTUuNzMgMjAuMjIsMjAuMjIgMCAwIDEgLTEuNiwtOC4yOSAxNy43OSwxNy43OSAwIDAgMSAxLjg3LC04LjY3IDE1LjM4LDE1LjM4IDAgMCAxIDQuNzksLTUuNDcgMjEsMjEgMCAwIDEgNi43MiwtMyA3Mi4xOCw3Mi4xOCAwIDAgMSA3LjYyLC0xLjY0IGMgMi41NCwtMC4zOSA1LjA4LC0wLjY5IDcuNTYsLTEgYSA0NS43Nyw0NS43NyAwIDAgMCA2LjYzLC0xLjA3IDExLjI3LDExLjI3IDAgMCAwIDQuNTEsLTIuMTEgNC41OCw0LjU4IDAgMCAwIDEuNTYsLTQgOSw5IDAgMCAwIC0wLjksLTQuNDEgNi43Nyw2Ljc3IDAgMCAwIC0yLjM4LC0yLjQ5IDkuNTYsOS41NiAwIDAgMCAtMy40OCwtMS4yIDI1LjM5LDI1LjM5IDAgMCAwIC00LjIyLC0wLjMgYyAtMy4zNCwwIC02LDAuMzQgLTcuOSwxLjc5IGEgOS44Miw5LjgyIDAgMCAwIC0zLjMzLDYuNzggaCAtMTcuMDcgYSAyMi43NywyMi43NyAwIDAgMSAzLC05LjU5IG0gLTExLjkxLC0xMCB2IDE0IGggLTE0IHYgMjkuMzggYSA4LjA3LDguMDcgMCAwIDAgMS45MSw1Ljc2IGMgMC45NSwwLjk1IDMuMTMsMS40NyA2LDEuNDcgMSwwIDIuMjksLTAuMDggMy4xNCwtMC4xNCAwLjg1LC0wLjA2IDIuOTIsLTAuMiAyLjkyLC0wLjM5IHYgMTMuMjUgYyAtMi43OSwwLjI2IC0zLjMsMC4zOCAtNS4wNywwLjQzIC0xLjc3LDAuMDUgLTMuNTksMC4xNCAtNS4zLDAuMTQgYSA0OSw0OSAwIDAgMSAtNy41NSwtMC41NCAxNy45MywxNy45MyAwIDAgMSAtNi4zMSwtMi4xMSAxMS43NywxMS43NyAwIDAgMSAtNC41OCwtNC40NCAxNS4xNiwxNS4xNiAwIDAgMSAtMS45MSwtNy41NCBWIDk1LjE5IGggLTguMzggdiAtMTQgaCA4LjM4IFYgNjQuNDcgaCAxNi43NiB2IDE2Ljc2IHogbSAtODUsNDcuMjYgYSAxMS4xOCwxMS4xOCAwIDAgMCAzLDMuNTQgMTIsMTIgMCAwIDAgNC4xNCwyIDE3LjUyLDE3LjUyIDAgMCAwIDQuODEsMC42NyAxOS4yNCwxOS4yNCAwIDAgMCAzLjc4LC0wLjM2IDExLjgyLDExLjgyIDAgMCAwIDMuNTgsLTEuMzEgNy45NCw3Ljk0IDAgMCAwIDIuNywtMi4zOCA2LjM4LDYuMzggMCAwIDAgMS4xLC0zLjggYyAwLC0yLjU0IC0xLjcsLTQuNDcgLTUuMTEsLTUuNzYgYSA5Niw5NiAwIDAgMCAtMTQuMjEsLTMuNzkgYyAtMi40OCwtMC42MSAtNC45MywtMS4yOCAtNy4yNiwtMiBhIDI1LjEyLDI1LjEyIDAgMCAxIC02LjMxLC0zIDE1LjExLDE1LjExIDAgMCAxIC00LjQyLC00LjcgMTMuMjQsMTMuMjQgMCAwIDEgLTEuNywtNi45NSAxOC40NCwxOC40NCAwIDAgMSAyLjI3LC05LjcxIDE3LjE5LDE3LjE5IDAgMCAxIDYuMTcsLTYgMjcuNDIsMjcuNDIgMCAwIDEgOC42OCwtMy4xNCA1My42Myw1My42MyAwIDAgMSA5LjgyLC0wLjg2IDQ5Ljc4LDQ5Ljc4IDAgMCAxIDkuNzYsMC45NCAyNS4yOCwyNS4yOCAwIDAgMSA4LjU3LDMuMjIgMjAuMTMsMjAuMTMgMCAwIDEgNi4xOSw2LjE0IGMgMS42MywyLjU1IDIuNTgsNi44NiAyLjkxLDkuNjUgSCA4NTMuODYgQyA4NTMuNTcsOTggODUyLjM3LDk1LjIgODUwLjEzLDk0LjA2IGEgMTcuMTgsMTcuMTggMCAwIDAgLTcuOTEsLTEuNzggMjMuMjksMjMuMjkgMCAwIDAgLTMuMTMsMC4xNyA5LjIzLDkuMjMgMCAwIDAgLTMuMDUsMC43NCA2LjgyLDYuODIgMCAwIDAgLTIuMzQsMS43MSA0LjU4LDQuNTggMCAwIDAgLTEsMy4wOSA0LjUzLDQuNTMgMCAwIDAgMS43MywzLjY3IDEyLjYyLDEyLjYyIDAgMCAwIDQuMzQsMi4zNyA1OC4xMyw1OC4xMyAwIDAgMCA2LjIxLDEuNjMgYyAyLjI4LDAuNDYgNC42NywxIDcuMDgsMS41MyBhIDcxLjgsNzEuOCAwIDAgMSA3LjI1LDIgMjQuMjEsMjQuMjEgMCAwIDEgNi4yOCwzLjE4IDE1LjA4LDE1LjA4IDAgMCAxIDQuNDQsNC45MSAxNC41NywxNC41NyAwIDAgMSAxLjY3LDcuMjYgMjAuMDksMjAuMDkgMCAwIDEgLTIuNDIsMTAuMjUgMjAuNSwyMC41IDAgMCAxIC02LjQ0LDYuNjYgMjYuNjEsMjYuNjEgMCAwIDEgLTkuMDUsMy41MyA1MS41Miw1MS41MiAwIDAgMSAtMTAuNCwxIDUxLDUxIDAgMCAxIC0xMC41MiwtMS4xIDI4LjMsMjguMyAwIDAgMSAtOS4yMiwtMy41OSAyMy4yNiwyMy4yNiAwIDAgMSAtNi41OCwtNy4yNCBjIC0xLjcyLC0yLjc3IC0yLjYzLC01LjQyIC0yLjgsLTExIGggMTYuMiBjIDAsMi44IDAuMzYsNCAxLjEzLDUuMzkgTSA3NDYuOSwxMDAgYSAyOC4yNywyOC4yNyAwIDAgMSAxNi41MywtMTYuOTMgMzYuMzIsMzYuMzIgMCAwIDEgMTMuMjEsLTIuMyAzNywzNyAwIDAgMSAxMy4yNSwyLjMgMjguMjQsMjguMjQgMCAwIDEgMTYuNTgsMTYuOTMgMzguMSwzOC4xIDAgMCAxIDIuMjgsMTMuNTcgMzcuMjUsMzcuMjUgMCAwIDEgLTIuMjgsMTMuNDMgMjkuNTksMjkuNTkgMCAwIDEgLTYuNDcsMTAuMyAyOC4yMiwyOC4yMiAwIDAgMSAtMTAuMTEsNi41MyAzNi43NSwzNi43NSAwIDAgMSAtMTMuMjUsMi4yOSAzNi4xMSwzNi4xMSAwIDAgMSAtMTMuMjEsLTIuMjkgQSAyOC4xNSwyOC4xNSAwIDAgMSA3NTMuMzYsMTM3LjMgMjkuMzcsMjkuMzcgMCAwIDEgNzQ2LjksMTI3IDM3LjQ2LDM3LjQ2IDAgMCAxIDc0NC42MSwxMTMuNTkgMzguMzIsMzguMzIgMCAwIDEgNzQ2LjksMTAwIG0gMTUuNTEsMjAuNzggYSAxOS44NywxOS44NyAwIDAgMCAyLjQxLDYuMzcgMTIuODYsMTIuODYgMCAwIDAgNC42NCw0LjUxIDEzLjksMTMuOSAwIDAgMCA3LjE4LDEuNjkgMTQuNDksMTQuNDkgMCAwIDAgNy4yMiwtMS42OSAxMi43OCwxMi43OCAwIDAgMCA0LjY0LC00LjUxIDE5LjI4LDE5LjI4IDAgMCAwIDIuNSwtNi4zNSAzNi41MSwzNi41MSAwIDAgMCAwLjY5LC03LjI1IDM3LjQyLDM3LjQyIDAgMCAwIC0wLjY5LC03LjM0IDE4LjY3LDE4LjY3IDAgMCAwIC0yLjQ3LC02LjM1IDEzLjEsMTMuMSAwIDAgMCAtMTEuODYsLTYuMjUgMTMuNDIsMTMuNDIgMCAwIDAgLTcuMTgsMS43MyAxMy45NCwxMy45NCAwIDAgMCAtNC42NCw0LjUyIDE5LjIzLDE5LjIzIDAgMCAwIC0yLjQxLDYuMzUgMzYsMzYgMCAwIDAgLTAuNzIsNy4zNCAzNS4xLDM1LjEgMCAwIDAgMC43Miw3LjI1IE0gNzIxLjE3LDgxLjIzIHYgMTQgaCAtMC41IGEgMTQuMzQsMTQuMzQgMCAwIDEgMy4yNCwtNS45NCAyMy4xOCwyMy4xOCAwIDAgMSA0LjY3LC00LjUxIDIzLjgxLDIzLjgxIDAgMCAxIDUuNjgsLTIuODUgMTguNTYsMTguNTYgMCAwIDEgNS44NiwtMSBjIDEuMTMsMCAzLjM5LDAuMDggMy4zOSwwLjUgdiAxNS43OSBhIDEwLjMzLDEwLjMzIDAgMCAwIC0yLjUzLC0wLjQ1IGMgLTEuMTEsLTAuMDkgLTIsLTAuMTUgLTMuMDcsLTAuMTUgYSAxNy43MSwxNy43MSAwIDAgMCAtNy45MSwxLjU4IDEzLjQ5LDEzLjQ5IDAgMCAwIC01LjE0LDQuMjUgMTcuMjMsMTcuMjMgMCAwIDAgLTIuODUsNi4zIDMzLjA4LDMzLjA4IDAgMCAwIC0wLjg4LDcuOCB2IDI4LjkxIEggNzA0LjQyIFYgODEuMjMgWiBtIC00Ny40Nyw2NC4yMiB2IC04LjM4IDAgYSAyNC4wNywyNC4wNyAwIDAgMSAtOC40MSw3LjI0IDI0LjQsMjQuNCAwIDAgMSAtMTAuNTUsMi4xIDI5LjI3LDI5LjI3IDAgMCAxIC0xMS4yMSwtMiAxNi4xLDE2LjEgMCAwIDEgLTYuOSwtNS4xNiAyMCwyMCAwIDAgMSAtMy43LC04LjA4IDUyLjY2LDUyLjY2IDAgMCAxIC0xLjE2LC0xMC41NSBWIDgxLjIzIGggMTYuNzUgdiAzNi4zMyBjIDAsNS4xIDEuMSw5IDIuNzEsMTEuNDUgMS42MSwyLjQ1IDQuNTksMy43OCA4LjY4LDMuNzggNC42MSwwIDguMjYsLTEuMzcgMTAuMzMsLTQuMTMgMi4wNywtMi43NiAzLjQyLC03LjMyIDMuNDIsLTEzLjYzIHYgLTMzLjggaCAxNi43NSB2IDY0LjIyIHogbSAtOTIuNTMsLTE1Ljg4IGMgMi41MywyLjU0IDYuMjIsMy43NyAxMSwzLjc3IGEgMTUuNTIsMTUuNTIgMCAwIDAgOC44OCwtMi4yNyBjIDIuNDYsLTEuNzMgNCwtMi4zNyA0LjU2LC01LjE2IGggMTUgYyAtMi40MSw1LjU4IC02LjExLDEyLjUxIC0xMS4wNiwxNS43IC00Ljk1LDMuMTkgLTExLDQuNjQgLTE4LDQuNjQgYSAzNS42NSwzNS42NSAwIDAgMSAtMTMuMjIsLTIuNCAyNy45LDI3LjkgMCAwIDEgLTEwLC02LjY5IDMwLjQ3LDMwLjQ3IDAgMCAxIC02LjMxLC0xMC4zNCAzNy44NCwzNy44NCAwIDAgMSAtMi4yMSwtMTMuMjEgMzUuNzUsMzUuNzUgMCAwIDEgMi4yNywtMTMgMzAsMzAgMCAwIDEgMTYuNSwtMTcuMyAzMiwzMiAwIDAgMSAxMi45MiwtMi41IDI5LjQsMjkuNCAwIDAgMSAxMy44MiwzIDI3LjA5LDI3LjA5IDAgMCAxIDkuNjQsOC4yMSAzMy42MSwzMy42MSAwIDAgMSA1LjQ4LDExLjczIDQxLjQ0LDQxLjQ0IDAgMCAxIDEuMTYsMTMuNzQgSCA1NzcgYyAwLjI1LDUuNTkgMS42Myw5LjU4IDQuMiwxMiBtIDE5LjI2LC0zMi44MyBjIC0yLC0yLjIzIC01LjEzLC0zLjI1IC05LjI5LC0zLjI1IGEgMTQuODQsMTQuODQgMCAwIDAgLTYuODEsMS40NCAxMy41NiwxMy41NiAwIDAgMCAtNC4zNiwzLjUyIDEyLjE1LDEyLjE1IDAgMCAwIC0yLjI5LDQuMTYgYyAtMC40MywxLjQ4IC0wLjY5LDMuODMgLTAuNzYsMy44MyBoIDI3Ljc1IGMgLTAuODMsLTIuNzkgLTIuMjYsLTcuMzggLTQuMjcsLTkuNjIiLz4mI3hhOyAgICAgICAgIDxnIGlkPSJFVWZsYWciPiYjeGE7ICAgICAgICAgICAgPHBvbHlnb24gaWQ9InBvbHlnb240NyIgc3R5bGU9ImZpbGw6IzAwMzM5OSIgcG9pbnRzPSIxMDM1LjI0LDEzOC4zNSAxMTU2LjYzLDEzOC4zNSAxMTU2LjYzLDU3LjQyIDEwMzUuMjQsNTcuNDIiLz4mI3hhOyAgICAgICAgIDwvZz4mI3hhOyAgICAgICAgIDxwb2x5Z29uIGlkPSJwb2x5Z29uNTAiIHN0eWxlPSJmaWxsOiNGRkNDMDAiIHBvaW50cz0iMTEwMi4xLDY5LjczIDEwOTguODQsNzIuMjggMTEwMC4xLDc2LjMxIDEwOTYuODUsNzMuODIgMTA5My41OSw3Ni4zMSAxMDk0Ljg4LDcyLjI4IDEwOTEuNTgsNjkuNzMgMTA5NS42Miw2OS43MyAxMDk2Ljg1LDY1Ljc5IDEwOTguMDUsNjkuNzMiLz4mI3hhOyAgICAgICAgIDxwb2x5Z29uIGlkPSJwb2x5Z29uNTIiIHN0eWxlPSJmaWxsOiNGRkNDMDAiIHBvaW50cz0iMTEwMi4yNSwxMjMuNjYgMTA5OC45OSwxMjYuMTEgMTEwMC4yNSwxMjkuOTkgMTA5NywxMjcuNiAxMDkzLjc1LDEyOS45OSAxMDk1LjAzLDEyNi4xMSAxMDkxLjczLDEyMy42NiAxMDk1Ljc3LDEyMy42NiAxMDk3LDExOS44OCAxMDk4LjE5LDEyMy42NiIvPiYjeGE7ICAgICAgICAgPHBvbHlnb24gaWQ9InBvbHlnb241NCIgc3R5bGU9ImZpbGw6I0ZGQ0MwMCIgcG9pbnRzPSIxMTE1LjU5LDEyMC4wOCAxMTEyLjMzLDEyMi41MyAxMTEzLjYsMTI2LjQyIDExMTAuMzQsMTI0LjAzIDExMDcuMDksMTI2LjQyIDExMDguMzcsMTIyLjUzIDExMDUuMDcsMTIwLjA4IDExMDkuMTIsMTIwLjA4IDExMTAuMzQsMTE2LjMgMTExMS41NCwxMjAuMDgiLz4mI3hhOyAgICAgICAgIDxwb2x5Z29uIGlkPSJwb2x5Z29uNTYiIHN0eWxlPSJmaWxsOiNGRkNDMDAiIHBvaW50cz0iMTExNS41OSw3My4zMiAxMTEyLjMzLDc1Ljc3IDExMTMuNiw3OS42NiAxMTEwLjM0LDc3LjI2IDExMDcuMDksNzkuNjYgMTEwOC4zNyw3NS43NyAxMTA1LjA3LDczLjMyIDExMDkuMTIsNzMuMzIgMTExMC4zNCw2OS41MyAxMTExLjU0LDczLjMyIi8+JiN4YTsgICAgICAgICA8cG9seWdvbiBpZD0icG9seWdvbjU4IiBzdHlsZT0iZmlsbDojRkZDQzAwIiBwb2ludHM9IjExMjUuNDksODMuMjMgMTEyMi4yMiw4NS42NyAxMTIzLjUsODkuNTYgMTEyMC4yNCw4Ny4xNyAxMTE3LDg5LjU2IDExMTguMjcsODUuNjcgMTExNC45Nyw4My4yMyAxMTE5LjAyLDgzLjIzIDExMjAuMjQsNzkuNDQgMTEyMS40NCw4My4yMyIvPiYjeGE7ICAgICAgICAgPHBvbHlnb24gaWQ9InBvbHlnb242MCIgc3R5bGU9ImZpbGw6I0ZGQ0MwMCIgcG9pbnRzPSIxMTI1LjQ5LDExMC4zMiAxMTIyLjIyLDExMi43NyAxMTIzLjUsMTE2LjY2IDExMjAuMjQsMTE0LjI2IDExMTYuOTksMTE2LjY2IDExMTguMjcsMTEyLjc3IDExMTQuOTcsMTEwLjMyIDExMTkuMDIsMTEwLjMyIDExMjAuMjQsMTA2LjUyIDExMjEuNDQsMTEwLjMyIi8+JiN4YTsgICAgICAgICA8cG9seWdvbiBpZD0icG9seWdvbjYyIiBzdHlsZT0iZmlsbDojRkZDQzAwIiBwb2ludHM9IjExMjkuMjEsOTYuNTYgMTEyNS45NSw5OS4wMiAxMTI3LjIxLDEwMi45IDExMjMuOTYsMTAwLjUgMTEyMC43MSwxMDIuOSAxMTIxLjk5LDk5LjAyIDExMTguNjksOTYuNTYgMTEyMi43Myw5Ni41NiAxMTIzLjk2LDkyLjc4IDExMjUuMTUsOTYuNTYiLz4mI3hhOyAgICAgICAgIDxwb2x5Z29uIGlkPSJwb2x5Z29uNjQiIHN0eWxlPSJmaWxsOiNGRkNDMDAiIHBvaW50cz0iMTA4OC41LDczLjM2IDEwODUuMjMsNzUuODEgMTA4Ni41LDc5LjcgMTA4My4yNCw3Ny4zIDEwNzkuOTksNzkuNyAxMDgxLjI3LDc1LjgxIDEwNzcuOTgsNzMuMzYgMTA4Mi4wMiw3My4zNiAxMDgzLjI0LDY5LjU3IDEwODQuNDUsNzMuMzYiLz4mI3hhOyAgICAgICAgIDxwb2x5Z29uIGlkPSJwb2x5Z29uNjYiIHN0eWxlPSJmaWxsOiNGRkNDMDAiIHBvaW50cz0iMTA3OC44OCw4My4yNiAxMDc1LjYxLDg1LjcxIDEwNzYuODcsODkuNTkgMTA3My42Miw4Ny4yIDEwNzAuMzcsODkuNTkgMTA3MS42NSw4NS43MSAxMDY4LjM1LDgzLjI2IDEwNzIuNCw4My4yNiAxMDczLjYyLDc5LjQ3IDEwNzQuODIsODMuMjYiLz4mI3hhOyAgICAgICAgIDxwb2x5Z29uIGlkPSJwb2x5Z29uNjgiIHN0eWxlPSJmaWxsOiNGRkNDMDAiIHBvaW50cz0iMTA3NS4zLDk2LjYgMTA3Mi4wMyw5OS4wNSAxMDczLjMsMTAyLjkzIDEwNzAuMDUsMTAwLjU1IDEwNjYuNzksMTAyLjkzIDEwNjguMDcsOTkuMDUgMTA2NC43OCw5Ni42IDEwNjguODIsOTYuNiAxMDcwLjA1LDkyLjgxIDEwNzEuMjQsOTYuNiIvPiYjeGE7ICAgICAgICAgPHBvbHlnb24gaWQ9InBvbHlnb243MCIgc3R5bGU9ImZpbGw6I0ZGQ0MwMCIgcG9pbnRzPSIxMDc4Ljg4LDExMC4zNSAxMDc1LjYxLDExMi44MSAxMDc2Ljg3LDExNi42OSAxMDczLjYyLDExNC4zIDEwNzAuMzcsMTE2LjY5IDEwNzEuNjUsMTEyLjgxIDEwNjguMzUsMTEwLjM1IDEwNzIuNCwxMTAuMzUgMTA3My42MiwxMDYuNTcgMTA3NC44MiwxMTAuMzUiLz4mI3hhOyAgICAgICAgIDxwb2x5Z29uIGlkPSJwb2x5Z29uNzIiIHN0eWxlPSJmaWxsOiNGRkNDMDAiIHBvaW50cz0iMTA4OC42NCwxMjAuMTIgMTA4NS4zNywxMjIuNTcgMTA4Ni42MywxMjYuNDUgMTA4My4zOCwxMjQuMDYgMTA4MC4xMywxMjYuNDUgMTA4MS40MiwxMjIuNTcgMTA3OC4xMiwxMjAuMTIgMTA4Mi4xNiwxMjAuMTIgMTA4My4zOCwxMTYuMzMgMTA4NC41OSwxMjAuMTIiLz4mI3hhOyAgICAgIDwvZz4mI3hhOyAgIDwvZz4mI3hhOzwvc3ZnPg==;" parent="1" vertex="1">
          <mxGeometry x="40.93" y="220" width="161" height="22" as="geometry" />
        </mxCell>
        <mxCell id="fakd-Xu31UxTlEahAAD4-22" value="" style="shape=image;verticalLabelPosition=bottom;labelBackgroundColor=default;verticalAlign=top;aspect=fixed;imageAspect=0;editableCssRules=.*;image=data:image/svg+xml,PHN2ZyB4bWxuczp4bGluaz0iaHR0cDovL3d3dy53My5vcmcvMTk5OS94bGluayIgeG1sbnM9Imh0dHA6Ly93d3cudzMub3JnLzIwMDAvc3ZnIiB4bWw6c3BhY2U9InByZXNlcnZlIiBzdHlsZT0iZW5hYmxlLWJhY2tncm91bmQ6bmV3IDAgMCAxMDkgOTEuNDsiIHZpZXdCb3g9IjAuMDA3MjE2NjkxOTcwODI1MTk1IDAuMDI1MDAyNDc5NTUzMjIyNjU2IDEwOC45OTI4MDU0ODA5NTcwMyA5MS4zNzQ5ODQ3NDEyMTA5NCIgeT0iMHB4IiB4PSIwcHgiIGlkPSJMYXllcl8xIiB2ZXJzaW9uPSIxLjEiIHdpZHRoPSIxMDguOTkyODA1NDgwOTU3MDMiIGhlaWdodD0iOTEuMzc0OTg0NzQxMjEwOTQiPiYjeGE7PHN0eWxlIHR5cGU9InRleHQvY3NzIj4mI3hhOwkuc3Qwe2ZpbGw6IzAwOUVEQjt9JiN4YTs8L3N0eWxlPiYjeGE7PGc+JiN4YTsJPGc+JiN4YTsJCTxnPiYjeGE7CQkJPGc+JiN4YTsJCQkJPHBhdGggZD0iTTg2LjQsODMuMmMtMi45LDEuNC02LjEsMS44LTkuMywxLjFjLTIuMi0wLjUtNC4yLTEuMi02LjItMi4xbC00LjQtMS44Yy0zLjgtMS4yLTcuOS0xLjMtMTEuOC0wLjNoLTAuNCYjMTA7JiM5OyYjOTsmIzk7JiM5OyYjOTtjLTMuOS0xLjEtOC0xLTExLjgsMC4zYy0xLjUsMC41LTIuOSwxLjItNC40LDEuOGMtMiwwLjktNC4xLDEuNy02LjIsMi4yYy0zLjEsMC43LTYuNCwwLjMtOS4zLTEuMWwtMC40LTAuMiYjMTA7JiM5OyYjOTsmIzk7JiM5OyYjOTtjLTAuMSwwLTAuMSwwLTAuMSwwLjFjMS45LDIsNC40LDMuNCw3LDQuMWMxLjgsMC41LDMuNywwLjYsNS41LDAuNGMyLjgtMC40LDUuNS0xLjQsNy44LTNsNC4yLTIuOGMxLjYtMSwzLjUtMS40LDUuMy0xJiMxMDsmIzk7JiM5OyYjOTsmIzk7JiM5O2MxLDAuMSwwLjIsMC42LDAuMSwwLjdjLTIuNSwxLjItNC45LDIuNy03LjEsNC40Yy0xLjUsMS4xLTQuMiwzLjctNC4yLDMuN2wyLDEuN2wyLjItMi40YzIuNy0yLjgsNS44LTUuMiw5LjItNy4xJiMxMDsmIzk7JiM5OyYjOTsmIzk7JiM5O2MwLjMtMC4yLDAuNi0wLjIsMC45LDBjMy40LDEuOSw2LjUsNC4zLDkuMiw3LjFsMi4yLDIuNGwyLTEuN0w2NC4yLDg2Yy0yLjItMS43LTQuNi0zLjItNy4xLTQuNGMtMC4yLTAuMS0wLjktMC42LDAuMS0wLjcmIzEwOyYjOTsmIzk7JiM5OyYjOTsmIzk7YzEuOC0wLjQsMy43LDAsNS4zLDFsNC4yLDIuOGMyLjMsMS42LDUsMi42LDcuOCwzYzEuOCwwLjIsMy43LDAuMSw1LjUtMC40YzIuNi0wLjgsNS4xLTIuMiw3LTQuMWMwLDAtMC4xLTAuMS0wLjItMC4xJiMxMDsmIzk7JiM5OyYjOTsmIzk7JiM5O0w4Ni40LDgzLjIgTTk2LjIsNzQuNWMtMS4zLDEtMi43LDEuNy00LjIsMi4yYy0yLjEsMC42LTQuNCwxLTYuNiwxYy0yLjksMC4xLTUuNywwLjMtOC42LDAuN2MtMC4yLDAtMC4zLDAtMC4yLTAuMSYjMTA7JiM5OyYjOTsmIzk7JiM5OyYjOTtjMi41LTEsNC41LTMsNS42LTUuNGwyLjgtNS43YzAtMC4xLDAtMC4xLDAtMC4yYy0wLjIsMC4xLTMsMi41LTQuMywzLjdMNzYsNzUuM2MtMi4xLDEuOC00LjYsMy4xLTcuMywzLjhoLTAuMWwtMC4xLDAuMSYjMTA7JiM5OyYjOTsmIzk7JiM5OyYjOTtsNS40LDEuM2MyLjMsMC43LDQuNywxLjEsNy4xLDEuM2M2LjEsMC42LDEyLTIuMiwxNS40LTcuMkM5Ni40LDc0LjUsOTYuMyw3NC41LDk2LjIsNzQuNSBNMTA1LDYxLjFjLTEuNCwxLjctMy4xLDMuMi01LDQuNCYjMTA7JiM5OyYjOTsmIzk7JiM5OyYjOTtjLTEuNiwxLjEtMy4zLDItNS4xLDIuOGMtMi4zLDAuOS00LjQsMi4yLTYuMywzLjdsLTAuNCwwLjNjLTAuMSwwLTAuMSwwLTAuMS0wLjFzMy0zLjEsMy45LTkuNGMwLjEtMi4zLDAuNS00LjUsMS02LjcmIzEwOyYjOTsmIzk7JiM5OyYjOTsmIzk7YzAtMC4xLDAtMC4xLDAtMC4yYy0yLjEsMi42LTMuNyw1LjUtNC44LDguNmwtMS44LDUuMWMtMC43LDIuMy0yLDQuNC0zLjcsNi4xbC0wLjIsMC4yVjc2YzAuMiwwLDAuNC0wLjEsMC42LTAuMWw1LjgtMS4yJiMxMDsmIzk7JiM5OyYjOTsmIzk7JiM5O2MzLjItMC41LDYuMi0xLjgsOC44LTMuN2MyLjctMS45LDQuOC00LjUsNi4zLTcuNEMxMDQuNCw2Mi44LDEwNC43LDYyLDEwNSw2MS4xQzEwNS4yLDYxLDEwNS4xLDYxLDEwNSw2MS4xIE0xMDguOCw0Ni4xJiMxMDsmIzk7JiM5OyYjOTsmIzk7JiM5O2MtMC45LDIuNy0yLjUsNS4yLTQuNiw3LjJjLTIuNCwyLjMtNC42LDQuOS02LjYsNy41YzAsMC4xLTAuMiwwLTAuMS0wLjFjMC44LTIuNywxLTUuNiwwLjYtOC41Yy0wLjQtMi40LTEuNC01LTEuNy03LjkmIzEwOyYjOTsmIzk7JiM5OyYjOTsmIzk7bC0wLjEtMC4xYzAsMC4xLTAuMSwwLjItMC4xLDAuM2MtMC42LDEuOS0xLDMuOC0xLjIsNS44Yy0wLjEsMi40LDAuMyw1LjUsMC4xLDcuOWMtMC4yLDIuOC0wLjQsNS43LTEuNyw4LjJjMCwwLjEsMCwwLjEsMCwwLjImIzEwOyYjOTsmIzk7JiM5OyYjOTsmIzk7bDYtMy43YzIuNS0xLjYsNC42LTMuNiw2LjMtNmMyLjItMy4xLDMuMy02LjcsMy4zLTEwLjVjMC0wLjEsMC0wLjMsMC0wLjRDMTA4LjksNDYsMTA4LjgsNDYuMSwxMDguOCw0Ni4xIiBjbGFzcz0ic3QwIi8+JiN4YTsJCQkJPHBhdGggZD0iTTEwMi40LDQ3LjdDMTAyLjUsNDcuNywxMDIuNSw0Ny43LDEwMi40LDQ3LjdDMTAyLjQsNDcuOCwxMDIuNCw0Ny43LDEwMi40LDQ3LjdjMC0wLjgsMC0xLjYtMC4xLTIuNCYjMTA7JiM5OyYjOTsmIzk7JiM5OyYjOTtjLTAuMi0yLjgtMS45LTUuMS0zLjQtNy41Yy0xLTEuNS0xLjktMy4xLTIuNy00LjhjMCwwLTAuMS0wLjEtMC4yLTAuMWMwLDAuMiwwLDEuMSwwLjEsMS42YzAuNSw0LDEuNSw4LDMsMTEuOCYjMTA7JiM5OyYjOTsmIzk7JiM5OyYjOTtjMC45LDIuNCwxLjIsNC45LDEsNy40YzAsMC4yLDAsMC4yLDAuMSwwLjNjMC45LTEuMywyLjctMy4xLDMuOC00LjVzNy4xLTguMiw0LjItMTcuNmMtMC4xLTAuNC0wLjMtMC44LTAuNS0xLjJsLTAuMSwwLjEmIzEwOyYjOTsmIzk7JiM5OyYjOTsmIzk7YzAsNi44LTMuMyw5LjctNC42LDE0LjNDMTAyLjcsNDYuMiwxMDIuNSw0NywxMDIuNCw0Ny43IE0xMDIuNSwzMy43bC0wLjYtMS42bC0wLjQtMC45Yy0xLTEuOC0yLjQtMy40LTQuMS00LjYmIzEwOyYjOTsmIzk7JiM5OyYjOTsmIzk7Yy0xLjQtMS4yLTIuNi0yLjUtMy42LTRjMCwwLTAuMSwwLTAuMiwwaC0wLjFjMC4xLDAuMywxLDMuMywxLjYsNC43YzEsMS45LDIuMiwzLjgsMy42LDUuNGwwLjMsMC40YzEuNywyLjMsMyw0LjgsMy45LDcuNSYjMTA7JiM5OyYjOTsmIzk7JiM5OyYjOTtjMCwwLjEsMC4xLDAuMSwwLjEsMC4xbDEuNy01LjJjMC42LTEuOCwxLjEtMy43LDEuNS01LjZjMC42LTQuNS0wLjgtMTAuMi0zLjQtMTMuNGMwLDAtMC4xLDAuMS0wLjEsMC4ybDAuMSwwLjRsMC4yLDAuNiYjMTA7JiM5OyYjOTsmIzk7JiM5OyYjOTtjMC41LDIuNCwwLjYsNSwwLjEsNy40Yy0wLjQsMS45LTAuNSwzLjktMC41LDUuOWMwLDAuMywwLjIsMi44LDAuMiwyLjlzLTAuMSwwLTAuMiwwIE05NC41LDguNmMwLjgsMC44LDEuNSwxLjcsMS45LDIuOCYjMTA7JiM5OyYjOTsmIzk7JiM5OyYjOTtjMC43LDEuNywwLjksNC4yLDEuNCw2LjFsMC45LDMuM2MwLDAuMS0wLjEsMC4yLTAuMiwwLjFjLTEuNS0xLjgtMy4zLTMuMy01LjQtNC41Yy0xLjQtMC44LTIuNS0xLjktMy41LTMuMWwtMC41LTAuNyYjMTA7JiM5OyYjOTsmIzk7JiM5OyYjOTtjMCwwLTAuMS0wLjEtMC4yLDBjMCwwLjEsMCwwLjIsMCwwLjNjMC41LDIuMiwxLjUsNC4zLDMuMSw2YzEuMywxLjIsMi43LDIuMyw0LDMuNGMxLjcsMS40LDMuMywzLjEsNC44LDQuOGMwLDAsMC4xLDAuMSwwLjEsMCYjMTA7JiM5OyYjOTsmIzk7JiM5OyYjOTt2LTEuNmwwLjEtNC44di0xLjZjMC0xLjYtMC4zLTMuMy0wLjktNC44Yy0xLTIuNS0yLjktNC41LTUuMi01LjdjLTAuMS0wLjEtMC4zLTAuMS0wLjUtMC4yQzk0LjQsOC40LDk0LjQsOC41LDk0LjUsOC42JiMxMDsmIzk7JiM5OyYjOTsmIzk7JiM5OyBNODQuMiwzLjljMS40LDEuMywyLjYsMi44LDMuNyw0LjRjMSwxLjYsMi4xLDMsMy41LDQuM2MwLjksMC45LDMuNiwzLDQuMywzLjZjLTAuMS0wLjgtMS40LTYuNS00LjktOS4zJiMxMDsmIzk7JiM5OyYjOTsmIzk7JiM5O2MtMi0xLjYtNC40LTIuOC02LjktMy40YzAsMC4xLDAsMC4xLDAsMC4yTDg0LjIsMy45IE0yOC4yLDgxLjhjMi4zLTAuMiw0LjctMC42LDYuOS0xLjNsNS40LTEuM2gwLjFjMCwwLDAtMC4xLTAuMS0wLjFoLTAuMSYjMTA7JiM5OyYjOTsmIzk7JiM5OyYjOTtjLTIuNy0wLjctNS4yLTItNy40LTMuOGwtNC43LTQuNUwyNCw2Ny4xdjAuMmMwLjQsMC42LDEuOSwzLjksMi44LDUuN2MxLjEsMi41LDMuMSw0LjQsNS42LDUuNGMwLjEsMC4xLDAsMC4xLTAuMiwwLjEmIzEwOyYjOTsmIzk7JiM5OyYjOTsmIzk7Yy0yLjgtMC40LTUuNy0wLjYtOC42LTAuN2MtMi4yLDAtNC41LTAuNC02LjYtMWMtMS41LTAuNS0yLjktMS4yLTQuMi0yLjJjLTAuMSwwLTAuMSwwLTAuMiwwYzIsMi44LDQuOCw1LDgsNi4yJiMxMDsmIzk7JiM5OyYjOTsmIzk7JiM5O0MyMy4xLDgxLjYsMjUuNiw4MS45LDI4LjIsODEuOCBNMjUuOSw3NS45YzAuMiwwLDAuMywwLjEsMC42LDAuMXYtMC4xbC0wLjItMC4yYy0xLjctMS43LTIuOS0zLjgtMy43LTYuMWwtMS44LTUuMSYjMTA7JiM5OyYjOTsmIzk7JiM5OyYjOTtjLTEuMS0zLjEtMi43LTYtNC44LTguNmMwLDAuMSwwLDAuMSwwLDAuMmMwLjYsMi4yLDAuOSw0LjQsMS4xLDYuN0MxOCw2OSwyMSw3MiwyMSw3Mi4xczAsMC4yLTAuMSwwLjFsLTAuNC0wLjMmIzEwOyYjOTsmIzk7JiM5OyYjOTsmIzk7Yy0xLjktMS41LTQtMi44LTYuMy0zLjdjLTEuOC0wLjgtMy41LTEuNy01LjEtMi44Yy0xLjktMS4yLTMuNi0yLjctNS00LjRINGMwLjMsMC44LDAuNiwxLjYsMSwyLjRjMS41LDIuOSwzLjcsNS41LDYuNCw3LjQmIzEwOyYjOTsmIzk7JiM5OyYjOTsmIzk7YzIuNiwyLDUuNiwzLjMsOC44LDMuN0MyMi4xLDc1LDI0LDc1LjUsMjUuOSw3NS45IE05LjgsNjIuOWw2LDMuN2MwLDAsMC4xLTAuMSwwLjEtMC4yYy0xLjMtMi42LTEuNS01LjQtMS43LTguMiYjMTA7JiM5OyYjOTsmIzk7JiM5OyYjOTtjLTAuMi0yLjUsMC4yLTUuNSwwLjEtNy45Yy0wLjItMi0wLjYtNC0xLjItNS45YzAtMC4xLTAuMS0wLjItMC4xLTAuM2wtMC4xLDAuMWwwLDBjLTAuMiwyLjktMS4zLDUuNS0xLjcsNy45JiMxMDsmIzk7JiM5OyYjOTsmIzk7JiM5O2MtMC40LDIuOC0wLjIsNS43LDAuNiw4LjVjMC4xLDAuMS0wLjEsMC4yLTAuMSwwLjFjLTItMi43LTQuMi01LjItNi42LTcuNWMtMi4xLTItMy43LTQuNC00LjYtNy4xYzAsMC0wLjEtMC4xLTAuMi0wLjEmIzEwOyYjOTsmIzk7JiM5OyYjOTsmIzk7czAsMC4yLDAsMC40YzAsMy43LDEuMSw3LjQsMy4zLDEwLjVDNS4yLDU5LjIsNy4zLDYxLjMsOS44LDYyLjkgTTguNyw1NC4xQzguOCw1NCw4LjgsNTQsOC44LDUzLjhjLTAuMi0yLjUsMC4xLTUuMSwxLjEtNy40JiMxMDsmIzk7JiM5OyYjOTsmIzk7JiM5O2MxLjQtMy44LDIuNC03LjcsMy0xMS44YzAtMC41LDAuMS0xLjQsMC4xLTEuNmMtMC4xLDAtMC4xLDAtMC4xLDAuMWMtMC44LDEuNy0xLjcsMy4zLTIuNyw0LjhjLTEuNiwyLjItMy4yLDQuNi0zLjQsNy40JiMxMDsmIzk7JiM5OyYjOTsmIzk7JiM5O2MtMC4xLDAuOC0wLjEsMS42LDAsMi40YzAsMCwwLDAuMS0wLjEsMC4xYzAsMCwwLDAsMC0wLjFMNiw0NS4zQzQuNiw0MC43LDEuNCwzNy44LDEuNCwzMWwtMC4xLTAuMWMtMC4yLDAuNC0wLjMsMC44LTAuNSwxLjImIzEwOyYjOTsmIzk7JiM5OyYjOTsmIzk7Yy0yLjksOS40LDMsMTYuMiw0LjIsMTcuNlM3LjgsNTIuOCw4LjcsNTQuMSBNNC41LDM1LjRsMS43LDUuMmMwLDAsMC4xLDAsMC4xLTAuMWMwLjktMi43LDIuMy01LjIsMy45LTcuNWwwLjMtMC40JiMxMDsmIzk7JiM5OyYjOTsmIzk7JiM5O2MxLjQtMS43LDIuNi0zLjUsMy42LTUuNGMwLjYtMS40LDEuNS00LjQsMS42LTQuN2gtMC4xYy0wLjEsMC0wLjEsMC0wLjIsMGMtMSwxLjUtMi4yLDIuOC0zLjYsNGMtMS43LDEuMi0zLjIsMi44LTQuMiw0LjcmIzEwOyYjOTsmIzk7JiM5OyYjOTsmIzk7Yy0wLjEsMC4zLTAuMywwLjYtMC40LDAuOWwtMC42LDEuN2MwLDAtMC4xLDAuMi0wLjEsMHMwLjItMi41LDAuMi0yLjljMC0yLTAuMi00LTAuNi01LjljLTAuNS0yLjUtMC40LTUsMC4xLTcuNCYjMTA7JiM5OyYjOTsmIzk7JiM5OyYjOTtjMC0wLjIsMC4xLTAuNCwwLjItMC42YzAtMC4xLDAuMS0wLjMsMC4xLTAuNHMwLTAuMS0wLjEtMC4yYy0yLjYsMy4yLTQuMSw5LTMuNSwxMy40QzMuNCwzMS43LDMuOSwzMy42LDQuNSwzNS40IE04LjEsMjAuOCYjMTA7JiM5OyYjOTsmIzk7JiM5OyYjOTtsMC4xLDQuOGwwLDEuNWgwLjFjMS40LTEuOCwzLTMuNCw0LjctNC45bDQtMy40YzEuNi0xLjcsMi42LTMuOCwzLjEtNmMwLTAuMSwwLTAuMiwwLTAuM0gyMGwtMC41LDAuN2MtMC45LDEuMi0yLjEsMi4zLTMuNCwzLjEmIzEwOyYjOTsmIzk7JiM5OyYjOTsmIzk7Yy0yLjQsMS41LTQsMi42LTUuNCw0LjVjLTAuMSwwLjEtMC4yLDAuMS0wLjEtMC4xbDAuOS0zLjNjMC41LTEuOSwwLjctNC40LDEuNC02LjFjMC40LTEsMS4xLTIsMS45LTIuOGMwLTAuMSwwLTAuMSwwLTAuMiYjMTA7JiM5OyYjOTsmIzk7JiM5OyYjOTtjLTAuMiwwLTAuMywwLjEtMC41LDAuMkMxMS44LDkuOCwxMCwxMS45LDksMTQuM2MtMC42LDEuNS0xLDMuMS0wLjksNC44VjIwLjggTTEzLjQsMTYuMUwxMy40LDE2LjFsNC40LTMuNiYjMTA7JiM5OyYjOTsmIzk7JiM5OyYjOTtjMS4zLTEuMywyLjUtMi43LDMuNS00LjNzMi4zLTMuMSwzLjctNC40bDAuMy0wLjNjMC0wLjEsMC0wLjEsMC0wLjJjLTIuNSwwLjYtNC45LDEuNy02LjksMy40QzE0LjcsOS42LDEzLjUsMTUuMywxMy40LDE2LjEmIzEwOyYjOTsmIzk7JiM5OyYjOTsmIzk7IE01My42LDQ3LjFjMC4zLTAuNC0wLjQtMC43LTAuNiwwUzUzLjMsNDcuNiw1My42LDQ3LjEgTTYxLjIsMjkuNWMtMC4zLTAuMS0xLjQsMS4yLTEuMiwxLjRDNjAuNSwzMC42LDYwLjksMzAuMSw2MS4yLDI5LjUmIzEwOyYjOTsmIzk7JiM5OyYjOTsmIzk7IE02MS40LDI5LjNjMC4yLDAuMSwwLjktMC4zLDAuOC0wLjRzLTEtMC41LTEtMC4zQzYxLjIsMjksNjEuMywyOS4yLDYxLjQsMjkuMyBNNzQuOSw0MS43YzAuNC0wLjEsMC4zLTAuNywwLTAuNyYjMTA7JiM5OyYjOTsmIzk7JiM5OyYjOTtzLTAuNywwLjUtMC42LDAuNVM3NC43LDQxLjgsNzQuOSw0MS43IE03MCwyOC40Yy0wLjMsMC0wLjQsMC4zLTAuMSwwLjVjMC4zLDAuMSwwLjUsMCwwLjctMC4xczAuNC0wLjMsMC40LTAuNiYjMTA7JiM5OyYjOTsmIzk7JiM5OyYjOTtzLTAuNC0wLjctMC4yLTAuOXMwLjUsMC4xLDAuNywwczAuMy0wLjMsMC4zLTAuNVM3MS43LDI2LDcxLjMsMjZzLTAuOCwwLjgtMC44LDAuOGMtMC4xLDAuMi0wLjEsMC41LDAsMC43JiMxMDsmIzk7JiM5OyYjOTsmIzk7JiM5O0M3MC42LDI3LjksNzAuNSwyOC40LDcwLDI4LjQiIGNsYXNzPSJzdDAiLz4mI3hhOwkJCQk8cGF0aCBkPSJNNzYuNiwyOC41YzAsMC4yLDAuNSwxLjUsMC42LDEuOHMwLjIsMS40LDAuNCwxLjNzMC4yLTAuNywwLjEtMWMtMC4xLTAuNy0wLjMtMS41LTAuNS0yLjEmIzEwOyYjOTsmIzk7JiM5OyYjOTsmIzk7Yy0wLjEtMC40LTAuOC0xLjktMS0xLjhzMC4zLDEsMC40LDEuNFM3Ni41LDI4LjMsNzYuNiwyOC41IE03My4xLDExLjVjMC4zLDAuMSwwLjMtMC41LTAuMi0wLjlzLTEuMy0wLjItMS4xLDAmIzEwOyYjOTsmIzk7JiM5OyYjOTsmIzk7QzcyLjIsMTAuOSw3Mi42LDExLjMsNzMuMSwxMS41IE01OC4xLDcuMmMtMC43LTAuNC0wLjEtMS0wLjYtMS40Yy0wLjYtMC4yLTEuMi0wLjEtMS42LDAuM2MtMC41LDAuNiwwLjYsMC40LDAuOSwwLjYmIzEwOyYjOTsmIzk7JiM5OyYjOTsmIzk7czEuMywwLjksMS40LDAuOEM1OC4zLDcuNCw1OC4yLDcuMiw1OC4xLDcuMiBNNjIuMSw1LjJjLTAuOS0wLjQtNC4yLTAuNC00LjEsMC41YzAuMSwwLjksMS45LDAsMi40LDBTNjIuOSw1LjYsNjIuMSw1LjImIzEwOyYjOTsmIzk7JiM5OyYjOTsmIzk7IE01Myw0My44Yy0wLjItMC4xLTAuNSwwLjEtMC42LTAuMXMtMC4zLTAuMS0wLjMsMFM1Miw0NCw1Mi4yLDQ0LjJjMC4yLDAuMiwwLjYsMC4yLDAuOCwwQzUzLjEsNDQuMSw1My4xLDQzLjksNTMsNDMuOCYjMTA7JiM5OyYjOTsmIzk7JiM5OyYjOTsgTTUxLjEsMzcuMWMwLjMsMCwwLjMtMC4yLDAuNC0wLjJzMCwwLjIsMC4zLDAuMnMwLjYtMC43LTAuMy0wLjdDNTAuOCwzNi40LDUwLjksMzcuMSw1MS4xLDM3LjEgTTUyLjMsMzcuOSYjMTA7JiM5OyYjOTsmIzk7JiM5OyYjOTtjLTAuNS0wLjEtMC40LDAuMi0wLjgsMC4yYy0wLjYsMC4xLTAuMS0wLjQtMC4zLTAuNmMtMC4xLTAuMS0wLjQsMC40LTAuNSwwLjdjMCwwLjIsMCwwLjYsMC4yLDAuN2wxLjksMC4yJiMxMDsmIzk7JiM5OyYjOTsmIzk7JiM5O0M1My4yLDM5LjEsNTIuOCwzOCw1Mi4zLDM3LjkgTTQ2LjEsNDQuNGMwLjIsMCwwLjMtMC42LDAuMi0wLjlzLTAuNy0wLjEtMC43LDAuMVM0Niw0NC40LDQ2LjEsNDQuNCBNMzguMSw0NC40JiMxMDsmIzk7JiM5OyYjOTsmIzk7JiM5O2MwLTAuMiwwLTEtMC4yLTEuMnMtMC4yLDAuMS0wLjMsMC4xcy0wLjEtMC40LTAuMi0wLjRzMCwwLjYsMC4yLDFTMzguMSw0NC45LDM4LjEsNDQuNCBNMzcuOSw0Mi42YzAuMi0wLjYsMC4zLTEuMiwwLjMtMS44JiMxMDsmIzk7JiM5OyYjOTsmIzk7JiM5O2MwLTAuNS0wLjMtMC45LTAuNC0wLjlzMCwwLjMsMC4xLDAuOGMwLDAuNS0wLjIsMS0wLjMsMS41QzM3LjYsNDIuMywzNy44LDQyLjgsMzcuOSw0Mi42IiBjbGFzcz0ic3QwIi8+JiN4YTsJCQkJPHBhdGggZD0iTTI3LjcsNjVjMTQuOSwxNC45LDM4LjksMTQuOSw1My44LDBzMTQuOS0zOC45LDAtNTMuOHMtMzguOS0xNC45LTUzLjgsMFMxMi44LDUwLjIsMjcuNyw2NSBNMTguMiwzOC45SDI0JiMxMDsmIzk7JiM5OyYjOTsmIzk7JiM5O2MwLjEsMywwLjYsNS45LDEuNSw4LjdjLTAuMy0wLjEtMC42LTAuMi0wLjktMC40Yy0wLjQtMC4yLTAuNywwLjEtMC44LDAuMWMtMC40LDAtMC45LTAuMy0wLjksMHMwLjQsMC4xLDAuNCwwLjMmIzEwOyYjOTsmIzk7JiM5OyYjOTsmIzk7cy0xLDAuMi0xLjEtMC4ycy0wLjMtMC44LTAuNC0wLjNzLTAuNSwwLjQtMC43LDAuNWMtMC4xLDAuMS0wLjIsMC4zLTAuMiwwLjVzLTAuNSwwLjEtMC41LDAuNHMwLjMsMC40LDAuNCwwLjdzMC40LDAuNSwwLjIsMC42JiMxMDsmIzk7JiM5OyYjOTsmIzk7JiM5O3MtMC4xLTAuMS0wLjMsMHMwLjksMy4xLDEuMSwzcy0wLjMtMS0wLjMtMS40czAuMS0wLjUsMC40LTAuN3MxLjEsMS4yLDEuNCwxcy0wLjEtMC40LDAuMi0wLjVzMS4yLDEuMywxLjUsMC45JiMxMDsmIzk7JiM5OyYjOTsmIzk7JiM5O2MwLjItMC4zLDAuNCwwLjIsMC40LDAuM2MwLjMsMC41LDAuOCwwLjUsMS4xLDEuMXMxLDEuNywxLjUsMS43czAuMi0wLjUsMC40LTAuNXMwLjQsMC43LDAuNywxLjFjMC4yLDAuMywwLjUsMC41LDAuOSwwLjYmIzEwOyYjOTsmIzk7JiM5OyYjOTsmIzk7YzAuNywwLjksMS41LDEuOCwyLjMsMi43bC00LjEsNC4xQzIxLjksNTYuOCwxOC4zLDQ4LjEsMTguMiwzOC45IE01MS4zLDMwLjZsLTAuNCwwLjJjLTAuNiwwLjMtMS4xLDAuNi0xLjUsMWwtNC4xLTQuMSYjMTA7JiM5OyYjOTsmIzk7JiM5OyYjOTtjMi40LTIuMSw1LjQtMy40LDguNS0zLjVWMzBjLTAuNywwLjEtMS40LDAuMi0yLjEsMC41YzAuMi0wLjQsMC42LTAuOCwwLjYtMC44UzUxLjYsMzAuMSw1MS4zLDMwLjYgTTQ4LjIsNDAuMSYjMTA7JiM5OyYjOTsmIzk7JiM5OyYjOTtDNDguMiw0MC4xLDQ4LjIsNDAuMiw0OC4yLDQwLjFjMCwwLjEsMCwwLjIsMCwwLjJjMC0wLjItMC4xLTAuMy0wLjItMC41Yy0wLjEtMC4xLTAuMi0wLjItMC4zLTAuMnMtMC4yLDAtMC4zLDBoLTAuMkw0NywzOS43JiMxMDsmIzk7JiM5OyYjOTsmIzk7JiM5O2gtMS40Yy0wLjIsMC0wLjMsMC0wLjMtMC4xYy0wLjEtMC40LDAuNS0wLjEsMC45LTEuM2MwLjEtMC4xLDAuMS0wLjMsMC4yLTAuNGwwLjEtMC4ybDAuMS0wLjFsMC4xLTAuMWMwLjItMC4yLDAuNC0wLjIsMC42LTAuMiYjMTA7JiM5OyYjOTsmIzk7JiM5OyYjOTtoMC4ybDAuMiwwLjJsMC4zLDAuNmMwLjEsMC4xLDAuMiwwLjEsMC4yLDAuMmMwLjIsMC4xLDAuMywwLjIsMC40LDAuM2wwLjEsMC4xdjAuMWMwLjEsMC4xLDAuMSwwLjEsMC4yLDAuMUg0OSYjMTA7JiM5OyYjOTsmIzk7JiM5OyYjOTtjMC4xLDAsMC4xLDAsMC4yLDBoMC4xYzAuMi0wLjEsMC4yLDAsMC4zLDBWMzljMCwwLjEsMCwwLjEtMC4xLDAuMmMwLDAuMS0wLjEsMC4xLTAuMSwwLjJjLTAuMSwwLjEtMC4yLDAuMi0wLjMsMC4yJiMxMDsmIzk7JiM5OyYjOTsmIzk7JiM5O2MtMC4yLDAtMC40LTAuMS0wLjUtMC4xcy0wLjIsMC0wLjIsMC4xdjAuNSBNMzcuNCw0OS43Yy0wLjMtMC41LTAuNC0xLjItMC40LTEuOHMtMC4yLTEuMi0wLjUtMS43Yy0wLjEtMC40LTAuMi0wLjgtMC4yLTEuMiYjMTA7JiM5OyYjOTsmIzk7JiM5OyYjOTtjMC0wLjctMC42LTAuNS0wLjYtMC43czAuNSwwLDAuNS0wLjJzLTAuNi0xLTEuMS0xLjJzLTAuMy0wLjUtMC4zLTAuOHMwLTAuNi0wLjItMC44Yy0wLjEtMC40LDAtMS4xLDAuNS0xLjEmIzEwOyYjOTsmIzk7JiM5OyYjOTsmIzk7YzAuMiwwLDAuNSwwLjIsMC44LDBzMC4xLTAuOCwwLjEtMS4zaDIuOGMwLDAuNCwwLjEsMC45LDAuMSwxLjNjLTAuMiwwLjEtMC4zLDAuMy0wLjIsMC40YzAuMSwwLjEsMC4yLDAuMiwwLjMsMC4xJiMxMDsmIzk7JiM5OyYjOTsmIzk7JiM5O2MwLjUsMi45LDEuOCw1LjYsMy44LDcuOGwtNC4xLDQuMWMtMC4zLTAuMy0wLjYtMC43LTAuOS0xLjFjMC0wLjEsMC0wLjIsMC0wLjNjMC0wLjctMC41LTEuMS0wLjctMS43IE0zMy41LDQyLjcmIzEwOyYjOTsmIzk7JiM5OyYjOTsmIzk7Yy0wLjMtMS4yLTAuNC0yLjUtMC41LTMuOGgyLjRjLTAuMiwwLjMtMC43LDAuNi0wLjgsMC45cy0wLjcsMS4zLTAuMywxLjdDMzUuMiw0Mi41LDM0LjEsNDIuOSwzMy41LDQyLjcgTTM0LDU3LjVMMzMuNSw1OCYjMTA7JiM5OyYjOTsmIzk7JiM5OyYjOTtjLTAuMi0wLjItMC41LTAuNS0wLjctMC43QzMzLjIsNTcuMSwzMy42LDU3LjIsMzQsNTcuNSBNNDAuMiwzMS44Yy0wLjEsMC0wLjEsMC4xLTAuMiwwLjFjLTAuMywwLjMtMS4xLDAuMi0xLDAuNSYjMTA7JiM5OyYjOTsmIzk7JiM5OyYjOTtzMi4yLTAuNywyLjItMC41cy0wLjksMC41LTEuNSwwLjhzLTAuOCwwLjgtMS44LDAuOGMtMC41LDAtMC43LDAuNC0wLjksMC43Yy0wLjMsMC40LTAuNSwwLjgtMC43LDEuMmMwLDAuNi0wLjEsMS4yLTAuNCwxLjhIMzMmIzEwOyYjOTsmIzk7JiM5OyYjOTsmIzk7YzAuMi01LjEsMi4yLTEwLDUuNy0xMy44bDQuMSw0LjFDNDEuOCwyOC45LDQwLjksMzAuMyw0MC4yLDMxLjggTTQ0LDI4LjhsMy42LDMuNmMtMC4xLDAtMC4yLDAtMC40LDBjLTAuNCwwLTAuNC0wLjMtMC43LTAuMyYjMTA7JiM5OyYjOTsmIzk7JiM5OyYjOTtjLTAuNiwwLjEtMC43LDAuMy0wLjgsMC4yYy0wLjQtMC40LTAuOS0wLjctMS41LTFjLTAuNy0wLjItMS40LTAuMi0yLDAuMWMtMC4xLDAtMC4xLDAuMS0wLjIsMC4xQzQyLjcsMzAuNiw0My40LDI5LjcsNDQsMjguOCYjMTA7JiM5OyYjOTsmIzk7JiM5OyYjOTsgTTM5LDM2LjFjMCwwLjQtMC4xLDAuOC0wLjEsMS4yaC0yLjFjLTAuMS0wLjMsMC0wLjYsMC4yLTAuOWMwLjItMC40LDAuNy0wLjYsMS4yLTAuNUMzOC40LDM1LjksMzguNywzNiwzOSwzNi4xIE00MC44LDQwLjgmIzEwOyYjOTsmIzk7JiM5OyYjOTsmIzk7bDAuMiwwLjNjMC4yLDAuMiwwLjQsMC40LDAuNiwwLjNzMC43LDAsMC44LDBjMC4zLDAuMSwwLjUsMC4zLDAuNywwLjVjMC4yLDAuMywwLjYsMC4xLDAuOSwwLjNzMC42LDAuNCwwLjIsMC42JiMxMDsmIzk7JiM5OyYjOTsmIzk7JiM5O3MwLjQsMC42LDAuNSwwLjZzMC4yLTAuMiwwLjItMC41YzAtMC4xLDAuMi0wLjUsMC41LTAuNHMxLjIsMS4yLDEuNSwwLjhzMC4xLTAuOSwwLjItMS4xYzAtMC4xLDAuMS0wLjIsMC4yLTAuMiYjMTA7JiM5OyYjOTsmIzk7JiM5OyYjOTtjMC4zLDAuNSwwLjUsMC45LDAuOSwxLjNsLTQuMSw0LjFDNDIuNCw0NS42LDQxLjIsNDMuMyw0MC44LDQwLjggTTQ0LDI2LjVsLTQtNC4xYzMuOC0zLjUsOC43LTUuNSwxMy44LTUuN3Y1LjgmIzEwOyYjOTsmIzk7JiM5OyYjOTsmIzk7QzUwLjIsMjIuNiw0Ni44LDI0LDQ0LDI2LjUgTTM4LjgsMjEuMmwtNC4xLTQuMWM1LjItNC45LDEyLTcuNywxOS4xLTcuOVYxNUM0OC4yLDE1LjIsNDIuOCwxNy40LDM4LjgsMjEuMiBNMzcuNiwyMi4zJiMxMDsmIzk7JiM5OyYjOTsmIzk7JiM5O2MtMy44LDQuMS02LDkuNC02LjIsMTVoLTUuOGMwLjItNy4xLDMtMTMuOSw3LjktMTkuMUwzNy42LDIyLjN6IE0zMS40LDM4LjljMCwxLjEsMC4xLDIuMSwwLjMsMy4yYy0wLjEsMC0wLjEtMC4zLTAuNC0wLjImIzEwOyYjOTsmIzk7JiM5OyYjOTsmIzk7cy0xLjQsMi0xLjksMi44Yy0wLjQsMC43LDAuMiwyLjItMC40LDIuN2MtMC42LDAuMi0xLjIsMC4zLTEuOCwwLjNoLTAuMWMtMS0yLjgtMS41LTUuNy0xLjYtOC42TDMxLjQsMzguOXogTTUzLjcsNzQuNSYjMTA7JiM5OyYjOTsmIzk7JiM5OyYjOTtjLTkuMS0wLjItMTcuOC0zLjgtMjQuMy0xMC4xbDQuMS00LjFjNS41LDUuMiwxMi43LDguMiwyMC4yLDguNFY3NC41eiBNNTMuNyw2Ny4xYy03LjEtMC4yLTEzLjktMy0xOS4xLTcuOWwwLjctMC43JiMxMDsmIzk7JiM5OyYjOTsmIzk7JiM5O2MwLjEsMC4xLDAuMywwLjIsMC41LDAuM2MwLjQsMC4yLDAuOSwwLjMsMS40LDAuMmMwLjQtMC4xLDEuMi0wLjgsMS43LTAuOHMxLjMsMC4yLDEuOC0wLjFzLTAuMy0xLjMtMC42LTEuOCYjMTA7JiM5OyYjOTsmIzk7JiM5OyYjOTtDNDAsNTYuMiw0MCw1Ni4xLDM5LjksNTZjMy45LDMuMyw4LjksNS4yLDE0LDUuM0w1My43LDY3LjF6IE01My43LDU5LjZjLTUuMS0wLjItMTAtMi4yLTEzLjgtNS43bDQuMS00LjEmIzEwOyYjOTsmIzk7JiM5OyYjOTsmIzk7YzEuOSwxLjcsNC4yLDMsNi44LDMuNmMtMC45LDAuNC0xLjMsMS0xLjIsMS41UzQ5LDU1LjcsNDksNTYuM3MwLjgsMSwwLjksMS42YzAuMSwwLjMsMC44LDAuOCwxLjQsMS4yYzAuOCwwLjIsMS42LDAuMywyLjMsMC4yJiMxMDsmIzk7JiM5OyYjOTsmIzk7JiM5O0w1My43LDU5LjZ6IE01My41LDUxLjZjLTAuMy0wLjItMC41LDAuMi0wLjksMC40Yy0yLjgtMC40LTUuMy0xLjYtNy40LTMuNGw0LjEtNC4xYzEuMywxLDIuOCwxLjcsNC40LDEuOCYjMTA7JiM5OyYjOTsmIzk7JiM5OyYjOTtjMCwwLjIsMC4yLDAuNCwwLjIsMC44cy0wLjMsMC42LTAuMiwwLjhzMSwwLDEuMS0wLjNzLTAuMy0wLjUtMC40LTAuOGMtMC4xLTAuMi0wLjEtMC4zLTAuMi0wLjVoMC4zYzAuMywwLDAuNiwwLDAuOS0wLjEmIzEwOyYjOTsmIzk7JiM5OyYjOTsmIzk7YzAuMSwwLDAuMi0wLjEsMC4yLTAuMmMwLTAuMSwwLjEtMC4yLDAuMS0wLjNzMC4xLTAuMSwwLjEtMC4ybDAsMGwwLjEsMC4xYzAuMSwwLjIsMC4zLDAuOCwwLjUsMC43czAuMy0xLDAuMi0xLjImIzEwOyYjOTsmIzk7JiM5OyYjOTsmIzk7Yy0wLjItMC4zLTAuMi0wLjYsMC0wLjljMC0wLjEsMC4xLTAuNywwLjMtMC42czAsMC42LDAsMC44YzAsMC4zLDAuMiwwLjcsMC41LDAuNWMwLjItMC4xLDAuNC0wLjQsMC42LTAuM3MtMC41LDAuMy0wLjYsMC41JiMxMDsmIzk7JiM5OyYjOTsmIzk7JiM5O3MwLjMsMC4zLDAuMiwwLjRzLTAuMiwwLTAuMywwLjFzMC4yLDAuNywwLDAuOHMtMC45LDAuMy0xLjEsMC40cy0wLjQtMC4xLTAuMy0wLjJzMC0wLjUtMC4yLTAuNXMtMC4yLDAuMS0wLjIsMC4zJiMxMDsmIzk7JiM5OyYjOTsmIzk7JiM5O3MwLjIsMC41LDAuMiwwLjZzLTAuMywwLjItMC41LDAuM2MtMC4yLDAuMy0wLjUsMC42LTAuOCwwLjhzLTAuOSwwLjItMC45LDAuNHMwLjMsMC4yLDAuNCwwLjNjMC4yLDAuMywwLjMsMC43LTAuMSwwLjkmIzEwOyYjOTsmIzk7JiM5OyYjOTsmIzk7cy0wLjktMC4zLTEuMS0wLjJzLTAuMywwLjYtMC40LDEuMnMxLjEsMC44LDEuNywwLjVjMC40LTAuMiwwLjMtMC44LDAuNy0xczAuMy0wLjYsMC43LTAuNXMwLjMtMC4zLDAuNy0wLjNzMC40LDAuMywwLjksMC40JiMxMDsmIzk7JiM5OyYjOTsmIzk7JiM5O2MwLjgsMC4yLDAuOCwwLjgsMC45LDAuNXMwLjItMC41LTAuNC0wLjdzLTAuOS0wLjktMC40LTAuN2MwLjYsMC4zLDEuMSwwLjMsMS4yLDAuNnMwLjcsMC4yLDAuOCwwLjVjMC4xLDAuNSwwLjUsMCwwLjItMC4zJiMxMDsmIzk7JiM5OyYjOTsmIzk7JiM5O3MtMC4yLTAuNCwwLTAuNnMwLjMsMC4xLDAuNi0wLjNzLTAuMS0wLjMtMC4yLTAuNXMwLTEuMywwLjQtMS4xczAuOC0wLjEsMC42LTAuMnMwLjEtMC43LDAuMi0wLjdzMCwwLjQsMC4xLDAuNSYjMTA7JiM5OyYjOTsmIzk7JiM5OyYjOTtzMS4xLTAuMywxLjIsMC4ycy0wLjcsMC44LTAuOSwwLjhjLTAuNCwwLTAuNywwLjQtMSwwLjhzLTAuNiwwLjUtMC40LDAuOXMwLjYsMC4zLDEsMC4xczAuNy0wLjUsMC45LTAuNmMwLjQtMC4yLDAuNywxLDAuNSwxLjImIzEwOyYjOTsmIzk7JiM5OyYjOTsmIzk7cy0wLjYsMC4zLTAuOCwwLjVjLTAuNiwwLjMtMS4yLDAuNi0xLjksMC42Yy0wLjQsMC4xLTAuNCwwLjItMC41LDAuNlM1Ny4yLDUyLDU2LjgsNTJzMC4zLTAuOS0wLjMtMC44cy0xLjIsMC4yLTEuOCwwLjMmIzEwOyYjOTsmIzk7JiM5OyYjOTsmIzk7QzU0LjYsNTEuNSw1NCw1Miw1My41LDUxLjYgTTU4LjgsNjAuOWMwLjUsMC4yLDEsMC42LDEuMywxYzAuMywwLjUsMC40LDAuNywwLjIsMS4yQzU5LjgsNjQsNjAsNjQuNiw2MSw2NC45JiMxMDsmIzk7JiM5OyYjOTsmIzk7JiM5O2MwLjYsMC4yLDAuOCwwLjgsMS4yLDEuMmMtMi4yLDAuNi00LjUsMC45LTYuOCwxdi01LjhDNTYuNSw2MS4yLDU3LjcsNjEuMSw1OC44LDYwLjkgTTU1LjQsNTkuN1Y1OWMxLjMtMC4yLDEsMC42LDEuOSwwLjMmIzEwOyYjOTsmIzk7JiM5OyYjOTsmIzk7YzAuMy0wLjEsMC42LDAsMC44LDAuMkM1Ny4yLDU5LjUsNTYuMyw1OS42LDU1LjQsNTkuNyBNNTUuNCw3NC42di01LjljMy0wLjEsNi0wLjYsOC45LTEuNmMwLjEsMC4xLDAuMiwwLjEsMC4zLDAuMSYjMTA7JiM5OyYjOTsmIzk7JiM5OyYjOTtjMC40LDAsMC44LTAuMiwxLjEtMC40YzEtMC40LDEuOS0wLjksMi43LTEuNWMyLjYtMS4zLDUuMS0zLjEsNy4yLTUuMWw0LjEsNC4xQzczLjIsNzAuNyw2NC41LDc0LjMsNTUuNCw3NC42IE03MS42LDIyLjMmIzEwOyYjOTsmIzk7JiM5OyYjOTsmIzk7bDEuNC0xLjRjMC40LDAuNCwwLjgsMC43LDEuNCwwLjhjMC41LDAuMSwwLjcsMC4zLDAuOCwwLjhzMC42LDAuNywxLjEsMC44czAuOCwwLjcsMS4yLDAuN3MxLjcsMS44LDIuMiwyLjQmIzEwOyYjOTsmIzk7JiM5OyYjOTsmIzk7YzAuMywwLjMsMC43LDAuOCwxLDAuNHMwLjMtMC4zLDAuNS0wLjRjMS41LDMuNCwyLjQsNy4yLDIuNSwxMC45aC01LjhjMC0xLjMtMC4yLTIuNi0wLjUtMy45YzAuMi0wLjQsMC4zLTAuOCwwLjMtMS4zJiMxMDsmIzk7JiM5OyYjOTsmIzk7JiM5O2MwLTAuNC0wLjQtMC42LTAuNy0wLjNjLTAuMi0wLjgtMC41LTEuNS0wLjgtMi4yYy0wLjEtMC40LTAuMi0wLjktMC4zLTEuM2MwLTAuMS0wLjItMC4yLTAuNC0wLjRjLTAuMi0wLjQtMC4zLTAuNy0wLjUtMSYjMTA7JiM5OyYjOTsmIzk7JiM5OyYjOTtjMC4zLTAuMiwwLjQtMC43LDAtMC42Yy0wLjYsMC4xLTAuMi0wLjMtMC40LTAuNXMtMC4yLDAtMC4zLDAuMWMtMC44LTEuMi0xLjYtMi4zLTIuNi0zLjRDNzEuNywyMi41LDcxLjcsMjIuNSw3MS42LDIyLjMmIzEwOyYjOTsmIzk7JiM5OyYjOTsmIzk7QzcxLjUsMjIuNCw3MS41LDIyLjMsNzEuNiwyMi4zIE03NS4xLDU2LjJjLTAuMi0wLjQtMC4zLTAuOS0wLjUtMS4zYy0wLjEtMC40LTAuOS0wLjQtMC45LTAuMmMwLDAuNCwwLDAuOC0wLjEsMS4yVjU2bC0yLjEtMi4xJiMxMDsmIzk7JiM5OyYjOTsmIzk7JiM5O2MzLjgtNC4xLDYtOS40LDYuMi0xNWg1LjhjLTAuMiw3LjEtMywxMy45LTcuOSwxOWwtMC4zLTAuM0M3NS40LDU3LjIsNzUuMyw1Ni43LDc1LjEsNTYuMiBNNzAuMyw2MC4yYzAuMy0wLjUsMC45LTEuNCwxLjItMS45JiMxMDsmIzk7JiM5OyYjOTsmIzk7JiM5O3MtMC44LTEuMi0xLjQtMS40cy0wLjYtMC41LTAuNi0xYzAuMy0wLjIsMC42LTAuNSwwLjktMC44bDQuMSw0LjFjLTEuNCwxLjMtMi44LDIuNC00LjQsMy40Yy0wLjEtMC4yLDAuNi0wLjksMC44LTEuMiYjMTA7JiM5OyYjOTsmIzk7JiM5OyYjOTtTNzAuMSw2MC43LDcwLjMsNjAuMiBNNzIuOCwzNi4zYy0wLjUtMC43LDAuMi0wLjgsMC45LTEuMWMwLjQtMC4yLDAuOSwwLjEsMC45LTAuMXMwLjItMC42LDAuNC0wLjdjMC4yLTAuMSwwLjUtMC4zLDAuNi0wLjUmIzEwOyYjOTsmIzk7JiM5OyYjOTsmIzk7YzAsMC4yLDAuMSwwLjQsMC4xLDAuNmMtMC4yLDAuNC0wLjMsMC43LTAuMywxLjFjMCwwLjMsMCwwLjcsMC4zLDBjMC0wLjEsMC4xLTAuMSwwLjEtMC4yYzAuMiwwLjcsMC4yLDEuMywwLjIsMS45aC00LjMmIzEwOyYjOTsmIzk7JiM5OyYjOTsmIzk7YzAsMCwwLDAsMC0wLjFDNzIsMzYuNyw3My4xLDM2LjgsNzIuOCwzNi4zIE03My42LDI4LjFjMCwwLDAsMC4xLTAuMSwwLjFjLTAuMSwwLjEtMC42LTAuNy0wLjYtMC4xczAuMiwwLjgsMC42LDAuOSYjMTA7JiM5OyYjOTsmIzk7JiM5OyYjOTtzMC4yLDAuMywwLjUsMC40YzAuMSwwLDAuMywwLjEsMC40LDAuMmMwLjUsMS4xLDAuOCwyLjIsMS4xLDMuNGMtMC4yLDAuMS0wLjMsMC4yLTAuNCwwLjNjLTAuMiwwLjItMC4xLDAuNi0wLjMsMC45JiMxMDsmIzk7JiM5OyYjOTsmIzk7JiM5O2MtMC4zLDAuNS0wLjQsMC44LTEuMiwwLjZjLTAuNS0wLjItMC4xLTAuOCwwLTEuM3MwLjMtMC40LDAuMy0wLjdzLTEtMS40LTEuNS0xYy0wLjUsMC40LTAuNCwwLjgtMC44LDEuMiYjMTA7JiM5OyYjOTsmIzk7JiM5OyYjOTtjLTAuMiwwLjItMC40LDAuMi0wLjcsMHMtMC40LTAuNC0wLjMtMC42cy0wLjctMS4xLTEtMS41Yy0wLjQtMC41LTEtMC44LTEuNi0wLjhjLTAuNS0wLjktMS4yLTEuOC0xLjktMi42bDQuMS00LjEmIzEwOyYjOTsmIzk7JiM5OyYjOTsmIzk7QzcxLjYsMjQuOSw3Mi43LDI2LjQsNzMuNiwyOC4xIE02Ni43LDMwLjlsLTAuMiwwLjNjLTAuMSwwLjItMC42LTAuMi0wLjctMC4xczAuNywxLjEtMC4xLDAuOHMtMC4zLTAuMy0wLjMtMC42JiMxMDsmIzk7JiM5OyYjOTsmIzk7JiM5O3MtMC43LTAuNS0wLjMtMC43czAtMC41LDAuNC0wLjZzMC4zLTAuNS0wLjItMC42cy0wLjQsMS4xLTAuNywwLjljLTAuMy0wLjEtMC42LTAuMS0wLjktMC4xbDEuNC0xLjRjMC4yLDAuMSwwLjMsMC4xLDAuNSwwLjEmIzEwOyYjOTsmIzk7JiM5OyYjOTsmIzk7QzY1LjgsMjkuNyw2Ni4zLDMwLjMsNjYuNywzMC45IE02NS4xLDUxLjJjMC42LDAuMSwxLjMsMC4yLDEuOSwwLjRjMC40LDAuMiwwLjcsMC42LDEsMC4xYzAuNi0wLjksMS0xLjksMS4yLTMmIzEwOyYjOTsmIzk7JiM5OyYjOTsmIzk7YzAuMi0xLjUtMC4xLTItMC4zLTJzLTAuNiwwLjQtMSwwLjRjLTAuMiwwLTAuMiwwLjQtMC4yLDAuN3MtMC40LDAuNi0wLjUsMC40cy0wLjMtMC4xLTAuMiwwLjFzLTAuOCwwLjEtMS4yLTAuMSYjMTA7JiM5OyYjOTsmIzk7JiM5OyYjOTtjLTAuNi0wLjMsMC43LTAuMywxLjMtMC44YzAuNS0wLjQsMS0wLjksMS41LTEuNGMwLjMtMC41LDAuMy0xLjEsMC44LTEuNXMxLjMtMC4zLDEuNC0wLjlzMC4yLTAuNSwwLjUtMC40czMuMS0wLjEsMy4xLTEmIzEwOyYjOTsmIzk7JiM5OyYjOTsmIzk7YzAtMC40LTAuNi0wLjktMS4yLTFjLTAuNCwwLTAuNS0wLjgtMC43LTEuMnMtMC40LTAuOC0wLjctMS4ySDc2Yy0wLjIsNS4xLTIuMiwxMC01LjcsMTMuOGwtMC4xLTAuMXYtMC40JiMxMDsmIzk7JiM5OyYjOTsmIzk7JiM5O2MwLjEtMC44LTAuNS0yLjEtMC43LTEuOXMwLDAuMi0wLjYsMS4xYy0wLjIsMC4zLTAuNSwwLjgtMC45LDAuOHMtMC40LTAuMi0xLTAuMWMtMC41LDAuMS0xLjEsMC4xLTEuNiwwJiMxMDsmIzk7JiM5OyYjOTsmIzk7JiM5O2MtMC45LTAuMy0xLjgtMC43LTIuNy0xLjNjMC4xLTAuMSwwLjQsMC4xLDAuNC0wLjJTNjQuNyw1MS4xLDY1LjEsNTEuMiBNODAuOCw2My4zbC00LjEtNC4xYzUuMi01LjUsOC4yLTEyLjcsOC40LTIwLjJIOTEmIzEwOyYjOTsmIzk7JiM5OyYjOTsmIzk7QzkwLjgsNDguMSw4Ny4yLDU2LjcsODAuOCw2My4zIE05MSwzNy4zaC01LjljLTAuMS00LjMtMS4xLTguNS0zLTEyLjRsMC4xLTAuMWMwLjQtMC40LTEuOS0zLjQtMi4zLTMuN3MtMC44LTAuOC0xLjMtMS4zJiMxMDsmIzk7JiM5OyYjOTsmIzk7JiM5O2MtMC44LTAuOC0xLjYtMS43LTIuMi0yLjZsNC4zLTQuM0M4Ny4yLDE5LjUsOTAuOCwyOC4yLDkxLDM3LjMgTTU1LjQsMS43YzkuMSwwLjIsMTcuOCwzLjgsMjQuNCwxMC4xbC00LDQmIzEwOyYjOTsmIzk7JiM5OyYjOTsmIzk7Yy0wLjItMC4xLTAuNC0wLjItMC4zLTAuNGMwLjItMC4zLTAuMy0wLjMtMC40LTEuMWMtMC4yLTAuOC0wLjgtMS41LTEuNS0xLjljLTAuNS0wLjMtMC44LTAuNy0xLjMtMC45cy0xLjUtMC44LTItMC42JiMxMDsmIzk7JiM5OyYjOTsmIzk7JiM5O2MtMC4zLDAuMS0wLjcsMC4yLTEsMC4yYy00LjMtMi4zLTktMy41LTEzLjgtMy42TDU1LjQsMS43eiBNNTUuNCw5LjJjNC4zLDAuMSw4LjQsMS4yLDEyLjMsMy4xYzAuMSwwLjYsMC40LDEuMywwLjgsMS44JiMxMDsmIzk7JiM5OyYjOTsmIzk7JiM5O2MwLjIsMC41LDAuNSwwLjksMC44LDEuNGMwLjMsMC4zLDAuMSwwLjksMC4yLDEuNGMwLDAuMiwwLjIsMC40LDAuMywwLjZjMCwwLjMsMCwwLjUsMCwwLjhjMCwwLjEsMC40LDAuMSwwLjctMC4xJiMxMDsmIzk7JiM5OyYjOTsmIzk7JiM5O3MwLjUtMC42LDAuOS0wLjVzMC45LDAuOSwxLjIsMS40TDcwLjcsMjFjLTAuMi0wLjQtMC40LTAuOS0wLjMtMC45czAuMywwLjEsMC40LDAuMWMwLjQsMC0wLjMtMC4zLTAuMy0wLjQmIzEwOyYjOTsmIzk7JiM5OyYjOTsmIzk7Yy0wLjMtMC4zLTAuMy0wLjctMC43LTFzLTEtMC4xLTEuMi0wLjVjLTAuNC0wLjctMC45LTEuMy0xLjYtMS44Yy0wLjEsMCwwLjgsMS4xLDAuNSwxLjNzLTEuNC0wLjctMS41LTAuNXMxLjIsMC43LDEuNiwxLjEmIzEwOyYjOTsmIzk7JiM5OyYjOTsmIzk7YzAuMiwwLjIsMC42LDAuOCwxLDEuM2MtMy44LTIuOS04LjQtNC41LTEzLjItNC43TDU1LjQsOS4yeiBNNTUuNCwxNi42YzUuMSwwLjIsMTAsMi4yLDEzLjgsNS43bC00LjEsNC4xJiMxMDsmIzk7JiM5OyYjOTsmIzk7JiM5O2MtMi43LTIuNC02LjEtMy44LTkuNy00TDU1LjQsMTYuNnogTTU1LjQsMjQuMWMzLjIsMC4yLDYuMiwxLjQsOC41LDMuNWwtMC4yLDAuMmwtMC4yLTAuMWMtMC41LTAuMi0xLjUsMC44LTEuMywwLjkmIzEwOyYjOTsmIzk7JiM5OyYjOTsmIzk7czAuNi0wLjQsMC44LTAuM2gwLjFsLTEuNywxLjhjLTAuNSwwLjItMSwwLjYtMSwwLjljMCwwLDAsMCwwLDAuMWwtMC42LDAuNmwtMC4zLTAuM2MtMC41LTAuNC0xLTAuNy0xLjYtMC45JiMxMDsmIzk7JiM5OyYjOTsmIzk7JiM5O2MwLjMtMC4yLDAuNC0wLjUsMC41LTAuOWMwLTAuNi0wLjItMC40LTAuNS0wLjFzLTAuNiwwLjQtMC44LDAuN2MtMC41LTAuMi0xLjEtMC4zLTEuNi0wLjN2LTUuOEg1NS40eiBNNTQuNywzMS41JiMxMDsmIzk7JiM5OyYjOTsmIzk7JiM5O2MwLjEsMC4yLDAsMC40LTAuMSwwLjVsMCwwYy0wLjIsMC4yLTAuOC0wLjUtMC45LDAuMWMtMC4yLDAuNiwwLjQsMC4zLDAuNCwwLjRjMC4zLDAuNCwwLjcsMC42LDEuMiwwLjdjMC40LDAsMSwwLDEsMC40JiMxMDsmIzk7JiM5OyYjOTsmIzk7JiM5O2MwLDAuMiwwLjUsMC4yLDAuNiwwLjRjMCwwLjMsMC4zLDAuOCwwLjUsMC43czAuNSwwLjEsMC42LDAuM3MwLDAuMy0wLjEsMC41Yy0wLjMsMC4zLDAuMywwLjIsMC40LDAuOHMtMC41LDAuMi0wLjYsMC42JiMxMDsmIzk7JiM5OyYjOTsmIzk7JiM5O2MtMC4yLDAuMy0wLjQsMC41LTAuNiwwLjhjLTAuMSwwLjEsMC4xLDAuMywwLjIsMC4yczAuMy0wLjQsMC42LTAuNHMwLjYsMS4xLDAuOSwxLjJzMC4yLDAuNSwwLjMsMC42cy0wLjUsMC0wLjQsMC4yJiMxMDsmIzk7JiM5OyYjOTsmIzk7JiM5O3MwLjcsMC4zLDAuNywwLjZjLTAuMSwwLjMtMC4zLDAuNi0wLjcsMC42Yy0wLjMsMC0wLjgtMC43LTAuOC0wLjVzMC4yLDAuOCwwLjUsMC44czEtMC4zLDAuNywwLjFzLTAuMiwxLTAuNCwxcy0wLjMsMC0wLjEsMC4zJiMxMDsmIzk7JiM5OyYjOTsmIzk7JiM5O2MwLjEsMC4zLDAsMC42LTAuMiwwLjljLTAuMiwwLjItMC43LDAtMC43LTAuMXMwLjYtMC4xLDAuNi0wLjRzLTAuMy0wLjQtMC45LTAuMmMtMC4zLDAuMS0wLjQtMC4xLTAuNi0wLjFTNTYsNDMuMiw1Niw0My4zJiMxMDsmIzk7JiM5OyYjOTsmIzk7JiM5O2MwLDAuMSwwLDAuMywwLDAuNWMwLDAuNC0wLjEsMC43LTAuMywxYy0wLjQsMC4xLTAuNywwLjEtMS4xLDAuMWMtMS42LDAtMy4yLTAuNy00LjQtMS43YzAuMi0wLjEsMC41LTAuMiwwLjgtMC4yJiMxMDsmIzk7JiM5OyYjOTsmIzk7JiM5O2MwLjMsMC4xLDAuNC0wLjEsMC42LTAuMnMwLjcsMC4yLDEsMHMxLTEuNSwwLjktMS44czAuNy0wLjgsMC42LTAuOXMtMC4yLDAuMS0wLjIsMHMwLjItMC4xLDAtMC41cy0wLjUtMC4yLTAuNy0wLjImIzEwOyYjOTsmIzk7JiM5OyYjOTsmIzk7Yy0wLjMtMC4yLTAuOC0wLjMtMC45LTAuMnMtMC40LTAuMi0wLjUtMC4xYy0wLjEsMC0wLjMsMC4xLTAuMywwLjNjLTAuMSwwLjIsMC4xLDAuNCwwLjEsMC42Yy0wLjEsMC40LTAuNywwLjctMC43LDEmIzEwOyYjOTsmIzk7JiM5OyYjOTsmIzk7cy0wLjMsMC4xLTAuNCwwLjJzMCwwLjMtMC4yLDAuM3MtMC41LDAuNS0wLjcsMC45Yy0wLjMtMC40LTAuNi0wLjktMC45LTEuM2MwLjItMC4xLDAuNC0wLjIsMC41LTAuMWMwLjMsMC4yLDEuNS0xLjksMS4zLTIuNSYjMTA7JiM5OyYjOTsmIzk7JiM5OyYjOTtzLTAuNS0wLjItMC44LTAuMXMtMC4zLTAuMi0wLjItMC4zczEuNC0wLjEsMC43LTAuNWMtMC4zLTAuMi0xLjEtMC4yLTEtMC41czAuNSwwLDAuNiwwYzAuNSwwLjIsMC44LTAuOCwxLjEtMC44JiMxMDsmIzk7JiM5OyYjOTsmIzk7JiM5O2MwLjUsMCwwLjMtMS0wLjItMC43cy0wLjcsMC4yLTAuOSwwLjVzLTAuNywwLjctMC43LDAuM2MwLTAuMiwxLjEtMC44LDEuMy0xLjFjMC4yLTAuMiwwLjQtMC41LDAuNS0wLjhzMS41LTAuNSwxLjgtMC43JiMxMDsmIzk7JiM5OyYjOTsmIzk7JiM5O2MwLjItMC4yLDAuNC0wLjUsMC40LTAuOHMtMC40LTAuMi0wLjUtMC40czAuNSwwLDAuNS0wLjNzLTAuNSwwLTAuNy0wLjJjMC0wLjEsMC0wLjEsMC4xLTAuMkM1My40LDMxLjYsNTQsMzEuNSw1NC43LDMxLjVoMC4yJiMxMDsmIzk7JiM5OyYjOTsmIzk7JiM5OyBNNTMuOCwxLjd2NS44Yy03LjUsMC4yLTE0LjcsMy4yLTIwLjIsOC40bC00LjEtNC4xQzM2LDUuNSw0NC43LDEuOSw1My44LDEuNyBNMjguMiwxM2w0LjEsNC4xYy01LjIsNS41LTguMiwxMi43LTguNCwyMC4yJiMxMDsmIzk7JiM5OyYjOTsmIzk7JiM5O2gtNS44QzE4LjQsMjguMiwyMiwxOS41LDI4LjIsMTMiIGNsYXNzPSJzdDAiLz4mI3hhOwkJCTwvZz4mI3hhOwkJPC9nPiYjeGE7CTwvZz4mI3hhOzwvZz4mI3hhOzwvc3ZnPg==;" parent="1" vertex="1">
          <mxGeometry x="93.5" y="390" width="71.87" height="60" as="geometry" />
        </mxCell>
        <mxCell id="fakd-Xu31UxTlEahAAD4-26" value="" style="group" parent="1" connectable="0" vertex="1">
          <mxGeometry x="71.38" y="180" width="106.36" height="23.75" as="geometry" />
        </mxCell>
        <mxCell id="fakd-Xu31UxTlEahAAD4-3" value="" style="rounded=0;whiteSpace=wrap;html=1;fillColor=light-dark(#000000,#000000);" parent="fakd-Xu31UxTlEahAAD4-26" vertex="1">
          <mxGeometry width="106.35999999999999" height="23.75" as="geometry" />
        </mxCell>
        <mxCell id="fakd-Xu31UxTlEahAAD4-2" value="" style="shape=image;verticalLabelPosition=bottom;labelBackgroundColor=default;verticalAlign=top;aspect=fixed;imageAspect=0;image=data:image/png,iVBORw0KGgoAAAANSUhEUgAAAJIAAAAZCAYAAADaDHeVAAAABGdBTUEAALGPC/xhBQAAACBjSFJNAAB6JgAAgIQAAPoAAACA6AAAdTAAAOpgAAA6mAAAF3CculE8AAAABmJLR0QAAAAAAAD5Q7t/AAAACXBIWXMAAAsSAAALEgHS3X78AAAFaklEQVRo3u1a0XXbOgy9yOn/0wbVCM4ET5mg7gS1J4gzQZIJnE5gd4K4E9hvAjsTRJ3A2uC+D0IxRFMWqdiJ05N7jo5EEgQBCgQBSiA5JbklOQEAkkOSa6/8THKo5Ym22/KW5BQdILnsovnEBwZ3qI2qxp0pb7VMU57WhchxPg3pb4Z6nLXaxLPe6/Kjdw/RPUeOc7aGRHJAsiCZv7csHxa6PVkjqe/LlrtPN4kcJ8qQPM83S9Aj9zxqkdC3XhhRi8LqxG5slW4Sa6gdfNc6R1kinyLQfsc4LEnOqCHNocG2OpnWWJ7tBLPpuZZa3iYYSB9DIuPir8zIlmRIJEdev2FMv4gX3oZplxFE8n0mOUjgUwTaYw3JYu2P+0XvVqnS3Ad6z727rff7nwITkk8iMj9AM1O5+uA6UF704DMH8CdQ/y+AwuoDoCB5JSJVIt+vAIZwc56r3pc99faxAvBfoP6ryp9reQBgTXLceCeBlZxsoTFSsr9HqjFooZ+10BcRYxV9+9Y6xfSh85i+Xmu2eKZDfOniOYthX/k8me46dK0z+L15ulCaCjtPFEJXWxUz6T2xMc9LejEGyRGAkalKlcV6o01L/ashIpWI3MF5j1rGAZx3SuW1gfNSMHxODhFZqPx2nmYkswtTkR/g0bftGLgxgmcAHutVrKvBBuNjT8mDUKMcarECcIXdSx7yBBmcGsHYVF0zImg+F+hWfIWdc8kBDC8CtFfmuoHbN+vrxmt/K1jBB3DGNADwaGjmHTFUCLfm+adO0ryl/WjQlb3RYoadMUdBDc/22aT0P4L8FYB7U3VdC/ayjxph2+KOmaGpccqsrdC6AZup/TY0fmLMYnnkWp97+uZdOqXGVQEdZx18J3SxXEGXYdo45bljnKPFSIH5e8FFC1GBZtxh0VZ/UgS2hEzvGwDfe7CcGB5zESl1nBJNr3TUWMlgZZ7zDtopgKVeM0Nf9dT91fCzzYsWug3ag9byPQRX4Rdw22uNCsA4MoX28cM8//TarNsenWkMUwK41AX27rCGVNYP+mIu4VZmZdrn2D+zKPGGEJEH7DzG9z4TqZlebqqmugUsdZucGb0z9MisIlCY57KDdg5n3HNTl+NEMVwM/MXV5pEgIqWIjLFznSu4QLfAO0PluhSRVU8W/nZVBK7sAP0x8M08P3XQ/hKRO9Xbbu+jlLjmyBia501s+l+3D7C/5XX1Own6unSN/waJ3TL1YkdBQIZFgt5zNI3pNiXIP5L8GZre8PdFQv9a2B8Jfc4R1ruM5QDQPOI4yjbScmxRpvBQY3owVbM3juOmaAb8DymGtND78EyDz04EDiAXh+h161xpMX+tV9L+S+y2zRLN5CEF92geCp48XtKjkSWamftYRKovCXzusftYOAFwd2rBT4DQAWQXfmHnja/RDHh9DLj/j18B4B+4uctNfQWXLMTIsAcRqUiO4QwTcB+2f78ibgSAr4FtMtfrG/ZDgrFm0i9f/yu9MpKFJ0xmaDbKrDID1n3PGoHT4HlMPxGZk7yFxoiB+bHo/N1FscIrjMjItiI5x85DzEhevoLvCHHnhCWAm9qIgF3W9gRnJCXc5webCl+r4nVKvIKzzkel36A76zgHTBA4gIyEPVfqu4VUcMZ7JSKxv4/E4AbNLS76R8Ae2MAF+pfWiABAgJcswn6+uAfwEFJWV/YEzQm9inGpJJci0vmNTmOZvBY+ZdI1mM38vl59mRrgWpdvdfX4tqHPeEE9IubrkHx7fPy+beh6v2IYLrF/RrSCs/Y/cD835QGahYhEHdPHGtInPjD0I9wj0/CYksHxjH/+/8SRoV+YZ9z/E+7la7O2Fz14fxrSX4r/AQmxMdJgQpeVAAAAAElFTkSuQmCC;fillColor=light-dark(#000000,#000000);" parent="fakd-Xu31UxTlEahAAD4-26" vertex="1">
          <mxGeometry x="7.41" y="4.04" width="91.54" height="15.67" as="geometry" />
        </mxCell>
        <mxCell id="ShxSNI-J_DJoyCShoE9Y-6" style="edgeStyle=orthogonalEdgeStyle;rounded=0;orthogonalLoop=1;jettySize=auto;html=1;exitX=0.1;exitY=0.5;exitDx=0;exitDy=0;exitPerimeter=0;" parent="1" source="fakd-Xu31UxTlEahAAD4-30" target="ShxSNI-J_DJoyCShoE9Y-4" edge="1">
          <mxGeometry relative="1" as="geometry">
            <mxPoint x="299.3800000000001" y="266.46000000000004" as="sourcePoint" />
          </mxGeometry>
        </mxCell>
        <mxCell id="fakd-Xu31UxTlEahAAD4-30" value="" style="shape=curlyBracket;whiteSpace=wrap;html=1;rounded=1;flipH=1;labelPosition=right;verticalLabelPosition=middle;align=left;verticalAlign=middle;size=0.26766595289078926;" parent="1" vertex="1">
          <mxGeometry x="204.02" y="80" width="37.36" height="370" as="geometry" />
        </mxCell>
        <mxCell id="ShxSNI-J_DJoyCShoE9Y-7" style="edgeStyle=orthogonalEdgeStyle;rounded=0;orthogonalLoop=1;jettySize=auto;html=1;entryX=0;entryY=0.5;entryDx=0;entryDy=0;exitX=0.1;exitY=0.5;exitDx=0;exitDy=0;exitPerimeter=0;" parent="1" source="fakd-Xu31UxTlEahAAD4-45" target="fakd-Xu31UxTlEahAAD4-40" edge="1">
          <mxGeometry relative="1" as="geometry" />
        </mxCell>
        <mxCell id="fakd-Xu31UxTlEahAAD4-45" value="" style="shape=curlyBracket;whiteSpace=wrap;html=1;rounded=1;flipH=1;labelPosition=right;verticalLabelPosition=middle;align=left;verticalAlign=middle;size=0.5;" parent="1" vertex="1">
          <mxGeometry x="201.02" y="400" width="37.36" height="120" as="geometry" />
        </mxCell>
        <mxCell id="fakd-Xu31UxTlEahAAD4-48" value="" style="endArrow=classic;html=1;rounded=0;entryX=0;entryY=0.5;entryDx=0;entryDy=0;exitX=0.5;exitY=0;exitDx=0;exitDy=0;" parent="1" source="fakd-Xu31UxTlEahAAD4-42" target="fakd-Xu31UxTlEahAAD4-51" edge="1">
          <mxGeometry width="50" height="50" relative="1" as="geometry">
            <mxPoint x="370" y="399.87" as="sourcePoint" />
            <mxPoint x="388.48" y="393.335" as="targetPoint" />
          </mxGeometry>
        </mxCell>
        <mxCell id="fakd-Xu31UxTlEahAAD4-52" value="" style="endArrow=classic;html=1;rounded=0;entryX=0.5;entryY=0;entryDx=0;entryDy=0;" parent="1" source="ShxSNI-J_DJoyCShoE9Y-4" target="fakd-Xu31UxTlEahAAD4-51" edge="1">
          <mxGeometry width="50" height="50" relative="1" as="geometry">
            <mxPoint x="398.48" y="315.20000000000005" as="sourcePoint" />
            <mxPoint x="362.48000000000025" y="297.4699999999999" as="targetPoint" />
          </mxGeometry>
        </mxCell>
        <mxCell id="fakd-Xu31UxTlEahAAD4-53" value="API" style="rounded=0;whiteSpace=wrap;html=1;strokeColor=none;fillColor=light-dark(#B3B3B3,var(--ge-dark-color, #121212));" parent="1" vertex="1">
          <mxGeometry x="350" y="571.0000000000001" width="70" height="37.73" as="geometry" />
        </mxCell>
        <mxCell id="fakd-Xu31UxTlEahAAD4-54" value="" style="endArrow=classic;html=1;rounded=0;entryX=0;entryY=0.5;entryDx=0;entryDy=0;exitX=0.1;exitY=0.5;exitDx=0;exitDy=0;exitPerimeter=0;" parent="1" source="ShxSNI-J_DJoyCShoE9Y-2" target="fakd-Xu31UxTlEahAAD4-53" edge="1">
          <mxGeometry width="50" height="50" relative="1" as="geometry">
            <mxPoint x="340.22" y="341" as="sourcePoint" />
            <mxPoint x="358.22" y="307" as="targetPoint" />
          </mxGeometry>
        </mxCell>
        <mxCell id="fakd-Xu31UxTlEahAAD4-55" value="" style="endArrow=classic;html=1;rounded=0;exitX=0.5;exitY=0;exitDx=0;exitDy=0;entryX=0.5;entryY=1;entryDx=0;entryDy=0;" parent="1" source="fakd-Xu31UxTlEahAAD4-53" target="fakd-Xu31UxTlEahAAD4-51" edge="1">
          <mxGeometry width="50" height="50" relative="1" as="geometry">
            <mxPoint x="213.48" y="533.1999999999999" as="sourcePoint" />
            <mxPoint x="368.48" y="365.20000000000005" as="targetPoint" />
          </mxGeometry>
        </mxCell>
        <mxCell id="fakd-Xu31UxTlEahAAD4-57" value="" style="shape=image;verticalLabelPosition=bottom;labelBackgroundColor=default;verticalAlign=top;aspect=fixed;imageAspect=0;image=data:image/webp,UklGRiAfAABXRUJQVlA4WAoAAAAIAAAA4wIA4wIAVlA4IEAeAADw6QCdASrkAuQCPnU6mUokoyIhoPBIaJAOiWlu/Fd53kjW+qaCc6q1Aaz6/+UnN48P9/PW75Txv/XT5e/jf3TqIfmb/ge4B/AP5b/xv7R1nfMB+x/7Te9v6Mv9H6hf9V/6vWV+hz5cvs8/uL+6vtbap38+/rX+H/HL3XeCf53+9dUV6g9v/3L+ve/naV/MPvT+x/wX1b/gf+R74flfqI/k382/zn5i8DwAD81/qH/M/Nb4M/rf9t6C/y3+a9gD9af9fxqf3n/dewF/Jv7P/2P8p7xP93/9f9d6M/p3/3/6H4GP51/cv+5/hu2x6QgPLWDNKMgx5l4vZBs8vF7INnl4vZBs8vF7INnl4vZBs8vF7INnl4vZBs8vF7INnl4vZBs8vF7INnl4vZBs8vF7INnl4vZBs8vF7INnl4vZBs8vF7INnl4vZBs8vF7INnl4vZBs8vF7INnl4vZBs8vF7INnl4vZBs8vF7INnl4vZBs8vF7INnl4vZBs8vF7INnl4vZBs8vF7INnl4vZBs8vF7INnl4vZBs8vF7INnl4vZBs8vF7INnl4vZBs8vF7INnl4vZBs8vF7INnl4vZBs8vF7INnl4vZBs8vF7INnl4vZBs8vF7INnl4vZBs8vF7INnl4vZBs8vF7INnl4vZBs8vF7INnl4vZBs8vF7INnl4vZBs8vF7INnl4vZBs8vF7INnl4vZBs8vF7INnl1cO/32Lr1p3ZZ3D16vExHkceJvo8y8Xsg2eXi9kGzy8Xsg2eXhzgQ/m3kwSk8XikMQG4D1B8sPphEFrxeyDZ5eL2QbPLxeyDZ5eLclH+si9zgarHHGmryuvJAYy1oyDHmXi9kGzy8Xsg2eXh5vV7QtbArXx33wFyuxC3fJ+BTewUCOzxAoMgx5l4vZBs8vF7IK6d77hK/nz1QQnSee68/zszOsmIS9SE+4S9ZeoZvxZ5eL2QbPLxeyDZ3tAdfIDxbux5eLcPf+ZVhx1INnl4vZBs8vF7INnl1h1kXSepHDy8Xsnw0BpgUWGIFBkGPMvF7INnl4vYT3+b0GaUZBjwrOvbeR0QKDIMeZeL2QbPLxehWVsXLNaMgx5lSLDqm3EYMV7H4s8vF7INnl4vZBs9ACfyvltGF2iBQXCEl//50DApTCzgGCJ1eDazqyi8y8Xsg2eXi9kGzy8XoOrKufECFVFrvu6BPwmWJK6zuhPKnZ3PNGblFYogYrUndwrDmy7qRcouauYDIqn/kUG/UqawZpRkGPMvF7INnl4vZHqguRCjK/KzRmDNKMgx5l4vZBs8qo9L451HyoGC/FS8HbN9LqxprN6XZdg7Qu4MeZeL2QbPLq3+RZ/7EPve4KE451rHIB8vQ/TwQeUjtv8iz/2HmmRcEcsFzyBMRvSPagjo/5UiSD21pwpCsJMoxPV4NjQio4cLYlt9T7QAB0w9YLGigTJsrH9ZAdPavUkVi+2D5PTxfjQnKP9L/5oiok3QjlWi5F028mZMRqXmyMd+XQ4aQFX+fPaTANZeyDZ5eL2QayfdP5lKHGcDKrCCNtoNc+4LSIYlz8I/On90fN/Hf3T3s02aMh0AuvgdIpoxIPFCxJaTpwivbCEg/ZnGkP87n1+f5D8Fd4xBe2ruXNIVtRGQ1o0vZBs8vF7IK9fxmQomdji63Zfp4N1laeQqW8W/NGUqZd+uF20A7G3+zJvc7isGHfZillfCPEVjCU40FqWArlypiXykRlWv3s3RdqJJ4Z+/4UyHAlp2DdJzotGjhc8Qi8pEah8eM+WT1/pTc3nE0dpxy4PEwFTSS58fYWZi4iuzETN5YECZ6ZaEapNDP+W/5jOqRA1imuXtTWDNKMgT91Ir29o1ZKPHewdzk3m17BvaUdj//5GeXi9kGzy8Xsg2d9hOWWXGKH0t47wG04IqreSuvBISiF3yHXbIuYy8kQFzFwy6PiJEY1uIFJF8p6aXXmk9RlJmGpbhn586aQ3VLV0o9crRjuz/wG0ntTWDNKMgx5l4vZBs8vGwYPvIsrZEGovZBs8vF7INnl4vZBs8vF7INnl4vZBs8vF7INnl4vZBs8vF7INnl4vZBs8vF7INnl4vZBs8vF7INnl4vZBs8vF7INnl4vZBs8vF7INnl4vZBs8vF7INnl4vZBt3I6tl+2DzCpXOGiXftg8wqVzhol37YPMKlag0S79sHmFSucNEu/bB5hUrnDRLv2weYVK5wX15hUrnDRLv2weYVK5w0S79sHmFSucNEu/bHyI0S79sHmFSucNEu/bB5hUrnDRLv2weYVK0nlsv2weYVK5w0S79sHmFSucNEu/bB5hUrnCiXftg8wqVzhol37YPMKlc4aJd+2DzCpXOGhxw7A2JyjL0QtFdv+Ocmy9ELRXb/jnJsvRC0V2/45ybL0QtFcBI9ovMKlc4aJd+2DzCpXOGiXftg8wqVzholgGweYVK5w0S79sHmFSucNEu/bB5hUrnDRLtkSMzpWjm1UNnkG2uAF5tVDZ5BtrgBebVQ2ePMAD+/9eIAAAAAAAAAAAAAAAAAAAAAAAAAAAAAAAAAAGQZa93XTROmb6q/S0Y1Py524zFcXhs60tWz9HtaUviJFi2i0FHUfH/PPXALzTimeXLsVzmNsMna7qtJ/vNIg0tiShRemACqyEuOncPHlvsegOSLl9Z+FDdt53lQf76ebybB5cSPU4+++TBn6I7yWTkvv1AsUkHMmw2u9aDcZLkdK/yhGwG6iqZX+wMmF6XuJAcx4apzcGAxQ1gLEc8n4AsTG6iZm35g753m/D4LeiVBWhM6AKszmtporlBjeft48PsY7zzdOgAklnQDf0I+gc45A9v0iMpXw4ZhrDHduK8s7LJZ35zvxyU3kxEOJCF8eQsk/rQDOcQ818IzFvIi2Kl1E5BvLE+LXIsjWXEDKhZBPejgMyHmO6fWN4gUQtaCbM04+Or10o9wGm1nbc+JibDgrQJ7+t5B2M+Xr22TzJKh8ENCIaw1ezTZJKgR93S5W8oVFANST9XFoDOxUoBSuVVpXLkAlRe/mqnk70U/iqAPUhTGthaQ6AQ5skPBzFuJrWmfxnUYqU+gE93WMuD0L9dTEl9IPqSIznXZVc774oGyfLgtfgjHyWP4g7UhwEZNHqqrKZ3hjY1Nk0IFOO/XShBewA1kae09+9/2vbnR2e0OrECaTGQDgFjxsaQxj49Zef1Eh3LK1fUgs2hmKCSjPtsX/HPgs5vBcSjcgpvGmEyl4GBgdWLDhZMUxE7B9jcnj7Edqyq0AMzOQ/QAZkBlDRz4M6SZLsuHVZ2QRAZF+j2xAmX9w2L9wd9khxzrY9pkgGK8FKow3ZiLGJ8rqqQ2o3EB/PAprXWdMejDhl52IHsvM14e2d52+xtmvoRRPLV/8XdEb/gricOCYI578EYAf+PhhqmekEUr7UnJBvP+9czSm2yjpAWVfORxjL6yf1CtOBsplG3f2AruMDi/ydOkizGqc88SKWqe3abz6NiR/iMLHjgvTCAddLn/ioZUloQMtuOGR01YWxAGL/Ha3Sog2/VPEpV6cmNiRofjzuAdpPktT+0+6ysaSS+6u1MwAYibHHZwty+DytK42xp7qO7/0eBrbzwQjRP99ipJIsfKA1Z/AT6N0Us5apegwI2pDPNB/DlAGetrx8xEwq1AE74uVQD1mt1Pxn/RxHv8FYM4BuutXevRr4qmpbUVQTL4Ydl1q0JJMqrUWGMLkKHeHDvxa5LlmK/tk7W0ZwwzxmelIohIKPAvD/FIxC4M3LHOgrxX74oIN74++FbN5JQSYVQ8+KoIuPnwm7N+1B6n32EirwXjN4d8G/xMWGm1zXkLJNK0DbQY3Rg5HOodEV2S/ZRiYFaYEAvSqkvP0LeMED1LaEa1pRCL9SyXz1C25wJV1MhFhpPaGyihwFvCIwxL1/Pu92wkWFPKu25IwevTWaLPS4AZHoaMviQxcCnrTyeC//Ste7aXW+gjuMAq0SGcn+e+9WLAYti7/9bO1Ugie2+UhaMAitpWVhNm0jDlXlpQHdKzRZEiXMgdz4VO0D/F87pn+P+cKCDr9ASSl6QtVlU1b+/jVRuY4YDCEoVXb5MT6yGL6m7XmihfSrDnVmw70A+lT3yva9XxyyT8+AUj6n+FPLtlHYsrCf0wG+Mf95s4C3Gpmk367Of9cDt8fzhduuZwAqlvOZqhELtQCzBypmNrhk67L6rWpuNma7SEXWOKR6s6XZi7/Hb5AdSSc1+5DuTmmkLugNy6EEUy9kiIvomrMYevl9l6Lc407YidM1Stf8td5rqsn5mRX+btuftKPRtuO6iJD8SYasFU+U3vFIOeDLfNcAOLoaaOCBFMs1LyWwacyouNDMiXsNdA274Uv9UEzsjm+tQYvnI0S5PvjWDzbH81DoBv4xJbkgxU6V3A7QoFnF2rQ6Tn36VotrxRC2Xdv87pxkVXMr5o3nxT5iKRLAXORRJePF5M9vFHMuy3QTdKkbVQUK8+HLWAvS+WK85xEaeLC0rwtvCp1uyfemVIBMR1NTRZgEVe6CPNbI3H+sfpW3RYB6RcMYcgf+5UjFSSHDCqaX/Ozthg4uPqTC4xsP7YQ7+kRezn/eEku8QGAtTNllBP0uz/EDxj/Yvk1ue6cHoyamfOYff+poFV9epXZyXuAF0rXEnC4+2c3n28ljPpVChpd+6wcIdfIS1dl81XMjfEbn78RiEBJc99Bqn4y2uQTOOz45xI7BwNJHcqS43BNApGeBSwvCVTNXwD6/2R2114h7nf/o9+SLkCh2avcubqoJWHjZSILOY6eTaYliJuPsm/OYO5y5pOouquOJgkyb6upkSnA9CS9BOXrU/IBPFQaPvPwi+7jOVDi7Ji3tyNmYPa1c8a79TQViTwOMpLdxC22XwrlnW6LtRKthW9vFnSX2cZ+IicI7hKgQcO4+K983AVh2uM5MUToLbChMQEvYLht3pEVnQVzshH6rrc6Hzm6CNRQTbeyGTFu0LOJc/iUytZ9k1ZjIMEpCzUY83epHYP4ryhEtcAzg0+h37MbTyy8L5fEs0nAmSxXhmdAFAA3IeX3oCv7NRXTSivc3EzLJ9sJR77MK9faF3zIiThHgA/Wf8GdZ4pjPbplkm10+uqFNxxG4/wd6CTfUkA9Xpfz/Lqg8IPFbJ/yjPxQn3EhnUvegv4/0rE2RovfsQdTXmLqN1OChY6g5Hb+GWyPADNFwYEZAfP5VW9hBCCzAkD74EZMckAHvQ8yiqTk0u2yQOMvXt5lwiErmnRLlmJ43FW4JjEZKfU5d8YVYAZYGhAAAAAAAA7rbQrJUvsg8R5rqH+ALKoZNt3js119uEZzfZ+Kw7BfvgGoUzmcmdL/sBatPEZ0N9/LSSZnsnTHzn6Ed+BeFC6xaS5MXWA2+05xg06FxITzxDob7+XA2FMcYXrIDsDLvCswjW6pveY6Kys/uh4NV3hKhBqw38EdNhSSz+mlcIAR6kgBSuv2oXImFolr8zDmuZcz/aY8+i2GrvaONXXISxeKn8byAzWOpy8JbKq62QKUt0IUIuYIe06Xy4cFgnjKwZuoHXRWf0HkMB4eLCvNbUThyVVQnfiYwxZFrhLkSKMw/PsR+Oi2C367EoFD3/8CCE935KuqXhUhC67xlK0shKQVhUROOQeA7Y8TEik+f6WHJxhaF3/4VvvfJHyU+mBIbNx/eDFXj5/asciZ48WZj8TwS7rWqHLC0AqkEG2PV/12SymPvMgOv6RcjbfQG51E9MFCEU8/c7V9qngYD+yZH6h+sYTPXhDqLBBXxKemICEW4UUKCnqEgeHz/zmlDxtxgUldkOt7Nn/QTmYwp0/d8OhcXt2NJ91w4ONlcCDshUFodi7w1pHLfBaV1QWMIYIFKspnaDjrFQLPBIOkqE6tzfOgY//whjED+8v95O/uY69sMdgwvNub1P7zPyvk/gWQwRJ3dQ11pg5KnAbUIae//gF+N08lYSiU+baFmN7T7fWfQ9bHARLNhG9GXvIRZcT6UB5edJU28R0Gc/H+BnSCgfFF9NbF3Qckk9R326roQuKOrcsRYpnTrpk+YB/yZZAWJUjA+8oh0WICXUTrB8mc+pPi684/WBeVi1frxfQd8A2BM70xC7IIDK7Dta5xcV5mugMD2QEpOOMKPuH5fp1vHi3xkvFGQlyv7fYB4TaAddu/Pb3r/4M3K8Lb3ibOhi//UwyF7cWLUyr9HY9tujbaEs5LgCX7kQJq2zY6dDcr7FZBqjXorIUYTKX6Kchh0NHdueRmB3I+PqDmFuZ9ApHZXV7jOuXoX/CseDPoGibtKZCawMIMSF/zZKjeqb22kkJ8K4f47OEkg+IGMiAWmqoWCrLmIVKB9PAYcspcsZBgcMTiC9WcqmBkLCjweMHsf4c50Els3QWWV4rdCRBQPQWBppcbIHMAsV0txGoXXTo39NN3iZNKp5NBjEy7N6IGvYvzvcZz7UqdB42V+JubJt56o1IRU0vCg5qRj1zG26PNxMsI3QRp1fcBa+gZ5rLUBOMn2Le/eGIfav6F90CSWJxVq2oUfflAEcgroa7WCgaxh2nvp4iw4oOnFMAEJxP5jDJyuvoyt5J67j+G7PfcoGQLXGGgGtDNXNcGiG/5lRXzGS63/i2RGXtzwYOQ4C9lfuZ8pXw4W9JLcO7iNhtiUugv1gRAtjX8Exb3F3/tzgg1qno/N3dgaSQJXvdP+lIhYylUwTFvsxgca+QMovjUBMebS0dLqzrpxl84vEH7pNI/Vv2gXwKmS3vQBEdWyOn8a1U8dCLMRYcT8wiXcEV/xOaBfG+Srwy1NyEQFYowpUBr85p9oVN9E+q2xPWLgV4eu3RjhaYuhH1XEmu4wcPzHDCAoxqqQ/thB927qvDgZUpW51s1ow4u+FKeexZQnjEiaVDKS0j9ifDSpnEqjA3VjkZ4NC6snd1F8Wml9rKpncKykTnoNIb5m7YuDoTIhPJas1hVnQPMabJdPyayAgW5ZlbljM6YHghqQqNzpNg9rYUcoIxNaCOdPCNM1T+IzOExHC1bInw135TOo9WYT5Pb/r4kixpyfazMCctycbNCb8X8cr/5iR8FflKWAKSBe+hUeg/hdSmD8WcsMw/XSvn/3Vr+kU9MByEHhXuyo2E/ccP0RBWDuxV4gqMI0sS3YiHYX3wtxP5B+LyR8aPGbCJtAspcT2F52MbphcQk5lqdnOjU0z7UHC5tMgZkmv8O7A058YCjl9aRMhte/eVb07S16GOnmw1zlXSkPVnjbHeoF3Zf6OZ6aIyqVTsAId47DGMMXNv+RIXxlDnsc/BZiQAKwVBlcYnunW7cF3zspSPL4PBu+m1TBt3nbGWFoV0EjdTmDG9+tQD9/B+U7LeLiKAJ+rBCMUCDyK8Gzdr0C0lm5PCAobrhcoaDSmfdkKSw9pzotZe/ONKHoMkM5gCJ03A/N04i3FIRilS/rvmQlF3oDFn45ntlZmBnx3fIvekbP/9/Bj/KXmQZpde7zGoN87Yc9wlG0j/69x4jZzPcGIZVdu1+qm7bGTqtdiXFCoORkUSZLAwbnt15UguIbQOiS3aNmu/paT2ZjO4MzDO3A7ZcX3jEjSvWuPFhUjNdQVQTJgsTtgX1kFSfmArfanxz/vJZz7xjS3iaf6wkOVQnnazSAevk2a0hLGaJ0jmTCpfxQgqCChF+whk7QdxwI/QTHEUOaAj0hliO+six/ZDMDHtQmmDH4wnZ4iB4h8Lnjr+0vfJy1cYCMWI4/UiZrE/viqA8AjZzZWEX00KXrdHOcDc38OTY5xMQ0PvNhgY4Qzih1PJtWTMgo5mJJbSCmctHKC+DywShC31zgWezg2NCT3tVCQraWlT/+RfX/f6PZfzjeLsoNYLDTa5/3Dlq5jw1TekJBeTJNC08swRWo5UteQ5FA3LLr2b4xeJAvz9BnX6ZMhr6p/SRbT4BmmlSH/B7fvuV6rcO2I7GmIXQuIQzqE5KWhnAEiw6dBG29yU1EQAzNbsPRyP9e9wqVa5jBg97pkwdSkjbEO6/Ch+h7PDbbjE970Rx4hknaP1XywDMTDZdlicnUqhcCm4F4A1q+43zxivkRtOP9VVpIgwz7LCJqWEsKfJLwF6QaocFDdsvHooLSBsbadm6UHmV9hiCdHeXZDAPorQfrn/urc7Old8CTXs7YPFBSiKxFuBAjsEURiLne5it2RK3L7REKB0/yYSorZ2qglJD+IHXeeM2UepgYFxv9lZ6lcADQtzSeVBmzHxx+KhjYDUVv8oT/QX6CnrZOLh2ecymSRbpMMQ2XAHmKH0WOAQCkrt8XABRbeyumZMwc/E1uRxztaiITv8e79ZAXkuMpmT6GVqBrQQlIKJlE1+O2matr49N793g6lrASZ2hzBVYSWrf5nSL75eoIfuhEZ12EYDpq2Gb3pn/S2nCtkX3ecjKlwAiBULWlElHQRFpiuJEz6SLgN+QeXJS6f9QfgF5w5h5Hyf0yAnltkkMkoW2wW4g3w0e+ISsyn2UZZMx8lqr4eLPe69aMP0/LxVLjshZYq13gMnHQ6EkUDsg7pf5gZ14YEG5svEab+36i9IO2l2u0WwW/YOkZCzBOJotUnuHx+Rb2ANVk2io9s4Dd7yyYuw/e/gBzTfBlXtK1jsGPMravfZ0bGZw+fasMpA2Q14/PeECaOsVcOkc2uLZjJY63QxfHlEEQTOpfih0UYfSJouBV+p2/DzmdTCMvUXItHuVKsGaAQS+jzEx1WyODSPwfXaivxgBpgVTa/AebVI8/L8KxVaIIBpmWmN8MIgfp2eTuHCLQNHd6OYhCgsQNh9sifOqIOPe4+x/GDO+zikBLXxyjSx56FuotFA3K+gqr1AgFa9+vQ1PzsbsanoJWGnpVACakAkBXfoDaOWOkFUYxJ6aRryb/G8zfziGj8TblzX51Y0hcZDRh0QkodjEx5EtlOMEDQ0dWP8D3Ji7hjY7+vESsdRGGJRdF5SFW3380VGc1+NB7be3sTSsPGOo5aH8sgH9JBcoGSndt/pWFxu2/KA13oJiaFcjvnvnKs+zhAad8a3Ol/WZVLozUi13azM9whPNUnBW1aLgAAAALttAsW1PXY0IR2RkzQuhYu1viAHDe/93vBUmbG82W5bkuiz/ZT/T9NGGXjWvtB+4jJkN6iQ04RlZ2ZjfL6rgWQ79gg3ozFT/V/+3B++bLhJPTHFAO5u6OgflwO0CADi//B0nyqeGlossl8nbN0dQnaP3bQMrZtc6EJeRv0g8nSfb6zCkSYPproTxWeTGCV7+LIJT/DKVg8Y/GvzWl6i4sDeZ+VsOZpFf/iP17njXi9MHXO8xyU5vtmVmh6kMiu2O1JNnPIO18KPGUlGGY64rOyxTDrVdW8c/2vsj+NdNDV091lpgSnEL9ANGYVCeFqCKJBYhfUKXmH5XSfkm6i4DP4fn+TeEIpmE49rFBZt3JdXT0fsDow2DLIfj7jA2kcZYvCgr4vYTtJRYcuEZUGBb5z85PW2Si6O1TfoM1XcgFv4q3lgGCQUXnLTB+K9pCN5T13GI9ArO9k+zJsmQXjgA3WV/X3NTcR2jnzr22ZSXIBeDf+dV6GmPsCfNbrccR+F1Bh48DcM2T1Ocoln8P7L52Irpa6WWmOBREHftCxGOYkxgXCdbwi9bmr01jnUxrA5P4OFpHkKgPF0ULfxTPfrbiRWZj3TS+kc4Dq12FXiJEpxF3G76IMAgb3OydEu5fUjRCquU/FsBeIAb1ouATjIlj85YExItobBxeZH5triDwgAITSyPtp1jSew351Oehr7QobCdThZMrpNVmUjsNl9+sy4htn/Eu9f5tBvJLQR/iYUl8Ps+2WM+coln8P7LyTIasP0IPXjaXtmNUmyqHFVxLHhWKnCPNe6y0q4AoU+fBNW4PoWbbvhS6JgOVYtDTuFjNlATfKofl4znHzMEyvcwujAI1ldulRWNTkNnBH6sIVQn1MP6drXmv3m0wTimyA0b+OurOxsrdNljccS8mgZFGsUd3zm25624jTsS6CFirEfOFifTEQmqqfCGY78BRjpoCUWMOOLv+Fwd58gN5pNCHVmkNNQljvKHJjkzTJiBmf5xRRZYAbawNd/3KWJcg/PPfjhB89HZNZON2MHI8B9ORfpN/jnLOm7Wb5vQ06GnCK9ECSW1HgmyDQx5tc4cgoAAAAAAAAAAAABa/AZnAAjQJdVBeVEcqI5URyojlRHKiOVEcqI5URyojlRHKiOVEcqI5URyojlRHKiOVEcqI5URyojgXTG4iAAAAAAxhQAWlmvW00Nx+2cAIJllsADWhxssCJ8ZcANCSATJBn3fY4AEQm9Tz9EYzQOb5+C28pGM0Dm+fgqvgfEcAAAAAAAAAAAAAARVhJRroAAABFeGlmAABJSSoACAAAAAYAEgEDAAEAAAABAAAAGgEFAAEAAABWAAAAGwEFAAEAAABeAAAAKAEDAAEAAAACAAAAEwIDAAEAAAABAAAAaYcEAAEAAABmAAAAAAAAAEgAAAABAAAASAAAAAEAAAAGAACQBwAEAAAAMDIxMAGRBwAEAAAAAQIDAACgBwAEAAAAMDEwMAGgAwABAAAA//8AAAKgBAABAAAA5AIAAAOgBAABAAAA5AIAAAAAAAA=;clipPath=inset(28% 32.67% 44% 32.33%);" parent="1" vertex="1">
          <mxGeometry x="556.29" y="362.36" width="77.43" height="61.94" as="geometry" />
        </mxCell>
        <mxCell id="fakd-Xu31UxTlEahAAD4-58" value="" style="endArrow=classic;html=1;rounded=0;entryX=0;entryY=0.5;entryDx=0;entryDy=0;exitX=1;exitY=0.5;exitDx=0;exitDy=0;" parent="1" source="fakd-Xu31UxTlEahAAD4-51" target="fakd-Xu31UxTlEahAAD4-57" edge="1">
          <mxGeometry width="50" height="50" relative="1" as="geometry">
            <mxPoint x="380.48" y="403.33" as="sourcePoint" />
            <mxPoint x="418.48" y="403.33" as="targetPoint" />
          </mxGeometry>
        </mxCell>
        <mxCell id="ShxSNI-J_DJoyCShoE9Y-2" value="" style="shape=curlyBracket;whiteSpace=wrap;html=1;rounded=1;flipH=1;labelPosition=right;verticalLabelPosition=middle;align=left;verticalAlign=middle;size=0.5;" parent="1" vertex="1">
          <mxGeometry x="211.12" y="540" width="37.36" height="100" as="geometry" />
        </mxCell>
        <mxCell id="ShxSNI-J_DJoyCShoE9Y-3" value="" style="shape=image;verticalLabelPosition=bottom;labelBackgroundColor=default;verticalAlign=top;aspect=fixed;imageAspect=0;editableCssRules=.*;image=data:image/svg+xml,PHN2ZyB4bWxucz0iaHR0cDovL3d3dy53My5vcmcvMjAwMC9zdmciIGZpbGw9Im5vbmUiIHZpZXdCb3g9IjAgMCAxODUuNTI5OTk4Nzc5Mjk2ODggNTguMTE5MTAyNDc4MDI3MzQ0IiBoZWlnaHQ9IjU4LjExOTEwMjQ3ODAyNzM0NCIgd2lkdGg9IjE4NS41Mjk5OTg3NzkyOTY4OCI+PHBhdGggZmlsbD0iIzM1NThBMiIgZD0iTTE0My40NjkgMjkuNTA4NkgxNDUuODZMMTUyLjcyOCA0Ni40Njk5TDE1OS41NTggMjkuNTA4NkgxNjEuOTg2TDE1NC4yMDggNDguNjMyOEgxNTEuMjQ4TDE0My40NjkgMjkuNTA4NloiLz48cGF0aCBmaWxsPSIjMzU1OEEyIiBkPSJNMTM4LjIxOCA0MC41MTI2VjI5LjUwODZIMTQwLjQxOVY0MC40NzQ2QzE0MC40MTkgNDYuMTY2NCAxMzcuMTU1IDQ5LjM5MTcgMTMyLjI2IDQ5LjM5MTdDMTI3LjMyOCA0OS4zOTE3IDEyNC4wMjYgNDYuMTY2NCAxMjQuMDI2IDQwLjQ3NDZWMjkuNTA4NkgxMjYuMjY1VjQwLjUxMjZDMTI2LjI2NSA0NC44MzgzIDEyOC42NTYgNDcuMjY2OCAxMzIuMjYgNDcuMjY2OEMxMzUuNzg5IDQ3LjI2NjggMTM4LjIxOCA0NC44MzgzIDEzOC4yMTggNDAuNTEyNloiLz48cGF0aCBmaWxsPSIjMzU1OEEyIiBkPSJNMTA5LjY2MiAyOC43NDk4QzExNS44MDkgMjguNzQ5OCAxMTkuOTQ1IDMzLjYwNjcgMTE5Ljk0NSAzOS4wNzA4QzExOS45NDUgNDQuNTM0OCAxMTUuODA5IDQ5LjM5MTggMTA5LjY2MiA0OS4zOTE4QzEwMy41NTMgNDkuMzkxOCA5OS40MTY3IDQ0LjUzNDggOTkuNDE2NyAzOS4wNzA4Qzk5LjQxNjcgMzMuNjA2NyAxMDMuNTUzIDI4Ljc0OTggMTA5LjY2MiAyOC43NDk4Wk0xMDkuNyA0Ny4yNjY5QzExNC4yMTUgNDcuMjY2OSAxMTcuNTU0IDQzLjM5NjUgMTE3LjU1NCAzOS4wNzA4QzExNy41NTQgMzQuNjY5MiAxMTQuMjE1IDMwLjg3NDcgMTA5LjcgMzAuODc0N0MxMDUuMDMzIDMwLjg3NDcgMTAxLjczMSAzNC43MDcxIDEwMS43MzEgMzkuMDcwOEMxMDEuNzMxIDQzLjQzNDQgMTA1LjAzMyA0Ny4yNjY5IDEwOS43IDQ3LjI2NjlaIi8+PHBhdGggZmlsbD0iIzM1NThBMiIgZD0iTTc5LjcxNTggNTIuMTYxN0M3OS43MTU4IDUwLjE4ODYgODAuNzAyNCA0OC42MzI4IDgyLjY3NTUgNDcuMTkwOUM4MS43MjY5IDQ2LjU0NTkgODEuMjcxNiA0NS41MjE0IDgxLjI3MTYgNDQuNDk2OEM4MS4yNzE2IDQzLjAxNyA4Mi4xODIyIDQxLjcyNjkgODMuNjYyMSA0MC44NTQxQzgxLjk1NDYgMzkuNjAyIDgwLjk2OCAzNy42Mjg4IDgwLjk2OCAzNS41MDM5QzgwLjk2OCAzMS44OTkxIDgzLjgxMzkgMjguNzExOCA4OC4yMTU1IDI4LjcxMThDODkuNTQzNSAyOC43MTE4IDkwLjc1NzggMjkuMDE1MyA5MS43ODIzIDI5LjUwODZIOTguOTUzOVYzMS40ODE3SDk0LjE3MjhDOTUuMDA3NiAzMi42MjAxIDk1LjUwMDkgMzQuMDI0IDk1LjUwMDkgMzUuNTAzOUM5NS41MDA5IDM5LjEwODcgOTIuNjU1IDQyLjI5NiA4OC4yMTU1IDQyLjI5NkM4Ny4wNzcxIDQyLjI5NiA4Ni4wNTI2IDQyLjA2ODQgODUuMTQxOSA0MS43MjY5Qzg0LjAwMzYgNDIuMzcxOSA4My4zOTY1IDQzLjMyMDUgODMuMzk2NSA0NC4xNTUzQzgzLjM5NjUgNDUuMDI4MSA4My44MTM5IDQ1LjcxMTEgODUuMjE3OCA0NS43MTExSDkxLjA2MTNDOTYuMjU5OCA0NS43MTExIDk4LjQyMjcgNDguMTAxNiA5OC40MjI3IDUxLjQwMjhDOTguNDIyNyA1NS4yNzMyIDk0LjQ3NjQgNTguMTE5MSA4OC44NjA1IDU4LjExOTFDODMuNDcyNCA1OC4xMTkxIDc5LjcxNTggNTUuODQyNCA3OS43MTU4IDUyLjE2MTdaTTg4LjI1MzQgNDAuMzk4OEM5MS40Nzg3IDQwLjM5ODggOTMuMjYyMSAzOC4wODQyIDkzLjI2MjEgMzUuNTAzOUM5My4yNjIxIDMyLjg0NzggOTEuNDc4NyAzMC42MDkgODguMjUzNCAzMC42MDlDODQuOTUyMiAzMC42MDkgODMuMTY4OCAzMi44NDc4IDgzLjE2ODggMzUuNTAzOUM4My4xNjg4IDM4LjEyMjEgODQuOTUyMiA0MC4zOTg4IDg4LjI1MzQgNDAuMzk4OFpNODEuOTU0NiA1MS45NzJDODEuOTU0NiA1NC41NTIyIDg0Ljc2MjUgNTYuMTgzOSA4OC44MjI2IDU2LjE4MzlDOTMuMjI0MiA1Ni4xODM5IDk2LjE4MzkgNTQuNDAwNSA5Ni4xODM5IDUxLjUxNjZDOTYuMTgzOSA0OS40Mjk3IDk1LjA0NTYgNDcuNzYwMSA5MC45ODU0IDQ3Ljc2MDFIODQuNjQ4N0M4Mi45MDMyIDQ4LjkzNjQgODEuOTU0NiA1MC4yNjQ1IDgxLjk1NDYgNTEuOTcyWiIvPjxwYXRoIGZpbGw9IiMzNTU4QTIiIGQ9Ik02NS45MjU3IDQ5LjIwMjFDNjIuMDkzMyA0OS4yMDIxIDU5LjQ3NTEgNDcuMDAxMyA1OS40NzUxIDQzLjQ3MjRDNTkuNDc1MSA0MC41ODg2IDYxLjcxMzggMzguNDI1NyA2NS44MTE5IDM3Ljc0MjdMNzEuNjU1NCAzNi43NTYxVjM2LjI2MjhDNzEuNjU1NCAzNC4yNTE4IDcwLjEzNzYgMzIuOTYxNiA2Ny45MzY4IDMyLjk2MTZDNjYuMDc3NSAzMi45NjE2IDY0LjYzNTYgMzMuODM0NCA2My42MTExIDM1LjIzODNMNjAuMDgyMiAzMi41NDQyQzYxLjc4OTcgMzAuMTkxNyA2NC41OTc3IDI4Ljc0OTggNjguMDg4NiAyOC43NDk4QzczLjYyODUgMjguNzQ5OCA3Ni40NzQ0IDMyLjA1MSA3Ni40NzQ0IDM2LjI2MjhWNDguNjMyOUg3MS42NTU0VjQ2Ljc3MzZDNzAuNDQxMiA0OC4yNTM0IDY4LjE2NDUgNDkuMjAyMSA2NS45MjU3IDQ5LjIwMjFaTTY0LjI1NjIgNDMuMjQ0N0M2NC4yNTYyIDQ0LjUzNDggNjUuMjgwNyA0NS4zNjk2IDY2LjkxMjMgNDUuMzY5NkM2OS4xMTMxIDQ1LjM2OTYgNzAuNzA2OCA0NC4zNDUxIDcxLjY1NTQgNDIuODI3M1Y0MC4xMzMyTDY3LjEwMiA0MC44OTIxQzY1LjA5MDkgNDEuMjMzNiA2NC4yNTYyIDQyLjA2ODQgNjQuMjU2MiA0My4yNDQ3WiIvPjxwYXRoIGZpbGw9IiMzNTU4QTIiIGQ9Ik00Ni42NTkzIDQxLjY1MDlWMzMuODM0M0g0My4wOTI1VjI5LjUwODZINDYuNjU5M1YyNC43Mjc1SDUxLjUxNjNWMjkuNTA4Nkg1Ny4zNTk4VjMzLjgzNDNINTEuNTE2M1Y0MS42NTA5QzUxLjUxNjMgNDMuNzc1OSA1Mi42NTQ2IDQ0LjYxMDYgNTQuNTUxOSA0NC42MTA2QzU1Ljg4IDQ0LjYxMDYgNTYuNzUyNyA0NC40NTg5IDU3LjM5NzggNDQuMTkzMlY0OC40MDUxQzU2LjQ0OTEgNDguODIyNSA1NS4zMTA4IDQ5LjAxMjMgNTMuNzE3MSA0OS4wMTIzQzQ4LjkzNiA0OS4wMTIzIDQ2LjY1OTMgNDYuMzE4MiA0Ni42NTkzIDQxLjY1MDlaIi8+PHBhdGggZmlsbD0iIzM1NThBMiIgZD0iTTMwLjUxNjEgNDkuMjAyMUMyNi42ODM2IDQ5LjIwMjEgMjQuMDY1NCA0Ny4wMDEzIDI0LjA2NTQgNDMuNDcyNEMyNC4wNjU0IDQwLjU4ODYgMjYuMzA0MiAzOC40MjU3IDMwLjQwMjIgMzcuNzQyN0wzNi4yNDU3IDM2Ljc1NjFWMzYuMjYyOEMzNi4yNDU3IDM0LjI1MTggMzQuNzI3OSAzMi45NjE2IDMyLjUyNzEgMzIuOTYxNkMzMC42Njc4IDMyLjk2MTYgMjkuMjI1OSAzMy44MzQ0IDI4LjIwMTQgMzUuMjM4M0wyNC42NzI1IDMyLjU0NDJDMjYuMzgwMSAzMC4xOTE3IDI5LjE4OCAyOC43NDk4IDMyLjY3ODkgMjguNzQ5OEMzOC4yMTg5IDI4Ljc0OTggNDEuMDY0NyAzMi4wNTEgNDEuMDY0NyAzNi4yNjI4VjQ4LjYzMjlIMzYuMjQ1N1Y0Ni43NzM2QzM1LjAzMTUgNDguMjUzNCAzMi43NTQ4IDQ5LjIwMjEgMzAuNTE2MSA0OS4yMDIxWk0yOC44NDY1IDQzLjI0NDdDMjguODQ2NSA0NC41MzQ4IDI5Ljg3MSA0NS4zNjk2IDMxLjUwMjYgNDUuMzY5NkMzMy43MDM0IDQ1LjM2OTYgMzUuMjk3MSA0NC4zNDUxIDM2LjI0NTcgNDIuODI3M1Y0MC4xMzMyTDMxLjY5MjQgNDAuODkyMUMyOS42ODEzIDQxLjIzMzYgMjguODQ2NSA0Mi4wNjg0IDI4Ljg0NjUgNDMuMjQ0N1oiLz48cGF0aCBmaWxsPSIjMzU1OEEyIiBkPSJNMCAzOS4wNzA2QzAgMzMuNDkyNyAzLjY4MDY2IDI4Ljc0OTYgOS43MTM4OSAyOC43NDk2QzEyLjI5NDEgMjguNzQ5NiAxNC4xNTM0IDI5LjU0NjUgMTUuNjMzMyAzMS4wMjYzVjIwLjE3NDFIMjAuNDkwMlY0OC42MzI3SDE1LjYzMzNWNDcuMTE1QzE0LjE1MzQgNDguNTk0OCAxMi4yOTQxIDQ5LjM5MTYgOS43MTM4OSA0OS4zOTE2QzMuNjgwNjYgNDkuMzkxNiAwIDQ0LjY0ODUgMCAzOS4wNzA2Wk01LjA0NjY3IDM5LjA3MDZDNS4wNDY2NyA0Mi40MDk4IDcuMTMzNjQgNDQuODM4MyAxMC4zOTY5IDQ0LjgzODNDMTIuNTU5OCA0NC44MzgzIDE0LjM0MzIgNDMuOTI3NiAxNS42MzMzIDQyLjE4MjFWMzUuOTU5MUMxNC4zNDMyIDM0LjIxMzcgMTIuNTU5OCAzMy4zMDMgMTAuMzk2OSAzMy4zMDNDNy4xMzM2NCAzMy4zMDMgNS4wNDY2NyAzNS43MzE1IDUuMDQ2NjcgMzkuMDcwNloiLz48cGF0aCBmaWxsPSIjMzU1OEEyIiBkPSJNMTc5LjAxNyAxMS43NDMxQzE3OS4wMTcgMTEuNzQzMSAxNzkuMDE3IDExLjcyOTcgMTc5LjAxNyAxMS43MjA3QzE3OS4wMDggMTAuOTk0NCAxNzguNjE5IDEwLjMyMTggMTc3Ljk5NCA5Ljk2MzE2TDE3NC44NjQgOC4xNTE4QzE3NC41NzMgNy45ODE0MiAxNzQuMjM4IDcuODkxNzUgMTczLjg5NCA3Ljg4Mjc4QzE3My44NDUgNy44ODI3OCAxNzMuOCA3Ljg4Mjc4IDE3My43NTEgNy44ODcyN0MxNzMuNTA5IDcuOTAwNzIgMTczLjI4MSA3Ljk0NTU1IDE3My4wNjcgOC4wMzA3NEMxNzIuOTgyIDguMDY2NjEgMTcyLjkwMSA4LjEwNjk2IDE3Mi44MjEgOC4xNTE4TDE3MC45MTYgOS4yNTQ3NkwxNjkuNzMxIDkuOTQwNzRDMTY5LjY2IDkuOTgxMDkgMTY5LjU5MyAxMC4wMjU5IDE2OS41MyAxMC4wNzUyQzE2OS41MyAxMC4wNzUyIDE2OS41MDMgMTAuMDkzMiAxNjkuNDk5IDEwLjA5MzJDMTY5LjI0OCAxMC4yNzcgMTY5LjA1MiAxMC41MTQ2IDE2OC45MTMgMTAuNzc5MkMxNjguOTA0IDEwLjc5NzEgMTY4Ljg5MSAxMC44MTUgMTY4Ljg4MiAxMC44MzNDMTY4Ljg3MyAxMC44NTA5IDE2OC44NjQgMTAuODY4OCAxNjguODU5IDEwLjg4NjhDMTY4LjczNCAxMS4xNjAzIDE2OC42NjcgMTEuNDY5NiAxNjguNjY3IDExLjc5NjlWMTUuMjY3MlYxNS4zMjFDMTY4LjY2NyAxNS4zODM4IDE2OC42NzIgMTUuNDUxMSAxNjguNjgxIDE1LjUzMThDMTY4LjY4MSAxNS41NzIxIDE2OC42OSAxNS42MTY5IDE2OC42OTkgMTUuNjY2M0MxNjguNzM0IDE1LjkwODQgMTY4LjgxNSAxNi4xMzcgMTY4LjkyNyAxNi4zNDMzQzE2OS4xMSAxNi42ODQgMTY5LjM4MyAxNi45NjY1IDE2OS43MTggMTcuMTU5M0wxNzIuNzk0IDE4LjkzOTNDMTcyLjkwNiAxOS4wMDIgMTcyLjk5MSAxOS4wNDI0IDE3My4wNzYgMTkuMDc4M0MxNzMuMjkgMTkuMTY3OSAxNzMuNTE4IDE5LjIxNzMgMTczLjc1MSAxOS4yMjYyQzE3My43NiAxOS4yMjYyIDE3My43NjkgMTkuMjI2MiAxNzMuNzc3IDE5LjIyNjJDMTczLjk5NyAxOS4yMzA3IDE3NC4yMiAxOS4yMDgzIDE3NC40MzUgMTkuMTQxQzE3NC41ODIgMTkuMDk2MiAxNzQuNzMgMTkuMDMzNCAxNzQuODY0IDE4Ljk1MjdMMTc3Ljk3MSAxNy4xNTQ4QzE3OC4yODkgMTYuOTcxIDE3OC41NTIgMTYuNzA2NSAxNzguNzM2IDE2LjM4ODFDMTc4LjkxOSAxNi4wNjk4IDE3OS4wMTcgMTUuNzA2NiAxNzkuMDE3IDE1LjM0MzRWMTEuNzQzMVoiLz48cGF0aCBmaWxsPSIjMzU1OEEyIiBkPSJNMTY4LjY2NyAxOC40MDQzVjIyLjgzNzhWMjQuMTE0OEwxNzMuNjAyIDI2Ljk3MjJWMjEuMjYxN0wxNzIuNDUxIDIwLjU5NjVMMTY4LjY2NyAxOC40MDQzWiIvPjxwYXRoIGZpbGw9IiMzNTU4QTIiIGQ9Ik0xNzguMzU5IDkuNjgyNzJDMTc4LjM1OSA5LjY4MjcyIDE3OC40IDkuNzEzOTcgMTc4LjQxOCA5LjcyNzM2QzE3OC40MTggOS43MjczNiAxNzguNDI3IDkuNzMxODMgMTc4LjQzMSA5LjczNjI5QzE3OC40NjIgOS43NTg2MiAxNzguNDk0IDkuNzg1NDEgMTc4LjUyNSA5LjgwNzczQzE3OC41MjUgOS44MDc3MyAxNzguNTMgOS44MTIyIDE3OC41MzQgOS44MTY2NkMxNzguNTM5IDkuODIxMTIgMTc4LjU0OCA5LjgyNTU5IDE3OC41NTIgOS44MzAwNUMxNzguNTg4IDkuODYxMzEgMTc4LjYyOCA5Ljg5MjU2IDE3OC42NiA5LjkyMzgyQzE3OC42NjkgOS45MzI3NSAxNzguNjc4IDkuOTQxNjcgMTc4LjY4NyA5Ljk1MDZDMTc4LjcwOSA5Ljk3MjkzIDE3OC43MzIgOS45OTUyNSAxNzguNzU0IDEwLjAxNzZDMTc4Ljc2MyAxMC4wMjY1IDE3OC43NzIgMTAuMDM1NCAxNzguNzc2IDEwLjAzOTlDMTc4LjgwOCAxMC4wNzU2IDE3OC44MzkgMTAuMTExMyAxNzguODcxIDEwLjE0NzFDMTc4Ljg4OSAxMC4xNjQ5IDE3OC45MDIgMTAuMTg3MiAxNzguOTE1IDEwLjIwNTFDMTc4LjkyNCAxMC4yMTg1IDE3OC45MzggMTAuMjMxOSAxNzguOTQ3IDEwLjI0NTNDMTc4Ljk1NiAxMC4yNTQyIDE3OC45NjUgMTAuMjY3NiAxNzguOTc0IDEwLjI3NjVDMTc5LjAwNSAxMC4zMTY3IDE3OS4wMzIgMTAuMzYxNCAxNzkuMDU5IDEwLjQwNkMxNzkuMDg2IDEwLjQ1MDcgMTc5LjExMyAxMC40OTA4IDE3OS4xNCAxMC41MzU1QzE3OS4xNjcgMTAuNTg0NiAxNzkuMTg5IDEwLjYzMzcgMTc5LjIxNiAxMC42ODI4QzE3OS4yMzggMTAuNzI3NSAxNzkuMjU2IDEwLjc2NzcgMTc5LjI3NCAxMC44MTIzQzE3OS4yOTIgMTAuODUyNSAxNzkuMzA2IDEwLjg5NzEgMTc5LjMxOSAxMC45MzczQzE3OS4zMTkgMTAuOTQ2MyAxNzkuMzI0IDEwLjk1MDcgMTc5LjMyOCAxMC45NTk3QzE3OS4zMjggMTAuOTY4NiAxNzkuMzMzIDEwLjk3NzUgMTc5LjMzNyAxMC45ODJDMTc5LjM1MSAxMS4wMjIyIDE3OS4zNjQgMTEuMDYyMyAxNzkuMzc3IDExLjEwMjVDMTc5LjM5NSAxMS4xNjk1IDE3OS40MDkgMTEuMjM2NSAxNzkuNDE4IDExLjMwNzlDMTc5LjQxOCAxMS4zMDc5IDE3OS40MTggMTEuMzEyNCAxNzkuNDE4IDExLjMxNjhDMTc5LjQxOCAxMS4zMjU4IDE3OS40MjIgMTEuMzM5MiAxNzkuNDIyIDExLjM0ODFDMTc5LjQyMiAxMS4zNzA0IDE3OS40MzEgMTEuMzg4MyAxNzkuNDM2IDExLjQxMDZDMTc5LjQ0OSAxMS41MTMzIDE3OS40NTggMTEuNjIwNCAxNzkuNDU4IDExLjcyNzZWMTUuMTk2OEwxODAuMTQ5IDE1LjU5NDFWOS44ODM2M0wxNzUuMTc5IDcuMDI2MTVWNy44NDMyMUwxNzguMjA3IDkuNTg0NDlDMTc4LjI1NiA5LjYxMTI4IDE3OC4zMDYgOS42NDI1MyAxNzguMzU1IDkuNjc4MjVMMTc4LjM1OSA5LjY4MjcyWiIvPjxwYXRoIGZpbGw9IiMzNTU4QTIiIGQ9Ik0xNjEuOTg0IDcuMDI2MTVWMTIuNzU5NUwxNjYuOTU0IDE1LjYyODRWOS44OTUwNkwxNjEuOTg0IDcuMDI2MTVaIi8+PHBhdGggZmlsbD0iIzM1NThBMiIgZD0iTTE3OC45NjkgMTYuODM0MkMxNzguOTI5IDE2Ljg5MjUgMTc4Ljg4NCAxNi45NDE5IDE3OC44NCAxNi45OTU4QzE3OC44MDkgMTcuMDMxNyAxNzguNzc3IDE3LjA2NzYgMTc4Ljc0NiAxNy4xMDM1QzE3OC42OTcgMTcuMTU3MyAxNzguNjM5IDE3LjIwMjIgMTc4LjU4NiAxNy4yNTE2QzE3OC41NTkgMTcuMjc0IDE3OC41MzIgMTcuMzAwOSAxNzguNTA1IDE3LjMyNzlMMTc5LjM1MiAxNy44MjE1QzE3OS40MTkgMTcuODYxOSAxNzkuNDY0IDE3LjkzMzcgMTc5LjQ2NCAxOC4wMTQ1VjIyLjgwMzJMMTgwLjE1IDIzLjIwMjZWMTcuNDYyNUwxNzkuMDA1IDE2Ljc5MzhDMTc5LjAwNSAxNi43OTM4IDE3OC45ODIgMTYuODIwNyAxNzguOTczIDE2LjgzNDJIMTc4Ljk2OVoiLz48cGF0aCBmaWxsPSIjMzU1OEEyIiBkPSJNMTcyLjc3OSA2LjY0NTkzVjcuNjc3NTFDMTcyLjc3OSA3LjY3NzUxIDE3Mi44MTEgNy42Njg1OCAxNzIuODI4IDcuNjU5NjVDMTcyLjkxNyA3LjYxOTQ2IDE3My4wMTUgNy41ODgyIDE3My4xMDkgNy41NjE0QzE3My4xODUgNy41MzkwOCAxNzMuMjYgNy41MjEyMSAxNzMuMzQxIDcuNTA3ODJDMTczLjQxNiA3LjQ5NDQyIDE3My40ODggNy40ODEwMiAxNzMuNTYzIDcuNDcyMDlDMTczLjU5IDcuNDcyMDkgMTczLjYxMiA3LjQ2MzE2IDE3My42MzkgNy40NTg2OVY2LjExNDUxTDE2OC43MDQgMy4yNTY0NFY0LjE1NDA1TDE3Mi42NjggNi40NDk0NEMxNzIuNzM1IDYuNDg5NjMgMTcyLjc3OSA2LjU2MTA4IDE3Mi43NzkgNi42NDE0NlY2LjY0NTkzWiIvPjxwYXRoIGZpbGw9IiMzNTU4QTIiIGQ9Ik0xNjEuOTg0IDIwLjMxNDFMMTY2Ljk1NCAyMy4xNjg2VjE3LjQ1NTFMMTYxLjk4NCAxNC42MDA2VjIwLjMxNDFaIi8+PHBhdGggZmlsbD0iIzM1NThBMiIgZD0iTTE4NS41MyAyMC4zMTRWMTQuNjAwNUwxODAuNTk0IDE3LjQ1NVYyMy4xNjg1TDE4NS41MyAyMC4zMTRaIi8+PHBhdGggZmlsbD0iIzM1NThBMiIgZD0iTTE3NC4wNDggMjYuOTcyM0wxNzkuMDE4IDI0LjExNDhWMjIuOTEzOFYxOC40MDQzTDE3NC4wNDggMjEuMjYxOFYyNi45NzIzWiIvPjxwYXRoIGZpbGw9IiMzNTU4QTIiIGQ9Ik0xNjcuNCAxNS42Mjg0TDE2OC4yMTUgMTUuMTUzM1YxMS43NTU0QzE2OC4yMTUgMTAuOTc1NCAxNjguNTg1IDEwLjIzMTMgMTY5LjIwOSA5Ljc2MDYxQzE2OS4yMDkgOS43NjA2MSAxNjkuMjE3IDkuNzU2MTMgMTY5LjIyMiA5Ljc1MTY1QzE2OS4yMjIgOS43NTE2NSAxNjkuMjI2IDkuNzUxNjUgMTY5LjIzMSA5Ljc0NzE2QzE2OS4yNCA5Ljc0MjY4IDE2OS4yNDkgOS43MzM3MiAxNjkuMjUzIDkuNzMzNzJDMTY5LjMzMyA5LjY3NTQ0IDE2OS4zOTEgOS42MzUxIDE2OS40NTggOS41OTQ3NUwxNzIuMzM1IDcuOTIyNzJWNy4wMjYxOEwxNjcuNCA5Ljg5NTA5VjE1LjYyODRaIi8+PHBhdGggZmlsbD0iIzM1NThBMiIgZD0iTTE4NS41MyAxMi43NTk1VjcuMDI2MThMMTgwLjU5NCA5Ljg5NTA5VjE1LjYyODRMMTg1LjUzIDEyLjc1OTVaIi8+PHBhdGggZmlsbD0iIzM1NThBMiIgZD0iTTE3NC4xNjkgNy40NjY0NEMxNzQuMjE4IDcuNDcwODkgMTc0LjI2MiA3LjQ4NDI2IDE3NC4zMTEgNy40ODg3MUMxNzQuMzY5IDcuNDk3NjIgMTc0LjQzMSA3LjUxMDk5IDE3NC40ODkgNy41MjQzNUMxNzQuNTQzIDcuNTM3NzIgMTc0LjU5MiA3LjU1NTU0IDE3NC42NDEgNy41NzMzNkMxNzQuNjgxIDcuNTg2NzIgMTc0LjcyMSA3LjU5NTYzIDE3NC43NjEgNy42MDlWNi42MzMzNkMxNzQuNzYxIDYuNTUzMTcgMTc0LjgwNiA2LjQ4MTg5IDE3NC44NzIgNi40NDE3OUwxNzkuMDU1IDQuMDI3MThWMy4yNTY0N0wxNzQuMTIgNi4xMDc2N1Y3LjQ1NzUzQzE3NC4xMiA3LjQ1NzUzIDE3NC4xNTUgNy40NjY0NCAxNzQuMTczIDcuNDY2NDRIMTc0LjE2OVoiLz48cGF0aCBmaWxsPSIjMzU1OEEyIiBkPSJNMTY4LjI2IDE3LjkwMzdDMTY4LjI3MyAxNy44ODE1IDE2OC4yOTYgMTcuODYzNyAxNjguMzE4IDE3Ljg0NTlDMTY4LjMyMyAxNy44NDU5IDE2OC4zMjcgMTcuODM3IDE2OC4zMzIgMTcuODMyNUwxNjkuMTgyIDE3LjM0M0MxNjkuMTgyIDE3LjM0MyAxNjkuMTQ2IDE3LjMwNzQgMTY5LjEyNCAxNy4yODk2QzE2OS4wNTIgMTcuMjI3MyAxNjguOTgxIDE3LjE2NSAxNjguOTE0IDE3LjA5MzdDMTY4Ljg4MiAxNy4wNjI2IDE2OC44NTUgMTcuMDI3IDE2OC44MjkgMTYuOTk1OEMxNjguNzc1IDE2LjkzMzUgMTY4LjcyNiAxNi44NzEyIDE2OC42ODEgMTYuODA0NUMxNjguNjcyIDE2Ljc5MTEgMTY4LjY1OCAxNi43Nzc4IDE2OC42NDUgMTYuNzU5OUwxNjguNjIzIDE2Ljc3MzNMMTY3LjQgMTcuNDc2NVYyMy4xNjg4TDE2OC4yMiAyMi42OTdWMTguMDIzOUMxNjguMjIgMTcuOTg4MyAxNjguMjMzIDE3Ljk1MjcgMTY4LjI0NiAxNy45MjE2QzE2OC4yNDYgMTcuOTEyNyAxNjguMjU1IDE3LjkwODIgMTY4LjI2IDE3Ljg5OTNWMTcuOTAzN1oiLz48cGF0aCBmaWxsPSIjMzU1OEEyIiBkPSJNMTcyLjEzMiA2LjYyOUwxNjcuMTgyIDMuNzY5NTNMMTYyLjIyNyA2LjYyOUwxNjcuMTgyIDkuNDkyOTRMMTcyLjEzMiA2LjYyOVoiLz48cGF0aCBmaWxsPSIjMzU1OEEyIiBkPSJNMTc4Ljg0NyAyLjg2Mzk0TDE3My44NzggMEwxNjguOTA4IDIuODYzOTRMMTczLjg3OCA1LjcyMzQxTDE3OC44NDcgMi44NjM5NFoiLz48cGF0aCBmaWxsPSIjMzU1OEEyIiBkPSJNMTgwLjA0NSA5LjMwMDUyTDE4MC4zNzEgOS40OTI5NEwxODUuMzI2IDYuNjI5TDE4MC4zNzEgMy43Njk1M0wxNzkuMzk2IDQuMzMzMzdMMTc1LjQyMSA2LjYyOUwxNzcuNTE0IDcuODQxN0wxODAuMDQ1IDkuMzAwNTJaIi8+PHBhdGggZmlsbD0iIzM1NThBMiIgZD0iTTE4MC4yNjQgMTYuMTkxN0wxNzkuNDM4IDE1LjcxNThDMTc5LjQzMyAxNS43NDY5IDE3OS40MiAxNS43ODI1IDE3OS40MTUgMTUuODEzNkMxNzkuNDAyIDE1Ljg4OTIgMTc5LjM4NCAxNS45NjQ4IDE3OS4zNjYgMTYuMDM2QzE3OS4zNTMgMTYuMDgwNSAxNzkuMzM1IDE2LjEyNSAxNzkuMzIxIDE2LjE2NUMxNzkuMjk5IDE2LjIzMTcgMTc5LjI3NyAxNi4yOTQgMTc5LjI0NSAxNi4zNjA3QzE3OS4yMzYgMTYuMzc4NSAxNzkuMjMyIDE2LjM5MTggMTc5LjIyOCAxNi40MDk2TDE4MC4zNzYgMTcuMDY3OUwxODUuMzI4IDE0LjIyMTNMMTg0LjYxNyAxMy44MTIxTDE4MC40OTIgMTYuMTgyOEMxODAuNDU3IDE2LjIwMDYgMTgwLjQyMSAxNi4yMTM5IDE4MC4zODEgMTYuMjEzOUMxODAuMzQgMTYuMjEzOSAxODAuMzA1IDE2LjIwNSAxODAuMjY5IDE2LjE4MjhMMTgwLjI2NCAxNi4xOTE3WiIvPjxwYXRoIGZpbGw9IiMzNTU4QTIiIGQ9Ik0xNzUuMDY4IDE5LjMzMjZDMTc0LjkwMiAxOS40MjYgMTc0LjcyMyAxOS41MDE2IDE3NC41NDQgMTkuNTU5NEMxNzQuNDE5IDE5LjU5OTQgMTc0LjI5IDE5LjYyMTcgMTc0LjE2IDE5LjYzOTVDMTc0LjExNSAxOS42NDM5IDE3NC4wNzEgMTkuNjQzOSAxNzQuMDI2IDE5LjY0ODRDMTczLjk1OSAxOS42NTI4IDE3My44OTYgMTkuNjYxNyAxNzMuODI5IDE5LjY2MTdDMTczLjc5MyAxOS42NjE3IDE3My43NTcgMTkuNjYxNyAxNzMuNzIyIDE5LjY2MTdDMTczLjcyMiAxOS42NjE3IDE3My43MTcgMTkuNjYxNyAxNzMuNzEzIDE5LjY2MTdDMTczLjU3IDE5LjY1NzMgMTczLjQzMSAxOS42Mzk1IDE3My4yOTIgMTkuNjA4M0MxNzMuMTU0IDE5LjU3NzIgMTczLjAyIDE5LjUzNzIgMTcyLjg5IDE5LjQ4MzhDMTcyLjc4NyAxOS40MzkzIDE3Mi42ODQgMTkuMzkwNCAxNzIuNTgxIDE5LjMzN0wxNjkuNTg1IDE3LjYxNTdMMTY5LjM0OSAxNy43NTM2TDE2OC44NzUgMTguMDI0OUwxNzMuODI5IDIwLjg3MTVMMTc0LjM2NiAyMC41NjAyTDE3NC44NzEgMjAuMjcxMUwxNzUuODgxIDE5LjY4ODRMMTc4Ljc3OSAxOC4wMjQ5TDE3OC4zMDUgMTcuNzUzNkwxNzguMDY4IDE3LjYxNTdMMTc1LjA3MiAxOS4zMzdMMTc1LjA2OCAxOS4zMzI2WiIvPjxwYXRoIGZpbGw9IiMzNTU4QTIiIGQ9Ik0xNjguMjU2IDE1LjcyNDZDMTY4LjI1NiAxNS42OTM1IDE2OC4yNDcgMTUuNjY2OCAxNjguMjQyIDE1LjYzNTdMMTY3LjI5IDE2LjE4MjhDMTY3LjI1NCAxNi4yMDA2IDE2Ny4yMTggMTYuMjEzOSAxNjcuMTc4IDE2LjIxMzlDMTY3LjEzOCAxNi4yMTM5IDE2Ny4xMDIgMTYuMjA1IDE2Ny4wNjYgMTYuMTgyOEwxNjIuOTM4IDEzLjgxMjFMMTYyLjIyNyAxNC4yMjEzTDE2Ny4xODIgMTcuMDY3OUwxNjguNDMgMTYuMzUxOEMxNjguMzU0IDE2LjE3MzkgMTY4LjI5NiAxNS45NjkzIDE2OC4yNiAxNS43NDI0QzE2OC4yNiAxNS43NDI0IDE2OC4yNiAxNS43MzM1IDE2OC4yNiAxNS43MjkxTDE2OC4yNTYgMTUuNzI0NloiLz48L3N2Zz4=;" parent="1" vertex="1">
          <mxGeometry x="59.409999999999975" y="331.75" width="151.97" height="47.39" as="geometry" />
        </mxCell>
        <mxCell id="fakd-Xu31UxTlEahAAD4-13" value="" style="rounded=0;whiteSpace=wrap;html=1;fillColor=light-dark(#00BFD4,var(--ge-dark-color, #121212));strokeColor=none;" parent="1" vertex="1">
          <mxGeometry x="69.56" y="470" width="110" height="40" as="geometry" />
        </mxCell>
        <mxCell id="fakd-Xu31UxTlEahAAD4-9" value="" style="shape=image;verticalLabelPosition=bottom;labelBackgroundColor=default;verticalAlign=top;aspect=fixed;imageAspect=0;image=data:image/webp,UklGRrAIAABXRUJQVlA4WAoAAAAQAAAAiwAALQAAQUxQSB8FAAAB8MZs2/LG2bZt9kQRajwqY1RmV9wOl2kgcpmtYlRmZgaXUubWTZm5HSi3jsR0NZmrg3bKTRRNFOt0Q7P+OA8fh53m/B8REyDX9eJPNvz1nZQcaHu+dksFefiEpWMAPvxNteVBFY6vxGwBA1eXB1K0gfxWsHxOAJ2do1BwRzhgQnVYO/FZeaCEkhSHb8qDpI5i8Wk4OOIUjwcDY6fcROCwgAh9z4ToLf/PVB144IHbTpwTmBjc8Z/ZA6grSMVtOxcg3DNRBqZNMidm2KMAC3DPvCE9unydE1dPLgkoyEdOy3r5XkrS1+G0fHJJFqYq59JGNjlPmvN4H93rHNjTrXLnnSMOZdvvXGa1fnSrkN360T2qywqxfnSP6jJfDMe28Uemylh6tdftcrXL7h+PAO0nGtrT6YcjT3jgPRHJc0AKyMTzld6YARhPHSYdlskCv2feksKXrwIYbzlWSjgs82pkuU9fq8NnDseNYK6fImktfNiDsWcLQ3wc49em8CLyxxXD/L1Cb5H/Qi116D1B1vsM/GvXa7e7B6z43gNuMAHp3wAW+XYZBrLfL8dfJ10IDKdSA8Aqq1OA0cZUHzAQXmmXeU2Ot3XYUW61CLhM2qIH1laa+g+QYh5wgKQk8P36Um2eRhjYSqr6Baiq2Op9YN5WG+sL8KJSWQtQ3fmzdfMOLmU/OmxpsyHQIElHAieazpCk24EnpNAAjFZL0oem0LaxeZL0PLC5lAT2kKTqmpgkJYAo9o1yftRhF5sY8HAkEolsATxsGCnzbQ80SNVAo/xxk790+sUfesBWVpJK9jn//Swwvc7+WLeLHaI252P9oSEtI7BC2gd4yzAnz9TLvx/GbFdx/tdZzHu8krSOu9U6zLG5zO57uxFIS9OBDw37mPb5HWA41eWyyyqA0cYW329Yt7q9YbduT5szgPpY3pkGb4ovArRLOwApQ40hvBx4/rAKPe7SArw2r0q3+f5nR9RpyZDVPxvbzPRJUmT7KZKBQ33zgXqpxINsme8Rwz7A85L0mul5YLq0LfChJD3uW+zwkVPGa11n0VlmM+Vv8LaXlMBrj5naI1JlO3CGpC+AByVFPUMMeFzS1D5THXCYNAd4S1LFKt8bDsTtojsc0MUf/8+3SNY3AH+ff+jtgLeFifTtN/QAf5dJOgxg0eWJQQxRYDi+VU0XwB7SbUDX88nNgfHareY1Ahx235jD2Ak2s/vHEtNq++j+x/SaXVkD+c+XwfMwjhwp/9OYf8n6Qo2Yh4ETpRPwZ/QF5mHg/JqfHeDpzUzlN+eAv85ev250vPlf4J+r7RSpN609Q6b0zN98f8+XMZwY96U2H/SputuwZJdReEsqbfSNhjduNKR2yMKiijYncm+fd9Ts+HP9mFtn77yIwQ5o3sFB2uL8xPOJEyuVT5Eznnj4jIjy73D103cdENK8WCwqqeTYB5++bbp0WCw2T1LpKY8/feP0kMI1iafvOkA6IBar0fv9TgV8e7N5y0mvaFFRDZPgYZ3FI3fztKsHOT8IQj2Z4kH6hI0frwoCxXonAlytIk8a+rptIrTfVqz6jz9+fnLYKttZvNUjBxRrEj1xvLtYvw3dpeC8a7y7OKuH3g8HSOhpWovRObKkTEEauovl/YXKdfJWqQL2lOxIa64QY+1D4zeGFLjbfs1I018u/U1DdE9XIB/bDb1NywZNuWVNayBzfokCOjTvw2FgpK+3t28EGF10SomCfOq8xKJVWRjMfP3gKesraAEAVlA4IGoDAAAQFQCdASqMAC4APiUMhUKhh9gGAJEsQBCdhuvOvx45SrY/vl+M2YV8W/7L7cu0B5gH6Vf5TqAeYD9ZP9v6wHqA9AD+q/4DrAPQA/WP0sf2x+CP9s/2X9mvMTeqr9M0sB2BBgSoHtmitkV1SteWotJ9njXTJPvD3dDenXqUjY40zGtRiE4F0+CNYE+hO3pMEMPR2jYbdaUgPAPtQ2ZZoYYKPP6Y4HcJVlGbh/wU++bVfYAA/vf/nS/4v4JgHhrj8Jzfl7ryM+n6TdXD/gR3p34D4jezmfBr+5k0VKXUYaP//2wv4+AUiJ9O1L6cRJtIpeX/wq2jM+nIAhvmOv5DG4QhPZZZheuVxIcZsf1ZvpnAqWu4pxJuX1rY6PfBf/AUVLyr3TW5q/F5tcpK+Q1vmKiq930kKLhjDmHYWqCcjDBL+nm0ruwIyjk8zc/CCgtYJQYQBnprGEOc7M5KSHB+NH+fgM+hGqPZbwAKG9MV//9WbYw3ecxdX/FhhI29++bBRKhf/LoEThH9/O1whaVem+Ljsh3ryNtRFqVA2BbG86STEqD8XWPAvMJ0BRKx/eb1PA75UR4eHZ6Fb6xjsGD5vWgdClrhjgjXtG3Hh9fOPFbrdfw/s4wEPvQwHfxpzgshlFNtkeaS0+tFsaQlIWB9G38bssu3GiGGjCa9+1qLUX/lwcRHh/3nnKWduT3kkPU3gVGYK0orSMaK//xfPP/cUN5iWHb0l9dMkggDB1PqbZmzTUUMSQ1KQwVC7f4PfxjtbZ/yrhcOl+LgSN4TuN0OLx/kayOeYVG7JkOA/rHAAn/yksMZBpZFZBISzkN4ygxkY/lq/9cR//Pf//iZsAzXtZvT5b/89X2V4P89+k/RWQFY6rObbPvBv2uRn4psIHyG9h0U9jWUpADXpB+gxXWbp1Bltz36LzrYKAPhimhvwexmDyiSZd7QhIhA0zwbJysFI9NXktRykw/IccP5+AddWTGBw6cpnxMK1zN8Jb0yXZXLq1IKdVsgSVcjVdTvzt6CToIO6B7apnMa5bOkBq7AbwB5KiKK4mBMnHJacJ4t74cAv5msiZgAHF7GsoxyBXIEYPixqh5y8FkL1aWL+r91/pQ6hbZWgjVvHcpUsT2Pm6Xtd6EMdI5U4uRKyfGIZBoX//9pOgOn/qLEAAAA;" parent="1" vertex="1">
          <mxGeometry x="77.45749999999998" y="474.66666666666674" width="93.33333333333333" height="30.666666666666664" as="geometry" />
        </mxCell>
        <mxCell id="ShxSNI-J_DJoyCShoE9Y-4" value="" style="sketch=0;pointerEvents=1;shadow=0;dashed=0;html=1;strokeColor=none;fillColor=#505050;labelPosition=center;verticalLabelPosition=bottom;verticalAlign=top;outlineConnect=0;align=center;shape=mxgraph.office.users.csv_file;" parent="1" vertex="1">
          <mxGeometry x="351" y="246.99999999999997" width="59" height="37" as="geometry" />
        </mxCell>
        <mxCell id="ShxSNI-J_DJoyCShoE9Y-9" value="" style="endArrow=none;dashed=1;html=1;dashPattern=1 3;strokeWidth=2;rounded=0;" parent="1" edge="1">
          <mxGeometry width="50" height="50" relative="1" as="geometry">
            <mxPoint x="310" y="650" as="sourcePoint" />
            <mxPoint x="310" y="80" as="targetPoint" />
          </mxGeometry>
        </mxCell>
        <mxCell id="ShxSNI-J_DJoyCShoE9Y-10" value="" style="shape=image;verticalLabelPosition=bottom;labelBackgroundColor=default;verticalAlign=top;aspect=fixed;imageAspect=0;image=https://upload.wikimedia.org/wikipedia/commons/thumb/c/c3/Python-logo-notext.svg/1200px-Python-logo-notext.svg.png;" parent="1" vertex="1">
          <mxGeometry x="370" y="86.5" width="70" height="70" as="geometry" />
        </mxCell>
        <mxCell id="ShxSNI-J_DJoyCShoE9Y-12" value="Python" style="text;html=1;align=center;verticalAlign=middle;resizable=0;points=[];autosize=1;strokeColor=none;fillColor=none;" parent="1" vertex="1">
          <mxGeometry x="375" y="156.5" width="60" height="30" as="geometry" />
        </mxCell>
        <mxCell id="ShxSNI-J_DJoyCShoE9Y-13" value="" style="endArrow=none;dashed=1;html=1;dashPattern=1 3;strokeWidth=2;rounded=0;" parent="1" edge="1">
          <mxGeometry width="50" height="50" relative="1" as="geometry">
            <mxPoint x="520" y="650" as="sourcePoint" />
            <mxPoint x="520" y="80" as="targetPoint" />
          </mxGeometry>
        </mxCell>
        <mxCell id="ShxSNI-J_DJoyCShoE9Y-14" value="" style="outlineConnect=0;dashed=0;verticalLabelPosition=bottom;verticalAlign=top;align=center;html=1;shape=mxgraph.aws3.postgre_sql_instance;fillColor=#2E73B8;gradientColor=none;" parent="1" vertex="1">
          <mxGeometry x="565" y="93.5" width="60" height="63" as="geometry" />
        </mxCell>
        <mxCell id="ShxSNI-J_DJoyCShoE9Y-16" value="PostgreSQL" style="text;html=1;align=center;verticalAlign=middle;resizable=0;points=[];autosize=1;strokeColor=none;fillColor=none;" parent="1" vertex="1">
          <mxGeometry x="550" y="156.5" width="90" height="30" as="geometry" />
        </mxCell>
        <mxCell id="ShxSNI-J_DJoyCShoE9Y-18" value="Database" style="text;html=1;align=center;verticalAlign=middle;resizable=0;points=[];autosize=1;strokeColor=none;fillColor=none;" parent="1" vertex="1">
          <mxGeometry x="560" y="420" width="70" height="30" as="geometry" />
        </mxCell>
        <mxCell id="ShxSNI-J_DJoyCShoE9Y-21" value="" style="shape=image;verticalLabelPosition=bottom;labelBackgroundColor=default;verticalAlign=top;aspect=fixed;imageAspect=0;editableCssRules=.*;image=data:image/svg+xml,PHN2ZyB4bWxucz0iaHR0cDovL3d3dy53My5vcmcvMjAwMC9zdmciIGZpbGw9Im5vbmUiIHZpZXdCb3g9IjAgMC40MzE2NDEwMTI0MzAxOTEwNCAyMjAgNDMuMTM2NTU4NTMyNzE0ODQ0IiBoZWlnaHQ9IjQzLjEzNjU1ODUzMjcxNDg0NCIgd2lkdGg9IjIyMCI+JiN4YTs8ZyBjbGlwLXBhdGg9InVybCgjY2xpcDBfNDIzNl8zMzEyKSI+JiN4YTs8bWFzayBoZWlnaHQ9IjQ0IiB3aWR0aD0iNDQiIHk9IjAiIHg9IjAiIG1hc2tVbml0cz0idXNlclNwYWNlT25Vc2UiIHN0eWxlPSJtYXNrLXR5cGU6bHVtaW5hbmNlIiBpZD0ibWFzazBfNDIzNl8zMzEyIj4mI3hhOzxwYXRoIGZpbGw9IndoaXRlIiBkPSJNMjYuNDMyMSAzNS43MDc4QzI5LjI2NDcgMzUuNjcxMyAzMS45NTE2IDM1LjI2MTUgMzQuMzI4OSAzNC40NkMzNC45MyAzNC4yNTk2IDM1LjQ5NDcgMzQuMDMxOSAzNi4wNDEyIDMzLjc5NTFDMzUuMzc2MyAzNS40MTYzIDM0LjQxMDkgMzYuNzU1MiAzMy4xNDQ4IDM3Ljc2NjJDMzAuNjQwMSAzOS42MDYxIDI3LjY4OSA0MC44NzIxIDI0LjQ5MiA0MS4zNTQ5QzI1LjI5MzUgMzkuOTcwNCAyNS45NDAyIDM4LjAxMjIgMjYuNDMyMSAzNS43MTY5TTEzLjEwNjcgMzkuNjMzNEMxMy4wNDMgMzkuNTg3OSAxMi45NzkyIDM5LjU0MjMgMTIuOTE1NSAzOS41MDU5QzExLjgwNDMgMzguOTU5NCAxMS4zNDg4IDM2LjQ4MiAxMS45MzE4IDMyLjY4MzlDMTQuMDcyMiAzMy42NDkzIDE2LjQwMzkgMzQuNDA1MyAxOC44NTQgMzQuOTMzNkMyMC43MTIxIDM1LjMzNDMgMjIuNTYxMSAzNS41NzEyIDI0LjM3MzYgMzUuNjcxM0MyMy40OTAxIDM5LjUyNDEgMjIuMzUxNiA0MS41NTUzIDIxLjU5NTYgNDEuNTU1M0MyMS41NTAxIDQxLjU1NTMgMjEuNTA0NSA0MS41NTUzIDIxLjQ1OSA0MS41NzM1QzE4LjQ3MTUgNDEuNTU1MyAxNS42NDc5IDQwLjg2MyAxMy4xMTU4IDM5LjY1MTZNMi43NTk3OSAyNy4zNTU1QzIuNTg2NzQgMjYuNjk5OCAyLjQ3NzQ0IDI2LjAzNDkgMi40NDEgMjUuMzYwOEMzLjEwNTkgMjYuMzE3MiAzLjkyNTY0IDI3LjI0NjIgNC45MDAyMiAyOC4xNDhDNi4zNjY2NSAyOS41MDUxIDguMTA2MzIgMzAuNzE2NSAxMC4wNTU1IDMxLjc1NDhDOS42NTQ3MiAzMy45NzcyIDkuNTQ1NDIgMzUuOTgxIDkuODAwNDUgMzcuNjAyM0M2LjQ1NzczIDM1LjA3MDIgMy45NTI5NyAzMS40OTA3IDIuNzY4OSAyNy4zNTU1TTI3LjY5ODEgMjEuOTYzNUMyNy42OTgxIDIxLjE4MDIgMjcuNjg5IDIwLjM5NjkgMjcuNjYxNyAxOS42MTM2QzMwLjE1NzMgMTkuNDQ5NiAzMi40NzA4IDE4LjgwMjkgMzQuMzY1MyAxNy43MDk5QzM2LjExNDEgMjEuMTgwMiAzNy4wNjE0IDI0LjgzMjYgMzcuMDUyMiAyOC4yODQ2QzM3LjA1MjIgMjkuMjg2NSAzNi45NjEyIDMwLjIzMzcgMzYuODA2MyAzMS4xMzU1QzM1LjkwNDYgMzEuNjkxMSAzNC44NjYzIDMyLjE2NDcgMzMuNzAwNCAzMi41NTYzQzMxLjYzMjkgMzMuMjQ4NiAyOS4yOTIgMzMuNjMxMSAyNi44MjM3IDMzLjY5NDlDMjcuNDE1OCAzMC4xMjQ0IDI3LjcwNzIgMjUuOTg5MyAyNy43MDcyIDIxLjk2MzVNMTkuMjYzOSAzMi45NjYyQzE2Ljc3NzMgMzIuNDM3OSAxNC40Mjc0IDMxLjY0NTUgMTIuMzA1MiAzMC42NDM2QzEzLjAwNjUgMjcuNTAxMyAxNC4yOTk5IDIzLjY5NCAxNi4zNjc1IDE5LjQ2NzhDMTYuNjY4IDE4Ljg1NzYgMTYuOTY4NiAxOC4yNTY0IDE3LjI4NzQgMTcuNjY0NEMxOC43MjY1IDE4LjMxMTEgMjAuMjkzMSAxOC44MjExIDIxLjk0MTcgMTkuMTc2NEMyMy4xODk1IDE5LjQ0MDUgMjQuNDM3NCAxOS41ODYyIDI1LjY2NyAxOS42MzE4QzI1LjY4NTIgMjAuMzg3OCAyNS43MDM0IDIxLjE2MiAyNS43MDM0IDIxLjk2MzVDMjUuNzAzNCAyNi42OTA2IDI1LjMzIDMwLjYwNzIgMjQuNzgzNSAzMy42NzY3QzIyLjk4OTIgMzMuNjAzOCAyMS4xNDAyIDMzLjM2NyAxOS4yODIxIDMyLjk2NjJNNi4yNTczNSAyNi42NzI0QzQuNTU0MTEgMjUuMDk2NyAzLjM3OTE1IDIzLjQyOTkgMi43ODcxMiAyMS43NzIyQzMuMjYwNzQgMTkuOTE0MSA0LjE3MTU3IDE4LjA1NiA1LjUxOTU4IDE2LjI3MDhDNi43OTQ3MyAxNC41NzY3IDguMzg4NjcgMTMuMDU1NiAxMC4yMTAzIDExLjc0NDFDMTAuNzM4NiAxMi42OTEzIDExLjQ3NjQgMTMuNjIwMyAxMi40MTQ1IDE0LjUwMzhDMTMuMzA3MSAxNS4zNDE4IDE0LjM0NTUgMTYuMDk3OCAxNS41MDIyIDE2Ljc2MjdDMTUuMTgzNCAxNy4zNjM4IDE0Ljg3MzcgMTcuOTc0MSAxNC41NzMyIDE4LjYwMjVDMTIuNzk3MSAyMi4yNDU4IDExLjMzOTcgMjYuMTYyNCAxMC40ODM2IDI5LjcxNDZDOC44OTg3MyAyOC44MjIgNy40Nzc4NSAyNy44MDE4IDYuMjY2NDYgMjYuNjgxNU0yNi4zMzE5IDguMDI3OUMyOC42MDg5IDkuNzIyMDMgMzAuNzAzOCAxMS45MTcxIDMyLjQ1MjYgMTQuNDc2NUMzMi43ODA1IDE0Ljk1OTMgMzMuMDk5MyAxNS40NjAyIDMzLjM5MDcgMTUuOTUyMUMzMS43ODc3IDE2Ljg4MTEgMjkuNzY1NyAxNy40Mjc2IDI3LjU3MDYgMTcuNTkxNUMyNy4zODg0IDE0LjEzMDQgMjYuOTc4NiAxMC43OTY4IDI2LjMyMjggOC4wMjc5TTIyLjM1MTYgMTcuMjE4MUMyMC45MDM0IDE2LjkwODQgMTkuNTE4OSAxNi40NjIxIDE4LjI1MjkgMTUuOTA2NUMyMC4xMjAxIDEyLjYzNjcgMjIuMTY5NCA5Ljc4NTc4IDI0LjE5MTQgNy42NzI2OEMyNC44MTk5IDEwLjE1OTIgMjUuMzQ4MiAxMy40OTI4IDI1LjU3NTkgMTcuNjI4QzI0LjUxMDIgMTcuNTgyNCAyMy40MjYzIDE3LjQ1NDkgMjIuMzYwNyAxNy4yMTgxTTEzLjc4MDcgMTMuMDM3NEMxMi45NTE5IDEyLjI2MzIgMTIuMzIzNCAxMS40NTI2IDExLjg5NTMgMTAuNjQyQzEzLjc3MTYgOS41MTI1NCAxNS44NTc0IDguNTkyNjEgMTguMDcwNyA3LjkxODZDMTkuMzkxNCA3LjUyNjk1IDIwLjcyMTIgNy4yMjYzNyAyMi4wNTEgNy4wMjU5OUMyMC4xMjkyIDkuMTc1NTMgMTguMjE2NCAxMS45MTcxIDE2LjQ1ODYgMTUuMDA0OEMxNS40NTY3IDE0LjQyMTkgMTQuNTU0OSAxMy43NjYxIDEzLjc4MDcgMTMuMDQ2NU05LjQ2MzQ0IDYuNjQzNDVDOS40MzYxMiA2Ljc0MzY0IDkuNDA4NzkgNi44NDM4MyA5LjM4MTQ3IDYuOTUzMTNDOS4xODEwOSA3LjkwMDM4IDkuMTk5MyA4Ljg2NTg1IDkuNDQ1MjMgOS44MzEzMkM3LjI4NjU4IDExLjMxNiA1LjQxMDI4IDEzLjA4MyAzLjkxNjU0IDE1LjA1OTRDMy40NjExMiAxNS42NjA2IDMuMDUxMjUgMTYuMjc5OSAyLjY4NjkzIDE2Ljg5OTNDMy43OTgxMyAxMi43OTE1IDYuMjIwOTIgOS4yMjEwNyA5LjQ3MjU1IDYuNjQzNDVNMTEuMzQ4OCA3LjM3MjExQzExLjU2NzQgNi4zMzM3NyAxMi4xOTU5IDUuNDA0NzMgMTMuMTYxNCA0LjYzMDUzQzE1LjUwMjIgMy45MjkyIDE4LjIyNTYgNC4xMDIyNSAyMS4wOTQ2IDUuMTQ5N0MxOS44OTI0IDUuMzU5MTkgMTguNjgxIDUuNjQxNTQgMTcuNDk2OSA1Ljk5Njc2QzE1LjI4MzYgNi42NjE2NiAxMy4xOTc4IDcuNTcyNDkgMTEuMjg1MSA4LjY3NDU4QzExLjIzOTUgOC4yMzczOSAxMS4yNTc4IDcuODAwMTkgMTEuMzQ4OCA3LjM3MjExWk0yNy42MjUyIDQuNzMwNzJDMjguMzE3NSA0LjI4NDQyIDI4Ljk0NTkgMy45NzQ3NCAyOS40NzQyIDMuODU2MzNDMzAuNDg1MiA0LjI1NzA5IDMxLjQ3OCA0Ljc3NjI2IDMyLjQyNTMgNS40MjI5NUMzMC45MDQyIDUuMDQwNCAyOS4yOTIgNC44MTI3IDI3LjYyNTIgNC43MzA3MlpNMjQuMjQ2MSAyLjU4MTE4QzI1LjA1NjcgMi42NzIyNiAyNS45MzExIDIuODA4ODkgMjYuODIzNyAzLjAxODM4QzI2LjI2ODEgMy4zMTg5NSAyNS42ODUyIDMuNjkyMzggMjUuMDkzMiA0LjE0Nzc5QzI0LjgyOSAzLjU1NTc2IDI0LjU0NjcgMy4wMzY1OSAyNC4yNDYxIDIuNTgxMThaTTIyLjA2OTIgMy4zNzM2QzIxLjE1ODQgMy4wMjc0OCAyMC4yNjU4IDIuNzU0MjQgMTkuMzgyMyAyLjU2Mjk2QzIwLjA5MjcgMi40ODA5OSAyMC44MTIzIDIuNDM1NDUgMjEuNTQwOSAyLjQzNTQ1QzIxLjg3OCAyLjQzNTQ1IDIyLjI5NjkgMi44NTQ0MyAyMi43NDMyIDMuNjQ2ODRDMjIuNTI0NiAzLjU1NTc2IDIyLjI5NjkgMy40NTU1NyAyMi4wNzgzIDMuMzczNk0wIDIxLjk5OTlDMCAyNC4wNDkzIDAuMjkxNDYzIDI2LjAzNDkgMC44Mjg4NDggMjcuOTExMUMwLjg2NTI4MSAyOC4wMzg3IDAuODkyNjA2IDI4LjE2NjIgMC45MjkwMzkgMjguMjkzN0MwLjkyOTAzOSAyOC4zMjEgMC45NDcyNTUgMjguMzM5MiAwLjk1NjM2MyAyOC4zNjY2QzMuNjc5NzIgMzcuMTY1MSAxMS44ODYyIDQzLjU3NzMgMjEuNTY4MyA0My41NzczQzI2LjA0OTUgNDMuNTc3MyAzMC4yMTIgNDIuMjAxOSAzMy42NjQgMzkuODYxMUMzMy43MDA0IDM5Ljg0MjkgMzMuNzM2OSAzOS44MjQ3IDMzLjc2NDIgMzkuODA2NUMzMy45NzM3IDM5LjY2OTkgMzQuMTY0OSAzOS41MjQxIDM0LjM1NjIgMzkuMzY5M0MzOC4zMjc0IDM2LjQzNjQgNDEuMjYwMyAzMi4xODI5IDQyLjQ4OTkgMjcuMjU1NEM0Mi41NjI3IDI3LjAyNzYgNDIuNjE3NCAyNi43OTk5IDQyLjY3MiAyNi41NjMxQzQyLjY4MTEgMjYuNTA4NSA0Mi42OTAyIDI2LjQ1MzggNDIuNjkwMiAyNi4zOTkyQzQyLjk4MTcgMjQuOTg3NCA0My4xMzY1IDIzLjUxMTkgNDMuMTM2NSAyMi4wMTgxQzQzLjEzNjUgMTkuMTAzNSA0Mi41NjI3IDE2LjI3OTkgNDEuNDQyNCAxMy42MjAzQzQxLjIyMzggMTMuMTEwMyA0MC42NDA5IDEyLjg3MzUgNDAuMTMwOCAxMy4wODNDMzkuNjIwOCAxMy4zMDE2IDM5LjM4NCAxMy44ODQ1IDM5LjU5MzQgMTQuMzk0NUM0MC42MTM2IDE2LjgwODIgNDEuMTMyNyAxOS4zNjc2IDQxLjEzMjcgMjIuMDA5QzQxLjEzMjcgMjMuNjMwMyA0MC45MzI0IDI1LjE5NjkgNDAuNTU4OSAyNi43MDg5QzQwLjI2NzUgMjcuNjU2MSAzOS43MzkyIDI4LjUzOTYgMzkuMDE5NiAyOS4zMzJDMzkuMDM3OCAyOC45OTUgMzkuMDQ3IDI4LjY0ODkgMzkuMDQ3IDI4LjI5MzdDMzkuMDQ3IDI0LjQ0MDkgMzcuOTkwNCAyMC4zNzg2IDM2LjAxMzkgMTYuNTYyM0MzNy40NjIxIDE1LjMyMzYgMzguMzgyMSAxMy43ODQzIDM4LjcwMDggMTIuMDYyOEMzOC44MDEgMTEuNTE2MyAzOC40NDU4IDEwLjk5NzIgMzcuODk5MyAxMC44OTdDMzcuMzUyOCAxMC43OTY4IDM2LjgzMzcgMTEuMTUyIDM2LjczMzUgMTEuNjk4NUMzNi41MjQgMTIuODM3IDM1LjkzMTkgMTMuODc1NCAzNS4wMTIgMTQuNzU4OUMzNC43MjA1IDE0LjI4NTIgMzQuNDI5MSAxMy44MTE2IDM0LjExMDMgMTMuMzQ3MUMzMi4zNTI0IDEwLjc2OTUgMzAuMjU3NSA4LjUyODg1IDI3Ljk3MTQgNi43NTI3NUMzMC45OTUzIDYuOTUzMTMgMzMuNzkxNSA3LjY4MTc5IDM2LjA0MTIgOC45Mzg3MkMzNi4zOTY1IDkuMTM5MSAzNi44NjEgOS4xMjk5OSAzNy4xODg5IDguODU2NzVDMzcuNjE3IDguNTAxNTIgMzcuNjcxNiA3Ljg3MzA2IDM3LjMxNjQgNy40NDQ5N0MzNC4wODMgMi45MjcyOSAyOC40OTA1IDAuNDMxNjQxIDIxLjU2ODMgMC40MzE2NDFDOS42NzI5MyAwLjQzMTY0MSAwIDEwLjEwNDYgMCAyMS45OTk5WiIvPiYjeGE7PC9tYXNrPiYjeGE7PGcgbWFzaz0idXJsKCNtYXNrMF80MjM2XzMzMTIpIj4mI3hhOzxwYXRoIGZpbGw9InVybCgjcGFpbnQwX3JhZGlhbF80MjM2XzMzMTIpIiBkPSJNNDMuMTM2NSAwLjQzMTY0MUgwVjQzLjU2ODJINDMuMTM2NVYwLjQzMTY0MVoiLz4mI3hhOzwvZz4mI3hhOzxwYXRoIGZpbGw9IiMwMDJGNTQiIGQ9Ik0yMTUuMDU0IDE1LjY5N0MyMTguMjQyIDE1LjY5NyAyMjAgMTcuMjM2MyAyMjAgMjAuMDQxNkMyMjAgMjIuNjgzIDIxOC4yNjkgMjQuMjY3OSAyMTUuMzczIDI0LjI2NzlIMjEzLjM0MlYyOC4zMTE5SDIxMC42NTVWMTUuNjk3SDIxNS4wNTRaTTIxMy4zNDIgMjIuMDYzN0gyMTQuOTQ1QzIxNi41MDIgMjIuMDYzNyAyMTcuMjk1IDIxLjM4MDYgMjE3LjI5NSAyMC4wMzI1QzIxNy4yOTUgMTguNjg0NSAyMTYuNDMgMTcuOTE5NCAyMTQuODYzIDE3LjkxOTRIMjEzLjM0MlYyMi4wNjM3Wk0yMDUuNzA5IDIzLjI1NjhDMjA1LjcwOSAyNS4xMDU4IDIwNC45OTkgMjYuMDA3NSAyMDMuNTQxIDI2LjAwNzVDMjAyLjA4NCAyNi4wMDc1IDIwMS4zMTkgMjUuMDc4NSAyMDEuMzE5IDIzLjI1NjhWMTUuNjk3SDE5OC42MzJWMjMuMDc0N0MxOTguNjMyIDI0Ljg3ODEgMTk5LjA3OCAyNi4yNTM0IDE5OS45NzEgMjcuMTQ2MUMyMDAuOCAyNy45ODQgMjAyLjAwMiAyOC40MDMgMjAzLjU0MSAyOC40MDNDMjA1Ljc1NSAyOC40MDMgMjA4LjM5NiAyNy40NzQgMjA4LjM5NiAyMy4wNjU2VjE1LjY3ODhIMjA1LjcwOVYyMy4yMzg2VjIzLjI1NjhaTTE5MS4zMDkgMTUuNTg3N0MxOTQuMDMyIDE1LjU4NzcgMTk2Ljk0NyAxNy4yNzI3IDE5Ni45NDcgMjIuMDE4MUMxOTYuOTQ3IDI2Ljc2MzUgMTk0LjAzMiAyOC40MTIxIDE5MS4zMDkgMjguNDEyMUMxODguNTg2IDI4LjQxMjEgMTg1LjY1MyAyNi43MzYyIDE4NS42NTMgMjIuMDE4MUMxODUuNjUzIDE3LjMwMDEgMTg4LjU3NyAxNS41ODc3IDE5MS4zMDkgMTUuNTg3N1pNMTkxLjMwOSAyNi4wNjIyQzE5Mi4zNzUgMjYuMDYyMiAxOTQuMTY5IDI1LjUzMzkgMTk0LjE2OSAyMi4wMTgxQzE5NC4xNjkgMTguNTAyNCAxOTIuMzc1IDE3Ljk3NDEgMTkxLjMwOSAxNy45NzQxQzE4OS40NTEgMTcuOTc0MSAxODguNDMxIDE5LjQxMzIgMTg4LjQzMSAyMi4wMTgxQzE4OC40MzEgMjQuNjIzMSAxODkuNDUxIDI2LjA2MjIgMTkxLjMwOSAyNi4wNjIyWk0xODIuODg0IDI0LjQ4NjVDMTgzLjMzIDI1LjM4ODIgMTgzLjcxMyAyNi4xNzE1IDE4NC41OTYgMjYuMTcxNUgxODUuMjM0VjI4LjI0ODJMMTg1LjE0MyAyOC4yNzU1QzE4NS4xNDMgMjguMjc1NSAxODQuNjYgMjguNDAzIDE4My44NCAyOC40MDNDMTgxLjcxOCAyOC40MDMgMTgxLjA3MSAyNi45NDU3IDE4MC40OTggMjUuNjUyM0MxODAuMDI0IDI0LjU5NTggMTc5LjYyMyAyMy42ODQ5IDE3OC41MTIgMjMuNjg0OUgxNzcuMzI4VjI4LjMxMTlIMTc0LjY0MVYxNS42OTdIMTc5LjExM0MxODIuMzgzIDE1LjY5NyAxODMuOTA0IDE2Ljk3MjIgMTgzLjkwNCAxOS43MDQ2QzE4My45MDQgMjEuMzk4OCAxODIuODg0IDIyLjQzNzEgMTgxLjg3MyAyMi44OTI1QzE4Mi4zMTkgMjMuMzI5NyAxODIuNjExIDIzLjkxMjYgMTgyLjg5MyAyNC40ODY1TTE3Ny4zMTkgMjEuNTlIMTc4LjgyMkMxODAuMzE1IDIxLjU5IDE4MS4yNDQgMjAuODk3OCAxODEuMjQ0IDE5Ljc2ODRDMTgxLjI0NCAxOC41OTM0IDE4MC40MzQgMTcuOTE5NCAxNzkuMDIyIDE3LjkxOTRIMTc3LjMyOFYyMS41OUgxNzcuMzE5Wk0xNjcuNDgyIDIzLjY5NEgxNzAuMjUxVjIzLjgzMDdDMTcwLjI1MSAyNC42NTA0IDE2OS45NTkgMjYuMDE2NiAxNjguMDI4IDI2LjAxNjZDMTY2LjIwNyAyNi4wMTY2IDE2NS4xMTQgMjQuNTIyOSAxNjUuMTE0IDIyLjAwOUMxNjUuMTE0IDE5LjQ5NTEgMTY2LjE1MiAxNy45NjUgMTY3Ljk3NCAxNy45NjVDMTcwLjEzMiAxNy45NjUgMTcwLjIxNCAyMC4xNTA5IDE3MC4yMTQgMjAuMjQyVjIwLjM4NzhMMTcyLjcyOCAxOS45OTYxVjE5Ljg4NjhDMTcyLjcyOCAxOC45NzYgMTcxLjkxOCAxNS41Nzg2IDE2Ny45NDYgMTUuNTc4NkMxNjQuMzg1IDE1LjU3ODYgMTYyLjM0NSAxNy45MTk0IDE2Mi4zNDUgMjIuMDA5QzE2Mi4zNDUgMjYuMDk4NiAxNjQuNDQ5IDI4LjQwMyAxNjcuOTgzIDI4LjQwM0MxNzEuNTE3IDI4LjQwMyAxNzIuNzkyIDI1LjkyNTYgMTcyLjc5MiAyMy44MTI0VjIxLjYxNzRIMTY3LjQ5MVYyMy42ODQ5TDE2Ny40ODIgMjMuNjk0Wk0xNTkuNDM5IDE1LjY5N0gxNTYuMjQyTDE1Mi4wNzEgMjEuMzcxNFYxNS42OTdIMTQ5LjM0N1YyOC4zMTE5SDE1Mi4wNzFWMjIuNTFMMTU2LjM1MiAyOC4zMTE5SDE1OS41ODVMMTU0LjcwMyAyMS45NTQ0TDE1OS40MzkgMTUuNzA2MVYxNS42OTdaTTE0NC4yNDcgMjMuNDg0NUwxMzkuODM4IDE1LjY5N0gxMzcuMTE1VjI4LjMxMTlIMTM5LjgwMlYyMC43ODg1TDE0NC4xOTIgMjguMzExOUgxNDYuOTM0VjE1LjY5N0gxNDQuMjQ3VjIzLjQ4NDVaTTEzMS43OTYgMTUuNzc5TDEzNi4zOTYgMjguMzExOUgxMzMuNTk5TDEzMi41MjUgMjUuMjI0MkgxMjguMzI2TDEyNy4yODcgMjguMzExOUgxMjQuNDczTDEyOS4xIDE1LjY5N0gxMzEuNzY5TDEzMS43OTYgMTUuNzc5Wk0xMzAuNDMgMTkuMTMwOEwxMjkuMDYzIDIzLjExMTFIMTMxLjgyM0wxMzAuNDMgMTkuMTMwOFpNMTIxLjk3NyAyMS42NTM4QzEyMi45NDMgMjEuOTM2MiAxMjQuMjE4IDIyLjgxOTcgMTI0LjIxOCAyNC43MTQyQzEyNC4yMTggMjYuOTkxMiAxMjIuNjA2IDI4LjMwMjggMTE5Ljc4MiAyOC4zMDI4SDExNC40NjNWMTUuNjg3OUgxMTkuMjcyQzEyMi4wMDUgMTUuNjg3OSAxMjMuMzg5IDE2LjgyNjQgMTIzLjM4OSAxOS4wNzYyQzEyMy4zODkgMjAuODE1OCAxMjIuNTk3IDIxLjQzNTIgMTIxLjk4NiAyMS42NDQ3TTExOC45ODEgMjAuODUyM0MxMjAuMTAxIDIwLjg1MjMgMTIwLjYyIDIwLjM3ODYgMTIwLjYyIDE5LjM2NzZDMTIwLjYyIDE4LjM1NjYgMTE5Ljk1NSAxNy45MTk0IDExOC42NDQgMTcuOTE5NEgxMTcuMTQxVjIwLjg0MzJIMTE4Ljk3MkwxMTguOTgxIDIwLjg1MjNaTTExNy4xNSAyNi4wODA0SDExOS4yNTRDMTIwLjYyOSAyNi4wODA0IDEyMS4yNjcgMjUuNTYxMiAxMjEuMjY3IDI0LjQ1OTFDMTIxLjI2NyAyMy4xMDIgMTIwLjE0NiAyMi44MTk3IDExOS4xOTkgMjIuODE5N0gxMTcuMTVWMjYuMDgwNFpNMTAzLjM5NiAxNS42OTdDMTA3LjMyMiAxNS42OTcgMTA5LjY2MyAxOC4xMjg5IDEwOS42NjMgMjIuMjE4NUMxMDkuNjYzIDI2LjMwODEgMTA3LjU2OCAyOC4zMTE5IDEwMy45MjUgMjguMzExOUg5OS42NTNWMTUuNjk3SDEwMy4zOTZaTTEwMi4zNCAyNi4wODA0SDEwMy45MDdDMTA1LjgzNyAyNi4wODA0IDEwNi45OTQgMjQuNjIzMSAxMDYuOTk0IDIyLjE4MjFDMTA2Ljk5NCAxOS4zNTg1IDEwNS43NzQgMTcuOTI4NSAxMDMuMzYgMTcuOTI4NUgxMDIuMzRWMjYuMDgwNFpNOTIuOTQwMiAxNS42OTdIOTAuMjUzM1YyOC4zMTE5SDk4LjM5NlYyNi4wODA0SDkyLjk0MDJWMTUuNjk3Wk04Ni42MzczIDI0LjQ4NjVDODcuMDgzNiAyNS4zODgyIDg3LjQ2NjIgMjYuMTcxNSA4OC4zNDk3IDI2LjE3MTVIODguOTg3M1YyOC4yNDgyTDg4Ljg5NjIgMjguMjc1NUM4OC44OTYyIDI4LjI3NTUgODguNDEzNCAyOC40MDMgODcuNTkzNyAyOC40MDNDODUuNDcxNSAyOC40MDMgODQuODI0OCAyNi45NDU3IDg0LjI1MSAyNS42NTIzQzgzLjc3NzQgMjQuNTk1OCA4My4zNzY2IDIzLjY4NDkgODIuMjY1NCAyMy42ODQ5SDgxLjA4MTNWMjguMzExOUg3OC4zOTQ0VjE1LjY5N0g4Mi44NjY1Qzg2LjEyNzMgMTUuNjk3IDg3LjY1NzUgMTYuOTcyMiA4Ny42NTc1IDE5LjcwNDZDODcuNjU3NSAyMS4zOTg4IDg2LjYzNzMgMjIuNDM3MSA4NS42MjYzIDIyLjg5MjVDODYuMDcyNiAyMy4zMjk3IDg2LjM2NDEgMjMuOTEyNiA4Ni42NDY0IDI0LjQ4NjVNODEuMDgxMyAyMS41OUg4Mi41ODQyQzg0LjA3NzkgMjEuNTkgODQuOTk3OSAyMC44OTc4IDg0Ljk5NzkgMTkuNzY4NEM4NC45OTc5IDE4LjU5MzQgODQuMTg3MiAxNy45MTk0IDgyLjc3NTQgMTcuOTE5NEg4MS4wODEzVjIxLjU5Wk03MS4yMjYyIDE1LjU4NzdDNzMuOTQ5NiAxNS41ODc3IDc2Ljg2NDIgMTcuMjcyNyA3Ni44NjQyIDIyLjAxODFDNzYuODY0MiAyNi43NjM1IDczLjk0OTYgMjguNDEyMSA3MS4yMjYyIDI4LjQxMjFDNjguNTAyOSAyOC40MTIxIDY1LjU3OTEgMjYuNzM2MiA2NS41NzkxIDIyLjAxODFDNjUuNTc5MSAxNy4zMDAxIDY4LjUwMjkgMTUuNTg3NyA3MS4yMjYyIDE1LjU4NzdaTTcxLjIyNjIgMjYuMDYyMkM3Mi4yOTE5IDI2LjA2MjIgNzQuMDg2MiAyNS41MzM5IDc0LjA4NjIgMjIuMDE4MUM3NC4wODYyIDE4LjUwMjQgNzIuMjkxOSAxNy45NzQxIDcxLjIyNjIgMTcuOTc0MUM2OS4zNjgxIDE3Ljk3NDEgNjguMzQ4IDE5LjQxMzIgNjguMzQ4IDIyLjAxODFDNjguMzQ4IDI0LjYyMzEgNjkuMzY4MSAyNi4wNjIyIDcxLjIyNjIgMjYuMDYyMlpNNjIuMTU0NCAxNS42OTdINjUuMTg3NUw2MS41NjI0IDI4LjMxMTlINTguNTI5NEw1Ni4zMjUyIDIwLjQwNkw1NC4wOTM3IDI4LjMxMTlINTEuMDYwNkw0Ny40MzU1IDE1LjY5N0g1MC41NTk3TDUyLjY4MTkgMjQuODk2M0w1NS4yMjMxIDE1LjY5N0g1Ny40ODE5TDU5Ljk0MTEgMjQuODk2M0w2Mi4xNDUzIDE1LjY5N0g2Mi4xNTQ0WiIvPiYjeGE7PC9nPiYjeGE7PGRlZnM+JiN4YTs8cmFkaWFsR3JhZGllbnQgZ3JhZGllbnRUcmFuc2Zvcm09InRyYW5zbGF0ZSg0MS4zMjMxIDkuNzYzMTkpIHNjYWxlKDM1Ljk2MDIgMzUuOTYwMikiIGdyYWRpZW50VW5pdHM9InVzZXJTcGFjZU9uVXNlIiByPSIxIiBjeT0iMCIgY3g9IjAiIGlkPSJwYWludDBfcmFkaWFsXzQyMzZfMzMxMiI+JiN4YTs8c3RvcCBzdG9wLWNvbG9yPSJ3aGl0ZSIvPiYjeGE7PHN0b3Agc3RvcC1jb2xvcj0iI0VBRjhGRCIgb2Zmc2V0PSIwLjA2Ii8+JiN4YTs8c3RvcCBzdG9wLWNvbG9yPSIjQjVFN0ZBIiBvZmZzZXQ9IjAuMTgiLz4mI3hhOzxzdG9wIHN0b3AtY29sb3I9IiM2MENDRjUiIG9mZnNldD0iMC4zNiIvPiYjeGE7PHN0b3Agc3RvcC1jb2xvcj0iIzAwQUVFRiIgb2Zmc2V0PSIwLjU0Ii8+JiN4YTs8c3RvcCBzdG9wLWNvbG9yPSIjMDAyRjU0IiBvZmZzZXQ9IjEiLz4mI3hhOzwvcmFkaWFsR3JhZGllbnQ+JiN4YTs8Y2xpcFBhdGggaWQ9ImNsaXAwXzQyMzZfMzMxMiI+JiN4YTs8cmVjdCB0cmFuc2Zvcm09InRyYW5zbGF0ZSgwIDAuNDMxNjQxKSIgZmlsbD0id2hpdGUiIGhlaWdodD0iNDMuMTM2NSIgd2lkdGg9IjIyMCIvPiYjeGE7PC9jbGlwUGF0aD4mI3hhOzwvZGVmcz4mI3hhOzwvc3ZnPg==;" parent="1" vertex="1">
          <mxGeometry x="43.760000000000005" y="608.73" width="160" height="31.27" as="geometry" />
        </mxCell>
        <mxCell id="ShxSNI-J_DJoyCShoE9Y-22" value="" style="endArrow=none;dashed=1;html=1;dashPattern=1 3;strokeWidth=2;rounded=0;" parent="1" edge="1">
          <mxGeometry width="50" height="50" relative="1" as="geometry">
            <mxPoint x="660" y="200" as="sourcePoint" />
            <mxPoint x="260" y="200" as="targetPoint" />
          </mxGeometry>
        </mxCell>
        <mxCell id="ShxSNI-J_DJoyCShoE9Y-25" value="" style="shape=image;verticalLabelPosition=bottom;labelBackgroundColor=default;verticalAlign=top;aspect=fixed;imageAspect=0;image=data:image/png,UklGRqoxAABXRUJQVlA4WAoAAAAQAAAA+QAA5AAAQUxQSLYpAAAB/yckSPD/eGtEpO7hD9u2ZU6z7dtHMzNxD0FChBAI7pTiTkNLcSiW4lYo0OI0WIs7pEhwJ6EEKRICxTUED0GjSEJsZuKy/zEz1zWE55789ywR/Z8A/D+P5b127u6vrJgNzXkVrxtfIZNEPvGqdPuSosIlqxTQ7GLalPEpN1sGeMorVtVvpWXnF+fnF+dnp8UGVKz8P0WO6N21ffuuPw4Pz2lYsaqZdmf1whkTJkwPWXVDV8HyPJRWlvoxPf1TSsnn4z4VK4li56v6frVr16j98KCVpGIFbItzBADru3tR4d4W52xge+//e3VAUuHa/tTRwObOUWmFa+8DewP1tROyipY04qa1gfLCBWVFyLF123Y+JqwunlcaSMNvWZvwate2jUtFpVuOrnCdCfvYfTC6Od7VxOJCnb5fxcSj01L9vBdHAKlCpdHU/7DW2c3Nzc1pUUYLjUalkAHbE2bnrOlUpQLicyW/KK3+mYTQvRH/XrpxN57pL+Lj4+NffOLruzcunT2+b8vLq4FJxfl3alc8FmRPufYh4EjJi5gbF09HHNqzPXSL0dDtuw9FnL54PSau6KzPu5iJn1dVPPY+0Sz94Hcwvl1ANTcHG5VCLjEpV6isHdyqBbSKPVPt7UbFnROyCsfvusUPPtQ6Wpb65nns7asXTp38JyLi6NGIiOMnT164cvvBszcppWd93z0PyV6CCqfnCW1uWsOz8QtXhe45euIJn1y5eVevv3vzykPGRR7b+/fqkEfX6iTnac97Vzxg33B23uq3hwBAio668QqN46VLjhrFkNzvIQWArakrdEsaOaFC2vlDRvZyA6DS642AIipKASxN8YbR+VkZab1QQbWpU69+JWPK6PNKKKOilJCG39YYc69fr65dRUWg0t7zn0eOxqxvXvR2UktQ8bXybD5oXtj5B2/z31Uz5va8KOnZlUPLRnfwta24aGr1X3nhbY7u47Po/SvPpNU25p18fvGO0zFJObr3d8LGNXeugLh2WnLlkz758oZRbWp7qCQYltPcWJ2MSYDaoVrzgYtOvMjJebx9kI+8IuHQef1T/aeLId2qq+A/ff3+YKC3roOx5tkjgJ8PNAQA56bjD7/OTT42zKuCIK09+64+9eiIGhoJgD5PQup0+gHopgsy1lbXF9hW/C0kTX5fMraB0jNo/bPcd6EdrC0/VfudH3MujKuhrjp4e0RP+L0NV8Cwnbavsa66ICjOJFfD2LSYiSMj5kkgdfpuZ4ouerirZafufkKbtKGlFdAnMWxEWnylIZwCo99ofzL2va4LHB/d0TRKexEA1BqOJjsHesBv2r282MkelpuiU6Q+fq4fKv/eDs11RyTb8hpM4DRjzXJGGOutbQ/fD8ewkDMBQIKF3BM+XgangRfzHo1zstDq79K+mlkFQFDJHqn6YnL9w1cdfuQ+qZFGWSONDdC2wbf5K3CksK0BnGNeVwrRtQRg3Sc6/0ZvKwvMZc77T0urwc4esL/6oTZ+Lzv9lz8qP8rsDLh3QMOsccYG6dpgBCchNL+FkR+K16ojijtC7uYmsR76IPdAfUtL0ula/uHGaLnmv/srq2AM56KZNlwOoOuztytn7ByOBlljIL1wQYoBOS0w9uX36JI930C2r2T/wdyjts0PPbu4vh3c539MnmJrUTmHZMX9pMLI0E6djvGMs2f8Izfr6++8AKBq/4l9a6rtuuWsbP1dbOx3rf/Q9rSzr6QCRt+b2yaoSu1P0Q369XZq9rZgaWDzHeOAJify/6lvQal2cp8P0OauP+AQyV+xtGwY/uJgA2vfrlNCLzz6wHydLj9fp8vjh0fn/572nb9NzZEhvzuFcCIAxTEukACNnrUCrBfxmMpywsTCuQDWx9gCaKM/I2uUdcWm6ZTqcr+Bm2590n+Ou7h76ZThfb7r3v27PsOnLN19Me6z/tOt9X19ZRh4rCYAvw/3XQFUSVwKKP7O6gELWn3gczvIwj/UAGB75z+V1Y5QR4nvmMhU/buTC3rVcbWCSCvXOr0WnHynT40c56cBgDqZfwJA18L1wLC8xRJLCv7x192xkrMBWF1eC1g7B+1L1cWs7FFVAbMrqvZYGaNL3RdkD9jfCAFgd5LDUPvNJWdY1gNyV6JF+scuQOerdeA++kbu6/UdHWFSahZDx47rX+feGO2O7v82U1TawMsummOfvoGFLd+o+wHjMj9u/HNPK6fxD/OujakKAGqNxgpVh4xoPuLnSmYBUHXMtbyH453bhR2OzTlTB78UTIfFXfneE2+0Wri8f7Xet/Oi+9oBgDyw1/ShwUMiL+xPZuFEcwF2/aJ0t3q7f9uvlS2afzhha3mhS1aYEkDgQf2tQRoYtWncf/XgH9YlFJBM6yhI4qxB1Sk+ABwHtVi5e2fYU/3BQACOFxLqwQKXhOQHQzMxOXV9D1WnCQ5y1Ph1Us/5HZsi8DHJogkwbauC6lBk47Y/9flm9tBtRakkM2OOpiRP1OCP/J9hWSu9DOAU9fb7ffmRDf7MuJaRfip86gtmZ22pDLtlBaRuuVqApx987/L9x/v77rCklEZLetc/mb8v+PMuKyNeSkup5rlAAzT/mJ8+w87zAg1Lb5exOPLMIOmWMrJgvy0Mbfp+byfVzGt7sZRisxrD9rf00pe+MAw8V9NSmsUtUgDS4OzHHRwWvSowQj4OXbk9rmWjDD5dPmSAr4FkUXHu7S1BSckFFD8dQJfHGcOlAKRbOMtCavs+L8EPUPymPxtQb0VUHo0W32o85PTJQOf9vOKDRvubG9RKYSkfXaUZS7gJAGqe1f+mAPwS8t63tYj8Hz6Zph0Kq4X5e91Q17uX1kjCT67fJ6+ticZJ6wMAmRIApH/ywlZmFZvj3doVdgDgtjc/xApDtdOePPS3gFxOp3d2f7NJHlIQag/A6SoNS3+B212etEf1IDmMS9Azo+iXZlqa9XWN3Re8AcA+tCBEvumNe+f00y6WjPtkD0AdmjcaynNX5+WF2gLAb2VGPtbCHKY1gUBpfw+0GLHyUKM08xTPa3b1RhsAsA3Nm3f1nBKj8kLVgMdkd4tEs507NZhesFgGbCwu2GcPAC1SaFTftmEy7zoIkNuvbwbYN202uNA81P7da8YeNwCw31dQvBGQLS6YDs1O7tBYItNyb+ZObJ9xyAbAHzzvAQC1btHkrmiWToLAwN4TT9pWWn9h3GOa/UXPpt4G8DjPPwDYHMpoPzH3Zu40C6Tpx6OeJz7EPfODvaLqvee1AaDWA5ouYVpiTSEa2+azf40r4RfN+wXGaz+/V1VhD79ncR9OeB792NTiUB5KrYfmaSVDoF7gtzU7CIYrKDTjl6VWQqCY8SqfX/q00hiCsrf6LVBjSElac9RLPaS0NFrnLAZcn120Qet7s/QLJQa9MwRddbeG8GavSbLEQFtKUv+pTFRKYBWVEclC/ax7rWFz8ZkrsDintaWx4UMtoId+ODAv5+N/zgDwQwoFflpfD8KbTpuYwcfLTz7f8pHc88efedzYJUtU2fjptYzA+b+P2fOA4foeQK0PGy0M97iDMmBZqi+k+5nTBQD839B02spGUojcytLio76wXjl1H7lR6rSKmyrdKBHDg9WcjKFLDvdL4Zu6DJAdjHO3LNrrggF55A0NFCf5t8yge5GprFEQLdlPrrcGUG1Ll6cHDkVevc5HbrVeiSl56KbQGJP9zZMKaG5EyoFgfXvLYmpWQ0B95aQcVuc/1oPhLzQ9VyoOnZZPCXSwtVWr6+LbOqtTn5BFQ9V3xbzdMbPqcKkR1Pt43gryk1fUQMOsqZbFlpfuBidkaJi2FobS/aYuVIEZG02asinm2u3lABDg031oIfn2zzdiSo8vanVIYwxr0xpCdsLA/eUWi0IeeV0DKM5ftMKKzw2N1Egwca4azNjsJY2mL2+nggz4rohmTWvcezlMNvy8ElYXzysAzfVIuSWh+u+0HDLpnicOni8Pyo10KSD5Ifroiw4wY+UrNJ0TueTQqMH/0Lwlver/JjMhP/jK0+HJHqkM8tP/qSwJzfVwKWpWm/k5YGBuLxitFk9ytsJ6m78ZmvxLkcUlNMy7XSSGsyRqiQn0yh0Y8HlWtZqQhl/XWBLqaydk6NSvvX7svuduxrCGfB0Au4FqcQ7XKb4kNo/M7nU+XkysMwS6Pd83Vt++XyfITlxTWxLK81FKdF/nGhv7fjNMLiGnA272EN873wzcfInk5hrf/rM3VlijqgKw+f3DWNd13aGMOq+0JCQHY+zQ9orDbBb3MTWwuGD2CGWXP+1Eac7QnLFHSOr3RdRE3URBv3cQ0qeYsx2utIVdzEGJ5SABlidWReDL5lVfvK9hyukaS85bIXj+UIWITnqz5K9NIcmS7yDfb6BLI/UXOvlUElLjfXzV5i8DUTVxBSCxFLpWxuic5nB7/pv03HVrU5hcyt1S1BwqajXNG760jGRRD8DvMVn0W88UXp7rAsHW189Jf3vuhuY5o1G5q6WwY6OktXY4FCfPVX2+HQI91jHWGeJl4WbKHHSbzNtsB+AP8oQ1hupzRkvQw1cAtj+veu6kAsN1rSUbd1gIilOFwyq92QzM/DT44wwh8Fhzxxmw8ZMIQ4iZeHx20pHvVQDg/4Y/AaqZfFkTs0OEzPg4+NNMYPPbSsMKTyksA+trTGkfft8BTdOjc/oLQmDciClbI98NUghzCzdT0Sp/OYzPLB0KoHlS6TQ0XSEV0D87Or0p7O+Ht0/hNWvLwCHmTvzdTVktoTrB3HbCnOY+JMmcEIkgdCsyD7Vh2xarjLhdHweg0tJL/aBsqhHQLpcnVGiRuelu/J0YB8vA6em27mlJxUtV6JmX3UgYMMuAOSHWgmo9N5JbLIbkKhj/5tdqAHp+KwO+7yWgUXZeT6iWFCeldd/21MkycHi4G6Ny+fpcD+WhjEARmlNGmNNUkKTW9P3/hv/Rvvf4GddEvA0wge4uAL6fDGB6dwGBGYeUPc69Zu4o7H7oYBlY3zwulYY8aRn12HFKWoCIplnGuFUtBIBEKYPhT6WCSqdBZJe/pdLWVeQCAtKmOj6OavkkRCo9ftPaMpCfvqKG/4OQpwmek9Jri2iWY6J4pVqYSckaCj7rIGbudIy/XwUCa6dP8kx4GvLAH+orpxWWAbbGu0G5Oo/XbUZmNRLRXGuCBeG7g8ygPCvowzcQO2KB07M7A/09YWNlpFHWSJvrzFuthFv8VliI0zLqAZpWW3PXjMlpK6J9nimSj6uKw4RiIX9AdL1Lta78u6XnQNRqYKRNzpg1uVtbaYB6GdMsha76AQCg+Ss3Lr+PiAafBXGCGawPCYitLE51vNfoyCVVv1ves7eXwdjCuNxlGgAYoO9qKXglrTeAcrqWU0Wojgjbaga0yDS1CGYM6oM/Qmy8H95Y2gSA7z5qpythuD7Jy1JQRD5wlHlJAMmgrC0i0Cpd0ExzuD03dUJtBqddg/18fLx2pvzuCUC9LWuQBJB4yRwfRCosBYzXd8RgTwDyc1fUIuRHhLyvaw7vRFNvqwBSMZKhB+v0boJFj3rAClBfOScH4DkYHfXjYTH6v9+MAZMAYFmKjwiMKRSwS2aOoAJTV2zRoK8YQO0zpzkat+pcpTXgk7oMACYNwOb3NS0H6c5kX+/zAQB+zP1BjHpGgYmyYTDnWprMHQTfqC3iAHgPt66kdq0G9Mr9EUDAeW/f5F1SywHttfOxdYcC8E5eJwaasyaKe5nD9qap1dJWT+JbmEHhd+y6zywVAKxL9gYUO7ZivrY9LEir8HfeLZL6A/KIR85iMKrMWOEYc2gumLhfCUu51VEtblwK9wbvkwNweRQhB/ontfB+F25lObTwRLuc1fIdz/yA4NwegFIqyO+dkdwpdubAbBN/ALs4wEUjqmEcWZC5EAC+yw0G/J7tkK/OaQfPFpbCoivtrTZmtA5IOKBG9Xe7pKjvLkiy2cgNG5j1VxPDIT1+0xli5X2fk2RhNwDS3e+qQ30gIaB1xiar9lcWWQq/MmfvlI/RDrNKV1fCho91IJcKwhQjO2DeEGOXPIEpHSA6WE/D4t4A6nzcgEqrS2c5RH+csjeHv1oKAwrOvdYXc83RuNTjysaZyyA2qNBgoplGFBuktwGghGi3GBot6glgWWZj5fHUuKNrWKx/fa5ggKXQNHt8ldERicXattNzJrU9klRLTLVXJD/UNZPjdZJlCyQw68BiY6kBQK2kI20n5Uxvqy1OjBhdZXx2U0vB9fkeQOEz/P7lx6XP3zzjWokI2RGSe+RmwjKmP5xtA/NuofF9ckjW8dmb56WPL98f7qMA9jx3tRQku155AkDg+icpDTaQn1uLwHIyrzvM7T+irjPMbH2l8GMpybRvgDYZ5IYGKU/WBwKA58tdEksB/fIGGgD1XoQ/5evk8/Yi/iSfuJrtSyp6dqsVTpbOBuzPJ7/m0/AX9WB0YF4/WIzuT06pjKDfffL0hPyZIr7P50XVV2A4qKx0kzUwM3/CafJ+PxhVnXribjlglq6rMbif4DXXA587CHO5zzv2X8mwgnU2QMfPB1yv8YQ7jHfVzYIF6RV/zgaAnTVQMy6xqu/TWB9BmFj6vuZX0nGIWqrwjX3qWzUxriZgbQfA5ly8lyWBifnjADgNdwcmFnyPbhn/OAlSL9YP+jq+bQr4bLj0uRu+L5gIuA93AjA2fyIsSrt/ExsA6PS3F2q8D5NgfF6oRggUC7fLvwbVGC/gD13eeEjC3teA19+dADRI/NfeskCTlPMuAGacD8TOtAaQLyxYoRIC1Rjfr0Eihc/QsyUhcjRI24nA8zMAuJxPaQpLc3huqBpQbY5t0TJrhxzqNQXLNUKgtP4aYPPznqcFq9WQ78hq2SJ2swpQh+YOhyUpt3H1rOSxrnCRAnA4ktB7fW5vwHptwWYHIV9pm7B/9Wusgd769b0TjjgAikWF6zwqebrayC2F4TefvnkbF8eizUH+Vi7hn5Y8eV4LUC/OP1pNhFRd7nzCcxergVrPnyz5FO5i5R+0uYhxcW/fPL053FKon1C4e1XooQtP0nM/XJ7f91zWtbyzHoDil6zbLYXZjNKUs29uZ/2iANzP5l3LOtd3/uUPuelPLhwKXbW7MKG+pYBh+hVSSFQugb2WXk7PfpFfnM8DTgB6vkodoxKCeUHlSjUm9VVPAE4HmF+c/yI7/fLSXoEuKgmkK/TDYDEq1uSNhXF13SmXdCS5zxXVfRpcK9kbIMT/b+9yFLC35FoDn+pw3UuSuktT6qphfGzeGoXlAKfIzN7GAFh3CEsjGTH3TfLS81mf34y3N4XRZ7zNopAYOLgphNiPf/M569zS5DdzI0imhXWwhunemZFOsCS9r7/vbkRlLwWkTcOyybLQxYVFk785mx/9nZUxxfyyi95GZC42xiTeQ7ec2vWNqsmfd58dn9fD2YjVd9H5Z1tOLipcHFpGZoc1lQJSe5WR7u+ve8OyrH0/tZeBU/DKkf4yyLpcJBdPLol2gO3oZ/qIzmqgyrwjWjKmp4H3tWsr2ztIVC03vSkl+S4qnYaFUc0AdZcI/dPRtnCILpm8mLzYRQaZ/8iVwU4GvVLv14alGXjz8ygZAKtO4fH7e1jjp6vPi4u03QE5Ks95ozszYtINGk0Z16uJR61PpO7O/rMZFJ00bsAZ3es5lQGgu7ao+PnVn2DdY398eCcrALJRn28GwvL0OaVb4QIA6j5Xcy4Mif5uZBm3y6FZNU6D6jMfF9F0aXH288M5NHtZ/pOZ1aGUAJBvZ9nI76KHXMi52kcNAC4rdKd8YInWSOSldjIAcBgZm1cc84wJdYCO+bEeANyHRKab+MLpkUPcIR9+oCoA1Engs5jivNiRDgAga3eJiTVgkXbPORiXvbuzAwD4HSHJWYDyMMdAMmU0YNVoZnT6l0qP/r2eDIDVMY43wCySPOIHAA6dd2fHHczpbpFItiVW91mZqI9ZN6DxsKjMzFTecgM65V53guvTRB8A0DQYu/dRVql5SrMe7R3XQO3a+ec+XkA77R1nA7dbTM3MjBrWeMC6GH3iSh+vxG0SS8TrXZgE8B13PKlYm3fvt6Zr8/oBqojSIUCPLE4CFJPqwEbu2GDg4sM3Xn7UFhSXlpWVFhdoP768cXjxwEYuUkh/PrAkNDm+LxT7GWyAfnlrm/52L09bnHR8nC8gCXvnZYmMyA2CofdhPhnlhFpJR1XAdwWX7SFZvzHjmh38btf1PbFzWhd/e7mNe40mHX4Y8NOgPj07NK/laaP28PMAMPVpYyAoI7UR2uuvOxqojibVgtOopzzsDcOg3BEWiDLyoQugDpz+JGdDNUAWlt0ScIwuHQjUOO1zrKg7Ru+SWjf5NT/x/G7bRiHjBnRzQtVGbbs0VkA158Se2/GD4Ze8AwDWcyWUR8qGSIN6AC2zw2SA14acJ9MD1YDLw0il5VE/fSnsZ1/+kHM+SObQqM3ozILQAHhHX3IEpqxHn9I96v29APQo3exaBz/z+ubw5tigC9vzeZlc+W9x+275d617c7lBj5KLKnTNf7zrQl8EhBZkjm7TyEEWdD7nw+XZ9lj6ub7lMSu7BaQ9nvCMD+A7L+pNRlZe4pzKDn6Aw7kecL7/YUiEM4A5HA1gMidDKcdq9nJ+kVgFK9jH6W2cwwAelQGom33BCtYn7wQ7es5JzMvKeBM1zxfwOcMnPaRokT3L4rC7Ga0B4BOmvTfMGbD1adCw41Ht418qAa3PuwJzyt7MASA9lP8tgAWcYGstwUL2tot74IzR/GNg5l9omJlYA0ALfQgAb2ePXx5rj3Zs2MDHFnAedk+70xeAJvqmnaXRXjcJhlZ9b+TFzG3hLANgM6uUT+fUsPOWAHU/ZTcB4Bj7rgqA9bx5ZrsDZnP16jvdgU6FTzYNt4FyH9dZQbX5XnVA4jf7KUtn2QCQObeYG5N3o68VDCfp2lsa697XNAI4DTmbkf3s9PbNu88mPDxWVJS8pY0NID9wRg2gbuZFFSDZnxdUq4kSvzKmZJsUqPX5sjUA+J7VHZsZdiAQNu1Dk4uKjj1MOLt78/bTz3Iyzg5xgvGa79dZGJXiD8pMAKqG47fHMOXB1dxlzV5P3ZKiuzq9npWHPwD8xFAAynPpNQBgEhdE6XsCrs9fehjAsdeMsd84BU6/qkvZMvV1s2W5Vx+kMGb7+IYqmJYdjK9kWQzI6weRXfQjNNbr0l5H2qHGlCs5n8//2sQBwHdnRwBweJTR0dsNGMsZnfQPq0N9JbepEcCm0dRzn3OuTKkBu8jXaeusNSP0XSCyX94Ai0J++IWHmA66PoD9wNGVAcDmm0W3srPubBne0FkjB+C48cyJ6PkSjMyaK1nzbrpEGjzVE5A5Nxy+5U5W9q1F39gAQOVRA+2BProOYjxeHJZbEgEf1kBcXwi3bbyZOm3m04jFQ76t4WqjsfNwBpwCXKD2cFZonL1bDVkc8TRTq+PmxrYQ3lcc1nwIsCR+0bX7YoBvyuF2U3ffSdVqP8Zd+2fHivm/T5086ZffF6zY8c/1uI9abeqd3VPbHU7xhVhztNP9YkFYX7phWw6k+156ALY+rYfM/Tvy+tP84k/pJSXpn4rzn16P/HvukNY+toDHy33ScmB745K15dAiexpEt9X9KAo99YNhUqZxjbpdp96tW/Xq3I5y1chgcpC+J0T/qGsrCtOyW1gCdYODg4OHHS5cOjxY5LAVhZuHBYsc8VvWf8HBwcE/twAAacR1K9mFCzKr6xFSAGjxc3BwcPB/Wb+NCBY5bHPhimHBIocvLTw8LDg4OLju/7ZZ1OVotdqcHK34HK34nBytVqvVcZOB5OA9W0VUlML23kGJwSbqtFqtNidHKz5HKz4nR6vV5ug463/b7M+D23Uo3+17p2wxwK5HDgYOj3bBcEtK7/Ydyne7wZ9n/2+bw3uXL126crW8Xrl06fLt0lAjoXHOBs5xoUZCS29fvnTpytXyeuXSpcv3OOd/W89D4aksunzg0OFyeSAqn5+OHx5uZO0rd3lUlNz91Vojww8f/8T8qAOHy+WhA5eLmBp+qOf/NolE2vBw7r2f7ADJF4d17+t5kS1kEomRvxKqGFRO+MuIRCJrEZl3rbc1JF8csPvpXu7hhlKJ5H+boXrAnbyL/ezxpW16ns59OMIGpv9IqW5QPeUPI4Y2Ix7mnu5pgy9t3+9i3p0BaliILhMe5t2cUF3yJar8fDk3bnolCJ35yU8WFSXz+zRTAFBpelzu5Z+rfAlJ9Qk38h5OcIEF6T76em7Ctp6VJOZx67rxVd7dyVUgfEp6bYPa6VMFAVUm3817tbGrm3kklXpuS8i9PtodFqZd97CE3Jd7Rzd1UwpSuDYKDnuuT9n/gyPEjstsYNAgc5wIwPGH/Sn652HBjVwVgpRuTUfvfZmbENbdDhaoxGvw7jhtdvy5LbOCf+zetVuv4b9vPBOXpXt5YISvDOJHZDc1aJo9QhQg8x1x4KUuK+7Mxt+H9+rWtfuPwbO2nIvP1sbtHuwlgaUqcWs1Yevll5+ydTq9TpeT9upq2JS2HlKYdZCulTQqStpKN8gMAKQebaeEXX2VlqPT6XW6nE8vL2+d0MpNAktX5VazWcegXj07tQjwUMP8HfULFFFRigX6juYxqvYIaNGpZ6+gjs1quqlQgVTvSWt/7lz7tD3qL1BxrRH/3717/8XXQEV8sL64WD8YFXLldnK7smIGn2fPfFBR/+EH/P9TJQYSAYHtvojEiFQmNZNUJjUilYqRyCTGJFJTUplcZgaJ1JRUJpd9AalzYMd+wSOD+7av5SQxi8RAUh5k09bNX7LJX8DYj9+bS/Hrn8t7G2l37MDOrRvXrFi6aOHcOXPmzFu0aOmKNRu37jp4uJGRSUd3bl7916I/5syZu3DJivVb9+72Nea3c/uaJQvmLFy17dA/J45tnfuDl0SY17a/V4TMDVm+affREyfCd4T0ryEzg9R/1L6H6UU0LEp7sOdnP4koyaT18xdvrlMuIkjqGgsYxsQOZpKfIn830qWE5tY1MbKVoj8HGKufTcOSwrzcQpIser2hjqCAzySLdPrc3LwikixJ3tVcjLTltiSy9N35bX/98df2qIQyMiG0uUTMPpL5rcqDZDfJtNoCBpXxRTPzSA+SI40EFRTqMj4kvop78lhLMvPR07jXiR8y9cU5LYysIpkfuXf/kX/O/nfveWK6PrWOsZofSN4c1L1Ni2ZtByy7V0zy7QAh3kkkVzZq2rRp83Z9Zp7MJPlhjFRQtbWfycwDvaupYKiq3u9wNpm2srIwbCGZ1ag8YAvJFD8BfUvIB4FmwU6W9DNSe1iPVg38q1d2d/G4QPKgs4t75eo1G34bNMzbyCKS7/0hkcmVGnv36nVbdXYyVj2R5DaYdJmYSjK9m4DKr0lOgEmrdtdIagcLaXOXLDvXTg6hio4XSd5qJWwVybTAcrGa5NtqInjVxyyhLOxmRKjsBMltED2LZKIXzOn5iuQGU0DQJ5JXHU25PSc5yRTg/4jk02qmeiaRRWucINZlQzH5roegRSRT/crFEpLxHmL4r6c51lHfWlw4yU3ippB86WkWt2ckVwjBYpIFPUw5xorBmFKybLSJDslk6UoVxKvXlpEJbYTMJplQrVzMI/nERcCPxQY84myG5cxqLEp6iOR6cWNJPnU1i1MsyUWCGqSTXGDK7raoGikk90iMeD8gGWEHczpEkrznJeBXki89y8UMkjGOAnoWFReS5A5bcUuYFihKsp/kKnHDST50MovdXZJzBDnGkNxqyvqqKLvbJK9YG8hDSSY3gHkbp5LcKDM1nuQzt3IxmeRtOyElCUtySJauUYn6gym+orCL5Epxg0rJ+/Zmsb5Ocrog9X8kd5hSRYuyOkfynoNBuyySf8LcK0lmtjY1kuRD53IxjuR1a0HxVX7NJ1kcohAzh2+rittJcqm4viXkXTuzaP4jOVmQzU2Sy0wpz4lSGty2AyDfQ/JjPbM1SiO5U2ZiWBl536FcjCJ5RS2k9LmbbEERyfxpUhEzGeduniXifigmHziaRRVFcpwgr7dk6WABp0XZ3SZ5RgmgdirJf5RmszpFMrmmiUGl5B3bcjG8jIwW9sQFVstKSOpGi5jBh87itponqJiMdTLPBZJjBPUvIl96mZKfEOWXTHIFAIwlySkw/wySZSNN9Cshb5WfC1aCHjkBmo1lJDMGCpvKu/biQs3Ts/w4XCDLZkLAcVHDSsi8rgCke0jq236BDnkkd0qEXLX+Oh44ALDbSZIfgkRcty5HD53NojwjQr2ylAx3+AKOl0ieswXgcJdkovcX8E0medvua/uR9+wAwPkISSa0FzKZl9Tl6KmTCanSxlFmQnGK5GhTNXcVk+FVYD7F0lLyU3sA8EkmGePwBZwekkyo/rX1NYFKp0jyRXMB43hBVY4+LJw5a96i5Rt2HP735il3YVMVcpncumrn1W/J9/MdIWqiqUqrC8jMYBg2ziJ5UfUFNP+RzGjwtQ00Ba9oknxYT8h5q3Ik/LmLsKToExGRV1/ns/Tl2oYQbmSeRiGRKBwbTI8h+aSXxEibXJInFV9A+S9JfSsh176KoQLgf4skb/l/HVn/HAuPPBN15Vbsi+Rb7sKKC2j4clmfahBr5PPtyH37Tz3IJEviF3vDeMd8khGyL6A4STKvnZDbtl/DSCGo/4gko72+ioeuUplCaaWxc/Ko7m8lbEWLRfkG9SHeSF5uUXFxkTbp5tbB1WC6bS7Jk/IvoPyXpL6VkDtfxQRBaBFPkqcrfQ2xTjCnkVFQLC0hGe1hpr+atOvYsV1jbzsIbpxF8qLqC6gvk8xs8LVNE4aOSSR5zOUriHEw3xhAs5UkQ1XmmQCz+iaTvO/wBZxiSSZW/9rm8IGjEPzwiST3OpS/u3ZmUZ4xBpdTJAunmGeSeRzuk0yo/gV8k0netv/alvChkyAMzSbJrbb/N6gumIB/DMn07uVHuo+kvs0XaJ9LcpdEyD37chOtErCaj12ESSbmkizboDFTmHmCygPapZJ8UkvMCfNhPEn+8gV+JcnREPLAsVyMInlFLSCUz92EQTa3iGTJSvkoRqvF7SL5l7gfvkAUybFGMDKP5CknYcrTJKeZqc4HkhEKsykjSabWMjGotNyMJXnd2pRkL194iIDVylKSxYvG8z+NKMk+kqvE9S0xm+Y/kpONyVeR5GqFsHMkfzOTfD/J93XMVv8Tyd0yE0PLyFincjGZ5G07U7JwvqosBjY7SDL/oTmkh0luEDe4lIxxMIv1dZLTjMH5X5L5owWpoknONRM65pBcbLa/SGa1hcmRJJ+4losZJGMcTSnP8l01UXCJoFEzyP8h+be4ESRjncxid5fkbBOo/4rk+w5CrK+SXGQuxTaSiXXN1DCZZKjc1HiST8vHXJJPXExZX2WStzhUvWTkqrUo5RmSu8SNNZ9TLMkQUxioI/mghgC72ySXmwt+j0gesTGLXQTJWB+Y/pXkM7dysYRkvIcphxi+9zcDaj8wuGUjSh1N8rBU1BSSD83j9ozkcgGy5SR53NGUYyzJDWZD51SyZKnSDFYrSsnkDhA4m2R8pXKxmuTbaqbc4/gp0Bxo+cY8NtdJnpCLmkXyqatZPF+R3CAALlEkuVJhwvUZye3mw4+pZOEye1GOq4vI5O8hdFH52UIyxddU9URmNjALgj6Rt2xF2d8nec5K1CKSce4GUpnCysbZq1EVY9UTSW4XgubJJPPHmqj8iuR+ifnQMZYsPfWNTJCs9b9l5L12ELyK5EsjEplCZefq3biOxDyS3STTapuqk05tc/PgZx3v2YtyeULyikbUKpI5h8LCwnYfOHoy6sbjhIxBxmp+IHlAIgQTikh+6mbMO4lkhOwLwHtzFpm+K8hTYURZ5fu9GWTGBi8I30xSezgsLGzn/iMnL956lqRdBfPKIkhqG5tqXcCiDmaSzimLcRDl+ZZkjJ2ovym+v7F62SQj5YI0B0nyZWMjAZ9JXlB+Ccja7nlPFr08teGPWSGbzrwuJlPCvpVB5F6KX2au30OXrtoWYKrplj83NTETVKExjqLcNqxbsnGZraipkQfCNq9dvmxxyJJlK9Zt2XnwRFdjNbatWrJljkIQau0O/XPp5slWBtX/Xr1k8wKrLwLIAicefZZVSsOSzCeHxteSQaxkZuSBHZvXLl+2JGTxsuVrN+/Yf2KqmSAFIJGYkgKQmAsuQWpREikAqUSUXC6BcKlcZkwiASCFSCkAyCUGEikAKb683K1B9yFjx439qVt9VxnMKZdLIFwik5vr/3ELVlA4IM4HAADQMACdASr6AOUAPpFEm0ilpCKhKnVamLASCU3cLV3Cn8A/ABigPwAZ4B+AF3G7Z+O7Sq43pf7N6V1b/339f8vHM31T5u3Ofne/nP7Ge4n9JewN+vfnVeoXzAfuj6v//U/a/3if4r1AP9V/gPW7/5vs2egB+zPp3+z1/fvWC09XwB/APwA+v3v8Nl2L8+xYYzo8kzFKju2Kd1rWL5a7+SW0F4pUd2xTGIV4+A5JAKtvi1swLxSogxlakotlke4X/fQaRTQC7otZ/gB1+IAydzAvE86MJvs6mP8SfOuxfkeqGYAGPb+OW/obA41Tvln2UGtPQml2u9YiB5S5mKJ1wT22RkBW2IWDHijkOldMca9XtWGPqMv1wxSzYiBseKOQ6VjpyRG42Biq2C1SYj30GXTo/Wq1w4E2KUuu6oecrNhHzDtsXD3aFhSPPciUJp4F7N3qyDceBz9vjqLlylwUBMbRZQgCfJBl11pI5zlctZWCezrMwz8QuPYRKvr/ANBOJ1PKXK3O0glI1dypboApxEAA/W0p2cT//51ilc12Tk7vwVtUizi43nq7IAHavlKjVDLJxKW4WhnpSIz8xejSkUn07lzbS8AbwP1Ix0NAPhsrZ4sSg1sTk2ebdSK72OrcMoqOulzBGGAKR6wwQ/+TK2mdn97eMacMRCvHStA+Txj/Wb886qMJo8oq2wjEdW1tQEESoH8Mf+aMrMat/2agNe7l0vV0eou4XW8IIbMVYEcgsTg0PXlaTQSbsW2xdG88gewB02b//6Z/je8ZCtMMKiWp7zW1dRNnSWmSiic3Lq5+bxcwqBWoepi2rUHZmX0Fr9wFMsI7+qut2nIKOmG8wrFwjT6hKRCSNoR1oEKPp9U3YLwDck5dDnCNYaWy0yMdKKVRZgEqx2IajvBnONb9ZGx1Id5Zswj4XqJS/MKdQJJROKH+v42HMPAXA0K9MF1W+PILKtbE1AJdIgr6Kup4+JM9Cfok9UFnSt9F28ylj49cLSfEOc86UiFLxFzSPelykUlqDJrzPWaW4/IGmW0AgO+BzrTX1ffzJMzSkpJrI8wVrE8LNqXvHuNbS0kFbA5Q5Dt3xJoCm1XI0RffAOCTz5ZMz3ZtCqNcvzwCOaXKG4T2p+TvEH2FO7tQXKnnn5xmN4PU0Px1JfhURo6sypDKb26BsQ2R6ROQqw5Aq4ZgrbXKqzvJ1Z3PjgdZ8qRLx6FxLM9kVs3GEUSVG8RAjem7fMbmY4TRT4SZkYdj/Ti5eaisaPKDwvoFCBRx0ahbH2NGwBQ/fGNwaj6ZBniUrENde7s0XCdQwwLHMRRlgZQhQ0NcViQGAtzwiYLXw3/+YnUHNoKeqmjlB8q3neSb4Z4Lk9OxSX6Moe/LDGtyOqshX40Djd5/NZMOidkJa1KyQcaZBHjr7NmooWic99+jCy1uLyS04i5RA6Y2neD4IFRqrqVd4I9aFe7ZXBRapyu/coeoSudA4Uc7nPXKoaZ38fOYvnrlUNM79uGbcLJNZ/3ZSwBoWLALJJgARl56yb7T8tWny85clH8hiA82ArHWkm9f3uHixHR9jasxKYmbeKkzgBzdLGZaymkZyAHJcUs4v3tvvzaY8aNW7TQwHZ+j0Tq8sUZnW+0WKybXuBhEhtBhEPH0vNQ3M6yzvAqUmhwFNtUKFszVkAuKvtvVCsA3lLOnEWUcN1Ywybm0hVt+AyXI9aXI33vzYsImWL6npmDtoQQ7H2p/8wTWS4BA5pSLt1fkcm41b9MvNrKJNuXh07q8kGSlTZxyU79v+Lm2ITTUjWlqPuGszRAO8faajDZzlOFHDhHUBzHsqYxlg2zTUNWtymWC/UVZ752GZWYlnElDZVYFAYgnh8cmL2mj3IQkZdLGjTH4dEe0ryVIrOGaiiKTY6d/PM5z9W3Zej3HBq6R5v0j0pxV2HWJShMKsTGAut6f5PHfVM3uroHqPpVqpL5eIFmkpVrRJ5/JHwhj8vZDeTolMnjzinZ2W8/6zfnXhcD94pVPoaeLFpn0TV6upbIhEK0uPNPzNYhAOdXqMMjUoagEijC5mPATu7dy90jJ9QkE86bAuadt0DS+Q96MV0d/ENjrIK+6YSFA5DzWQiv7sSeYOPnXt/6Y7CMmQ6hyERN+A94JwGl/RwTn+Pm9tmSWVswiBn2+MFF3nDgeMgeRGJ3Jg5TPec+K0K3Ee/1nzjVKIYMNs0/Ra4c7lSC9oWejuhgHaPNdg7A6Nv8xwZZUoPtvFAvp76XSCIiXvkfC1/VO6jqGU6X9r3no/8fktfPexlgnn7I07gpHXGOuI5cehlm3HSPwdp/DxG3QBTBmeStBQqDsPj3e0UkBi8N4S+id4kpGJ7Nwp//C/uSsyKf10ySqakn8mP3PDaJ6IjU8G2qPRmlJTNqCrW55lTo6zsHFlOSpVmdEQJ6xOxHlIxln45LE7+S1dnjMOkJECtlw5eZLveTW2ofLr4TVtZOEvUgQOcEeUV6EENQQR6ZFGV65jfsXQuDteABPz/BGFMdEHZsNEVcUV+LmkfjVOSnkqtPxBVmHu6sZUlGgmv2qJekz7bKHX2aW0kVIWx+kqfCtAR15UeFwht636nRv/8T8IXncX683nAEyDCvasF5UKWm6vleQBTafeyFllsMqANwKXoSBDhSRqR6DCgAAAAAPqQAAAAA=;" parent="1" vertex="1">
          <mxGeometry x="89.02000000000001" y="70" width="70" height="64.12" as="geometry" />
        </mxCell>
        <mxCell id="ShxSNI-J_DJoyCShoE9Y-26" value="" style="shape=image;verticalLabelPosition=bottom;labelBackgroundColor=default;verticalAlign=top;aspect=fixed;imageAspect=0;image=https://upload.wikimedia.org/wikipedia/commons/thumb/0/0f/Statista_logo.svg/960px-Statista_logo.svg.png;" parent="1" vertex="1">
          <mxGeometry x="54.02" y="139.99999999999997" width="140" height="28.73" as="geometry" />
        </mxCell>
      </root>
    </mxGraphModel>
  </diagram>
</mxfile>
